# Blender v2.82 (sub 7) OBJ File: ''
# www.blender.org
mtllib sim_sea_2-5_l_hip_2_prt.mtl
o sim_sea_2-5_l_hip_2_prt
v 47.471233 -207.405869 -43.697937
v 48.820309 -203.593826 -47.967060
v 47.879997 -208.449234 -48.642727
v 47.336311 -209.148102 -43.742279
v 48.884884 -203.723434 -39.882473
v 47.779049 -208.170776 -39.040520
v 47.971214 -214.205185 -47.990868
v 47.638283 -215.825684 -43.913189
v 49.176868 -214.021362 -52.170242
v 48.005318 -214.481995 -39.842648
v 50.298466 -201.827667 -30.539318
v 50.355209 -201.634872 -57.046623
v 51.056557 -207.061310 -57.673084
v 50.865665 -200.695908 -30.556429
v 50.397263 -201.517303 -61.745529
v 50.937710 -200.644318 -57.120682
v 51.453674 -198.717484 -62.111954
v 51.731945 -204.902328 -77.189171
v 50.379139 -194.795486 -65.895775
v 52.266315 -195.245743 -64.080025
v 88.799217 -200.045822 -30.559940
v 89.146317 -200.168289 -56.909912
v 54.462337 -195.778900 -61.819824
v 89.686119 -201.449356 -25.799423
v 90.138000 -201.758514 -56.884331
v 88.771248 -198.489227 -62.136314
v 85.694168 -195.732422 -61.817867
v 89.789719 -201.558289 -30.441143
v 91.228065 -203.091446 -50.269054
v 91.456886 -207.748795 -52.453350
v 89.067825 -207.019257 -57.745712
v 89.891785 -201.455383 -62.254440
v 90.968361 -202.984619 -36.930225
v 91.550453 -203.544586 -47.236549
v 92.702301 -208.160995 -47.352535
v 91.434746 -203.531509 -40.213440
v 92.898788 -206.668900 -43.994900
v 92.743149 -208.148788 -40.049530
v 91.499863 -207.976791 -35.008503
v 89.921501 -207.524979 -30.105297
v 88.614281 -206.499115 -25.127901
v 88.746300 -198.452087 -25.442360
v 88.470184 -206.022217 -10.242561
v 89.032150 -194.585953 -21.312361
v 89.518372 -194.797272 -20.212860
v 85.600479 -195.606644 -25.620317
v 87.274094 -195.530548 -23.784266
v 51.476803 -198.336716 -25.243254
v 52.615845 -195.119568 -23.843220
v 54.813446 -195.792007 -25.710270
v 50.662704 -207.710999 -27.772396
v 50.644897 -200.823608 -25.222166
v 51.516319 -220.481506 -56.085564
v 51.362343 -225.177216 -53.524353
v 49.792385 -224.631714 -47.689640
v 51.435009 -225.692245 -41.590088
v 54.020199 -226.519730 -59.261429
v 53.801693 -213.521240 -59.794109
v 49.695572 -224.680084 -41.186913
v 49.104786 -213.707199 -35.379047
v 53.962307 -225.801865 -28.969746
v 51.388729 -224.805206 -34.492310
v 50.705006 -213.594391 -31.778528
v 53.436565 -221.829208 -29.047485
v 51.855579 -213.446335 -29.911957
v 50.528610 -212.995132 -55.423958
v 53.808727 -213.387619 -27.403872
v 51.256065 -208.059753 -58.276848
v 51.324425 -208.466629 -27.780382
v 51.595493 -208.139954 -24.043730
v 51.983932 -207.359833 -62.097107
v 52.183338 -205.153030 -77.588333
v 51.560024 -206.253983 -9.909187
v 51.524155 -192.849213 -78.523155
v 50.201035 -191.695084 -67.016754
v 50.963039 -192.775497 -77.715706
v 50.720573 -185.419479 -70.660683
v 51.567093 -185.870346 -75.660347
v 51.546799 -167.022644 -74.458549
v 51.832539 -166.981216 -76.037201
v 51.549877 -171.794128 -74.375061
v 51.476612 -178.479965 -72.368797
v 53.157745 -161.160446 -80.623711
v 51.008804 -161.426041 -76.836472
v 50.993389 -162.172729 -74.527824
v 52.392387 -171.698013 -76.472298
v 52.211735 -167.191055 -76.990410
v 51.832924 -156.652802 -80.195129
v 50.417961 -150.463272 -76.517685
v 50.165627 -150.373047 -71.893555
v 50.411236 -156.110291 -71.734856
v 51.670628 -161.701416 -72.023323
v 51.821114 -161.214386 -71.478943
v 51.807388 -167.079208 -73.662125
v 52.085766 -172.307434 -73.359535
v 60.434814 -180.842285 -70.098900
v 60.173615 -176.251541 -70.353630
v 89.799728 -191.624268 -66.717720
v 65.293114 -185.137589 -69.575211
v 64.818604 -180.907227 -69.632149
v 50.782776 -192.534195 -66.342613
v 54.844051 -194.517685 -63.137806
v 89.241943 -192.527252 -65.780724
v 85.385818 -194.468521 -63.063705
v 55.642239 -208.470535 -67.191544
v 54.559437 -209.567474 -63.615334
v 57.880035 -213.429031 -63.486774
v 87.698875 -205.330292 -77.773651
v 60.249317 -208.914032 -67.643585
v 64.928596 -209.256241 -68.119705
v 61.460091 -213.821213 -65.133545
v 69.610580 -209.435181 -68.469818
v 65.607079 -213.767014 -66.916382
v 74.277130 -209.501968 -68.404213
v 69.888008 -213.352463 -68.483864
v 78.979828 -209.263229 -67.902420
v 73.797958 -213.751434 -67.252571
v 83.555229 -208.533401 -67.023750
v 78.287460 -213.549255 -65.359787
v 87.527596 -207.835602 -62.289654
v 84.629547 -210.142502 -63.609924
v 81.594620 -213.477005 -63.724464
v 88.523811 -208.890213 -58.626678
v 88.340721 -204.952332 -77.266853
v 83.754211 -213.460190 -62.171432
v 86.088593 -213.633484 -59.958721
v 88.563614 -213.748093 -57.060089
v 69.215019 -200.569061 -80.248352
v 50.057602 -162.726654 -8.148292
v 50.605221 -193.748840 -22.026814
v 52.036156 -206.279266 -9.394938
v 50.140633 -155.413635 -7.415565
v 87.640579 -207.656097 -20.476728
v 87.954269 -206.279709 -9.210059
v 74.291824 -207.263397 -16.508652
v 69.771614 -207.641418 -16.241272
v 64.972519 -209.308151 -19.540415
v 60.308071 -209.286240 -19.770826
v 55.579678 -208.853912 -20.188110
v 55.003361 -209.507141 -23.836523
v 89.175430 -159.835587 -8.283797
v 87.727173 -208.229507 -24.962626
v 89.120476 -209.112015 -28.982830
v 84.910889 -210.020096 -23.728582
v 83.780487 -213.370087 -25.039814
v 88.351509 -213.310303 -29.853125
v 83.398895 -208.432968 -20.373133
v 78.948936 -209.144302 -19.752314
v 78.306824 -213.750977 -22.465469
v 74.389130 -209.528030 -19.289810
v 74.271378 -213.630539 -21.494720
v 69.710678 -210.130905 -19.507080
v 69.575676 -214.540497 -21.342829
v 61.268978 -213.815414 -22.918854
v 65.362289 -214.351578 -21.856564
v 58.132957 -213.497177 -24.266966
v 56.220917 -213.425217 -25.522053
v 50.907822 -187.483734 -18.088394
v 50.677948 -191.915344 -21.276697
v 88.989639 -189.033493 -14.579659
v 89.566315 -192.615982 -19.907469
v 51.535412 -167.024658 -12.568631
v 52.297863 -167.129501 -13.156365
v 79.229149 -176.614609 -14.639066
v 71.854279 -176.494003 -15.367159
v 60.478771 -176.075363 -15.567658
v 55.969212 -175.834885 -15.565827
v 55.818443 -171.783920 -14.935979
v 52.206757 -171.235962 -14.177958
v 50.903526 -162.045822 -13.462289
v 52.135174 -162.172363 -15.012190
v 49.911179 -157.182526 -8.595709
v 50.813984 -156.729370 -15.455061
v 66.668701 -185.658218 -78.460678
v 88.095917 -192.899673 -78.564461
v 55.034679 -194.576523 -24.464520
v 88.340637 -142.718704 -7.928904
v 89.364105 -194.661057 -65.538177
v 69.827316 -185.100693 -69.295715
v 74.422211 -185.046936 -69.116600
v 88.892517 -185.709457 -71.395203
v 88.822403 -185.854095 -75.756668
v 89.016457 -192.820923 -77.416176
v 90.099640 -198.924347 -66.769997
v 85.182083 -194.648056 -24.152792
v 87.489944 -171.430801 -14.037702
v 88.847900 -166.755981 -13.349170
v 55.611057 -176.430466 -77.359306
v 70.416824 -178.087082 -68.762840
v 71.626869 -178.682114 -68.866318
v 88.447350 -178.592392 -72.248840
v 78.820465 -180.789352 -70.084496
v 88.125114 -162.496078 -76.582771
v 88.405685 -171.801666 -74.371368
v 87.736816 -167.118301 -14.379831
v 86.124062 -165.313126 -15.896103
v 88.417458 -160.787842 -15.355190
v 89.041489 -162.277069 -13.329265
v 83.588799 -171.907532 -14.967270
v 82.306221 -169.261978 -16.275745
v 78.243629 -171.628494 -16.459650
v 76.843910 -167.781082 -18.378138
v 73.917694 -172.244766 -16.665154
v 69.788567 -170.708771 -17.242256
v 66.053726 -172.681107 -16.695051
v 59.954887 -171.223618 -16.545511
v 63.239033 -167.880539 -18.337566
v 57.397827 -168.872559 -16.326256
v 53.992863 -164.901108 -15.521462
v 56.999989 -165.541214 -16.913677
v 70.066460 -176.653885 -78.869484
v 60.741497 -176.674179 -78.301460
v 72.463097 -171.455063 -81.427879
v 65.358727 -170.758041 -81.106392
v 61.289062 -169.452652 -81.019936
v 55.363232 -172.122513 -78.259117
v 56.408718 -166.164856 -81.033531
v 59.127213 -166.674622 -81.674927
v 55.433640 -163.220139 -82.041977
v 54.555309 -174.640930 -71.651634
v 64.758850 -171.568665 -69.973770
v 53.936703 -164.522736 -71.191124
v 85.768990 -164.909348 -71.223495
v 88.105278 -161.117386 -71.509949
v 89.736542 -156.408371 -71.638474
v 90.264046 -150.359009 -71.638405
v 51.436543 -143.839615 -71.604324
v 88.737656 -144.367081 -71.711975
v 86.414444 -140.036072 -71.715729
v 54.257809 -139.809830 -71.837265
v 58.917465 -135.823181 -72.006111
v 80.779678 -135.888260 -72.233299
v 62.413765 -134.527344 -72.343666
v 76.970535 -134.537033 -72.573105
v 65.968117 -133.856262 -72.654129
v 73.389191 -133.830429 -72.779617
v 69.886497 -133.599487 -72.821526
v 88.582420 -162.430252 -74.564308
v 88.169182 -161.897736 -72.052185
v 87.902573 -166.960510 -73.410965
v 79.125153 -171.686386 -70.491615
v 84.968224 -173.754486 -71.505768
v 87.829628 -171.549332 -73.362885
v 74.392067 -171.526733 -70.121750
v 69.574562 -171.514954 -69.989372
v 79.173393 -176.273849 -70.221359
v 87.428932 -176.081345 -72.208115
v 69.669258 -176.487640 -68.950348
v 68.185036 -177.003342 -69.084465
v 52.748608 -157.066376 -81.242729
v 54.080570 -158.076675 -18.729074
v 51.673695 -150.847961 -79.724335
v 49.809002 -152.870270 -8.883262
v 50.685448 -151.260040 -15.609091
v 52.098782 -152.924408 -17.037378
v 54.519360 -158.456787 -18.750164
v 52.557568 -150.779526 -80.558449
v 53.834957 -145.353043 -80.706207
v 50.011826 -148.458801 -8.922167
v 54.153751 -144.839767 -18.389692
v 54.861183 -146.054245 -18.805447
v 55.649437 -152.809708 -18.550049
v 51.800362 -144.491333 -76.094345
v 51.623520 -144.486603 -15.538959
v 50.643978 -144.069855 -8.691876
v 50.756069 -143.218536 -7.977501
v 54.474636 -139.801544 -76.232513
v 55.392784 -141.822800 -80.568855
v 59.077721 -136.729279 -81.708504
v 53.819489 -140.518311 -15.699109
v 56.158813 -139.165298 -17.024254
v 55.363461 -144.204666 -18.671616
v 53.264938 -140.288757 -9.054051
v 80.281754 -134.522232 -8.243516
v 57.430744 -136.585999 -15.616356
v 56.016212 -137.624161 -9.360601
v 57.326130 -219.348511 -62.020138
v 61.110306 -225.251984 -62.673264
v 69.890739 -226.162003 -21.663452
v 58.261837 -225.215698 -26.256819
v 72.175453 -227.525436 -63.274719
v 64.314568 -225.112366 -23.450418
v 69.412415 -222.539917 -21.807711
v 73.749252 -225.599197 -22.506332
v 83.330429 -226.469040 -25.969694
v 78.643242 -225.536804 -24.011061
v 82.955688 -226.218369 -61.573727
v 82.283295 -219.847382 -24.977774
v 85.173515 -225.914581 -28.126207
v 85.518227 -225.834366 -59.059475
v 87.875938 -225.850983 -31.910978
v 89.849358 -225.524902 -38.833256
v 89.787537 -225.011200 -35.155140
v 90.085785 -225.096603 -48.110668
v 91.396263 -224.812759 -40.307911
v 91.171806 -223.985474 -47.468010
v 88.982407 -224.885651 -52.219498
v 88.492668 -219.893555 -56.244499
v 78.325233 -225.426956 -63.401421
v 82.251556 -221.689468 -62.270668
v 73.978531 -225.171417 -64.489220
v 69.866867 -225.212784 -64.699722
v 65.974754 -225.001144 -64.140610
v 89.469673 -162.084427 -9.535740
v 61.241150 -134.528687 -8.778109
v 60.851368 -134.240875 -9.414079
v 65.638260 -132.849426 -9.680346
v 69.751083 -132.349655 -9.661846
v 75.708298 -132.497833 -9.430995
v 81.175819 -134.758911 -9.156855
v 86.623047 -139.709290 -9.215699
v 89.708176 -147.159698 -9.578084
v 90.008408 -153.704330 -9.637630
v 74.241875 -181.162781 -77.870827
v 74.673950 -176.738495 -78.475082
v 87.304489 -167.266891 -77.382378
v 83.955307 -172.077850 -78.262253
v 79.169479 -176.654358 -78.035942
v 60.256920 -162.228928 -18.436039
v 60.228188 -162.089462 -82.898506
v 60.173119 -152.484131 -83.311798
v 60.326797 -142.963425 -83.064919
v 60.059929 -157.765442 -18.853153
v 69.687141 -162.184830 -83.368805
v 64.581970 -169.060898 -81.659592
v 73.537430 -169.991318 -82.370262
v 74.030815 -161.860092 -83.080017
v 77.315018 -156.732178 -82.848236
v 78.443108 -169.930527 -81.178032
v 78.219353 -168.432022 -81.925362
v 84.143150 -140.627884 -82.467232
v 82.856056 -165.437485 -81.949898
v 85.915176 -160.951340 -81.361771
v 84.631180 -163.526199 -81.429428
v 83.342262 -166.600723 -81.028481
v 81.235519 -167.014938 -81.729851
v 87.272659 -146.266663 -81.050301
v 87.617577 -153.021820 -80.699471
v 86.378746 -161.850815 -80.300270
v 87.501205 -157.702698 -80.328751
v 85.575607 -142.174652 -81.604660
v 88.023796 -146.742157 -79.989044
v 78.842209 -148.035370 -83.388184
v 79.122360 -139.042252 -82.720253
v 81.725761 -138.125580 -81.352089
v 78.131233 -152.436554 -83.146568
v 73.729637 -146.126846 -84.293304
v 75.604965 -134.479507 -81.137306
v 72.236534 -138.951050 -83.083450
v 74.178276 -152.670868 -84.022537
v 73.886635 -157.123428 -83.721596
v 69.571480 -157.518478 -83.913620
v 65.399559 -153.078552 -84.092255
v 66.846413 -145.958572 -84.360260
v 66.041176 -140.459930 -82.929993
v 74.701149 -133.669464 -79.820564
v 65.002037 -134.621918 -80.589630
v 69.437836 -134.182861 -80.541687
v 59.913727 -153.060242 -18.917385
v 60.093170 -148.227036 -19.056313
v 60.369621 -143.551010 -19.128578
v 62.404182 -137.040894 -18.777254
v 58.118088 -137.057175 -80.421936
v 63.109100 -136.095108 -18.632736
v 58.809208 -135.673981 -76.183411
v 63.953938 -133.062607 -15.830812
v 65.870773 -217.829834 -66.140663
v 64.052177 -166.734207 -18.571890
v 79.431854 -157.582932 -18.833673
v 69.568268 -162.381119 -18.633940
v 74.384933 -162.291245 -18.629650
v 79.190971 -162.208694 -18.575632
v 79.635864 -152.718826 -18.971424
v 69.803230 -166.955750 -18.196733
v 76.470024 -166.745590 -18.591114
v 85.802444 -157.697571 -18.523756
v 83.109894 -162.575439 -17.919291
v 83.918961 -152.910889 -18.651600
v 86.201462 -145.217102 -19.014795
v 87.703163 -152.795380 -17.405214
v 69.927864 -143.084885 -19.105463
v 79.444405 -143.174088 -19.316973
v 85.138481 -144.625458 -19.156057
v 65.092590 -143.315842 -19.129166
v 77.413506 -136.764832 -19.091413
v 83.353081 -139.350616 -17.478678
v 69.710365 -138.562195 -18.837536
v 77.126686 -135.634399 -18.964819
v 63.773590 -137.022491 -18.979328
v 69.794189 -134.501678 -17.673166
v 75.796021 -135.492447 -18.774261
v 64.872810 -133.049286 -76.116768
v 69.781136 -218.309662 -67.107254
v 69.803154 -215.467514 -71.317635
v 69.802139 -215.142761 -71.350685
v 69.808701 -133.397186 -16.845066
v 69.672623 -132.434113 -76.086365
v 69.801727 -132.196823 -15.444746
v 73.733955 -217.836670 -66.431458
v 70.030113 -215.584061 -71.432060
v 70.275925 -215.220306 -80.357712
v 70.242645 -215.255402 -79.855095
v 70.240913 -215.203674 -80.453987
v 70.249763 -215.167175 -80.351326
v 70.283234 -215.189850 -80.373848
v 69.966476 -215.026947 -71.531967
v 70.417374 -215.468964 -71.427284
v 70.431679 -215.178894 -71.467537
v 73.726456 -132.432449 -15.750020
v 75.457504 -132.951523 -76.198174
v 89.751511 -154.937347 -75.794579
v 81.307030 -136.816299 -17.161371
v 77.433144 -133.279694 -15.847858
v 82.933884 -165.941895 -17.064543
v 80.850792 -135.051514 -15.662171
v 81.888969 -136.138321 -76.400734
v 86.271645 -158.392899 -18.233261
v 89.541779 -148.568787 -15.886004
v 89.630112 -152.776215 -15.762356
v 88.846436 -145.109985 -16.001768
v 86.403229 -144.844254 -18.681749
v 83.930016 -137.956329 -15.783299
v 90.972252 -213.659332 -34.585857
v 89.386284 -156.792328 -15.506582
v 87.188026 -141.787582 -15.746468
v 86.795158 -141.164185 -76.109055
v 91.074547 -214.740234 -52.374908
v 92.469826 -214.086594 -48.035034
v 92.489197 -214.178665 -39.593445
v 92.537422 -208.979980 -48.476051
v 92.573204 -208.983917 -39.065693
v 89.303017 -146.727325 -76.097107
v 92.888100 -213.957199 -43.826820
vn -0.9709 0.2052 -0.1236
vn -0.9919 0.0793 -0.0987
vn -0.9379 0.3465 0.0130
vn -0.9941 0.0750 0.0780
vn -0.9601 0.2588 0.1060
vn -0.9930 -0.0287 -0.1143
vn -0.9935 -0.0476 0.1034
vn -0.9943 -0.0425 -0.0981
vn -0.9592 -0.0468 -0.2788
vn -0.9932 -0.0490 0.1057
vn -0.7806 0.6250 0.0029
vn -0.9767 -0.1046 -0.1877
vn -0.8366 0.5476 0.0155
vn -0.9302 0.2209 -0.2932
vn -0.9062 0.4229 0.0025
vn -0.9919 -0.1268 -0.0120
vn -0.8940 0.4481 0.0013
vn -0.8472 0.5312 -0.0013
vn -0.9330 0.3575 0.0416
vn -0.9866 -0.1550 -0.0513
vn -0.9959 -0.0492 -0.0753
vn -0.8823 0.3708 0.2899
vn -0.5704 0.4304 0.6996
vn -0.0124 0.9999 -0.0048
vn -0.0127 0.6994 0.7146
vn -0.0171 0.9999 0.0019
vn -0.6949 0.6921 0.1953
vn 0.8485 0.5292 0.0071
vn 0.8427 0.5273 0.1089
vn 0.8322 0.5543 0.0084
vn -0.0011 0.7415 0.6710
vn 0.6664 0.7225 0.1843
vn 0.7615 0.6482 0.0051
vn 0.9837 0.1136 -0.1392
vn 0.8668 0.4987 0.0076
vn 0.8995 -0.1139 -0.4218
vn 0.9802 -0.1903 -0.0557
vn 0.9349 0.3541 -0.0229
vn 0.7940 0.6079 0.0106
vn 0.7812 0.6242 0.0102
vn 0.9677 0.2431 -0.0665
vn 0.9630 0.1518 -0.2228
vn 0.9126 0.4086 0.0143
vn 0.7952 0.6063 0.0120
vn 0.9562 0.2427 -0.1638
vn 0.9513 0.2745 0.1405
vn 0.9573 0.2745 0.0903
vn 0.9547 0.1898 0.2290
vn 0.9846 0.0314 0.1719
vn 0.9364 0.2084 0.2822
vn 0.9786 -0.2042 0.0266
vn 0.9684 0.0353 0.2470
vn 0.9477 0.3074 -0.0859
vn 0.9785 -0.2056 0.0161
vn 0.8778 0.3179 -0.3584
vn 0.8914 0.3044 -0.3357
vn 0.9971 -0.0323 0.0684
vn -0.0127 0.7396 -0.6729
vn 0.4351 0.7914 -0.4294
vn 0.8458 0.5117 -0.1506
vn -0.8905 0.4449 -0.0951
vn -0.9347 0.3522 -0.0489
vn -0.2538 0.7755 -0.5780
vn -0.0022 0.7038 -0.7104
vn -0.9619 0.2569 0.0934
vn -0.9678 0.0555 0.2454
vn -0.9971 -0.0286 0.0704
vn -0.9483 0.3173 0.0019
vn -0.9360 -0.1444 -0.3210
vn -0.9571 -0.1580 -0.2428
vn -0.9443 -0.1730 -0.2800
vn -0.4445 -0.8951 -0.0359
vn -0.5082 -0.8606 -0.0340
vn -0.9082 -0.1771 -0.3793
vn -0.8180 -0.0373 -0.5740
vn -0.9734 -0.1743 -0.1487
vn -0.9728 -0.2310 -0.0162
vn -0.5053 -0.8628 -0.0139
vn -0.9725 -0.1806 0.1473
vn -0.9447 -0.1916 0.2660
vn -0.4853 -0.8697 0.0896
vn -0.9549 -0.1775 0.2382
vn -0.5990 -0.7890 0.1367
vn -0.1581 -0.9871 0.0231
vn -0.9013 -0.1531 0.4053
vn -0.8932 -0.1565 0.4215
vn -0.8429 -0.1045 0.5278
vn -0.9083 -0.1123 0.4030
vn -0.9105 -0.0843 -0.4049
vn -0.8023 -0.0533 -0.5945
vn -0.7852 -0.0848 0.6134
vn -0.9258 0.0234 -0.3773
vn -0.9403 -0.0443 -0.3376
vn -0.9593 -0.0214 -0.2816
vn -0.7943 -0.2120 -0.5694
vn -0.9661 -0.0663 0.2495
vn -0.8748 -0.2769 0.3975
vn -0.9660 -0.0660 0.2499
vn -0.7992 -0.3065 0.5170
vn -0.5368 -0.4775 0.6956
vn -0.9864 -0.1411 0.0839
vn -0.6307 -0.5893 0.5049
vn -0.9770 -0.0744 -0.1998
vn -0.7255 -0.6800 -0.1062
vn -0.9041 -0.3554 -0.2374
vn -0.7487 -0.6566 0.0912
vn -0.5193 -0.8472 0.1117
vn -0.5554 -0.8242 -0.1104
vn -0.6877 -0.0916 -0.7202
vn -0.9958 -0.0659 -0.0643
vn -0.8220 -0.0766 -0.5643
vn -0.9958 -0.0758 -0.0514
vn -0.9744 0.1381 -0.1774
vn -0.9964 0.0390 -0.0749
vn -0.7872 0.2382 -0.5688
vn -0.9840 0.0103 -0.1778
vn -1.0000 -0.0007 -0.0053
vn -0.9995 0.0016 -0.0311
vn -0.9829 0.0647 -0.1723
vn -0.8468 -0.1967 -0.4943
vn -0.9864 -0.1544 -0.0565
vn -0.9771 -0.1141 -0.1798
vn -0.6455 -0.0062 -0.7637
vn -0.9321 -0.0780 -0.3536
vn -0.9321 -0.0681 -0.3558
vn -0.8457 -0.2016 -0.4940
vn -0.9545 -0.0429 -0.2951
vn -0.9965 -0.0446 -0.0702
vn -0.9972 -0.0522 -0.0534
vn -0.9962 -0.0806 -0.0327
vn -0.9548 -0.1050 0.2780
vn -0.9657 0.0082 0.2596
vn -0.9162 -0.2369 0.3232
vn -0.9503 0.0048 0.3113
vn -0.9464 -0.1159 0.3014
vn -0.8348 0.1666 0.5247
vn -0.8885 -0.0208 0.4584
vn -0.1743 0.2532 0.9516
vn -0.2354 0.0405 0.9711
vn -0.0074 0.5026 0.8645
vn -0.0763 0.1462 0.9863
vn -0.0744 0.0051 0.9972
vn -0.1039 0.0990 0.9896
vn -0.5517 0.2554 0.7940
vn -0.4882 0.3154 0.8138
vn -0.0065 0.7220 0.6919
vn -0.0010 0.8143 0.5804
vn -0.0027 0.8070 0.5905
vn -0.7209 -0.5706 -0.3933
vn -0.7007 -0.4218 -0.5754
vn -0.4512 -0.8827 -0.1316
vn -0.6900 -0.6065 -0.3950
vn -0.5703 -0.5118 -0.6426
vn -0.1355 -0.7597 -0.6360
vn -0.1357 -0.6316 -0.7633
vn -0.0063 -0.9533 -0.3021
vn -0.1190 -0.7897 -0.6018
vn -0.1234 -0.4759 -0.8708
vn -0.4075 -0.4936 -0.7683
vn -0.0712 -0.8541 -0.5152
vn -0.0820 -0.2684 -0.9598
vn -0.3746 -0.2912 -0.8803
vn -0.0072 -0.9097 -0.4153
vn 0.0141 0.0046 -0.9999
vn -0.3420 -0.0209 -0.9395
vn 0.0809 -0.9484 -0.3065
vn 0.1157 -0.2720 -0.9553
vn 0.2623 -0.2799 -0.9235
vn 0.1934 -0.9582 -0.2110
vn 0.2405 -0.5237 -0.8173
vn 0.3518 -0.5190 -0.7790
vn 0.3381 -0.9296 -0.1467
vn 0.6699 -0.5678 -0.4784
vn 0.3611 -0.6125 -0.7032
vn 0.6567 -0.5812 -0.4806
vn 0.9455 -0.1355 -0.2961
vn 0.6838 -0.7225 -0.1020
vn 0.5746 -0.8089 -0.1245
vn 0.6387 -0.4417 -0.6301
vn 0.6072 -0.4215 -0.6736
vn 0.8723 -0.3527 -0.3388
vn 0.9305 -0.1055 -0.3507
vn 0.9001 -0.1104 -0.4215
vn 0.9799 -0.1911 -0.0567
vn -0.1322 -0.0821 -0.9878
vn -0.0070 -0.4824 -0.8759
vn -0.9851 0.0575 -0.1623
vn 0.3079 0.3930 -0.8664
vn -0.9474 0.3173 0.0417
vn -0.4789 0.3591 -0.8011
vn -0.9979 -0.0366 0.0531
vn -0.1914 -0.9730 0.1293
vn -0.7340 -0.0537 0.6770
vn -0.7921 -0.0519 0.6082
vn -0.0006 -0.9926 0.1213
vn -0.0051 -0.0391 0.9992
vn 0.1381 -0.8260 0.5466
vn 0.1006 -0.8931 0.4384
vn 0.0702 -0.9278 0.3665
vn -0.0176 -0.9640 0.2653
vn -0.1065 -0.9745 0.1975
vn -0.1192 -0.9739 0.1932
vn -0.3760 -0.9178 0.1279
vn 0.4978 -0.8667 0.0326
vn 0.8417 -0.5382 0.0423
vn 0.0199 -0.0205 0.9996
vn 0.8973 -0.0324 0.4403
vn 0.8903 -0.4493 0.0746
vn 0.8383 -0.3938 0.3770
vn 0.9206 -0.2563 0.2946
vn 0.5684 -0.8147 0.1151
vn 0.5849 -0.4591 0.6687
vn 0.6331 -0.4950 0.5951
vn 0.8996 -0.2404 0.3646
vn 0.1575 -0.7790 0.6069
vn 0.1692 -0.8593 0.4827
vn 0.2070 -0.6876 0.6959
vn 0.1989 -0.5178 0.8321
vn 0.3678 -0.6236 0.6898
vn 0.7146 -0.4506 0.5351
vn 0.1283 -0.7668 0.6289
vn 0.1282 -0.4724 0.8720
vn 0.1855 -0.5177 0.8352
vn 0.0702 -0.7723 0.6313
vn 0.0067 -0.3845 0.9231
vn 0.1198 -0.4727 0.8731
vn 0.1018 -0.7921 0.6019
vn -0.1407 -0.7861 0.6019
vn -0.0430 -0.5763 0.8161
vn -0.2791 -0.4185 0.8643
vn -0.0795 -0.4211 0.9035
vn -0.1260 -0.6929 0.7099
vn -0.3703 -0.5819 0.7241
vn -0.9046 -0.3712 0.2094
vn -0.4000 -0.7191 0.5682
vn -0.2859 -0.5993 0.7477
vn -0.5480 -0.4684 0.6930
vn -0.9990 0.0235 0.0393
vn 0.9265 0.1672 -0.3371
vn 0.0982 0.5778 -0.8102
vn 0.0345 0.8311 -0.5551
vn -0.8872 0.1454 -0.4379
vn -0.5742 0.2296 -0.7859
vn 0.0943 0.0694 -0.9931
vn 0.0990 0.0573 -0.9934
vn 0.0245 0.1961 -0.9803
vn 0.0107 0.2072 -0.9782
vn 0.1268 0.1570 -0.9794
vn -0.1638 0.2432 -0.9561
vn -0.1348 0.2420 -0.9609
vn -0.9724 -0.1548 -0.1746
vn -0.7743 -0.2057 -0.5985
vn -0.6084 -0.2957 -0.7365
vn -0.9860 -0.0391 -0.1620
vn -0.9886 -0.0671 -0.1346
vn -0.9789 -0.0094 0.2043
vn -0.5568 0.5044 0.6600
vn -0.1741 0.3746 -0.9107
vn -0.0008 0.2163 -0.9763
vn -0.0011 0.0110 -0.9999
vn -0.5197 0.2540 0.8157
vn -0.4128 0.6861 0.5991
vn -0.4091 0.7155 0.5663
vn -0.3215 0.5499 -0.7709
vn -0.3970 0.3610 -0.8439
vn -0.3207 0.7058 -0.6317
vn 0.0200 -0.0198 0.9996
vn 0.8024 0.1126 0.5861
vn -0.0619 0.1971 0.9784
vn -0.0406 0.2571 0.9655
vn 0.1491 0.6273 0.7644
vn 0.9905 0.1358 -0.0204
vn 0.9959 0.0463 -0.0781
vn 0.9057 0.0342 0.4225
vn 0.9961 0.0415 -0.0776
vn 0.1281 0.7119 0.6905
vn 0.6891 0.1207 0.7145
vn -0.0029 0.7016 0.7125
vn -0.0011 0.7227 0.6912
vn 0.0358 0.7907 -0.6112
vn 0.0067 0.8993 -0.4373
vn 0.0089 0.7149 -0.6991
vn 0.5440 0.3844 -0.7458
vn -0.0034 0.8368 -0.5475
vn 0.4148 0.8114 -0.4118
vn 0.4035 0.7215 -0.5627
vn 0.9165 0.0356 -0.3985
vn 0.9940 -0.0025 0.1093
vn 0.9971 -0.0316 0.0692
vn 0.2957 0.0546 -0.9537
vn 0.9930 -0.0002 0.1181
vn 0.0507 0.0350 -0.9981
vn -0.1801 -0.0990 -0.9787
vn -0.3144 -0.0360 -0.9486
vn -0.0608 -0.0705 0.9957
vn -0.1516 -0.0037 0.9884
vn -0.0382 -0.0560 0.9977
vn 0.0460 -0.0795 0.9958
vn 0.1600 0.1274 0.9789
vn 0.2207 -0.0063 0.9753
vn 0.1781 0.0396 0.9832
vn 0.9994 0.0292 -0.0170
vn 0.9767 0.0771 0.2004
vn 0.9555 0.0933 0.2798
vn 0.6936 -0.0963 -0.7139
vn 0.6812 -0.0064 -0.7321
vn 0.6041 -0.2144 -0.7675
vn 0.9271 -0.0384 -0.3728
vn 0.9464 -0.0395 -0.3205
vn 0.6218 -0.0972 -0.7771
vn 0.2557 -0.3009 -0.9187
vn 0.2566 -0.3257 -0.9100
vn 0.3113 -0.2119 -0.9264
vn 0.2433 -0.2899 -0.9256
vn 0.2327 -0.3649 -0.9015
vn 0.2626 -0.3225 -0.9094
vn 0.0874 -0.3296 -0.9401
vn 0.0911 -0.3256 -0.9411
vn 0.0211 -0.3014 -0.9533
vn 0.0048 -0.3223 -0.9466
vn 0.0198 -0.3019 -0.9531
vn -0.0110 -0.1987 -0.9800
vn -0.2862 -0.2189 -0.9328
vn 0.0042 -0.3215 -0.9469
vn -0.3747 0.1288 -0.9182
vn -0.2400 -0.3092 -0.9202
vn -0.3189 -0.2619 -0.9109
vn -0.8626 0.1401 -0.4862
vn -0.4312 -0.0692 -0.8996
vn -0.2955 -0.2000 -0.9342
vn -0.6262 -0.2913 -0.7232
vn -0.0607 -0.0224 -0.9979
vn -0.1844 -0.1044 -0.9773
vn -0.0787 -0.3763 -0.9232
vn -0.0542 -0.4206 -0.9056
vn -0.1856 -0.3338 -0.9242
vn -0.1291 -0.3408 -0.9312
vn -0.5258 -0.2028 -0.8261
vn -0.3330 -0.2111 -0.9190
vn -0.5237 -0.2824 -0.8037
vn -0.2781 -0.3650 -0.8885
vn -0.2366 -0.3935 -0.8883
vn -0.6753 -0.1109 -0.7292
vn -0.6833 -0.2952 -0.6678
vn -0.5702 -0.4288 -0.7007
vn -0.2254 -0.0012 0.9743
vn -0.4352 0.1844 0.8812
vn -0.1462 -0.0539 0.9878
vn -0.1936 0.1104 0.9749
vn 0.0031 0.1749 0.9846
vn 0.0006 0.0871 0.9962
vn -0.5572 -0.2886 0.7787
vn 0.0019 0.0742 0.9972
vn -0.7563 -0.0024 0.6542
vn -0.6132 -0.0733 0.7865
vn -0.9160 -0.1381 0.3768
vn -0.0021 0.0495 0.9988
vn 0.0008 0.0270 0.9996
vn -0.0064 0.0274 0.9996
vn -0.0024 0.0002 1.0000
vn -0.0063 -0.0430 0.9991
vn 0.0031 0.0131 0.9999
vn -0.0033 0.0600 0.9982
vn 0.0029 0.0024 1.0000
vn -0.0034 0.0463 0.9989
vn 0.0107 0.1381 0.9904
vn 0.0108 0.2247 0.9744
vn 0.0150 0.3534 0.9354
vn 0.0153 0.2842 0.9586
vn 0.0143 0.3840 0.9232
vn 0.0146 0.3481 0.9373
vn 0.9109 -0.3080 0.2747
vn 0.9847 -0.0374 0.1699
vn 0.5455 -0.2763 0.7912
vn 0.9456 -0.1299 0.2983
vn 0.1552 -0.0455 0.9868
vn 0.5847 -0.0787 0.8074
vn 0.0789 0.0303 0.9964
vn 0.0276 0.1179 0.9926
vn 0.0012 0.1809 0.9835
vn 0.7140 -0.0040 0.7002
vn 0.1912 0.0597 0.9797
vn 0.4292 0.1872 0.8836
vn 0.2179 0.0068 0.9760
vn 0.3970 0.1463 0.9061
vn 0.2109 0.0131 0.9774
vn 0.1716 0.0164 0.9850
vn 0.1520 0.0597 0.9866
vn 0.1402 0.1141 0.9835
vn 0.0821 0.1542 0.9846
vn 0.0274 0.2050 0.9784
vn 0.0825 0.1540 0.9846
vn 0.0014 0.1623 0.9867
vn -0.1566 0.1991 0.9674
vn -0.1500 0.0669 0.9864
vn -0.1521 0.0461 0.9873
vn -0.1065 -0.0475 0.9932
vn -0.0591 -0.0885 0.9943
vn -0.1708 0.0356 0.9847
vn -0.7742 -0.1696 -0.6098
vn -0.6310 -0.1773 -0.7552
vn -0.7774 -0.1782 -0.6032
vn -0.6524 -0.3155 -0.6891
vn -0.7459 0.0335 -0.6652
vn -0.9310 0.0041 -0.3651
vn -0.7349 -0.2488 -0.6309
vn -0.9907 -0.0323 -0.1325
vn -0.9904 -0.0271 -0.1355
vn -0.7168 -0.0473 -0.6957
vn -0.7312 -0.0364 -0.6812
vn -0.3780 -0.3898 -0.8397
vn -0.9788 -0.0095 0.2046
vn -0.6875 0.0579 -0.7238
vn -0.4542 0.0828 -0.8871
vn -0.9919 0.0446 -0.1186
vn -0.6799 0.0505 -0.7316
vn -0.5202 -0.0106 -0.8540
vn -0.3917 0.1475 -0.9082
vn -0.3885 -0.0800 -0.9180
vn -0.9540 0.0465 0.2961
vn -0.6852 0.1418 -0.7144
vn -0.8954 0.2341 -0.3787
vn -0.8637 0.2628 -0.4301
vn -0.9795 0.1931 -0.0572
vn -0.9663 0.2316 -0.1119
vn -0.9782 0.1371 -0.1560
vn -0.7367 0.1089 -0.6674
vn -0.9776 0.1486 -0.1489
vn -0.9251 0.0639 0.3742
vn -0.9896 0.1433 -0.0156
vn -0.0019 0.0461 0.9989
vn -0.7896 0.4376 -0.4301
vn -0.8481 0.3883 -0.3605
vn -0.2992 0.0713 -0.9515
vn -0.6472 0.3126 -0.6953
vn -0.8142 0.5615 -0.1475
vn -0.8685 0.4940 -0.0419
vn -0.6788 0.3496 -0.6458
vn -0.6130 0.3829 -0.6911
vn -0.3795 0.3410 -0.8600
vn -0.7528 0.4785 -0.4521
vn -0.0018 0.0366 0.9993
vn -0.8730 0.4795 -0.0894
vn -0.8192 0.5534 -0.1509
vn -0.6285 0.5879 -0.5092
vn -0.6981 0.7112 -0.0828
vn -0.7349 0.6760 -0.0540
vn -0.6057 0.6740 0.4229
vn -0.5834 -0.0430 -0.8110
vn -0.4047 -0.1598 -0.9004
vn -0.0334 -0.9992 0.0236
vn -0.3114 -0.6984 0.6444
vn -0.0487 -0.9984 0.0300
vn -0.3475 -0.5364 0.7691
vn -0.3056 -0.0024 0.9522
vn 0.2038 0.0658 0.9768
vn -0.0126 -0.9994 0.0321
vn 0.2538 -0.5003 0.8278
vn 0.2683 -0.4455 0.8541
vn 0.1216 -0.9925 -0.0083
vn 0.3707 -0.0800 0.9253
vn 0.7572 0.0220 0.6528
vn 0.1205 -0.9927 -0.0111
vn 0.7375 -0.4316 0.5194
vn 0.1564 -0.9877 -0.0086
vn 0.5670 -0.8144 0.1233
vn 0.0036 -0.9989 -0.0460
vn 0.2016 -0.9793 -0.0181
vn 0.3923 -0.9193 -0.0324
vn 0.5123 -0.8493 0.1272
vn 0.7596 -0.6064 -0.2351
vn 0.7399 -0.6653 -0.1001
vn 0.6111 -0.7650 -0.2034
vn 0.8782 -0.2450 -0.4108
vn 0.1951 -0.6178 -0.7618
vn 0.3526 -0.0885 -0.9316
vn 0.5719 -0.0372 -0.8195
vn 0.7043 -0.0849 -0.7048
vn 0.1717 -0.5524 -0.8157
vn 0.0495 -0.4876 -0.8716
vn -0.1445 -0.6196 -0.7715
vn -0.1858 -0.7303 -0.6574
vn -0.1787 -0.6822 -0.7090
vn -0.5277 -0.0532 0.8478
vn -0.6648 -0.1205 -0.7372
vn -0.5714 -0.1492 0.8070
vn -0.6115 -0.1252 0.7813
vn -0.5467 -0.1460 0.8245
vn 0.9616 -0.0263 0.2732
vn 0.1155 -0.0667 -0.9911
vn 0.6430 -0.0691 -0.7628
vn 0.1163 0.3573 -0.9267
vn 0.7632 0.1698 -0.6235
vn 0.7809 -0.0512 -0.6225
vn 0.5313 0.5153 0.6725
vn -0.4148 0.5661 0.7123
vn -0.0279 0.1250 0.9918
vn -0.4608 0.6678 0.5846
vn -0.2141 0.8339 0.5086
vn -0.0795 0.6252 0.7764
vn -0.0250 0.4631 0.8859
vn -0.0233 0.4525 0.8915
vn 0.3736 0.9188 0.1276
vn 0.5615 0.5749 0.5951
vn 0.6112 0.6675 0.4253
vn 0.8794 0.3782 -0.2893
vn 0.7942 0.0261 0.6071
vn 0.8098 0.0318 0.5858
vn 0.9444 -0.0568 0.3239
vn 0.1202 -0.0726 -0.9901
vn 0.0965 -0.1439 -0.9849
vn 0.7090 -0.0038 -0.7052
vn 0.3278 -0.0557 -0.9431
vn 0.0932 -0.1462 -0.9849
vn 0.0989 -0.1403 -0.9852
vn 0.1333 -0.0951 -0.9865
vn -0.2803 -0.3928 -0.8759
vn -0.4540 -0.3692 -0.8109
vn -0.2885 -0.1996 -0.9364
vn -0.2836 -0.2215 -0.9330
vn -0.1420 -0.2947 -0.9450
vn -0.2771 -0.1627 -0.9470
vn -0.2001 0.0398 -0.9790
vn -0.1185 -0.2294 -0.9661
vn -0.1658 -0.0433 -0.9852
vn -0.3210 0.0297 -0.9466
vn -0.5169 0.0818 -0.8521
vn -0.0069 -0.0933 -0.9956
vn -0.0506 -0.2461 -0.9679
vn -0.0783 -0.1853 -0.9795
vn -0.0957 -0.1726 -0.9803
vn -0.1185 -0.4746 -0.8722
vn -0.0758 -0.3402 -0.9373
vn 0.0728 -0.0911 -0.9932
vn 0.2217 -0.0981 -0.9702
vn 0.1913 -0.6267 -0.7554
vn 0.2203 -0.4088 -0.8856
vn 0.0566 -0.0238 -0.9981
vn 0.1887 -0.2999 -0.9351
vn 0.3904 -0.1440 -0.9093
vn 0.2343 -0.0324 -0.9716
vn 0.4845 -0.2193 -0.8469
vn 0.6127 -0.3172 -0.7238
vn 0.5944 -0.3556 -0.7213
vn 0.2279 -0.3603 -0.9045
vn 0.3606 -0.4819 -0.7986
vn 0.4540 -0.0231 -0.8907
vn 0.3879 -0.0163 -0.9216
vn 0.9012 -0.0442 -0.4310
vn 0.8415 -0.2603 -0.4733
vn 0.7191 -0.3427 -0.6045
vn 0.6489 -0.0761 -0.7570
vn 0.6287 0.1576 -0.7615
vn 0.8380 0.2844 -0.4657
vn 0.0727 0.0716 -0.9948
vn 0.2187 0.5656 -0.7951
vn 0.3062 -0.1014 -0.9466
vn 0.3664 -0.1336 -0.9208
vn 0.7253 0.6878 0.0289
vn 0.1979 0.0665 -0.9780
vn 0.0539 0.3641 -0.9298
vn 0.0542 0.1770 -0.9827
vn 0.2634 0.4911 -0.8303
vn 0.2205 -0.0889 -0.9713
vn 0.1635 -0.0296 -0.9861
vn 0.2576 -0.1156 -0.9593
vn 0.2202 -0.0801 -0.9722
vn 0.2581 -0.1220 -0.9584
vn 0.0756 -0.1316 -0.9884
vn -0.0505 -0.1171 -0.9918
vn 0.0546 -0.1145 -0.9919
vn -0.1524 -0.0434 -0.9874
vn -0.0605 -0.0969 -0.9935
vn -0.1485 -0.0071 -0.9889
vn -0.1822 0.0284 -0.9828
vn -0.2613 0.6357 -0.7264
vn -0.0821 0.2396 -0.9674
vn 0.0047 0.2135 -0.9769
vn -0.1386 0.4812 -0.8656
vn -0.0823 0.2396 -0.9674
vn 0.0137 0.1690 -0.9855
vn 0.4988 0.8480 -0.1793
vn -0.0499 0.5742 -0.8172
vn -0.0496 0.5889 -0.8067
vn -0.0827 0.0518 -0.9952
vn -0.0168 -0.0142 -0.9998
vn -0.0148 0.0384 -0.9992
vn -0.0667 -0.0455 -0.9967
vn -0.0873 -0.0254 -0.9959
vn -0.2980 0.1492 -0.9428
vn -0.1033 0.0997 -0.9896
vn -0.0530 -0.0123 -0.9985
vn -0.3597 0.3407 -0.8686
vn -0.1016 0.0852 -0.9912
vn -0.7956 0.4669 -0.3861
vn -0.7663 0.4523 -0.4563
vn -0.4192 0.5855 -0.6939
vn -0.3722 0.4050 -0.8351
vn -0.6836 0.7194 -0.1233
vn -0.3337 0.9426 -0.0087
vn -0.6892 0.7232 0.0437
vn -0.6504 0.7589 -0.0307
vn -0.5733 0.8194 0.0064
vn -0.3884 0.6814 -0.6203
vn -0.4759 0.8768 -0.0691
vn -0.4296 -0.1774 -0.8854
vn -0.3748 -0.1841 -0.9086
vn -0.2662 -0.2625 -0.9275
vn -0.4135 -0.1537 0.8974
vn -0.2637 -0.1162 0.9576
vn -0.4273 -0.1796 -0.8861
vn -0.3850 -0.1971 -0.9016
vn -0.4035 -0.1575 0.9013
vn -0.1419 -0.3305 -0.9331
vn -0.1359 -0.3627 -0.9219
vn -0.1488 -0.0957 -0.9842
vn 0.0011 -0.0136 -0.9999
vn -0.0227 -0.0940 -0.9953
vn 0.0017 -0.0439 -0.9990
vn 0.0115 -0.0131 -0.9998
vn 0.0015 -0.0558 -0.9984
vn -0.0022 -0.0286 -0.9996
vn -0.0023 -0.0282 -0.9996
vn 0.0008 -0.0155 -0.9999
vn -0.0210 0.0124 -0.9997
vn 0.0027 -0.0950 -0.9955
vn 0.0613 -0.0918 -0.9939
vn -0.0579 -0.0357 -0.9977
vn 0.0542 -0.2367 -0.9701
vn 0.0555 -0.2463 -0.9676
vn -0.0495 -0.2460 -0.9680
vn 0.0113 -0.0034 -0.9999
vn 0.0475 -0.0581 -0.9972
vn 0.1552 -0.1002 -0.9828
vn 0.2110 -0.1232 -0.9697
vn 0.1437 -0.1994 -0.9693
vn 0.0730 -0.0313 -0.9968
vn 0.0485 -0.0076 -0.9988
vn 0.0713 -0.0681 -0.9951
vn 0.3136 -0.1374 -0.9395
vn 0.3087 0.0962 -0.9463
vn -0.0225 -0.0366 -0.9991
vn 0.0191 -0.0358 -0.9992
vn 0.0053 -0.0086 -0.9999
vn 0.0007 -0.0158 -0.9999
vn 0.0866 -0.0815 -0.9929
vn -0.0219 0.0282 -0.9994
vn 0.3130 0.1323 -0.9405
vn 0.1119 0.3353 -0.9354
vn 0.0021 0.0592 -0.9982
vn -0.0397 0.0572 -0.9976
vn -0.0758 0.0920 -0.9929
vn 0.0318 0.0304 -0.9990
vn 0.0936 0.2726 -0.9576
vn -0.1292 0.2758 -0.9525
vn -0.1122 0.2422 -0.9637
vn -0.0013 0.0235 -0.9997
vn -0.1466 0.0989 -0.9842
vn -0.1445 0.2539 -0.9564
vn -0.3846 0.8942 -0.2291
vn -0.3962 0.9128 0.0994
vn -0.3436 0.9382 0.0424
vn -0.3227 0.8900 -0.3222
vn -0.1557 0.9500 0.2707
vn -0.2767 0.9600 0.0425
vn -0.2618 -0.2628 -0.9287
vn -0.1518 -0.3272 -0.9327
vn -0.2501 -0.1180 0.9610
vn -0.1233 -0.0551 0.9908
vn -0.7453 -0.1714 -0.6443
vn -0.2335 -0.8054 -0.5449
vn -0.7355 -0.0709 -0.6738
vn -0.2645 0.8215 -0.5051
vn -0.1287 -0.3778 0.9169
vn 0.0248 -0.3106 -0.9502
vn 0.0094 -0.0314 -0.9995
vn 0.0508 -0.0707 -0.9962
vn 0.0430 0.3767 -0.9253
vn -0.0853 0.6889 -0.7198
vn -0.0282 0.5999 -0.7996
vn -0.1178 0.9357 -0.3324
vn -0.0880 0.9288 -0.3599
vn -0.0531 0.9687 0.2426
vn -0.1216 0.9323 0.3407
vn -0.1206 0.9927 -0.0014
vn -0.1480 0.9887 0.0248
vn -0.0692 0.7572 -0.6494
vn 0.1968 -0.3207 -0.9265
vn 0.0520 -0.2540 -0.9658
vn 0.1174 -0.0600 0.9913
vn -0.5779 -0.6750 -0.4587
vn 0.1882 -0.8357 -0.5159
vn 0.0489 -0.0862 0.9951
vn -0.2322 -0.9691 -0.0828
vn -0.2320 -0.9691 -0.0834
vn -0.2319 -0.9692 -0.0826
vn -0.9320 0.3594 -0.0473
vn -0.9320 0.3595 -0.0469
vn -0.9988 -0.0080 -0.0481
vn -0.9988 -0.0080 -0.0476
vn -0.7482 -0.6611 -0.0552
vn -0.7481 -0.6613 -0.0549
vn -0.7481 -0.6613 -0.0544
vn 0.3599 0.8687 -0.3402
vn 0.3600 0.8689 -0.3398
vn 0.8378 -0.3983 -0.3734
vn 0.8377 -0.3982 -0.3737
vn 0.8380 -0.3983 -0.3730
vn -0.5991 0.8000 -0.0320
vn -0.4747 -0.8789 -0.0463
vn -0.4747 -0.8789 -0.0459
vn 0.2851 -0.9580 -0.0302
vn 0.2851 -0.9580 -0.0299
vn 0.4553 -0.8898 -0.0320
vn 0.4555 -0.8897 -0.0317
vn 0.4553 -0.8898 -0.0317
vn 0.3111 0.9504 -0.0051
vn 0.5562 0.8310 -0.0103
vn -0.7588 0.5625 -0.3285
vn 0.2453 -0.8029 -0.5433
vn 0.2332 0.8548 -0.4636
vn 0.3289 0.7831 -0.5279
vn 0.0818 -0.1427 -0.9864
vn 0.0670 -0.4652 -0.8826
vn 0.0076 -0.3337 -0.9427
vn 0.0098 -0.0407 -0.9991
vn 0.0088 -0.0394 -0.9992
vn 0.0760 0.5975 -0.7983
vn -0.0164 0.6972 -0.7167
vn 0.0758 0.9268 -0.3678
vn -0.0711 0.9812 -0.1796
vn -0.0103 0.8485 -0.5290
vn 0.0581 0.9414 0.3322
vn 0.0907 0.9499 0.2991
vn -0.0050 0.7592 -0.6508
vn 0.0238 0.9994 0.0266
vn 0.0593 0.9982 -0.0083
vn 0.2221 -0.2427 -0.9444
vn 0.2933 -0.1161 0.9490
vn 0.7961 -0.1312 -0.5907
vn 0.3888 -0.1874 -0.9021
vn 0.3587 -0.1507 -0.9212
vn 0.2303 -0.0919 0.9688
vn 0.9704 -0.2408 -0.0159
vn 0.9705 -0.2406 -0.0159
vn 0.9985 -0.0517 -0.0173
vn 0.9985 -0.0517 -0.0170
vn 0.7953 -0.1217 -0.5939
vn 0.8966 -0.0813 -0.4353
vn 0.9752 -0.0229 -0.2202
vn 0.9598 -0.1845 -0.2114
vn 0.9196 -0.1605 -0.3585
vn 0.6188 -0.2978 -0.7269
vn 0.6839 -0.2520 -0.6847
vn 0.3159 -0.3735 -0.8722
vn 0.3087 -0.3872 -0.8688
vn 0.2642 -0.4443 -0.8560
vn 0.3589 -0.3885 -0.8487
vn 0.0962 -0.4128 -0.9057
vn 0.1479 -0.4346 -0.8884
vn 0.1019 -0.4140 -0.9046
vn -0.1668 -0.2561 -0.9522
vn 0.4366 0.2088 -0.8751
vn 0.4058 0.4287 -0.8072
vn 0.1532 0.7451 -0.6491
vn -0.0012 0.7980 -0.6027
vn 0.1635 0.9271 0.3373
vn 0.2209 0.9735 -0.0592
vn 0.4083 -0.1072 0.9065
vn 0.4411 -0.1446 -0.8857
vn 0.3872 -0.1306 -0.9127
vn 0.4290 -0.0906 0.8988
vn 0.2806 -0.2718 -0.9205
vn 0.2757 -0.2501 -0.9281
vn 0.4004 0.7118 -0.5771
vn 0.4494 0.6430 -0.6202
vn 0.4221 0.8684 -0.2603
vn 0.4477 0.8246 -0.3457
vn 0.2996 0.9137 0.2746
vn 0.4447 0.8933 0.0648
vn 0.3826 0.9239 -0.0097
vn 0.4620 0.8846 -0.0629
vn 0.6788 -0.1152 -0.7252
vn 0.5816 -0.0965 -0.8077
vn 0.5934 -0.1296 0.7944
vn 0.5233 -0.4514 -0.7228
vn 0.3784 -0.2811 -0.8819
vn 0.2385 -0.2507 -0.9382
vn 0.3799 -0.3032 -0.8739
vn 0.2260 -0.2417 -0.9437
vn 0.6700 -0.0248 -0.7419
vn 0.6482 -0.0534 -0.7596
vn 0.5195 -0.0065 -0.8545
vn 0.6488 -0.0087 -0.7609
vn 0.7353 0.1845 -0.6521
vn 0.7431 0.1274 -0.6569
vn 0.3789 0.4940 -0.7826
vn 0.3817 0.3949 -0.8357
vn 0.5633 0.5338 -0.6307
vn 0.5592 0.6159 -0.5549
vn 0.5830 0.8054 0.1069
vn 0.6707 0.7388 -0.0667
vn 0.6819 0.7264 -0.0857
vn 0.7672 -0.0827 -0.6360
vn 0.8084 -0.1250 0.5751
vn 0.8657 -0.1129 0.4877
vn 0.7552 -0.0948 -0.6486
vn 0.7228 -0.0884 0.6854
vn 0.7411 -0.2006 -0.6407
vn 0.9170 -0.2348 0.3224
vn 0.8489 -0.2092 0.4855
vn 0.8290 0.2942 0.4756
vn 0.9835 0.1348 0.1208
vn 0.5217 0.6045 -0.6020
vn 0.8724 0.0469 0.4866
vn 0.6172 0.2382 0.7499
vn 0.8763 -0.0089 0.4817
vn 0.8676 -0.0061 0.4971
vn 0.9781 -0.1004 0.1822
vn 0.6635 -0.2521 -0.7044
vn 0.7010 -0.1960 -0.6857
vn 0.6813 -0.0876 -0.7268
vn 0.5942 0.4725 -0.6509
vn 0.6982 0.3944 -0.5974
vn 0.6842 0.6687 -0.2909
vn 0.6957 0.6631 -0.2763
vn 0.6008 0.5050 -0.6197
vn 0.7141 0.6904 -0.1154
vn 0.7551 0.6408 -0.1386
vn 0.9155 -0.1942 -0.3522
vn 0.9046 -0.1924 -0.3804
vn 0.9485 -0.1406 -0.2838
vn 0.9496 -0.1138 0.2921
vn 0.8686 -0.1148 0.4821
vn 0.9470 -0.1174 0.2990
vn 0.8723 -0.0742 -0.4832
vn 0.8754 -0.0533 -0.4804
vn 0.9530 -0.0386 -0.3006
vn 0.9590 -0.0556 -0.2777
vn 0.9915 -0.0242 -0.1279
vn 0.9530 -0.0665 0.2956
vn 0.9481 -0.0649 0.3112
vn 0.9632 -0.0425 0.2654
vn 0.9890 -0.0307 0.1448
vn 0.9670 0.1163 -0.2267
vn 0.9684 0.0810 0.2361
vn 0.9811 -0.1847 -0.0583
vn 0.9895 -0.0568 -0.1332
vn 0.9852 -0.1626 -0.0540
vn 0.9959 -0.0868 -0.0271
vn 0.9936 -0.0208 -0.1111
vn 0.9919 -0.0651 -0.1087
vn 0.8709 -0.2277 -0.4356
vn 0.9945 -0.0863 -0.0600
vn 0.9074 -0.0555 -0.4165
vn 0.9953 -0.0650 -0.0713
vn 0.9215 0.0361 -0.3868
vn 0.9497 -0.0261 -0.3121
vn 0.8187 0.0120 -0.5741
vn 0.9837 0.0473 -0.1735
vn 0.9974 0.0463 -0.0546
vn 0.9993 0.0201 -0.0308
vn 0.9690 0.2468 -0.0079
vn 0.9785 0.1944 -0.0692
vn 0.8731 0.3930 -0.2885
vn 0.8856 0.3804 -0.2665
vn 0.8727 0.4680 -0.1394
vn 0.9113 0.4108 -0.0265
vn 0.9239 0.3827 -0.0018
vn 0.8907 0.4497 -0.0660
vn 0.9873 -0.1514 -0.0484
vn 0.9903 -0.1077 0.0877
vn 0.9864 -0.1347 -0.0939
vn 0.9951 -0.0037 -0.0988
vn 0.9952 -0.0350 0.0919
vn 0.9992 -0.0006 0.0392
vn 0.9985 -0.0342 -0.0432
usemtl material_0.008
s off
f 1//1 2//1 3//1
f 4//2 1//2 3//2
f 5//3 2//3 1//3
f 6//4 1//4 4//4
f 6//5 5//5 1//5
f 7//6 4//6 3//6
f 8//7 6//7 4//7
f 8//8 4//8 7//8
f 7//9 3//9 9//9
f 10//10 6//10 8//10
f 11//11 12//11 2//11
f 13//12 2//12 12//12
f 5//13 11//13 2//13
f 13//14 3//14 2//14
f 14//15 15//15 12//15
f 13//16 12//16 15//16
f 11//17 14//17 12//17
f 14//18 16//18 15//18
f 17//19 15//19 16//19
f 13//20 15//20 18//20
f 19//21 18//21 15//21
f 20//22 15//22 17//22
f 20//23 19//23 15//23
f 21//24 22//24 16//24
f 23//25 16//25 22//25
f 14//26 21//26 16//26
f 23//27 17//27 16//27
f 24//28 25//28 22//28
f 26//29 22//29 25//29
f 21//30 24//30 22//30
f 27//31 23//31 22//31
f 26//32 27//32 22//32
f 28//33 29//33 25//33
f 30//34 25//34 29//34
f 24//35 28//35 25//35
f 30//36 31//36 25//36
f 32//37 25//37 31//37
f 32//38 26//38 25//38
f 28//39 33//39 29//39
f 33//40 34//40 29//40
f 35//41 29//41 34//41
f 30//42 29//42 35//42
f 36//43 37//43 34//43
f 33//44 36//44 34//44
f 35//45 34//45 37//45
f 38//46 37//46 36//46
f 38//47 36//47 33//47
f 38//48 33//48 39//48
f 40//49 33//49 28//49
f 40//50 39//50 33//50
f 41//51 28//51 24//51
f 40//52 28//52 41//52
f 42//53 24//53 21//53
f 41//54 24//54 43//54
f 44//55 24//55 42//55
f 45//56 24//56 44//56
f 45//57 43//57 24//57
f 46//58 21//58 14//58
f 47//59 21//59 46//59
f 42//60 21//60 47//60
f 48//61 14//61 11//61
f 49//62 14//62 48//62
f 50//63 14//63 49//63
f 46//64 14//64 50//64
f 6//65 11//65 5//65
f 51//66 11//66 6//66
f 52//67 11//67 51//67
f 48//68 11//68 52//68
f 53//69 54//69 9//69
f 55//70 9//70 54//70
f 7//71 9//71 55//71
f 56//72 55//72 54//72
f 57//73 56//73 54//73
f 57//74 54//74 53//74
f 58//75 57//75 53//75
f 8//76 7//76 55//76
f 59//77 8//77 55//77
f 56//78 59//78 55//78
f 10//79 8//79 59//79
f 60//80 10//80 59//80
f 61//81 59//81 56//81
f 62//82 60//82 59//82
f 61//83 62//83 59//83
f 57//84 61//84 56//84
f 63//85 60//85 62//85
f 64//86 63//86 62//86
f 65//87 63//87 64//87
f 64//88 62//88 61//88
f 66//89 53//89 9//89
f 58//90 53//90 66//90
f 67//91 65//91 64//91
f 3//92 66//92 9//92
f 13//93 66//93 3//93
f 68//94 66//94 13//94
f 58//95 66//95 68//95
f 6//96 10//96 60//96
f 51//97 60//97 63//97
f 51//98 6//98 60//98
f 69//99 63//99 65//99
f 69//100 51//100 63//100
f 70//101 69//101 65//101
f 67//102 70//102 65//102
f 71//103 68//103 13//103
f 72//104 71//104 13//104
f 58//105 68//105 71//105
f 73//106 51//106 69//106
f 70//107 73//107 69//107
f 72//108 13//108 18//108
f 74//109 72//109 18//109
f 75//110 76//110 18//110
f 74//111 18//111 76//111
f 19//112 75//112 18//112
f 77//113 78//113 76//113
f 75//114 77//114 76//114
f 78//115 74//115 76//115
f 79//116 80//116 78//116
f 81//117 79//117 78//117
f 82//118 81//118 78//118
f 77//119 82//119 78//119
f 83//120 80//120 84//120
f 85//121 84//121 80//121
f 79//122 85//122 80//122
f 86//123 78//123 80//123
f 87//124 86//124 80//124
f 83//125 87//125 80//125
f 88//126 83//126 84//126
f 89//127 88//127 84//127
f 90//128 84//128 91//128
f 90//129 89//129 84//129
f 91//130 84//130 85//130
f 92//131 85//131 79//131
f 92//132 93//132 85//132
f 91//133 85//133 93//133
f 94//134 79//134 81//134
f 92//135 79//135 94//135
f 95//136 81//136 82//136
f 94//137 81//137 95//137
f 96//138 82//138 77//138
f 96//139 97//139 82//139
f 98//140 77//140 75//140
f 99//141 77//141 98//141
f 100//142 77//142 99//142
f 100//143 96//143 77//143
f 101//144 75//144 19//144
f 102//145 75//145 101//145
f 103//146 98//146 75//146
f 104//147 103//147 75//147
f 102//148 104//148 75//148
f 105//149 106//149 71//149
f 58//150 71//150 106//150
f 72//151 105//151 71//151
f 107//152 106//152 105//152
f 107//153 58//153 106//153
f 108//154 109//154 105//154
f 107//155 105//155 109//155
f 72//156 108//156 105//156
f 108//157 110//157 109//157
f 111//158 109//158 110//158
f 111//159 107//159 109//159
f 108//160 112//160 110//160
f 113//161 110//161 112//161
f 113//162 111//162 110//162
f 108//163 114//163 112//163
f 115//164 112//164 114//164
f 115//165 113//165 112//165
f 108//166 116//166 114//166
f 117//167 114//167 116//167
f 117//168 115//168 114//168
f 108//169 118//169 116//169
f 119//170 116//170 118//170
f 119//171 117//171 116//171
f 108//172 120//172 118//172
f 121//173 118//173 120//173
f 122//174 119//174 118//174
f 121//175 122//175 118//175
f 123//176 120//176 31//176
f 124//177 31//177 120//177
f 108//178 124//178 120//178
f 121//179 120//179 125//179
f 126//180 125//180 120//180
f 123//181 126//181 120//181
f 123//182 31//182 127//182
f 30//183 127//183 31//183
f 124//184 32//184 31//184
f 128//185 72//185 74//185
f 128//186 108//186 72//186
f 129//187 52//187 51//187
f 129//188 130//188 52//188
f 49//189 48//189 52//189
f 49//190 52//190 130//190
f 129//191 51//191 73//191
f 70//192 131//192 73//192
f 132//193 73//193 131//193
f 132//194 129//194 73//194
f 133//195 134//195 131//195
f 132//196 131//196 134//196
f 135//197 133//197 131//197
f 136//198 135//198 131//198
f 137//199 136//199 131//199
f 138//200 137//200 131//200
f 139//201 138//201 131//201
f 140//202 139//202 131//202
f 70//203 140//203 131//203
f 41//204 43//204 134//204
f 133//205 41//205 134//205
f 141//206 132//206 134//206
f 43//207 141//207 134//207
f 133//208 142//208 41//208
f 143//209 41//209 142//209
f 40//210 41//210 143//210
f 144//211 142//211 133//211
f 144//212 145//212 142//212
f 146//213 142//213 145//213
f 143//214 142//214 146//214
f 135//215 147//215 133//215
f 144//216 133//216 147//216
f 135//217 148//217 147//217
f 149//218 147//218 148//218
f 145//219 147//219 149//219
f 144//220 147//220 145//220
f 135//221 150//221 148//221
f 151//222 148//222 150//222
f 149//223 148//223 151//223
f 152//224 150//224 135//224
f 152//225 153//225 150//225
f 151//226 150//226 153//226
f 152//227 135//227 136//227
f 152//228 136//228 137//228
f 154//229 137//229 138//229
f 155//230 137//230 154//230
f 152//231 137//231 155//231
f 156//232 138//232 139//232
f 154//233 138//233 156//233
f 157//234 139//234 140//234
f 156//235 139//235 157//235
f 67//236 140//236 70//236
f 157//237 140//237 67//237
f 158//238 159//238 130//238
f 129//239 158//239 130//239
f 160//240 159//240 158//240
f 160//241 161//241 159//241
f 129//242 162//242 158//242
f 163//243 158//243 162//243
f 164//244 160//244 158//244
f 165//245 164//245 158//245
f 166//246 165//246 158//246
f 167//247 166//247 158//247
f 168//248 167//248 158//248
f 169//249 168//249 158//249
f 163//250 169//250 158//250
f 129//251 170//251 162//251
f 171//252 162//252 170//252
f 171//253 163//253 162//253
f 172//254 170//254 129//254
f 172//255 173//255 170//255
f 172//256 129//256 132//256
f 23//257 20//257 17//257
f 174//258 74//258 78//258
f 175//259 128//259 74//259
f 174//260 175//260 74//260
f 102//261 101//261 19//261
f 102//262 19//262 20//262
f 23//263 102//263 20//263
f 176//264 49//264 130//264
f 176//265 130//265 159//265
f 50//266 49//266 176//266
f 141//267 177//267 132//267
f 178//268 98//268 103//268
f 179//269 99//269 98//269
f 180//270 179//270 98//270
f 181//271 180//271 98//271
f 182//272 181//272 98//272
f 183//273 182//273 98//273
f 184//274 98//274 178//274
f 183//275 98//275 184//275
f 27//276 103//276 104//276
f 178//277 103//277 27//277
f 27//278 104//278 102//278
f 27//279 102//279 23//279
f 161//280 176//280 159//280
f 161//281 185//281 176//281
f 50//282 176//282 185//282
f 161//283 44//283 185//283
f 46//284 50//284 185//284
f 47//285 46//285 185//285
f 44//286 47//286 185//286
f 45//287 44//287 161//287
f 43//288 161//288 160//288
f 45//289 161//289 43//289
f 186//290 187//290 160//290
f 43//291 160//291 187//291
f 164//292 186//292 160//292
f 188//293 174//293 78//293
f 86//294 188//294 78//294
f 189//295 99//295 179//295
f 189//296 100//296 99//296
f 190//297 179//297 180//297
f 190//298 189//298 179//298
f 191//299 180//299 181//299
f 192//300 180//300 191//300
f 190//301 180//301 192//301
f 193//302 181//302 182//302
f 194//303 181//303 193//303
f 194//304 191//304 181//304
f 186//305 195//305 187//305
f 196//306 187//306 195//306
f 197//307 187//307 196//307
f 198//308 43//308 187//308
f 197//309 198//309 187//309
f 196//310 195//310 186//310
f 164//311 199//311 186//311
f 200//312 186//312 199//312
f 196//313 186//313 200//313
f 201//314 199//314 164//314
f 202//315 199//315 201//315
f 200//316 199//316 202//316
f 203//317 164//317 165//317
f 201//318 164//318 203//318
f 203//319 165//319 204//319
f 205//320 165//320 166//320
f 204//321 165//321 205//321
f 206//322 166//322 167//322
f 207//323 166//323 206//323
f 207//324 205//324 166//324
f 206//325 167//325 168//325
f 208//326 168//326 169//326
f 206//327 168//327 208//327
f 209//328 169//328 163//328
f 210//329 169//329 209//329
f 210//330 208//330 169//330
f 209//331 163//331 171//331
f 211//332 174//332 212//332
f 188//333 212//333 174//333
f 213//334 212//334 214//334
f 213//335 211//335 212//335
f 215//336 212//336 188//336
f 214//337 212//337 215//337
f 86//338 216//338 188//338
f 215//339 188//339 216//339
f 217//340 216//340 86//340
f 218//341 216//341 217//341
f 218//342 215//342 216//342
f 217//343 86//343 87//343
f 219//344 87//344 83//344
f 219//345 217//345 87//345
f 97//346 220//346 82//346
f 220//347 95//347 82//347
f 221//348 222//348 220//348
f 97//349 221//349 220//349
f 221//350 223//350 222//350
f 224//351 93//351 222//351
f 94//352 222//352 93//352
f 223//353 224//353 222//353
f 94//354 95//354 222//354
f 220//355 222//355 95//355
f 92//356 94//356 93//356
f 225//357 91//357 93//357
f 224//358 225//358 93//358
f 226//359 90//359 91//359
f 225//360 226//360 91//360
f 226//361 227//361 90//361
f 226//362 228//362 227//362
f 229//363 230//363 227//363
f 228//364 229//364 227//364
f 229//365 231//365 230//365
f 229//366 232//366 231//366
f 232//367 233//367 231//367
f 234//368 235//368 233//368
f 232//369 234//369 233//369
f 236//370 237//370 235//370
f 234//371 236//371 235//371
f 238//372 225//372 224//372
f 238//373 224//373 239//373
f 240//374 224//374 223//374
f 239//375 224//375 240//375
f 241//376 242//376 223//376
f 243//377 223//377 242//377
f 244//378 241//378 223//378
f 245//379 244//379 223//379
f 221//380 245//380 223//380
f 240//381 223//381 243//381
f 241//382 246//382 242//382
f 243//383 242//383 247//383
f 192//384 191//384 242//384
f 247//385 242//385 191//385
f 246//386 192//386 242//386
f 190//387 192//387 246//387
f 189//388 246//388 241//388
f 189//389 190//389 246//389
f 189//390 241//390 244//390
f 248//391 244//391 245//391
f 189//392 244//392 248//392
f 249//393 245//393 221//393
f 248//394 245//394 249//394
f 249//395 221//395 97//395
f 249//396 97//396 96//396
f 249//397 96//397 100//397
f 248//398 249//398 100//398
f 248//399 100//399 189//399
f 250//400 83//400 88//400
f 250//401 219//401 83//401
f 251//402 171//402 170//402
f 209//403 171//403 251//403
f 252//404 250//404 88//404
f 89//405 252//405 88//405
f 251//406 170//406 173//406
f 253//407 173//407 172//407
f 253//408 254//408 173//408
f 255//409 251//409 173//409
f 255//410 173//410 254//410
f 256//411 209//411 251//411
f 132//412 253//412 172//412
f 257//413 250//413 252//413
f 258//414 250//414 257//414
f 259//415 254//415 253//415
f 260//416 255//416 254//416
f 261//417 255//417 260//417
f 262//418 251//418 255//418
f 261//419 262//419 255//419
f 132//420 259//420 253//420
f 258//421 257//421 252//421
f 263//422 252//422 89//422
f 263//423 258//423 252//423
f 227//424 89//424 90//424
f 227//425 263//425 89//425
f 264//426 254//426 259//426
f 260//427 254//427 264//427
f 265//428 264//428 259//428
f 266//429 259//429 132//429
f 266//430 265//430 259//430
f 177//431 266//431 132//431
f 267//432 258//432 263//432
f 267//433 268//433 258//433
f 269//434 250//434 258//434
f 268//435 269//435 258//435
f 230//436 263//436 227//436
f 230//437 267//437 263//437
f 270//438 260//438 264//438
f 271//439 260//439 270//439
f 271//440 272//440 260//440
f 273//441 265//441 266//441
f 177//442 274//442 266//442
f 273//443 270//443 264//443
f 273//444 264//444 265//444
f 275//445 271//445 270//445
f 276//446 270//446 273//446
f 276//447 275//447 270//447
f 276//448 273//448 266//448
f 277//449 57//449 58//449
f 277//450 278//450 57//450
f 57//451 279//451 61//451
f 280//452 61//452 279//452
f 57//453 281//453 279//453
f 282//454 280//454 279//454
f 283//455 282//455 279//455
f 284//456 283//456 279//456
f 281//457 285//457 279//457
f 284//458 279//458 285//458
f 286//459 284//459 285//459
f 281//460 287//460 285//460
f 288//461 286//461 285//461
f 289//462 288//462 285//462
f 290//463 291//463 285//463
f 289//464 285//464 291//464
f 287//465 290//465 285//465
f 292//466 293//466 291//466
f 294//467 292//467 291//467
f 290//468 294//468 291//468
f 294//469 295//469 292//469
f 293//470 292//470 295//470
f 296//471 294//471 297//471
f 295//472 294//472 296//472
f 297//473 294//473 290//473
f 298//474 297//474 290//474
f 299//475 287//475 281//475
f 300//476 287//476 299//476
f 126//477 287//477 300//477
f 126//478 290//478 287//478
f 299//479 281//479 301//479
f 301//480 281//480 302//480
f 302//481 281//481 303//481
f 57//482 278//482 281//482
f 303//483 281//483 278//483
f 280//484 64//484 61//484
f 107//485 277//485 58//485
f 157//486 64//486 280//486
f 157//487 67//487 64//487
f 156//488 157//488 280//488
f 304//489 141//489 43//489
f 175//490 108//490 128//490
f 124//491 108//491 175//491
f 174//492 182//492 175//492
f 183//493 175//493 182//493
f 124//494 175//494 183//494
f 26//495 178//495 27//495
f 276//496 266//496 305//496
f 274//497 305//497 266//497
f 306//498 276//498 305//498
f 307//499 306//499 305//499
f 308//500 307//500 305//500
f 309//501 305//501 274//501
f 309//502 308//502 305//502
f 310//503 309//503 274//503
f 311//504 274//504 177//504
f 311//505 310//505 274//505
f 312//506 311//506 177//506
f 313//507 177//507 141//507
f 312//508 177//508 313//508
f 313//509 141//509 304//509
f 314//510 182//510 174//510
f 315//511 182//511 314//511
f 316//512 193//512 182//512
f 317//513 316//513 182//513
f 318//514 317//514 182//514
f 315//515 318//515 182//515
f 314//516 174//516 211//516
f 218//517 217//517 219//517
f 256//518 210//518 209//518
f 207//519 208//519 210//519
f 207//520 206//520 208//520
f 319//521 210//521 256//521
f 319//522 207//522 210//522
f 269//523 219//523 250//523
f 320//524 218//524 219//524
f 321//525 320//525 219//525
f 322//526 321//526 219//526
f 269//527 322//527 219//527
f 323//528 319//528 256//528
f 320//529 324//529 218//529
f 324//530 325//530 218//530
f 324//531 326//531 325//531
f 213//532 325//532 326//532
f 213//533 214//533 325//533
f 324//534 327//534 326//534
f 327//535 328//535 326//535
f 329//536 213//536 326//536
f 330//537 329//537 326//537
f 331//538 332//538 326//538
f 330//539 326//539 332//539
f 328//540 331//540 326//540
f 331//541 333//541 332//541
f 334//542 332//542 333//542
f 335//543 332//543 316//543
f 334//544 316//544 332//544
f 336//545 330//545 332//545
f 335//546 336//546 332//546
f 337//547 338//547 333//547
f 331//548 337//548 333//548
f 339//549 333//549 193//549
f 340//550 193//550 333//550
f 339//551 334//551 333//551
f 338//552 340//552 333//552
f 341//553 337//553 331//553
f 342//554 337//554 341//554
f 343//555 344//555 331//555
f 345//556 331//556 344//556
f 346//557 343//557 331//557
f 328//558 346//558 331//558
f 345//559 341//559 331//559
f 347//560 344//560 343//560
f 348//561 344//561 349//561
f 347//562 349//562 344//562
f 345//563 344//563 348//563
f 350//564 343//564 346//564
f 347//565 343//565 350//565
f 351//566 346//566 328//566
f 351//567 350//567 346//567
f 351//568 328//568 327//568
f 351//569 327//569 324//569
f 352//570 324//570 320//570
f 351//571 324//571 352//571
f 353//572 320//572 321//572
f 352//573 320//573 353//573
f 354//574 353//574 321//574
f 354//575 321//575 322//575
f 348//576 355//576 322//576
f 354//577 322//577 355//577
f 269//578 348//578 322//578
f 348//579 349//579 355//579
f 354//580 355//580 349//580
f 347//581 354//581 349//581
f 345//582 348//582 356//582
f 357//583 348//583 269//583
f 358//584 348//584 357//584
f 359//585 256//585 262//585
f 359//586 323//586 256//586
f 262//587 256//587 251//587
f 360//588 262//588 261//588
f 360//589 359//589 262//589
f 260//590 272//590 261//590
f 361//591 261//591 272//591
f 361//592 360//592 261//592
f 362//593 272//593 271//593
f 362//594 361//594 272//594
f 267//595 363//595 268//595
f 269//596 268//596 363//596
f 364//597 271//597 275//597
f 364//598 362//598 271//598
f 365//599 363//599 267//599
f 357//600 269//600 363//600
f 231//601 365//601 267//601
f 231//602 267//602 230//602
f 306//603 275//603 276//603
f 366//604 364//604 275//604
f 366//605 275//605 306//605
f 111//606 278//606 277//606
f 367//607 278//607 111//607
f 367//608 303//608 278//608
f 154//609 280//609 282//609
f 155//610 154//610 282//610
f 111//611 277//611 107//611
f 113//612 367//612 111//612
f 154//613 156//613 280//613
f 325//614 215//614 218//614
f 214//615 215//615 325//615
f 368//616 207//616 319//616
f 369//617 323//617 359//617
f 370//618 319//618 323//618
f 371//619 370//619 323//619
f 372//620 371//620 323//620
f 369//621 372//621 323//621
f 373//622 359//622 360//622
f 373//623 369//623 359//623
f 361//624 373//624 360//624
f 368//625 319//625 370//625
f 371//626 374//626 370//626
f 368//627 370//627 374//627
f 375//628 374//628 371//628
f 368//629 374//629 207//629
f 204//630 207//630 374//630
f 375//631 204//631 374//631
f 375//632 371//632 372//632
f 376//633 372//633 369//633
f 377//634 202//634 372//634
f 375//635 372//635 202//635
f 376//636 377//636 372//636
f 373//637 378//637 369//637
f 376//638 369//638 378//638
f 379//639 378//639 373//639
f 379//640 380//640 378//640
f 376//641 378//641 380//641
f 381//642 382//642 373//642
f 383//643 373//643 382//643
f 384//644 381//644 373//644
f 361//645 384//645 373//645
f 383//646 379//646 373//646
f 385//647 382//647 381//647
f 386//648 382//648 385//648
f 386//649 383//649 382//649
f 384//650 387//650 381//650
f 388//651 381//651 387//651
f 385//652 381//652 388//652
f 389//653 387//653 384//653
f 390//654 387//654 389//654
f 391//655 387//655 390//655
f 391//656 388//656 387//656
f 389//657 384//657 361//657
f 389//658 361//658 362//658
f 364//659 389//659 362//659
f 392//660 363//660 365//660
f 233//661 392//661 365//661
f 233//662 365//662 231//662
f 357//663 363//663 392//663
f 235//664 392//664 233//664
f 307//665 366//665 306//665
f 393//666 303//666 367//666
f 393//667 302//667 303//667
f 283//668 155//668 282//668
f 153//669 155//669 283//669
f 394//670 367//670 113//670
f 394//671 393//671 367//671
f 394//672 113//672 395//672
f 115//673 395//673 113//673
f 152//674 155//674 153//674
f 204//675 205//675 207//675
f 353//676 350//676 352//676
f 351//677 352//677 350//677
f 390//678 389//678 364//678
f 396//679 364//679 366//679
f 396//680 390//680 364//680
f 397//681 357//681 392//681
f 397//682 358//682 357//682
f 237//683 392//683 235//683
f 237//684 397//684 392//684
f 308//685 366//685 307//685
f 308//686 398//686 366//686
f 396//687 366//687 398//687
f 399//688 302//688 393//688
f 399//689 301//689 302//689
f 284//690 153//690 283//690
f 400//691 393//691 394//691
f 399//692 393//692 400//692
f 151//693 153//693 284//693
f 401//694 402//695 403//696
f 404//697 403//698 395//697
f 394//699 395//699 403//700
f 402//701 394//702 403//703
f 405//704 403//705 404//704
f 405//706 401//707 403//708
f 406//709 404//709 395//709
f 400//710 394//710 402//711
f 407//712 400//712 402//713
f 407//714 402//715 401//716
f 408//717 404//717 406//717
f 408//718 405//718 404//718
f 115//719 406//719 395//719
f 407//720 399//720 400//720
f 117//721 406//721 115//721
f 117//722 408//722 406//722
f 315//723 314//723 211//723
f 213//724 315//724 211//724
f 375//725 203//725 204//725
f 347//726 350//726 353//726
f 347//727 353//727 354//727
f 409//728 390//728 396//728
f 409//729 391//729 390//729
f 410//730 358//730 397//730
f 410//731 356//731 358//731
f 348//732 358//732 356//732
f 236//733 397//733 237//733
f 236//734 410//734 397//734
f 409//735 396//735 398//735
f 309//736 398//736 308//736
f 309//737 409//737 398//737
f 299//738 301//738 399//738
f 149//739 284//739 286//739
f 117//740 399//740 407//740
f 119//741 399//741 117//741
f 119//742 299//742 399//742
f 149//743 151//743 284//743
f 408//744 401//745 405//744
f 407//746 401//747 408//746
f 117//748 407//748 408//748
f 339//749 193//749 316//749
f 238//750 194//750 193//750
f 411//751 238//751 193//751
f 340//752 411//752 193//752
f 335//753 316//753 317//753
f 339//754 316//754 334//754
f 329//755 317//755 318//755
f 330//756 317//756 329//756
f 336//757 317//757 330//757
f 335//758 317//758 336//758
f 329//759 318//759 315//759
f 329//760 315//760 213//760
f 202//761 201//761 203//761
f 202//762 203//762 375//762
f 412//763 385//763 388//763
f 412//764 386//764 385//764
f 413//765 391//765 409//765
f 413//766 388//766 391//766
f 234//767 410//767 236//767
f 309//768 413//768 409//768
f 288//769 149//769 286//769
f 122//770 299//770 119//770
f 122//771 300//771 299//771
f 145//772 149//772 288//772
f 414//773 200//773 202//773
f 377//774 414//774 202//774
f 415//775 388//775 413//775
f 415//776 412//776 388//776
f 416//777 356//777 410//777
f 345//778 356//778 416//778
f 232//779 410//779 234//779
f 232//780 416//780 410//780
f 310//781 413//781 309//781
f 310//782 415//782 413//782
f 126//783 300//783 125//783
f 122//784 125//784 300//784
f 145//785 288//785 289//785
f 121//786 125//786 122//786
f 196//787 200//787 414//787
f 417//788 414//788 377//788
f 417//789 196//789 414//789
f 376//790 417//790 377//790
f 418//791 380//791 379//791
f 419//792 417//792 380//792
f 376//793 380//793 417//793
f 418//794 419//794 380//794
f 420//795 379//795 421//795
f 420//796 418//796 379//796
f 421//797 379//797 383//797
f 386//798 421//798 383//798
f 422//799 386//799 412//799
f 422//800 412//800 415//800
f 229//801 416//801 232//801
f 311//802 415//802 310//802
f 311//803 422//803 415//803
f 126//804 298//804 290//804
f 146//805 289//805 291//805
f 423//806 146//806 291//806
f 127//807 298//807 126//807
f 145//808 289//808 146//808
f 123//809 127//809 126//809
f 40//810 143//810 146//810
f 40//811 146//811 423//811
f 32//812 178//812 26//812
f 184//813 178//813 32//813
f 44//814 42//814 47//814
f 194//815 243//815 247//815
f 194//816 247//816 191//816
f 238//817 240//817 243//817
f 238//818 243//818 194//818
f 238//819 239//819 240//819
f 197//820 196//820 417//820
f 424//821 197//821 417//821
f 419//822 424//822 417//822
f 425//823 421//823 386//823
f 425//824 420//824 421//824
f 416//825 341//825 345//825
f 426//826 341//826 416//826
f 425//827 386//827 422//827
f 229//828 426//828 416//828
f 311//829 425//829 422//829
f 298//830 427//830 297//830
f 296//831 297//831 427//831
f 428//832 296//832 427//832
f 423//833 293//833 295//833
f 423//834 291//834 293//834
f 429//835 423//835 295//835
f 127//836 427//836 298//836
f 30//837 427//837 127//837
f 430//838 428//838 427//838
f 430//839 427//839 30//839
f 35//840 428//840 430//840
f 39//841 423//841 429//841
f 40//842 423//842 39//842
f 431//843 39//843 429//843
f 38//844 431//844 429//844
f 35//845 430//845 30//845
f 38//846 39//846 431//846
f 124//847 184//847 32//847
f 124//848 183//848 184//848
f 225//849 238//849 411//849
f 226//850 225//850 411//850
f 198//851 304//851 43//851
f 313//852 304//852 198//852
f 424//853 198//853 197//853
f 313//854 198//854 424//854
f 411//855 340//855 338//855
f 313//856 424//856 419//856
f 432//857 411//857 338//857
f 432//858 338//858 342//858
f 337//859 342//859 338//859
f 226//860 411//860 432//860
f 312//861 313//861 419//861
f 312//862 419//862 418//862
f 228//863 226//863 432//863
f 312//864 418//864 420//864
f 426//865 432//865 342//865
f 341//866 426//866 342//866
f 229//867 228//867 432//867
f 229//868 432//868 426//868
f 311//869 312//869 420//869
f 311//870 420//870 425//870
f 295//871 296//871 433//871
f 429//872 295//872 433//872
f 428//873 433//873 296//873
f 37//874 433//874 428//874
f 38//875 429//875 433//875
f 38//876 433//876 37//876
f 35//877 37//877 428//877
