# Blender v2.82 (sub 7) OBJ File: ''
# www.blender.org
mtllib sim_sea_2-5_l_foot_prt.mtl
o sim_sea_2-5_l_foot_prt
v 48.114105 -642.672302 -49.937614
v 49.477306 -645.243896 -45.477421
v 48.350311 -642.710815 -42.755787
v 45.872986 -635.073486 -46.230835
v 46.540318 -635.305969 -42.052326
v 46.077080 -635.156189 -50.413918
v 47.020172 -638.917480 -51.413723
v 51.140247 -645.250854 -55.039604
v 55.413685 -646.930481 -55.433506
v 47.657673 -638.860718 -40.909557
v 49.894733 -643.261047 -37.664833
v 51.752213 -646.419312 -35.858158
v 48.829876 -638.931519 -37.219769
v 47.282131 -635.107483 -56.368942
v 49.233780 -638.653320 -58.823345
v 48.480934 -634.097046 -59.875366
v 46.884041 -628.618652 -48.231670
v 48.219391 -628.493103 -55.944569
v 49.595894 -628.118835 -59.510105
v 50.440258 -634.966064 -65.283966
v 52.464600 -642.786072 -60.857731
v 50.287678 -629.715149 -65.743774
v 47.854958 -628.416809 -39.661606
v 50.012543 -635.099670 -32.302834
v 50.565147 -628.239380 -32.773659
v 51.937450 -630.290710 -26.821899
v 51.505550 -643.273376 -34.672176
v 51.931355 -639.263794 -31.468372
v 53.031307 -635.517883 -26.538307
v 51.339581 -634.336426 -26.673786
v 49.061871 -627.241150 -54.937832
v 51.516724 -626.229126 -57.615593
v 48.782158 -627.181091 -39.981621
v 51.078465 -627.961243 -63.300957
v 52.584587 -626.132446 -31.984459
v 53.869522 -626.758545 -28.506258
v 47.348831 -595.029602 8.754603
v 48.446236 -592.394470 5.873478
v 50.833527 -599.143799 5.782530
v 52.746796 -596.000061 4.346650
v 49.463531 -599.363159 8.728330
v 48.912811 -590.428528 5.220734
v 46.288540 -590.144653 8.687458
v 94.247551 -590.052979 8.796545
v 92.708359 -595.677246 8.765100
v 51.960049 -605.276123 5.234837
v 51.004833 -605.704346 8.742636
v 90.632965 -599.551880 8.747159
v 53.382671 -605.283142 5.068444
v 62.110107 -623.384949 2.807769
v 52.473675 -625.462036 6.024527
v 82.142517 -624.044495 3.812093
v 88.347321 -625.000732 5.063906
v 62.827957 -610.240967 5.025990
v 57.301544 -628.484558 -2.485946
v 51.137775 -625.794434 9.890698
v 51.374996 -629.496155 7.313573
v 52.616894 -631.012451 -1.545177
v 64.727844 -626.975525 -2.722360
v 88.304176 -630.337585 -2.116152
v 75.499763 -626.982178 -2.606349
v 82.619583 -628.118835 -2.691988
v 82.087059 -605.504333 4.439388
v 87.548187 -605.451294 6.270723
v 89.019043 -625.540405 9.576657
v 77.465645 -605.453247 4.048090
v 72.420418 -610.368408 4.413064
v 67.575562 -610.350281 4.670139
v 88.849403 -630.152161 7.541736
v 86.838165 -599.436340 4.622903
v 89.242615 -599.256104 5.951686
v 88.959091 -605.631897 8.801011
v 91.246040 -594.750061 6.033756
v 91.060005 -590.441467 5.308261
v 92.418732 -587.950378 6.185661
v 87.316025 -591.085388 3.992078
v 94.487610 -584.341187 8.776906
v 91.334061 -579.564880 6.010307
v 90.739532 -581.456604 5.468186
v 92.420235 -577.194946 8.577170
v 86.884384 -576.347595 4.365291
v 86.207771 -571.252441 5.675605
v 89.059685 -572.513794 8.252309
v 82.757851 -568.141785 7.659072
v 84.054344 -569.214417 5.361618
v 82.362938 -573.098267 3.494618
v 81.358864 -567.866272 5.221926
v 82.752914 -574.477478 3.098446
v 86.854012 -580.811218 3.823443
v 83.234467 -581.665894 3.260015
v 82.746613 -575.337219 3.047938
v 77.847069 -580.894714 3.230983
v 82.929108 -590.834595 3.370414
v 87.328499 -586.807495 3.531870
v 82.539124 -597.791870 3.241781
v 82.550636 -599.272217 3.228359
v 82.323875 -600.472778 3.439292
v 70.105515 -604.772766 3.464636
v 77.416275 -600.595642 3.502891
v 57.798035 -605.411560 4.502130
v 62.513847 -605.415100 4.190596
v 62.326653 -600.593506 3.551107
v 67.324425 -600.544678 3.452053
v 62.198624 -595.755920 3.268208
v 72.370316 -600.518555 3.437030
v 70.188866 -603.861389 3.394465
v 77.644684 -595.785645 3.332314
v 61.983170 -590.848694 3.157040
v 56.580032 -580.870422 2.814230
v 72.468269 -575.826660 3.238578
v 77.526062 -575.811829 3.302197
v 62.121281 -575.723083 3.051417
v 77.344162 -571.248047 3.860550
v 70.357040 -569.885498 3.564474
v 76.785805 -567.715454 5.117475
v 57.262074 -575.685791 3.092053
v 57.811642 -574.422729 3.058024
v 62.433281 -571.188599 3.702019
v 52.888733 -585.593811 3.273438
v 52.665714 -580.734863 3.874999
v 57.389233 -578.571533 2.478434
v 53.447052 -587.031799 3.185056
v 57.005791 -590.711975 3.171015
v 57.619324 -597.756714 3.207655
v 57.840496 -599.172302 3.172970
v 57.408730 -600.352905 3.421916
v 47.992519 -586.093201 5.970167
v 48.568615 -581.087402 5.934355
v 49.477654 -578.210938 5.859672
v 52.883144 -576.375061 4.461462
v 53.177841 -572.333130 5.792257
v 57.843113 -573.199829 3.456103
v 58.355698 -567.629272 5.411647
v 59.896183 -566.673157 5.219080
v 62.819828 -567.368835 4.847235
v 67.551620 -567.411804 4.889598
v 72.182686 -567.548279 5.006332
v 70.116188 -569.222961 3.777605
v 77.814285 -566.299866 5.654523
v 65.100166 -565.746094 5.734537
v 76.200378 -566.423706 7.288231
v 72.037239 -565.359497 6.304034
v 65.781960 -565.648376 7.361055
v 58.081074 -567.117493 7.754853
v 51.208851 -572.408020 8.267728
v 47.831417 -577.257385 8.551759
v 46.327747 -582.997559 8.581983
v 87.322182 -629.670959 10.013129
v 87.893799 -633.886536 8.547142
v 52.510586 -629.633362 9.858768
v 52.123646 -633.707642 7.149088
v 54.677166 -645.270325 -60.625103
v 52.983261 -639.808411 -64.761124
v 61.441010 -646.003479 -66.104797
v 56.388794 -643.072998 -65.063278
v 67.438393 -647.352051 -68.333160
v 62.219906 -646.679321 -27.325361
v 72.189980 -647.384705 -68.406754
v 74.973953 -645.881897 -27.292425
v 67.795166 -645.831360 -26.819895
v 77.945312 -648.395081 -31.005095
v 81.943619 -645.695557 -30.081535
v 80.527916 -646.729309 -65.830673
v 88.804779 -646.663025 -35.806664
v 90.524200 -645.455078 -51.818111
v 90.649467 -645.379456 -43.708221
v 86.870171 -643.170105 -32.143471
v 81.837997 -643.031494 -28.025143
v 86.846008 -645.211548 -59.232227
v 76.660324 -646.695557 -67.309799
v 72.231209 -640.457092 -71.420311
v 67.252388 -640.450867 -71.382080
v 53.409348 -643.234924 -32.369446
v 55.544720 -643.403625 -30.295214
v 51.528927 -633.927246 -69.989899
v 53.042583 -635.625000 -70.404564
v 56.334148 -635.393066 -75.286499
v 51.964836 -633.176575 -76.325249
v 53.622108 -632.978577 -77.952332
v 51.680424 -628.968628 -77.723755
v 53.282101 -629.164612 -78.951080
v 53.354347 -624.781799 -78.518311
v 61.838551 -624.922791 -80.829132
v 51.391472 -622.007996 -73.979256
v 52.277275 -622.346741 -77.649757
v 53.722839 -620.424561 -78.515877
v 51.289764 -624.902466 -73.233307
v 57.600075 -619.494507 -73.847382
v 53.161484 -619.857544 -73.990891
v 53.276897 -626.281128 -64.403099
v 52.923962 -623.900085 -72.535362
v 56.701660 -637.426880 -71.433319
v 52.302731 -634.002686 3.290307
v 53.394829 -629.340393 -21.750849
v 58.310741 -634.891418 -21.649881
v 62.319561 -635.903748 3.310845
v 72.329468 -636.046082 3.372878
v 86.100243 -635.038025 2.965460
v 56.736382 -639.738831 -26.632294
v 61.954838 -634.335632 8.248157
v 69.331429 -635.025391 7.140687
v 77.200348 -633.647705 8.934162
v 67.244232 -633.599121 8.822111
v 80.851379 -634.972778 7.106330
v 77.725845 -636.430054 -16.406664
v 88.527611 -634.190186 7.602694
v 67.610565 -635.630005 -16.511330
v 86.361687 -635.148865 -26.557991
v 87.831192 -633.614746 -26.769474
v 86.349792 -635.110596 -21.679018
v 82.368408 -636.273193 -21.485338
v 77.934341 -636.951599 -21.101254
v 87.911613 -638.890625 -30.923868
v 90.198769 -634.898743 -32.149952
v 89.802155 -627.950500 -33.128658
v 88.320679 -629.687439 -26.953245
v 87.780235 -630.444946 -21.887781
v 83.140739 -639.481812 -26.265984
v 76.512703 -643.314209 -25.902079
v 72.036057 -639.854065 -23.032343
v 72.247559 -643.249573 -25.279100
v 67.750381 -639.901978 -23.099951
v 62.614944 -636.384766 -20.847855
v 58.971390 -643.795654 -27.931597
v 63.776157 -643.423523 -25.679756
v 57.103195 -628.359558 -16.789452
v 53.729649 -633.298279 8.649381
v 86.753113 -633.728394 9.079323
v 57.298943 -605.776611 -80.393692
v 57.242664 -601.077454 -80.487358
v 54.640366 -615.313782 -79.038193
v 77.556908 -606.441772 -81.350967
v 77.794044 -625.007629 -80.674545
v 67.130844 -627.580322 -81.100754
v 67.121864 -606.908569 -81.961639
v 88.339546 -622.143799 -77.844162
v 88.776627 -625.819885 -77.975189
v 77.537354 -629.359558 -80.550682
v 85.132561 -615.425476 -78.220642
v 85.327209 -600.366150 -79.003204
v 81.992928 -605.481934 -80.180801
v 67.382996 -629.562805 -81.110489
v 89.195847 -625.176025 -73.090530
v 86.393578 -628.811707 -78.746132
v 88.405540 -622.096313 -74.502106
v 85.932053 -615.011536 -75.036362
v 83.290100 -601.616394 -80.900085
v 81.470360 -599.122070 -84.340752
v 85.795944 -595.294006 -79.172752
v 83.539497 -595.933899 -83.857231
v 75.943420 -602.637817 -84.745361
v 75.455650 -600.283142 -86.670326
v 78.541534 -598.747559 -86.824936
v 69.866760 -603.494507 -85.007454
v 61.020340 -599.386475 -86.609467
v 58.544079 -599.012634 -84.635757
v 55.173836 -600.280823 -78.922783
v 56.565262 -595.956543 -84.046036
v 54.627823 -585.572876 -74.734962
v 54.751335 -594.453369 -79.309723
v 54.154896 -614.960999 -75.645874
v 56.856544 -625.290955 -65.116119
v 57.889809 -624.264832 -68.121674
v 57.258575 -625.362000 -27.584345
v 61.748611 -624.809692 -65.340660
v 74.581345 -624.983643 -26.596895
v 62.266827 -623.482300 -68.692879
v 70.237076 -623.944153 -69.662872
v 67.289841 -619.242920 -73.333321
v 77.649429 -624.329468 -69.077080
v 77.392326 -619.133911 -73.015976
v 82.512566 -625.438660 -27.165554
v 82.804832 -625.372681 -31.555830
v 86.681671 -619.690430 -73.904839
v 82.064445 -624.626953 -68.300003
v 91.089478 -626.763428 -37.828323
v 91.578789 -627.106384 -55.222328
v 86.422043 -626.175903 -64.233063
v 87.427071 -625.918457 -36.502239
v 87.417465 -626.014282 -31.727444
v 88.960541 -627.937988 -63.615040
v 93.550964 -628.643188 -48.840145
v 92.273460 -628.587891 -56.195129
v 92.510597 -628.354736 -39.489716
v 85.933296 -626.584106 -28.479837
v 80.378670 -625.988281 -24.424120
v 86.439476 -628.857178 -21.681782
v 67.474861 -625.738342 -23.354292
v 60.614933 -625.971313 -24.054483
v 64.734543 -627.040039 -16.987679
v 85.826935 -585.701355 -74.797455
v 55.177898 -584.318726 -83.960251
v 55.490143 -581.599365 -74.659309
v 84.746391 -581.602966 -74.713005
v 57.658138 -578.034363 -74.797951
v 57.270615 -578.063354 -79.733383
v 81.797531 -577.195312 -74.890907
v 63.054798 -574.302063 -75.204002
v 60.519035 -575.171692 -83.848602
v 63.860779 -573.579407 -86.474823
v 75.455864 -573.924377 -75.331947
v 69.657318 -573.198242 -75.568535
v 69.152725 -571.806458 -84.449188
v 74.857292 -573.110596 -86.825027
v 79.518173 -575.831848 -86.656364
v 82.118858 -577.796082 -79.879875
v 84.096664 -581.465942 -86.338188
v 85.580215 -585.499207 -82.884346
v 86.104309 -590.304077 -79.215591
v 87.461227 -623.587402 -72.176971
v 59.224876 -643.328735 -66.863228
v 62.304821 -640.225037 -70.403236
v 61.731110 -636.421814 -75.822113
v 61.969772 -633.867249 -79.241280
v 68.110023 -637.418518 -75.943840
v 70.293785 -635.461609 -82.016388
v 69.977066 -635.102234 -82.149612
v 56.631290 -593.515869 -85.605782
v 56.193356 -587.970337 -85.835060
v 58.280052 -596.084839 -87.128090
v 63.848541 -598.928284 -88.123795
v 63.247807 -599.807983 -87.069839
v 66.768509 -572.717651 -87.765251
v 57.271839 -580.185486 -86.094505
v 57.058327 -579.006531 -84.053001
v 75.634956 -627.087646 -16.799915
v 70.108208 -601.695923 -86.472183
v 82.443741 -579.867493 -87.917336
v 84.441833 -587.448425 -85.965240
v 70.017937 -572.073853 -86.466881
v 71.273849 -637.674316 -75.434273
v 82.720917 -628.212219 -16.793428
v 77.313225 -640.344543 -70.498581
v 77.127998 -634.301758 -79.172676
v 77.700294 -636.753723 -75.497551
v 80.854294 -643.554260 -67.115341
v 81.105927 -640.183350 -69.287720
v 80.882172 -636.012207 -75.548897
v 86.103012 -633.012268 -77.906891
v 83.650604 -643.352051 -65.329239
v 86.935326 -635.994751 -70.276993
v 88.128090 -633.229431 -76.142784
v 86.500320 -629.412170 -16.898348
v 83.665268 -593.566833 -84.859085
v 82.823494 -578.846130 -84.145515
v 85.743507 -643.037720 -63.295738
v 86.784409 -639.693665 -65.327591
v 87.535828 -642.717896 -61.086487
v 89.504738 -634.820190 -65.378365
v 90.638824 -639.006042 -59.377407
v 91.032104 -643.204285 -54.843681
v 92.059914 -638.938721 -55.932533
v 93.624191 -635.266357 -54.225815
v 90.528870 -643.286133 -37.288181
v 92.089867 -643.028320 -42.070164
v 91.412575 -638.917603 -36.611664
v 92.876373 -635.152161 -38.217575
v 91.776939 -634.595581 -59.651073
v 89.889626 -629.626770 -63.847675
v 92.637489 -643.012695 -48.248089
v 94.399918 -635.227905 -50.483894
v 94.514610 -635.220642 -44.762489
vn -0.9021 -0.4307 0.0274
vn -0.9547 -0.2961 0.0298
vn -0.9588 -0.2476 0.1394
vn -0.9637 -0.2638 -0.0418
vn -0.9644 -0.2576 0.0594
vn -0.7625 -0.6334 -0.1322
vn -0.3701 -0.9268 -0.0637
vn -0.8672 -0.3794 -0.3226
vn -0.9552 -0.2487 0.1603
vn -0.8086 -0.5585 0.1849
vn -0.3303 -0.9432 -0.0371
vn -0.8879 -0.4323 0.1572
vn -0.9108 -0.2999 0.2836
vn -0.9325 -0.2556 0.2553
vn -0.9622 -0.1891 -0.1963
vn -0.9095 -0.3050 -0.2826
vn -0.8703 -0.4089 -0.2746
vn -0.9350 -0.1996 0.2932
vn -0.8971 -0.2347 -0.3743
vn -0.9638 0.1836 -0.1935
vn -0.9748 0.1488 -0.1663
vn -0.9442 0.1924 -0.2674
vn -0.9272 0.1533 -0.3418
vn -0.9275 -0.2226 -0.3002
vn -0.8109 -0.4493 -0.3749
vn -0.8074 -0.4348 -0.3989
vn -0.9692 0.1903 -0.1563
vn -0.9416 -0.0564 -0.3320
vn -0.9890 0.1391 -0.0510
vn -0.9780 0.1299 0.1634
vn -0.9768 0.1859 0.1063
vn -0.9315 -0.1421 0.3348
vn -0.9406 0.0637 0.3336
vn -0.8746 -0.2573 0.4109
vn -0.9268 0.0995 0.3621
vn -0.9624 0.0950 0.2546
vn -0.8444 -0.2856 0.4533
vn -0.8327 -0.2890 0.4724
vn -0.8519 -0.3076 0.4238
vn -0.9666 0.1504 0.2075
vn -0.5686 -0.7866 0.2407
vn -0.7742 0.6207 -0.1239
vn -0.7242 0.6567 -0.2106
vn -0.5662 0.7947 -0.2187
vn -0.3914 0.9202 -0.0110
vn -0.7054 0.6639 -0.2483
vn -0.5832 0.7885 -0.1953
vn -0.5647 0.8252 -0.0139
vn -0.7882 0.6108 0.0749
vn -0.7343 0.6216 0.2729
vn -0.7435 0.6102 0.2735
vn -0.7314 0.5750 0.3668
vn -0.7356 0.5652 0.3735
vn -0.7899 -0.2720 -0.5496
vn -0.4346 -0.1417 -0.8894
vn -0.8202 -0.3978 -0.4111
vn -0.4595 -0.1797 -0.8698
vn -0.8467 -0.1906 -0.4968
vn -0.0023 0.0132 0.9999
vn -0.0003 -0.0055 1.0000
vn -0.0003 -0.0062 1.0000
vn -0.8958 -0.1265 -0.4260
vn -0.9322 -0.2272 -0.2816
vn -0.0005 -0.0044 1.0000
vn -0.0004 0.0021 1.0000
vn -0.1156 0.0673 -0.9910
vn -0.4859 -0.1008 -0.8682
vn -0.3076 -0.0450 -0.9505
vn -0.9632 -0.0349 -0.2666
vn 0.0547 0.1627 -0.9852
vn 0.2430 0.4557 -0.8563
vn -0.0952 -0.1672 -0.9813
vn -0.1146 -0.2100 -0.9710
vn -0.3347 0.8120 -0.4782
vn -0.9442 -0.0250 -0.3284
vn -0.9376 0.1561 -0.3106
vn -0.9632 0.2078 -0.1706
vn -0.4836 0.7015 -0.5235
vn 0.0543 0.8490 -0.5255
vn -0.1783 0.7846 -0.5938
vn 0.2372 0.7790 -0.5805
vn 0.0051 0.9073 -0.4205
vn 0.1286 0.8446 -0.5197
vn 0.3612 0.8019 -0.4759
vn 0.3165 0.0713 -0.9459
vn 0.9887 0.0491 -0.1413
vn 0.0843 -0.0048 -0.9964
vn -0.0141 -0.0597 -0.9981
vn -0.0531 -0.1020 -0.9934
vn -0.0772 -0.1360 -0.9877
vn 0.9892 0.0271 -0.1440
vn 0.9959 0.0694 -0.0576
vn 0.4862 -0.1770 -0.8557
vn 0.8370 -0.2539 -0.4848
vn 0.3123 -0.2165 -0.9250
vn 0.8728 -0.0164 -0.4878
vn 0.4853 -0.2003 -0.8511
vn 0.7780 -0.3362 -0.5307
vn 0.7928 -0.4226 -0.4390
vn 0.8587 -0.2404 -0.4525
vn 0.6594 -0.0971 -0.7455
vn 0.7662 -0.1180 -0.6317
vn 0.3498 -0.1408 -0.9262
vn 0.3905 -0.0915 -0.9160
vn 0.8258 -0.2231 -0.5179
vn 0.8047 -0.0359 -0.5926
vn 0.4834 0.0442 -0.8743
vn 0.7224 0.0791 -0.6869
vn 0.6087 0.0358 -0.7926
vn 0.8095 0.2190 -0.5447
vn 0.4221 0.1247 -0.8979
vn 0.5031 0.2773 -0.8185
vn 0.7045 0.4112 -0.5785
vn 0.6375 0.4125 -0.6507
vn 0.6832 0.7288 0.0453
vn 0.5682 0.7858 -0.2442
vn 0.3777 0.2623 -0.8880
vn 0.2191 0.3435 -0.9132
vn 0.3943 0.2776 -0.8760
vn 0.3318 0.3459 -0.8776
vn 0.1253 0.1187 -0.9850
vn 0.4225 0.1235 0.8979
vn 0.3037 -0.0112 -0.9527
vn 0.3014 -0.0087 -0.9535
vn 0.0007 0.5233 0.8522
vn 0.4027 0.1076 -0.9090
vn 0.3148 0.0534 -0.9477
vn 0.3171 0.0557 -0.9467
vn 0.2373 -0.6222 0.7460
vn 0.2667 0.5432 -0.7961
vn -0.1586 0.0209 0.9871
vn 0.0036 -0.0122 -0.9999
vn -0.0010 -0.0331 -0.9995
vn 0.0492 -0.0137 -0.9987
vn 0.0612 -0.0314 -0.9976
vn -0.0004 -0.0368 -0.9993
vn -0.0200 -0.0272 -0.9994
vn 0.0006 -0.0334 -0.9994
vn 0.1303 -0.7402 -0.6596
vn 0.0269 -0.0314 -0.9991
vn 0.0313 -0.0104 -0.9995
vn 0.3994 0.0760 -0.9136
vn 0.5008 -0.6083 -0.6158
vn 0.2721 0.0682 -0.9598
vn 0.4549 0.0321 -0.8900
vn 0.3454 -0.1014 -0.9330
vn 0.2740 -0.0880 -0.9577
vn 0.1409 0.0104 -0.9900
vn 0.1335 -0.1064 -0.9853
vn 0.3097 0.0110 -0.9508
vn 0.2912 -0.1997 -0.9356
vn 0.2942 -0.2190 -0.9303
vn 0.0805 -0.1980 -0.9769
vn 0.0653 -0.1404 -0.9879
vn 0.0684 -0.1106 -0.9915
vn -0.0101 -0.1116 -0.9937
vn -0.0527 -0.1880 -0.9807
vn -0.0776 -0.1769 -0.9812
vn -0.0650 -0.1743 -0.9825
vn -0.0790 -0.1750 -0.9814
vn -0.1304 -0.2401 -0.9620
vn -0.0184 -0.1322 -0.9911
vn -0.0898 -0.0620 -0.9940
vn -0.0654 -0.1337 -0.9889
vn -0.0028 -0.0413 -0.9991
vn -0.0031 0.0147 -0.9999
vn -0.0192 -0.0589 -0.9981
vn -0.0981 -0.0675 -0.9929
vn 0.0129 -0.0078 -0.9999
vn 0.0128 -0.0133 -0.9998
vn 0.1573 -0.0901 -0.9834
vn 0.0041 -0.0356 -0.9994
vn -0.0448 -0.0333 -0.9984
vn -0.0085 -0.1715 -0.9851
vn 0.0102 -0.0032 -0.9999
vn -0.0107 0.0191 -0.9998
vn 0.0041 -0.0225 -0.9997
vn -0.0148 0.0090 -0.9999
vn 0.0102 -0.0288 -0.9995
vn 0.0196 -0.0040 -0.9998
vn 0.0125 0.0148 -0.9998
vn -0.0526 0.0092 -0.9986
vn -0.0496 0.0109 -0.9987
vn 0.0183 0.0209 -0.9996
vn 0.0196 0.0249 -0.9995
vn 0.0121 0.1219 -0.9925
vn -0.0689 0.1184 -0.9906
vn -0.0539 0.0590 -0.9968
vn -0.0566 0.0611 -0.9965
vn 0.0568 0.0748 -0.9956
vn 0.0327 0.3396 -0.9400
vn 0.0329 0.3392 -0.9401
vn 0.1074 0.3483 -0.9312
vn 0.1070 0.3480 -0.9314
vn 0.0497 0.3217 -0.9455
vn 0.0353 0.2851 -0.9579
vn 0.0187 0.0614 -0.9979
vn -0.0079 0.0545 -0.9985
vn 0.0405 0.1392 -0.9894
vn -0.0410 0.1447 -0.9886
vn -0.0085 -0.0232 -0.9997
vn -0.2566 0.1071 -0.9606
vn -0.2578 0.0855 -0.9624
vn 0.4610 -0.2853 -0.8403
vn 0.4611 -0.2850 -0.8403
vn -0.1112 0.1816 0.9771
vn -0.1111 0.1818 0.9770
vn -0.0038 -0.0364 -0.9993
vn -0.0433 -0.0381 -0.9983
vn -0.0030 -0.0055 -1.0000
vn -0.2363 -0.0256 -0.9713
vn 0.0227 -0.0216 -0.9995
vn 0.0661 -0.0565 -0.9962
vn 0.0024 0.0249 -0.9997
vn 0.0155 -0.2077 -0.9781
vn 0.0153 -0.2117 -0.9772
vn -0.1304 -0.2166 -0.9675
vn -0.2768 -0.0933 -0.9564
vn -0.2812 -0.0984 -0.9546
vn -0.2460 -0.0173 -0.9691
vn -0.2318 -0.0124 -0.9727
vn -0.2464 -0.2347 -0.9403
vn -0.7461 -0.0435 -0.6644
vn -0.4865 0.0487 -0.8723
vn -0.4813 0.0491 -0.8752
vn -0.4541 0.1206 -0.8828
vn -0.4534 0.0890 -0.8868
vn -0.4402 0.1412 -0.8867
vn -0.3157 0.1419 -0.9382
vn -0.3732 0.3146 -0.8728
vn -0.4974 0.3038 -0.8126
vn -0.3125 0.1105 -0.9435
vn -0.3705 0.3378 -0.8652
vn -0.3835 0.2948 -0.8752
vn -0.1256 0.0025 -0.9921
vn -0.1375 0.3393 -0.9306
vn 0.0112 0.2861 -0.9581
vn -0.0776 0.2935 -0.9528
vn 0.0123 0.5111 -0.8594
vn -0.0812 0.3975 -0.9140
vn -0.0853 0.3104 -0.9468
vn 0.0387 0.7131 -0.7000
vn 0.0383 0.7131 -0.7000
vn 0.0374 0.5608 -0.8271
vn 0.0370 0.5607 -0.8272
vn -0.2617 0.2080 -0.9425
vn 0.0433 0.7646 -0.6431
vn 0.0428 0.7646 -0.6431
vn 0.0436 0.7647 -0.6429
vn 0.0391 0.5023 -0.8638
vn 0.0391 0.5020 -0.8640
vn 0.0386 0.5023 -0.8638
vn 0.2317 0.3732 -0.8984
vn 0.2314 0.3730 -0.8985
vn 0.0394 0.7078 -0.7053
vn 0.0398 0.7080 -0.7051
vn 0.4163 0.8622 0.2887
vn 0.0169 0.3015 -0.9533
vn 0.4086 0.8935 -0.1866
vn 0.0130 0.4291 -0.9032
vn 0.2266 0.9285 0.2942
vn 0.0243 0.6648 -0.7466
vn 0.1831 0.9500 0.2528
vn -0.0525 0.9979 -0.0380
vn -0.1794 0.9828 0.0438
vn -0.1864 0.9823 0.0192
vn -0.5334 0.8112 -0.2397
vn -0.6632 0.7112 -0.2330
vn -0.5701 0.6986 -0.4323
vn -0.6942 0.4304 -0.5769
vn -0.7026 0.4574 -0.5450
vn -0.8201 0.2457 -0.5168
vn -0.8004 0.2067 -0.5627
vn -0.7904 0.0866 -0.6065
vn -0.8113 -0.0495 -0.5825
vn -0.8450 -0.0033 -0.5347
vn -0.0036 0.0148 0.9999
vn -0.0023 0.0035 1.0000
vn -0.0039 0.0063 1.0000
vn -0.0006 0.0278 0.9996
vn -0.0007 0.0589 0.9983
vn 0.0006 0.0697 0.9976
vn 0.0007 0.0956 0.9954
vn 0.0100 0.1486 0.9888
vn 0.0121 0.1993 0.9799
vn 0.0305 0.3207 0.9467
vn 0.0637 0.8005 0.5959
vn -0.0016 0.0093 1.0000
vn 0.0080 0.0390 0.9992
vn -0.0016 0.0570 0.9984
vn 0.0076 0.1020 0.9948
vn 0.6284 -0.1781 0.7572
vn 0.9428 -0.1630 0.2908
vn -0.0044 -0.0099 0.9999
vn -0.9695 -0.1789 0.1677
vn -0.7889 -0.2866 0.5436
vn -0.6596 -0.6263 -0.4155
vn -0.3743 -0.8974 -0.2339
vn -0.6073 -0.5907 -0.5313
vn -0.7707 -0.4531 -0.4481
vn -0.3030 -0.9193 -0.2510
vn -0.6118 -0.5893 -0.5277
vn -0.5043 -0.6806 -0.5315
vn -0.0346 -0.9993 0.0120
vn -0.0088 -0.9997 0.0245
vn -0.0066 -0.9999 0.0156
vn 0.0420 -0.7004 0.7125
vn 0.0490 -0.8085 0.5865
vn -0.1107 -0.9938 -0.0098
vn 0.2921 -0.6671 0.6853
vn 0.0908 -0.9950 -0.0409
vn 0.1415 -0.9893 -0.0368
vn 0.3678 -0.7382 0.5655
vn 0.5680 -0.8230 -0.0011
vn 0.1984 -0.9787 -0.0525
vn 0.5657 -0.4267 0.7056
vn 0.5054 -0.5146 0.6926
vn 0.4774 -0.8380 -0.2643
vn 0.2759 -0.6188 -0.7355
vn -0.0169 -0.3988 -0.9169
vn 0.2755 -0.3848 -0.8809
vn -0.3960 -0.3800 -0.8359
vn -0.0075 -0.4043 -0.9146
vn -0.2997 -0.9209 -0.2493
vn -0.8552 -0.2402 0.4593
vn -0.7355 -0.2887 0.6129
vn -0.7045 -0.3959 0.5890
vn -0.6623 -0.3694 0.6518
vn -0.5471 -0.5208 0.6553
vn -0.7821 -0.3996 0.4781
vn -0.6274 -0.4888 0.6062
vn -0.8321 -0.4690 -0.2960
vn -0.9707 -0.0488 -0.2353
vn -0.7274 -0.5476 -0.4135
vn -0.6338 -0.6182 -0.4649
vn -0.3240 -0.8414 -0.4324
vn -0.6559 -0.2776 -0.7019
vn -0.6079 -0.2514 -0.7532
vn -0.9868 -0.1070 -0.1214
vn -0.5990 0.0885 -0.7958
vn -0.2600 0.0991 -0.9605
vn -0.9662 0.0898 -0.2415
vn -0.5711 0.0606 -0.8186
vn -0.9953 0.0103 -0.0959
vn -0.9931 0.0300 -0.1136
vn -0.5164 0.0441 -0.8552
vn -0.8247 0.5093 -0.2460
vn -0.1223 0.2517 0.9600
vn -0.7609 0.6254 -0.1728
vn -0.0351 0.0343 0.9988
vn -0.9450 0.3178 0.0778
vn -0.5089 0.8257 0.2434
vn -0.5819 0.7734 0.2517
vn -0.5929 0.7304 0.3392
vn -0.9763 -0.1965 -0.0905
vn -0.7556 -0.6424 -0.1281
vn -0.3756 -0.8786 -0.2950
vn -0.4920 -0.7884 -0.3692
vn -0.4836 -0.6431 -0.5938
vn -0.9886 0.1472 0.0301
vn -0.9876 0.1538 0.0309
vn -0.6377 0.7693 0.0391
vn -0.8383 0.5264 0.1423
vn -0.4872 -0.6281 0.6067
vn -0.1865 -0.9823 0.0169
vn -0.0139 -0.9988 -0.0471
vn 0.0695 -0.9920 -0.1050
vn -0.3457 -0.8556 0.3853
vn -0.5549 -0.5018 0.6635
vn -0.5476 -0.4957 0.6741
vn -0.9880 -0.0941 -0.1224
vn -0.9843 -0.1737 -0.0324
vn -0.1862 -0.9803 0.0663
vn -0.0937 -0.9509 0.2951
vn -0.0442 -0.9531 0.2994
vn -0.0153 -0.9681 0.2501
vn -0.0109 -0.7692 0.6389
vn 0.0309 -0.7430 0.6686
vn 0.0054 -0.8044 0.5940
vn -0.0122 -0.2950 0.9554
vn 0.0052 -0.9641 0.2653
vn 0.0758 -0.9908 0.1117
vn 0.7425 -0.6099 -0.2771
vn 0.0921 -0.9869 0.1322
vn -0.0795 -0.9912 0.1056
vn -0.1938 -0.9576 0.2130
vn 0.7201 -0.6934 -0.0262
vn 0.2936 -0.9559 0.0082
vn 0.2807 -0.9597 0.0093
vn 0.1543 -0.9873 0.0380
vn -0.0358 -0.9934 0.1088
vn 0.0727 -0.9343 0.3491
vn 0.6012 -0.4887 0.6323
vn 0.8290 -0.3381 0.4455
vn 0.9730 -0.1118 0.2020
vn 0.9890 -0.1192 0.0877
vn 0.9192 0.1059 0.3792
vn 0.9966 -0.0797 -0.0215
vn 0.9486 0.3109 -0.0595
vn 0.9980 0.0573 -0.0268
vn 0.8027 -0.5963 0.0066
vn 0.7190 -0.5021 0.4807
vn 0.5581 -0.4500 0.6971
vn 0.7529 -0.3433 0.5615
vn 0.2562 -0.7829 0.5669
vn 0.1611 -0.6171 0.7702
vn 0.3040 -0.6747 0.6726
vn 0.7408 -0.4962 0.4527
vn 0.4069 -0.9058 0.1187
vn -0.0014 -0.5519 0.8339
vn 0.1050 -0.6138 0.7824
vn -0.0732 -0.8590 0.5068
vn 0.0008 -0.8391 0.5440
vn -0.3634 -0.7523 0.5495
vn -0.3224 -0.7974 0.5102
vn -0.3354 -0.5596 0.7579
vn -0.3113 -0.5722 0.7587
vn -0.0293 -0.5690 0.8218
vn -0.5400 -0.5116 0.6683
vn -0.3354 0.9399 0.0649
vn -0.4726 0.8812 0.0143
vn -0.5593 -0.4216 0.7137
vn -0.0046 -0.2237 0.9747
vn -0.0171 -0.3232 0.9462
vn -0.0192 -0.3191 0.9475
vn -0.2632 -0.0405 -0.9639
vn -0.3375 -0.0228 -0.9410
vn -0.7054 0.0570 -0.7065
vn -0.7330 0.0624 -0.6774
vn 0.0095 -0.0363 -0.9993
vn 0.0103 0.1219 -0.9925
vn 0.0618 -0.0807 -0.9948
vn -0.1593 -0.0153 -0.9871
vn -0.1329 -0.1647 -0.9774
vn 0.2426 0.0634 -0.9681
vn 0.2356 -0.0415 -0.9710
vn 0.2430 0.0618 -0.9680
vn 0.3781 -0.0529 -0.9242
vn 0.4238 -0.0683 -0.9032
vn 0.2614 -0.0318 -0.9647
vn 0.0557 -0.0317 -0.9979
vn 0.0376 0.0097 -0.9992
vn 0.9875 0.1210 -0.1007
vn 0.1929 0.0980 -0.9763
vn 0.9027 0.4296 -0.0240
vn 0.9708 0.2388 -0.0226
vn 0.9704 -0.0250 -0.2404
vn 0.9155 0.2994 -0.2688
vn 0.7444 -0.3550 -0.5655
vn 0.7416 -0.2920 -0.6039
vn 0.8673 -0.0965 -0.4884
vn 0.7100 -0.3699 -0.5993
vn 0.9018 -0.0974 -0.4211
vn 0.6987 -0.3505 -0.6237
vn 0.3223 -0.5505 -0.7701
vn 0.3141 -0.5610 -0.7659
vn 0.2637 -0.6056 -0.7508
vn 0.5539 -0.4234 -0.7169
vn 0.0729 -0.6960 -0.7144
vn 0.1221 -0.6315 -0.7657
vn -0.1928 -0.6242 -0.7571
vn -0.1342 -0.5974 -0.7906
vn -0.9515 -0.0175 -0.3072
vn -0.6180 -0.3329 -0.7122
vn -0.5962 0.0273 -0.8023
vn -0.6373 -0.4948 -0.5908
vn -0.7848 -0.4203 -0.4554
vn -0.9667 0.0362 -0.2534
vn -0.9928 -0.0653 0.1000
vn -0.9393 -0.0901 -0.3311
vn -0.9768 0.1609 -0.1413
vn -0.9771 0.1458 -0.1550
vn -0.9894 0.0204 -0.1437
vn -0.6517 0.7381 -0.1747
vn -0.2029 0.9373 0.2832
vn -0.2805 0.9565 -0.0801
vn -0.1672 0.9492 0.2666
vn -0.4665 0.6678 0.5800
vn -0.1685 0.9857 0.0033
vn -0.2817 0.9595 0.0081
vn -0.1660 0.9861 0.0036
vn -0.0978 0.9952 0.0029
vn -0.0799 0.9514 0.2973
vn -0.0225 0.9997 0.0119
vn -0.1205 0.9292 0.3493
vn -0.0849 0.9959 0.0326
vn 0.0995 0.9198 0.3796
vn 0.1284 0.6590 0.7411
vn 0.0504 0.9985 0.0190
vn -0.0317 0.6028 0.7972
vn -0.0315 0.6027 0.7973
vn 0.0625 0.9979 0.0192
vn 0.0587 0.9981 0.0196
vn 0.1117 0.6039 0.7892
vn -0.0592 0.7728 0.6319
vn 0.2083 0.9780 -0.0134
vn 0.2188 0.9755 -0.0245
vn 0.2186 0.9757 -0.0180
vn 0.0946 0.9953 0.0202
vn 0.1381 0.9904 0.0086
vn 0.0004 0.9347 0.3556
vn 0.5925 0.7623 -0.2604
vn 0.6114 0.7913 0.0016
vn 0.7747 0.5583 -0.2970
vn 0.8559 0.4965 -0.1449
vn 0.7781 0.6246 0.0673
vn 0.6362 0.7714 0.0168
vn 0.3198 0.8941 0.3135
vn 0.1425 0.9618 0.2339
vn 0.6198 0.6743 0.4015
vn 0.7053 0.6200 0.3436
vn 0.3298 0.9434 0.0361
vn 0.0733 0.9653 0.2506
vn 0.2524 0.8919 0.3752
vn 0.3961 0.8793 0.2645
vn -0.0308 0.9863 0.1621
vn -0.0556 0.9737 0.2210
vn -0.4333 0.8454 0.3123
vn -0.4419 0.7137 0.5434
vn -0.3151 0.8937 0.3194
vn -0.3908 0.9137 0.1115
vn -0.1701 0.9854 0.0110
vn -0.1595 0.9581 0.2379
vn -0.1993 0.9799 -0.0045
vn -0.0176 0.3234 0.9461
vn -0.0799 0.6947 0.7148
vn 0.0019 -0.0310 0.9995
vn -0.0192 -0.0082 0.9998
vn -0.9982 0.0157 -0.0574
vn 0.0019 -0.0195 0.9998
vn -0.9767 0.2125 -0.0293
vn 0.0018 0.0377 0.9993
vn -0.8516 0.5203 0.0638
vn 0.0018 -0.0201 0.9998
vn -0.9295 0.3612 -0.0744
vn 0.0024 0.0419 0.9991
vn 0.0001 0.1080 0.9941
vn -0.5627 0.8226 0.0823
vn -0.6318 0.7738 0.0451
vn -0.4113 0.9110 0.0290
vn 0.0058 0.1447 0.9895
vn 0.0003 0.3119 0.9501
vn -0.1540 0.9748 0.1615
vn -0.3301 0.9432 0.0369
vn 0.1214 0.9905 0.0638
vn 0.2735 0.9525 0.1337
vn 0.4576 0.8891 0.0144
vn 0.5030 0.8636 0.0350
vn 0.6745 0.7369 -0.0453
vn 0.8312 0.5545 -0.0399
vn 0.8799 0.4752 -0.0005
vn 0.9666 0.2553 -0.0231
vn 0.9504 0.3072 -0.0495
vn 0.9958 0.0871 -0.0282
vn 0.9982 0.0031 0.0594
vn 0.6353 0.2762 0.7212
vn 0.1071 0.2499 0.9623
vn -0.0326 0.4935 0.8691
vn -0.0581 0.5825 0.8108
vn 0.9446 -0.0611 -0.3225
vn 0.6990 0.4384 0.5650
vn 0.7373 0.3916 0.5506
vn 0.7183 0.6629 0.2111
vn 0.4687 0.4347 0.7690
vn 0.0434 0.9482 0.3146
vn 0.4836 0.8116 0.3277
vn -0.0539 0.7658 0.6408
vn -0.0531 0.7652 0.6416
vn -0.3568 -0.0814 -0.9306
vn -0.1675 -0.0046 -0.9859
vn -0.1673 -0.0044 -0.9859
vn -0.4732 -0.5801 -0.6631
vn -0.4443 -0.6595 -0.6064
vn -0.1897 -0.6505 -0.7354
vn -0.3636 -0.5204 -0.7726
vn -0.5275 -0.5086 0.6805
vn -0.5394 -0.4592 0.7058
vn -0.3453 -0.8432 -0.4121
vn -0.2092 -0.8212 -0.5309
vn -0.1755 -0.7827 -0.5971
vn -0.1746 -0.2640 -0.9486
vn -0.1348 -0.7893 -0.5991
vn -0.2965 -0.8727 -0.3879
vn -0.3553 -0.5839 -0.7300
vn -0.3021 -0.0337 -0.9527
vn -0.3389 0.0177 -0.9407
vn -0.1306 -0.1811 -0.9748
vn 0.0497 0.2066 -0.9772
vn -0.2088 -0.8107 -0.5469
vn -0.0995 -0.9278 0.3596
vn 0.3789 -0.2577 0.8888
vn -0.0156 -0.8241 0.5663
vn 0.0594 -0.9149 0.3993
vn -0.0223 -0.5098 0.8600
vn -0.9371 -0.1696 -0.3051
vn -0.9509 -0.0874 -0.2969
vn -0.9448 -0.1030 -0.3111
vn -0.8460 -0.2707 -0.4594
vn -0.7952 -0.4330 -0.4244
vn -0.5652 -0.5637 -0.6023
vn -0.7450 -0.0862 -0.6615
vn -0.3691 -0.4354 -0.8211
vn -0.2698 -0.6580 -0.7030
vn -0.1604 0.0314 -0.9866
vn -0.4376 0.0307 -0.8987
vn -0.7922 0.0896 -0.6037
vn -0.2111 0.0501 -0.9762
vn -0.9072 0.3163 -0.2775
vn -0.9425 0.3332 -0.0264
vn -0.6602 0.6185 -0.4262
vn -0.7350 0.6691 -0.1100
vn -0.4694 0.4236 -0.7748
vn -0.6461 0.6187 -0.4470
vn -0.1845 -0.5687 -0.8016
vn -0.3936 -0.2579 0.8824
vn -0.0133 -0.4460 0.8950
vn -0.0782 -0.5302 0.8442
vn -0.1476 -0.8168 -0.5577
vn -0.1378 -0.8127 -0.5661
vn -0.0516 0.9826 0.1787
vn 0.0044 1.0000 -0.0045
vn 0.0007 1.0000 -0.0074
vn -0.2642 -0.7866 -0.5581
vn -0.1389 -0.7199 -0.6800
vn -0.1028 -0.6198 -0.7780
vn -0.0033 0.0140 -0.9999
vn 0.0693 -0.3910 -0.9178
vn 0.0887 -0.0758 -0.9932
vn 0.0880 -0.2733 -0.9579
vn 0.3873 -0.1328 -0.9123
vn 0.6880 -0.0056 -0.7257
vn 0.7680 0.6138 -0.1826
vn 0.3107 0.4813 -0.8196
vn 0.1244 0.2929 -0.9480
vn -0.2362 0.9652 0.1125
vn 0.0498 -0.5737 0.8175
vn -0.0074 -0.5315 0.8470
vn 0.0303 -0.5503 0.8344
vn -0.0053 -0.8323 -0.5543
vn -0.0260 -0.9487 -0.3151
vn 0.0262 -0.8186 -0.5738
vn 0.0008 0.9797 0.2007
vn -0.0076 0.9775 0.2108
vn 0.1567 0.9876 -0.0059
vn 0.0943 0.9754 0.1993
vn 0.1522 0.9604 0.2332
vn 0.1576 0.9875 -0.0054
vn 0.1123 0.7494 -0.6525
vn -0.2312 0.9466 -0.2246
vn 0.1686 -0.4561 -0.8738
vn 0.1152 -0.5255 0.8430
vn 0.1239 -0.8014 -0.5852
vn 0.3847 -0.0032 -0.9230
vn 0.3955 -0.2769 -0.8757
vn 0.2943 -0.8918 -0.3436
vn 0.1117 -0.8185 -0.5635
vn 0.1106 -0.8112 -0.5742
vn 0.1226 -0.6365 -0.7614
vn 0.1324 -0.6108 -0.7807
vn 0.2064 0.9776 -0.0411
vn 0.3270 -0.3831 -0.8639
vn 0.2885 -0.4531 -0.8434
vn 0.4194 -0.5137 -0.7485
vn 0.3251 -0.5935 0.7363
vn 0.3180 -0.5714 0.7566
vn 0.2126 -0.8013 -0.5592
vn 0.1786 -0.8054 -0.5652
vn 0.1953 -0.7932 -0.5767
vn 0.1654 -0.2042 -0.9648
vn 0.2083 -0.2787 -0.9375
vn 0.1812 -0.8155 -0.5497
vn 0.5215 -0.2017 -0.8291
vn 0.5196 -0.3658 -0.7721
vn 0.6665 -0.5400 -0.5140
vn 0.2496 -0.5376 -0.8054
vn 0.4507 -0.6279 -0.6345
vn 0.4443 -0.7382 -0.5077
vn 0.2907 -0.8505 -0.4384
vn 0.6232 -0.2387 -0.7448
vn 0.3101 -0.8827 -0.3531
vn 0.3022 0.9361 0.1801
vn 0.3878 0.9162 0.1014
vn 0.3025 0.9531 -0.0041
vn 0.3623 0.9319 0.0141
vn 0.6009 -0.2762 -0.7501
vn 0.6134 -0.3353 -0.7151
vn 0.5321 -0.2156 -0.8188
vn 0.6973 0.7142 -0.0606
vn 0.5826 -0.6403 -0.5006
vn 0.6278 -0.5375 -0.5631
vn 0.6875 -0.5461 -0.4787
vn 0.8200 -0.4612 -0.3390
vn 0.7206 -0.4611 -0.5179
vn 0.6893 -0.5903 -0.4201
vn 0.8244 -0.3314 0.4589
vn 0.8253 -0.4641 -0.3216
vn 0.6859 -0.7020 -0.1915
vn 0.7648 0.6260 0.1524
vn 0.7364 0.6532 0.1762
vn 0.7666 0.6389 0.0644
vn 0.5800 0.8144 -0.0198
vn 0.9285 -0.0605 -0.3663
vn 0.9366 -0.1739 -0.3043
vn 0.9530 -0.1112 -0.2818
vn 0.8908 -0.2164 -0.3995
vn 0.9310 0.0310 -0.3637
vn 0.9147 0.4006 0.0525
vn 0.7536 0.5968 -0.2756
vn 0.7899 -0.4914 -0.3669
vn 0.7376 -0.4623 -0.4921
vn 0.8827 -0.3041 -0.3582
vn 0.7755 -0.4396 -0.4532
vn 0.6821 -0.6369 -0.3593
vn 0.9285 -0.2846 -0.2386
vn 0.8030 -0.1579 0.5746
vn 0.8997 -0.3385 0.2754
vn 0.7715 -0.3100 0.5556
vn 0.8577 -0.2436 0.4528
vn 0.9260 -0.2333 0.2969
vn 0.9278 -0.2346 0.2902
vn 0.9023 -0.2544 -0.3480
vn 0.9045 -0.2138 -0.3690
vn 0.9054 -0.2547 -0.3398
vn 0.8977 -0.1769 0.4035
vn 0.9920 -0.1045 -0.0714
vn 0.9873 -0.0786 -0.1379
vn 0.9943 -0.0453 -0.0964
vn 0.9282 0.0402 -0.3698
vn 0.8744 0.4596 0.1557
vn 0.9462 0.0991 -0.3082
vn 0.9173 0.1064 0.3838
vn 0.8205 -0.0568 0.5689
vn 0.8111 0.4902 -0.3192
vn 0.8491 0.4079 0.3356
vn 0.8655 -0.4605 -0.1973
vn 0.9360 -0.2750 -0.2198
vn 0.9739 -0.2260 -0.0192
vn 0.9373 -0.2912 -0.1913
vn 0.7603 -0.6495 -0.0057
vn 0.8274 -0.5570 0.0719
vn 0.9595 -0.2689 0.0844
vn 0.9476 -0.2117 0.2394
vn 0.8166 -0.5688 0.0983
vn 0.9456 0.1000 -0.3096
vn 0.9638 0.1746 -0.2016
vn 0.9747 0.1475 -0.1682
vn 0.9909 0.1328 -0.0200
vn 0.9733 0.2058 0.1019
vn 0.9657 0.0970 0.2407
vn 0.9098 0.1231 0.3964
usemtl material_0.006
s off
f 1//1 2//1 3//1
f 4//2 1//2 3//2
f 5//3 4//3 3//3
f 6//4 1//4 4//4
f 7//5 1//5 6//5
f 8//6 2//6 1//6
f 9//7 2//7 8//7
f 8//8 1//8 7//8
f 10//9 5//9 3//9
f 11//10 3//10 2//10
f 12//11 2//11 9//11
f 12//12 11//12 2//12
f 13//13 10//13 3//13
f 11//14 13//14 3//14
f 14//15 7//15 6//15
f 15//16 7//16 14//16
f 8//17 7//17 15//17
f 13//18 5//18 10//18
f 16//19 15//19 14//19
f 17//20 14//20 6//20
f 17//21 18//21 14//21
f 19//22 16//22 14//22
f 19//23 14//23 18//23
f 20//24 15//24 16//24
f 21//25 8//25 15//25
f 20//26 21//26 15//26
f 22//27 16//27 19//27
f 22//28 20//28 16//28
f 17//29 6//29 4//29
f 23//30 4//30 5//30
f 23//31 17//31 4//31
f 24//32 5//32 13//32
f 24//33 23//33 5//33
f 11//34 24//34 13//34
f 25//35 23//35 24//35
f 26//36 25//36 24//36
f 27//37 24//37 11//37
f 28//38 24//38 27//38
f 29//39 24//39 28//39
f 30//40 26//40 24//40
f 29//41 30//41 24//41
f 31//42 18//42 17//42
f 19//43 18//43 31//43
f 32//44 19//44 31//44
f 33//45 32//45 31//45
f 34//46 22//46 19//46
f 32//47 34//47 19//47
f 33//48 31//48 17//48
f 33//49 17//49 23//49
f 25//50 33//50 23//50
f 35//51 33//51 25//51
f 36//52 25//52 26//52
f 36//53 35//53 25//53
f 37//54 38//54 39//54
f 40//55 39//55 38//55
f 41//56 37//56 39//56
f 42//57 40//57 38//57
f 43//58 38//58 37//58
f 44//59 43//59 37//59
f 45//60 44//60 37//60
f 45//61 37//61 41//61
f 46//62 41//62 39//62
f 47//63 41//63 46//63
f 48//64 45//64 41//64
f 47//65 48//65 41//65
f 49//66 46//66 39//66
f 40//67 49//67 39//67
f 50//68 51//68 46//68
f 47//69 46//69 51//69
f 52//70 50//70 46//70
f 53//71 52//71 46//71
f 54//72 53//72 46//72
f 49//73 54//73 46//73
f 55//74 51//74 50//74
f 47//75 51//75 56//75
f 57//76 56//76 51//76
f 57//77 51//77 58//77
f 55//78 58//78 51//78
f 59//79 50//79 52//79
f 59//80 55//80 50//80
f 60//81 52//81 53//81
f 61//82 59//82 52//82
f 62//83 61//83 52//83
f 60//84 62//84 52//84
f 63//85 64//85 53//85
f 65//86 53//86 64//86
f 66//87 63//87 53//87
f 67//88 66//88 53//88
f 68//89 67//89 53//89
f 54//90 68//90 53//90
f 69//91 53//91 65//91
f 60//92 53//92 69//92
f 70//93 71//93 64//93
f 72//94 64//94 71//94
f 63//95 70//95 64//95
f 65//96 64//96 72//96
f 70//97 73//97 71//97
f 45//98 71//98 73//98
f 48//99 71//99 45//99
f 72//100 71//100 48//100
f 74//101 75//101 73//101
f 44//102 73//102 75//102
f 76//103 74//103 73//103
f 70//104 76//104 73//104
f 45//105 73//105 44//105
f 44//106 75//106 77//106
f 74//107 78//107 75//107
f 77//108 75//108 78//108
f 74//109 79//109 78//109
f 77//110 78//110 80//110
f 79//111 81//111 78//111
f 81//112 82//112 78//112
f 83//113 78//113 82//113
f 80//114 78//114 83//114
f 84//115 82//115 85//115
f 83//116 82//116 84//116
f 86//117 85//117 82//117
f 86//118 87//118 85//118
f 88//119 82//119 81//119
f 88//120 86//120 82//120
f 89//121 90//122 81//121
f 91//123 81//124 90//125
f 79//126 89//126 81//126
f 88//127 81//127 91//128
f 91//129 90//130 89//131
f 92//132 90//133 93//132
f 94//134 93//134 90//135
f 91//136 90//137 92//138
f 91//139 94//140 90//141
f 94//142 89//142 79//142
f 91//143 89//144 94//144
f 94//145 79//145 74//145
f 94//146 74//146 76//146
f 95//147 76//147 70//147
f 95//148 93//148 76//148
f 94//149 76//149 93//149
f 96//150 95//150 70//150
f 97//151 70//151 63//151
f 96//152 70//152 97//152
f 97//153 63//153 66//153
f 98//154 66//154 67//154
f 98//155 99//155 66//155
f 97//156 66//156 99//156
f 98//157 67//157 68//157
f 98//158 68//158 54//158
f 100//159 101//159 54//159
f 98//160 54//160 101//160
f 49//161 100//161 54//161
f 102//162 103//162 101//162
f 98//163 101//163 103//163
f 100//164 102//164 101//164
f 104//165 105//165 103//165
f 106//166 103//166 105//166
f 102//167 104//167 103//167
f 106//168 98//168 103//168
f 104//169 99//169 105//169
f 98//170 105//170 99//170
f 106//171 105//171 98//171
f 104//172 107//172 99//172
f 96//173 99//173 107//173
f 96//174 97//174 99//174
f 108//175 93//175 107//175
f 95//176 107//176 93//176
f 104//177 108//177 107//177
f 95//178 96//178 107//178
f 108//179 109//179 93//179
f 109//180 92//180 93//180
f 110//181 111//181 92//181
f 91//182 92//183 111//183
f 112//184 110//184 92//184
f 109//185 112//185 92//185
f 110//186 113//186 111//186
f 88//187 111//187 113//187
f 88//188 91//189 111//188
f 114//190 113//190 110//190
f 87//191 113//191 115//192
f 114//193 115//194 113//193
f 86//195 113//195 87//195
f 86//196 88//196 113//196
f 114//197 110//197 112//197
f 116//198 112//198 109//198
f 117//199 118//199 112//199
f 114//200 112//200 118//200
f 117//201 112//201 116//201
f 119//202 120//202 109//202
f 116//203 109//203 120//203
f 121//204 109//205 122//205
f 121//206 119//207 109//207
f 108//208 123//208 109//208
f 122//209 109//209 123//209
f 124//210 123//210 108//210
f 124//211 40//211 123//211
f 124//212 108//212 104//212
f 125//213 104//213 102//213
f 125//214 124//214 104//214
f 126//215 102//215 100//215
f 125//216 102//216 126//216
f 126//217 100//217 49//217
f 126//218 49//218 40//218
f 125//219 126//219 40//219
f 42//220 123//220 40//220
f 124//221 125//221 40//221
f 122//222 123//222 42//222
f 38//223 127//223 42//223
f 119//224 42//224 128//224
f 127//225 128//225 42//225
f 129//226 120//226 128//226
f 119//227 128//227 120//227
f 129//228 130//228 120//228
f 116//229 120//229 130//229
f 117//230 130//230 131//230
f 129//231 131//231 130//231
f 117//232 116//232 130//232
f 132//233 131//233 133//233
f 132//234 117//234 131//234
f 134//235 135//235 133//235
f 132//236 133//236 135//236
f 136//237 118//237 135//237
f 132//238 135//238 118//238
f 134//239 136//239 135//239
f 114//240 118//240 136//240
f 117//241 132//241 118//241
f 134//242 137//243 136//242
f 138//244 136//244 137//245
f 138//246 114//246 136//246
f 134//247 115//248 137//249
f 114//250 137//251 115//252
f 138//253 137//254 114//253
f 134//255 87//255 115//256
f 139//257 85//257 87//257
f 134//258 139//258 87//258
f 84//259 85//259 139//259
f 134//260 140//260 139//260
f 84//261 139//261 141//261
f 140//262 142//262 139//262
f 141//263 139//263 142//263
f 143//264 142//264 140//264
f 144//265 140//265 134//265
f 143//266 140//266 144//266
f 144//267 134//267 133//267
f 144//268 133//268 131//268
f 144//269 131//269 145//269
f 146//270 131//270 129//270
f 145//271 131//271 146//271
f 147//272 129//272 128//272
f 146//273 129//273 147//273
f 147//274 128//274 127//274
f 43//275 127//275 38//275
f 147//276 127//276 43//276
f 77//277 147//277 43//277
f 44//278 77//278 43//278
f 77//279 146//279 147//279
f 77//280 80//280 146//280
f 80//281 145//281 146//281
f 80//282 83//282 145//282
f 83//283 144//283 145//283
f 83//284 84//284 144//284
f 84//285 143//285 144//285
f 84//286 141//286 143//286
f 141//287 142//287 143//287
f 47//288 72//288 48//288
f 56//289 65//289 72//289
f 47//290 56//290 72//290
f 148//291 65//291 56//291
f 149//292 65//292 148//292
f 149//293 69//293 65//293
f 148//294 56//294 150//294
f 151//295 56//295 57//295
f 150//296 56//296 151//296
f 21//297 152//297 8//297
f 9//298 8//298 152//298
f 153//299 152//299 21//299
f 153//300 21//300 20//300
f 9//301 152//301 154//301
f 155//302 152//302 153//302
f 155//303 154//303 152//303
f 156//304 157//304 12//304
f 9//305 156//305 12//305
f 156//306 158//306 157//306
f 159//307 160//307 157//307
f 161//308 159//308 157//308
f 158//309 161//309 157//309
f 162//310 159//310 161//310
f 158//311 163//311 161//311
f 163//312 164//312 161//312
f 162//313 161//313 164//313
f 165//314 166//314 164//314
f 163//315 165//315 164//315
f 167//316 168//316 164//316
f 162//317 164//317 168//317
f 165//318 163//318 169//318
f 170//319 163//319 158//319
f 171//320 158//320 156//320
f 170//321 158//321 171//321
f 172//322 156//322 154//322
f 171//323 156//323 172//323
f 9//324 154//324 156//324
f 27//325 11//325 12//325
f 173//326 27//326 12//326
f 28//327 27//327 173//327
f 174//328 173//328 12//328
f 157//329 174//329 12//329
f 29//330 28//330 173//330
f 174//331 29//331 173//331
f 175//332 153//332 20//332
f 175//333 20//333 22//333
f 176//334 153//334 175//334
f 155//335 153//335 176//335
f 177//336 178//336 179//336
f 180//337 179//337 178//337
f 180//338 181//338 179//338
f 22//339 180//339 178//339
f 182//340 181//340 180//340
f 183//341 181//341 182//341
f 184//342 185//342 180//342
f 186//343 180//343 185//343
f 187//344 184//344 180//344
f 22//345 187//345 180//345
f 186//346 182//346 180//346
f 186//347 185//347 184//347
f 188//348 184//348 187//348
f 189//349 186//349 184//349
f 188//350 189//350 184//350
f 34//351 187//351 22//351
f 190//352 187//352 34//352
f 191//353 187//353 190//353
f 188//354 187//354 191//354
f 178//355 175//355 22//355
f 176//356 175//356 178//356
f 176//357 178//357 177//357
f 192//358 176//358 177//358
f 192//359 155//359 176//359
f 193//360 26//360 30//360
f 58//361 26//361 193//361
f 194//362 26//362 58//362
f 194//363 36//363 26//363
f 195//364 30//364 29//364
f 196//365 193//365 30//365
f 197//366 196//366 30//366
f 198//367 197//367 30//367
f 195//368 198//368 30//368
f 199//369 195//369 29//369
f 199//370 29//370 174//370
f 57//371 58//371 193//371
f 151//372 57//372 193//372
f 151//373 193//373 196//373
f 200//374 151//374 196//374
f 200//375 196//375 201//375
f 197//376 201//376 196//376
f 202//377 203//377 201//377
f 200//378 201//378 203//378
f 204//379 202//379 201//379
f 203//380 202//380 150//380
f 204//381 201//381 197//381
f 204//382 197//382 198//382
f 205//383 206//383 198//383
f 204//384 198//384 206//384
f 207//385 205//385 198//385
f 195//386 207//386 198//386
f 208//387 209//387 206//387
f 210//388 208//388 206//388
f 211//389 210//389 206//389
f 212//390 211//390 206//390
f 205//391 212//391 206//391
f 149//392 204//392 206//392
f 213//393 209//393 208//393
f 214//394 209//394 213//394
f 215//395 216//395 209//395
f 217//396 209//396 216//396
f 214//397 215//397 209//397
f 69//398 206//398 209//398
f 60//399 69//399 209//399
f 217//400 60//400 209//400
f 218//401 208//401 210//401
f 218//402 168//402 208//402
f 167//403 208//403 168//403
f 213//404 208//404 167//404
f 218//405 210//405 211//405
f 219//406 211//406 212//406
f 168//407 211//407 219//407
f 218//408 211//408 168//408
f 220//409 212//409 205//409
f 220//410 221//410 212//410
f 219//411 212//411 221//411
f 220//412 205//412 207//412
f 220//413 207//413 222//413
f 195//414 223//414 207//414
f 222//415 207//415 223//415
f 224//416 223//416 195//416
f 225//417 223//417 224//417
f 222//418 223//418 225//418
f 199//419 224//419 195//419
f 226//420 194//420 58//420
f 55//421 226//421 58//421
f 150//422 151//422 227//422
f 228//423 148//423 150//423
f 202//424 228//424 150//424
f 227//425 203//425 150//425
f 229//426 183//426 182//426
f 230//427 229//427 182//427
f 231//428 230//428 182//428
f 186//429 231//429 182//429
f 232//430 233//430 183//430
f 234//431 183//431 233//431
f 235//432 232//432 183//432
f 229//433 235//433 183//433
f 181//434 183//434 234//434
f 236//435 237//435 233//435
f 238//436 233//436 237//436
f 239//437 236//437 233//437
f 240//438 239//438 233//438
f 241//439 240//439 233//439
f 232//440 241//440 233//440
f 238//441 242//441 233//441
f 234//442 233//442 242//442
f 243//443 237//443 236//443
f 244//444 238//444 237//444
f 245//445 236//445 239//445
f 243//446 236//446 245//446
f 246//447 239//447 240//447
f 245//448 239//448 246//448
f 241//449 247//449 240//449
f 248//450 240//450 247//450
f 249//451 246//451 240//451
f 250//452 240//452 248//452
f 250//453 249//453 240//453
f 248//454 247//454 241//454
f 251//455 241//455 232//455
f 252//456 241//456 251//456
f 253//457 241//457 252//457
f 248//458 241//458 253//458
f 254//459 232//459 235//459
f 251//460 232//460 254//460
f 255//461 235//461 229//461
f 254//462 235//462 255//462
f 256//463 229//463 230//463
f 255//464 229//464 256//464
f 231//465 257//465 230//465
f 258//466 230//466 257//466
f 256//467 230//467 258//467
f 259//468 257//468 231//468
f 260//469 257//469 259//469
f 258//470 257//470 260//470
f 189//471 231//471 186//471
f 261//472 231//472 189//472
f 259//473 231//473 261//473
f 32//474 190//474 34//474
f 262//475 191//475 190//475
f 262//476 190//476 32//476
f 263//477 191//477 262//477
f 263//478 188//478 191//478
f 35//479 262//479 32//479
f 33//480 35//480 32//480
f 35//481 264//481 262//481
f 264//482 265//482 262//482
f 263//483 262//483 265//483
f 264//484 266//484 265//484
f 267//485 263//485 265//485
f 266//486 268//486 265//486
f 267//487 265//487 268//487
f 267//488 268//488 269//488
f 266//489 270//489 268//489
f 271//490 268//490 270//490
f 269//491 268//491 271//491
f 272//492 273//492 270//492
f 266//493 272//493 270//493
f 271//494 270//494 274//494
f 275//495 274//495 270//495
f 276//496 277//496 270//496
f 278//497 270//497 277//497
f 279//498 276//498 270//498
f 280//499 279//499 270//499
f 273//500 280//500 270//500
f 278//501 275//501 270//501
f 281//502 278//502 277//502
f 276//503 282//503 277//503
f 283//504 281//504 277//504
f 282//505 283//505 277//505
f 284//506 282//506 276//506
f 215//507 279//507 280//507
f 215//508 276//508 279//508
f 285//509 280//509 273//509
f 216//510 280//510 285//510
f 215//511 280//511 216//511
f 285//512 273//512 272//512
f 286//513 272//513 266//513
f 287//514 272//514 286//514
f 287//515 285//515 272//515
f 288//516 266//516 264//516
f 288//517 264//517 289//517
f 36//518 264//518 35//518
f 289//519 264//519 36//519
f 289//520 36//520 194//520
f 289//521 194//521 226//521
f 290//522 226//522 55//522
f 290//523 289//523 226//523
f 59//524 290//524 55//524
f 246//525 261//525 189//525
f 188//526 246//526 189//526
f 291//527 259//527 261//527
f 246//528 291//528 261//528
f 292//529 260//529 259//529
f 291//530 293//530 259//530
f 292//531 259//531 293//531
f 294//532 295//532 293//532
f 296//533 293//533 295//533
f 291//534 294//534 293//534
f 296//535 292//535 293//535
f 294//536 297//536 295//536
f 297//537 298//537 295//537
f 299//538 295//538 298//538
f 299//539 296//539 295//539
f 300//540 299//540 298//540
f 297//541 301//541 298//541
f 301//542 302//542 298//542
f 303//543 298//543 302//543
f 303//544 300//544 298//544
f 304//545 302//545 301//545
f 304//546 303//546 302//546
f 305//547 301//547 297//547
f 305//548 304//548 301//548
f 306//549 305//549 297//549
f 307//550 297//550 294//550
f 306//551 297//551 307//551
f 308//552 294//552 291//552
f 307//553 294//553 308//553
f 308//554 291//554 309//554
f 309//555 291//555 246//555
f 274//556 245//556 246//556
f 271//557 274//557 246//557
f 269//558 271//558 246//558
f 188//559 269//559 246//559
f 249//560 309//560 246//560
f 310//561 243//561 245//561
f 274//562 310//562 245//562
f 281//563 243//563 310//563
f 275//564 310//564 274//564
f 278//565 310//565 275//565
f 281//566 310//566 278//566
f 263//567 269//567 188//567
f 267//568 269//568 263//568
f 122//569 42//569 119//569
f 121//570 122//571 119//571
f 311//572 154//572 155//572
f 192//573 311//573 155//573
f 312//574 311//574 192//574
f 312//575 154//575 311//575
f 199//576 174//576 224//576
f 224//577 174//577 157//577
f 312//578 192//578 177//578
f 313//579 177//579 179//579
f 313//580 179//580 314//580
f 181//581 314//581 179//581
f 315//582 313//582 314//582
f 316//583 315//583 314//583
f 317//584 316//584 314//584
f 234//585 242//585 314//585
f 317//586 314//586 242//586
f 181//587 234//587 314//587
f 238//588 317//588 242//588
f 313//589 312//589 177//589
f 200//590 227//590 151//590
f 149//591 148//591 228//591
f 204//592 228//592 202//592
f 149//593 228//593 204//593
f 200//594 203//594 227//594
f 258//595 260//595 318//595
f 319//596 318//596 260//596
f 292//597 319//597 260//597
f 258//598 318//598 320//598
f 256//599 258//599 320//599
f 255//600 256//600 320//600
f 320//601 318//601 319//601
f 321//602 255//602 320//602
f 321//603 322//603 255//603
f 323//604 321//604 320//604
f 324//605 320//605 319//605
f 324//606 319//606 292//606
f 323//607 320//607 324//607
f 325//608 324//608 292//608
f 296//609 325//609 292//609
f 299//610 324//610 325//610
f 296//611 299//611 325//611
f 300//612 323//612 324//612
f 300//613 324//613 299//613
f 172//614 154//614 312//614
f 225//615 224//615 157//615
f 160//616 225//616 157//616
f 222//617 225//617 160//617
f 172//618 312//618 313//618
f 315//619 172//619 313//619
f 290//620 288//620 289//620
f 326//621 290//621 59//621
f 61//622 326//622 59//622
f 254//623 255//623 322//623
f 327//624 322//624 321//624
f 327//625 254//625 322//625
f 323//626 328//626 321//626
f 252//627 327//627 321//627
f 253//628 321//628 328//628
f 253//629 252//629 321//629
f 329//630 253//630 328//630
f 307//631 329//631 328//631
f 307//632 328//632 305//632
f 305//633 328//633 304//633
f 304//634 328//634 323//634
f 330//635 323//635 300//635
f 221//636 160//636 159//636
f 220//637 222//637 160//637
f 220//638 160//638 221//638
f 171//639 172//639 315//639
f 331//640 315//640 316//640
f 331//641 171//641 315//641
f 326//642 288//642 290//642
f 266//643 288//643 326//643
f 332//644 326//644 61//644
f 286//645 266//645 326//645
f 332//646 286//646 326//646
f 62//647 332//647 61//647
f 330//648 304//648 323//648
f 330//649 300//649 303//649
f 333//650 170//650 171//650
f 219//651 221//651 159//651
f 333//652 171//652 331//652
f 334//653 316//653 317//653
f 238//654 334//654 317//654
f 334//655 331//655 316//655
f 335//656 331//656 334//656
f 335//657 333//657 331//657
f 251//658 254//658 327//658
f 252//659 251//659 327//659
f 304//660 330//660 303//660
f 336//661 163//661 170//661
f 337//662 170//662 333//662
f 337//663 336//663 170//663
f 168//664 219//664 159//664
f 162//665 168//665 159//665
f 337//666 333//666 335//666
f 338//667 335//667 334//667
f 338//668 334//668 339//668
f 339//669 334//669 244//669
f 244//670 334//670 238//670
f 338//671 337//671 335//671
f 237//672 339//672 244//672
f 340//673 163//673 336//673
f 169//674 163//674 340//674
f 341//675 336//675 337//675
f 341//676 340//676 336//676
f 341//677 337//677 338//677
f 342//678 338//678 339//678
f 237//679 342//679 339//679
f 342//680 341//680 338//680
f 343//681 286//681 332//681
f 343//682 287//682 286//682
f 343//683 332//683 62//683
f 60//684 343//684 62//684
f 250//685 248//685 253//685
f 250//686 253//686 344//686
f 329//687 344//687 253//687
f 306//688 345//688 305//688
f 169//689 340//689 346//689
f 347//690 346//690 340//690
f 348//691 169//691 346//691
f 349//692 346//692 347//692
f 349//693 348//693 346//693
f 341//694 347//694 340//694
f 214//695 213//695 167//695
f 349//696 347//696 341//696
f 349//697 341//697 342//697
f 217//698 285//698 287//698
f 217//699 216//699 285//699
f 217//700 287//700 343//700
f 217//701 343//701 60//701
f 344//702 309//702 249//702
f 329//703 309//703 344//703
f 308//704 309//704 329//704
f 250//705 344//705 249//705
f 307//706 308//706 329//706
f 306//707 307//707 345//707
f 305//708 345//708 307//708
f 348//709 350//709 169//709
f 351//710 169//710 350//710
f 352//711 351//711 350//711
f 349//712 350//712 348//712
f 165//713 169//713 351//713
f 353//714 351//714 352//714
f 354//715 167//715 164//715
f 355//716 354//716 164//716
f 214//717 167//717 354//717
f 356//718 214//718 354//718
f 357//719 356//719 354//719
f 357//720 354//720 355//720
f 358//721 350//721 349//721
f 353//722 352//722 350//722
f 358//723 353//723 350//723
f 214//724 356//724 357//724
f 237//725 243//725 342//725
f 349//726 342//726 243//726
f 243//727 359//727 349//727
f 359//728 358//728 349//728
f 281//729 359//729 243//729
f 283//730 358//730 359//730
f 284//731 215//731 214//731
f 149//732 206//732 69//732
f 283//733 359//733 281//733
f 284//734 276//734 215//734
f 351//735 360//735 165//735
f 361//736 360//736 351//736
f 362//737 360//737 361//737
f 353//738 361//738 351//738
f 166//739 165//739 360//739
f 355//740 166//740 360//740
f 362//741 355//741 360//741
f 357//742 355//742 362//742
f 164//743 166//743 355//743
f 283//744 353//744 358//744
f 282//745 361//745 353//745
f 282//746 353//746 283//746
f 282//747 362//747 361//747
f 284//748 362//748 282//748
f 284//749 357//749 362//749
f 284//750 214//750 357//750
