# Blender v2.82 (sub 7) OBJ File: ''
# www.blender.org
mtllib sim_sea_2-5_r_thigh_prt.mtl
o sim_sea_2-5_r_thigh_prt
v -123.247375 -351.656311 -49.312244
v -123.066376 -357.066040 -42.585964
v -125.226555 -355.369354 -43.178951
v -128.463013 -344.075348 -34.711086
v -124.825661 -358.727386 -31.901577
v -127.986877 -345.739594 -43.141605
v -123.721817 -360.153992 -31.390036
v -125.112900 -345.259583 -53.196320
v -115.328827 -357.920837 -46.021515
v -106.588142 -364.355927 -36.418743
v -121.582848 -360.453583 -34.012875
v -123.364647 -345.694885 -54.848740
v -116.361115 -348.395966 -56.071903
v -100.722069 -361.353485 -57.701241
v -125.922165 -347.245758 -22.124582
v -123.295631 -359.915771 -21.424387
v -100.590668 -374.615387 -18.861349
v -100.088989 -374.436462 -30.979252
v -122.403793 -348.281616 -12.634720
v -119.442169 -360.081207 -11.832039
v -114.634323 -362.551392 -4.788808
v -113.525520 -361.072388 -2.042274
v -114.997719 -347.703888 -0.494291
v -123.933304 -333.521393 -60.592400
v -127.438461 -334.396454 -54.035244
v -129.130203 -335.749390 -44.777145
v -121.939125 -331.853516 -62.754833
v -112.401817 -336.194458 -62.524994
v -120.641029 -337.910187 -60.368134
v -121.805222 -335.139008 -10.249030
v -115.294838 -335.856506 -0.367700
v -127.798058 -323.085327 -55.189816
v -129.136627 -319.191956 -45.671158
v -122.766106 -325.072418 -65.517647
v -110.380402 -330.960052 -64.797310
v -128.681519 -319.582092 -34.504623
v -126.556297 -323.305023 -22.860565
v -114.789360 -316.223358 0.624089
v -122.338905 -307.270142 -11.695741
v -127.953896 -311.634369 -56.341446
v -119.809937 -311.341797 -71.895264
v -118.588989 -315.085815 -71.022400
v -115.529015 -305.435883 -76.009972
v -123.988525 -301.028839 -67.907265
v -125.899727 -273.350586 -57.641731
v -115.791206 -301.180023 -77.550690
v -127.935524 -278.039001 -45.426662
v -127.440582 -274.873596 -33.706512
v -125.876686 -294.860504 -21.470314
v -112.613449 -285.592010 2.866141
v -122.518356 -272.731140 -68.115761
v -117.594269 -287.439423 -77.720825
v -106.000755 -290.127777 -86.004311
v -112.697670 -286.184418 -82.107246
v -124.684608 -258.887573 -21.551666
v -120.862923 -256.438324 -11.272375
v -114.003098 -272.775970 0.979537
v -123.634789 -224.658264 -56.900536
v -125.159981 -226.417419 -32.633797
v -113.383904 -224.899963 -1.014023
v -125.425713 -228.668457 -44.758003
v -115.694321 -247.603058 -77.049759
v -119.566055 -217.355453 -66.737587
v -122.543877 -217.559494 -22.166187
v -118.128304 -211.853165 -10.779077
v -120.994576 -187.743073 -55.432213
v -122.423065 -187.727386 -44.887535
v -113.099289 -213.837967 -76.767265
v -111.647514 -216.252151 0.357610
v -116.608231 -187.904114 -67.663559
v -122.159737 -187.930679 -33.001125
v -120.073936 -187.654083 -22.097054
v -112.591293 -188.409729 -74.423302
v -115.513763 -187.847961 -10.313334
v -121.535492 -184.490372 -40.387928
v -118.209251 -184.041458 -62.391102
v -119.100006 -184.189606 -24.539263
v -113.156845 -183.459015 -9.616053
v -120.033295 -184.624908 -45.595135
v -117.828491 -184.505463 -59.858887
v -110.617203 -182.834381 -75.636780
v -112.171684 -182.904358 -71.817245
v -118.886063 -184.654785 -31.366785
v -115.640923 -184.099060 -17.820786
v -110.068024 -182.913376 -7.296717
v -95.753593 -378.191254 -70.257439
v -98.884659 -377.091644 -13.097263
v -104.637009 -365.578491 -36.072929
v -95.862747 -370.321350 -67.522858
v -100.611221 -362.286346 7.488123
v -109.036224 -358.067657 3.211483
v -103.234245 -360.308044 6.670650
v -110.008514 -348.412506 3.906881
v -96.596939 -361.270874 10.991532
v -104.291191 -348.560852 8.849010
v -98.194298 -347.579010 12.682689
v -100.724373 -349.909027 -60.802685
v -96.666779 -365.165619 -65.210388
v -98.374619 -347.855377 -62.760899
v -108.309738 -346.311493 6.086497
v -104.469948 -306.825378 9.863678
v -96.635902 -322.161713 14.124297
v -108.258209 -312.608124 -70.828178
v -99.950768 -322.165527 -67.823608
v -99.760757 -333.657074 -65.550423
v -107.751167 -305.114258 -73.225487
v -96.803444 -299.413849 14.183468
v -110.489227 -298.668762 -80.505455
v -105.307632 -293.165985 -84.770035
v -102.164383 -304.986664 -73.159859
v -102.281075 -288.158478 -87.975334
v -106.211037 -274.410645 -87.393135
v -111.250282 -262.016571 -83.131470
v -96.609039 -272.770081 -92.180511
v -104.929565 -264.813721 9.277739
v -94.592476 -257.356934 15.163750
v -104.969849 -252.624985 -87.440948
v -97.940086 -254.532791 -91.496635
v -109.707802 -243.765778 4.415717
v -107.071136 -230.207108 -84.041939
v -96.114464 -231.207809 -90.618782
v -111.167839 -237.122772 -69.213303
v -113.363770 -236.060989 -60.706192
v -110.872002 -242.920456 -67.028900
v -104.270775 -247.333801 -61.449787
v -96.065208 -243.280487 -66.155472
v -101.988022 -246.584000 -61.218407
v -99.471207 -245.648407 -64.236023
v -116.068428 -224.852905 -59.526016
v -100.040977 -244.197372 -57.436810
v -117.957756 -220.989471 -45.184837
v -102.807365 -240.445068 -43.844334
v -99.988464 -242.053192 -45.294430
v -104.757683 -225.620819 -78.696808
v -112.494019 -236.165070 -15.430993
v -110.506668 -238.085464 -7.381993
v -103.069550 -249.237183 -14.974137
v -107.627754 -244.776062 -6.915819
v -97.254410 -246.288589 -21.643181
v -98.864494 -249.836060 -7.476884
v -100.857964 -249.891205 -14.566083
v -111.196701 -226.265060 -7.410180
v -105.502846 -239.766327 -1.861022
v -106.008751 -226.950684 -1.234144
v -115.688202 -225.611633 -18.159967
v -101.995895 -241.256744 -34.753448
v -103.448265 -224.403702 8.551787
v -96.489876 -221.525482 13.052490
v -105.010841 -187.236938 -81.978889
v -116.952133 -212.261719 -59.853584
v -118.804008 -212.459778 -45.450195
v -112.507996 -212.572784 -70.841606
v -106.291130 -205.753799 -79.067398
v -117.308411 -223.011459 -32.052536
v -118.314896 -211.685776 -31.897524
v -100.321404 -242.632797 -31.557005
v -115.371208 -212.054214 -18.104780
v -110.300034 -215.175766 -9.213506
v -102.030876 -207.992340 -3.190290
v -101.635941 -187.411896 6.730639
v -95.409088 -187.292496 -87.911659
v -117.618721 -199.973358 -54.480373
v -118.273682 -199.309113 -45.198059
v -112.411263 -200.473343 -70.915779
v -117.788208 -198.694931 -34.788383
v -114.562675 -199.572464 -19.420715
v -105.278755 -194.981247 -7.652421
v -104.415886 -207.609222 -5.806046
v -109.599464 -187.837708 -1.132901
v -117.081192 -189.129517 -59.880154
v -118.332016 -193.258423 -45.185398
v -117.891251 -193.296829 -35.619164
v -114.645424 -189.314743 -18.989061
v -106.790466 -182.419296 -78.287636
v -100.792839 -186.712479 -1.522743
v -101.890610 -182.949051 4.314907
v -100.596352 -182.632904 -84.424286
v -100.044395 -182.041733 -83.776566
v -99.025917 -182.658936 4.578889
v -89.085205 -362.856842 12.946537
v -95.349960 -386.469269 -71.604065
v -96.500687 -386.959656 -13.085102
v -84.465546 -379.525269 -8.152330
v -86.665222 -361.101471 14.329393
v -86.974983 -348.606842 16.536959
v -85.845078 -316.937683 17.888714
v -81.822166 -335.203400 -68.527565
v -80.763603 -344.999542 -67.372856
v -92.144218 -323.903381 -68.147461
v -90.800987 -310.495911 -72.072487
v -83.596794 -313.469055 -71.869034
v -81.341125 -309.543030 -73.297989
v -82.192261 -301.756744 -77.407188
v -90.482239 -283.424347 -92.384163
v -85.358276 -273.846100 -95.392776
v -84.677162 -234.857285 -94.407173
v -99.563583 -238.796143 2.703305
v -97.112427 -245.023270 1.577847
v -87.245071 -245.959015 1.829384
v -88.590279 -249.758591 -6.129574
v -86.731720 -247.667160 -15.918731
v -89.573814 -244.195908 -47.485691
v -96.685684 -232.561035 -82.185532
v -77.607582 -241.387558 -71.951714
v -89.658211 -245.318741 -31.725830
v -99.757034 -227.699112 3.282342
v -88.141335 -235.263229 5.372389
v -86.340683 -218.940933 16.968697
v -85.517258 -199.060532 -92.298981
v -99.342567 -222.407181 -83.415779
v -88.372040 -233.068481 -85.524635
v -89.486015 -183.628448 -88.951500
v -98.926628 -218.135483 2.527822
v -88.400223 -215.301529 5.057103
v -95.571716 -188.507065 1.606173
v -95.357918 -208.862640 0.663984
v -85.703110 -199.928497 15.821262
v -75.689384 -210.052032 7.742678
v -84.102242 -218.661896 5.946184
v -77.298409 -194.121933 9.343588
v -90.763351 -183.829102 9.538899
v -84.725647 -189.942062 7.203479
v -95.506897 -187.668152 10.839515
v -86.754295 -188.493469 14.333169
v -83.925011 -186.045959 -91.179947
v -88.902412 -184.543365 12.363371
v -83.398674 -186.797424 14.476391
v -94.668526 -406.415680 -24.335974
v -94.813026 -405.640411 -64.815140
v -94.467918 -409.024963 -60.399403
v -94.271782 -409.450775 -29.071865
v -94.062004 -411.718506 -54.149921
v -95.044418 -402.838440 -20.646000
v -95.062798 -401.938477 -67.912399
v -95.608284 -396.151001 -16.310257
v -95.206863 -395.364563 -70.757103
v -45.510841 -378.024017 -69.993523
v -93.869850 -412.100464 -36.280930
v -93.736542 -413.053711 -45.364384
v -45.029255 -405.343170 -64.456322
v -45.211197 -406.342896 -24.970695
v -45.145687 -386.712219 -14.102663
v -45.093864 -370.899078 -68.327881
v -75.285316 -363.759735 14.945656
v -74.409607 -361.312531 16.427711
v -77.207603 -350.795410 17.974297
v -76.571991 -358.169830 16.937487
v -79.974815 -341.611755 -67.993515
v -80.260651 -336.186920 -68.649246
v -73.779709 -311.073303 -72.503357
v -75.966423 -302.427826 -76.698502
v -63.621479 -303.644745 19.325445
v -75.391747 -326.723206 19.342596
v -74.572838 -297.381012 19.835186
v -87.548347 -285.580353 -90.913132
v -73.527405 -292.332458 -82.662292
v -84.344627 -280.757019 18.573072
v -88.216537 -282.878998 -93.288818
v -75.504837 -281.081818 -94.690285
v -72.587860 -273.529297 -96.622269
v -75.602150 -269.315552 19.868452
v -85.449371 -245.192810 17.918869
v -73.992744 -232.401505 19.365923
v -76.382957 -246.239822 1.995095
v -77.401749 -236.537018 5.576567
v -75.675888 -247.784485 -14.245270
v -74.795067 -248.803253 -8.724150
v -49.578720 -246.023636 -19.992409
v -74.970222 -239.456619 -75.259964
v -76.155197 -222.898346 -88.855858
v -51.678436 -244.086716 -70.160843
v -64.642532 -239.956223 -75.176727
v -40.713577 -243.850937 -56.946289
v -45.645142 -244.239609 -65.165833
v -49.367138 -236.110092 -82.804688
v -47.176182 -249.995728 -78.746689
v -44.953438 -262.001587 -74.298676
v -25.621458 -234.874954 -44.884415
v -38.774452 -244.379929 -32.555977
v -42.189556 -249.490799 -68.601074
v -39.043140 -246.259979 -62.694939
v -26.560524 -235.979370 -57.481037
v -26.017456 -236.893600 -31.680180
v -42.256428 -245.093964 -23.003695
v -36.256615 -246.041229 -28.370852
v -35.709679 -239.147034 -7.703341
v -54.348312 -246.652130 -15.508026
v -63.986683 -247.371857 -14.199478
v -78.624626 -228.987930 6.556061
v -77.274757 -187.591888 -92.282036
v -73.421776 -199.914520 -94.327545
v -74.993439 -213.664993 -94.937668
v -73.521431 -190.109787 -93.643013
v -81.292709 -187.185654 12.539193
v -73.420364 -190.284485 16.205458
v -44.606583 -409.339325 -60.239830
v -45.290867 -412.011200 -54.333458
v -45.189705 -401.618958 -67.226700
v -45.781834 -413.429565 -45.453545
v -45.585346 -412.473877 -36.352360
v -44.889561 -409.687378 -29.134474
v -45.482372 -394.870605 -69.933830
v -45.402699 -402.496887 -21.659203
v -45.484890 -395.440948 -17.626205
v -64.160240 -379.482880 -8.100215
v -64.688583 -347.586487 18.256849
v -64.472389 -360.316345 15.716983
v -63.474030 -335.888336 -69.070534
v -64.733429 -311.383698 -72.294647
v -71.603882 -313.162659 -71.220718
v -70.143311 -321.314026 -67.764580
v -68.909790 -321.408051 -67.725357
v -62.581390 -301.054352 -76.369904
v -67.178230 -313.339447 -71.134705
v -66.309692 -292.084930 -82.137169
v -64.900360 -270.888885 19.756903
v -65.725281 -281.078339 -94.254311
v -75.814423 -249.314484 -96.334892
v -63.402332 -241.637634 -96.186897
v -64.634430 -237.270828 19.486256
v -61.556831 -245.770660 2.051654
v -57.207851 -229.502121 6.765226
v -64.167557 -248.433289 -8.558593
v -62.979736 -222.878799 -88.919220
v -63.445808 -212.422256 18.608614
v -61.144009 -206.613831 -94.040161
v -65.271469 -193.931671 -93.141830
v -67.493507 -214.141830 8.526995
v -67.888428 -200.874725 10.739906
v -72.211784 -195.080154 11.009710
v -72.023933 -191.340836 14.314310
v -55.927166 -200.172607 13.691857
v -70.474640 -191.487717 15.428186
v -56.076225 -199.115417 15.712525
v -72.019028 -200.782440 18.173208
v -67.021225 -193.538712 -93.887985
v -43.003925 -407.269226 -56.263424
v -43.054783 -407.139679 -34.597519
v -39.969757 -396.795227 -31.547207
v -39.678864 -389.779724 -59.167419
v -45.640305 -386.695648 -70.908722
v -41.881638 -385.220825 -20.087605
v -52.282379 -377.850037 -9.553229
v -49.575794 -362.119507 12.260408
v -52.740643 -364.375732 -67.658203
v -52.133469 -345.142822 -67.250923
v -62.661064 -358.004578 16.278923
v -52.067802 -348.531891 15.501474
v -52.812191 -360.610657 13.741877
v -53.705917 -318.967499 17.074440
v -51.746082 -339.484253 -67.922417
v -54.980888 -315.093140 -71.251549
v -55.973694 -299.943237 -76.057709
v -54.039581 -277.776886 17.698122
v -47.605930 -285.299957 -86.301010
v -46.174026 -285.436707 -88.193031
v -51.378136 -272.038116 -94.035309
v -50.408585 -282.842346 -90.719246
v -54.335457 -248.501129 -94.996468
v -54.428959 -249.727219 17.885283
v -52.279999 -245.325638 1.981414
v -50.957813 -228.945786 6.217454
v -51.962242 -248.152451 -4.707999
v -52.064041 -210.368820 -92.723419
v -51.567402 -225.042068 -87.079849
v -43.181511 -244.266724 0.866448
v -39.591717 -225.502975 2.894276
v -48.342667 -212.194382 9.263915
v -38.968655 -214.610504 5.616151
v -53.498623 -223.731552 17.207895
v -51.282696 -201.487366 -91.396675
v -52.417221 -212.149826 16.408987
v -53.510498 -200.682632 -92.566154
v -50.192249 -203.774872 11.820783
v -43.506420 -374.495331 -13.105865
v -39.637421 -360.545929 7.004557
v -44.588203 -364.920166 -63.741756
v -41.675537 -347.040283 -61.005867
v -44.219986 -360.795715 10.014997
v -42.899834 -347.926666 11.494738
v -42.578907 -331.495117 12.387209
v -41.196072 -323.353546 -68.045876
v -44.711220 -299.110077 14.085882
v -42.464909 -311.221527 12.440155
v -46.355053 -321.831055 -68.623016
v -50.116180 -311.944031 -71.663460
v -40.303627 -311.868256 -70.941437
v -41.951878 -299.397827 -73.330101
v -47.913036 -287.343628 -75.529366
v -42.568092 -287.324921 -74.471252
v -46.108028 -275.050842 -75.152992
v -42.666210 -275.276520 -73.826935
v -46.184528 -274.927521 -80.536026
v -42.676407 -275.335754 -81.303947
v -41.660637 -286.994446 -83.484024
v -46.165184 -272.059540 14.707206
v -41.271545 -257.507538 -90.310181
v -41.435013 -274.225098 -90.072609
v -42.590336 -266.550201 -73.088326
v -45.832104 -262.454895 -79.534592
v -42.605522 -262.671783 -79.914444
v -42.270027 -250.027924 -79.549095
v -44.913521 -249.307098 14.283400
v -40.820656 -237.448212 -80.467842
v -40.711632 -244.110733 -3.765661
v -41.514778 -223.382111 -89.464134
v -43.878639 -223.058990 13.362485
v -42.734264 -213.363480 -89.527229
v -44.694092 -205.854736 -89.692535
v -39.562614 -208.672974 -85.772591
v -40.610123 -208.643936 8.906883
v -43.701122 -213.431671 12.704049
v -52.905357 -203.593430 15.508776
v -44.990273 -206.255356 12.219662
v -39.848263 -371.589172 -19.294514
v -28.952291 -359.130981 -7.809688
v -33.451694 -360.096283 0.091824
v -37.442402 -384.354065 -31.393116
v -37.041546 -370.518799 -32.384590
v -34.868378 -361.086151 -24.180573
v -27.578175 -358.101196 -23.641453
v -26.171101 -358.585083 -21.302973
v -36.892277 -392.634003 -38.085316
v -35.324104 -383.729553 -35.835926
v -37.447182 -396.300232 -44.898586
v -37.418934 -392.797668 -50.796543
v -36.460842 -385.956665 -51.379581
v -39.821472 -372.564667 -56.814831
v -35.709328 -379.912964 -48.953335
v -38.161732 -358.016541 -55.470848
v -35.990314 -358.947510 -44.697250
v -36.977760 -369.663391 -44.608822
v -33.786808 -375.565979 -42.844215
v -39.017971 -349.091797 -57.737221
v -34.469025 -352.465363 -49.636478
v -27.609501 -347.279663 -50.332397
v -28.568380 -351.010162 -47.072563
v -40.331688 -333.998871 -65.354218
v -31.777714 -331.117737 -63.537758
v -21.863949 -342.377838 -49.007874
v -21.659716 -328.031921 -59.201756
v -20.994547 -335.316132 -53.915165
v -33.149837 -375.411377 -36.948254
v -35.347904 -360.149567 -32.738064
v -27.824469 -357.280182 -31.390427
v -24.482506 -353.639648 -39.043247
v -33.809151 -355.365936 -25.213690
v -33.843941 -354.964935 -28.865700
v -30.664486 -353.884155 -28.832882
v -29.402258 -354.579163 -25.062960
v -36.769997 -347.109192 7.344566
v -30.180670 -323.425140 -66.467026
v -28.577003 -311.898560 -71.983475
v -33.743423 -312.334503 5.786733
v -31.120737 -300.953430 -78.549667
v -36.443085 -293.354218 8.717289
v -37.978653 -292.529297 -83.346466
v -42.035172 -286.637024 -87.808037
v -34.826717 -273.207153 -86.295540
v -36.379276 -289.738281 -85.290016
v -34.138550 -293.239777 -83.132019
v -35.932930 -274.061401 8.233802
v -33.904293 -256.853119 -85.629852
v -34.466015 -260.950653 6.955909
v -34.792984 -224.013947 -85.110466
v -39.520416 -244.862762 -70.088928
v -27.616711 -241.134094 -61.401165
v -28.989546 -241.828339 -65.632088
v -28.324863 -236.072861 -66.761681
v -32.552540 -226.289474 -76.081848
v -35.191563 -247.082962 -24.115183
v -29.643576 -243.735291 -23.090660
v -27.241919 -242.559998 -27.822176
v -28.859245 -238.364639 -19.547760
v -30.870790 -236.096741 -9.718449
v -32.727341 -225.440475 -2.880800
v -28.970163 -226.253754 -8.114717
v -36.200626 -223.867004 8.316509
v -35.182518 -210.113205 -84.405258
v -36.984348 -209.522461 7.664170
v -29.037636 -214.186157 -2.159986
v -26.614277 -215.003494 -72.654915
v -27.770920 -213.970901 -2.009371
v -24.761572 -357.660400 -22.158363
v -28.592224 -347.183685 -2.124873
v -23.140520 -352.519073 -38.449371
v -29.390009 -330.542297 1.192701
v -22.795668 -321.023132 -64.179955
v -24.765749 -312.043640 -70.432503
v -27.287924 -307.906433 -2.223639
v -25.451578 -307.752014 -73.136475
v -29.160099 -286.157410 -80.695694
v -29.288605 -296.166046 -79.681480
v -27.874502 -301.382080 -77.244247
v -27.544868 -276.158325 -1.267001
v -29.434006 -275.119385 -81.712921
v -25.349276 -284.140198 -76.613411
v -26.496016 -251.545105 -2.296535
v -24.940767 -248.158798 -75.317207
v -30.884069 -223.293137 3.274704
v -28.200455 -224.452530 -78.733635
v -28.279448 -226.868439 -70.182793
v -23.449581 -224.427185 -54.710770
v -22.616564 -223.731247 -44.728321
v -22.602642 -223.771988 -34.694641
v -24.708212 -226.154373 -18.647686
v -24.308510 -223.528625 -6.133668
v -30.937954 -215.060593 -80.930901
v -27.638187 -214.250351 -75.741104
v -22.847980 -218.056107 -61.236702
v -31.529093 -215.422684 3.166162
v -19.971516 -217.064590 -54.183254
v -22.372875 -216.832535 -17.186722
v -22.182762 -216.033020 -67.063553
v -19.003984 -216.774048 -55.722702
v -23.435497 -215.401306 -10.138554
v -24.077337 -358.961853 -29.722326
v -22.579210 -355.004089 -34.345715
v -22.207569 -347.398499 -15.208841
v -19.194496 -346.382080 -31.727215
v -21.372805 -346.858490 -43.287579
v -18.863115 -312.942627 -20.771843
v -22.472723 -309.468658 -10.850368
v -18.075460 -335.452698 -32.475021
v -17.936352 -335.015594 -44.001553
v -16.527452 -305.914459 -32.887722
v -16.936443 -322.866516 -44.690929
v -21.147144 -310.397125 -66.592491
v -17.847155 -311.480347 -57.381878
v -18.238113 -321.792175 -55.305584
v -15.815586 -298.155884 -46.676342
v -20.588156 -299.054871 -68.127167
v -18.445227 -292.095398 -20.995470
v -20.944613 -283.961578 -69.276680
v -17.418499 -284.083282 -58.658367
v -22.674160 -275.910156 -9.710213
v -16.085749 -258.015045 -35.092289
v -17.602707 -251.445084 -57.868755
v -15.991706 -256.553833 -45.227810
v -18.735857 -248.891525 -20.612732
v -22.472029 -249.620499 -9.609800
v -21.138506 -245.518433 -68.194328
v -17.980618 -225.371643 -56.748016
v -16.599085 -224.218155 -45.311630
v -17.042633 -224.087524 -32.578976
v -18.845242 -224.101700 -20.990080
v -21.063770 -224.789291 -66.823746
v -21.090670 -219.176971 -44.830166
v -21.276024 -219.675079 -34.615387
v -19.132524 -216.849823 -25.631645
v -19.846960 -216.965088 -31.192526
v -18.042379 -216.730103 -44.178078
vn -0.4078 -0.7168 -0.5656
vn -0.9680 -0.2479 -0.0394
vn -0.9613 -0.2755 0.0001
vn -0.5543 -0.7935 -0.2513
vn -0.7509 -0.6398 -0.1638
vn -0.6715 -0.5177 -0.5301
vn -0.9240 -0.2638 -0.2767
vn -0.3406 -0.7371 -0.5837
vn -0.2857 -0.9071 -0.3090
vn -0.2600 -0.8948 -0.3630
vn -0.6504 -0.5237 -0.5502
vn -0.3644 -0.6375 -0.6788
vn -0.4795 -0.7979 -0.3652
vn -0.4815 -0.4898 -0.7268
vn -0.4420 -0.8578 -0.2625
vn -0.9734 -0.1952 0.1200
vn -0.9668 -0.2129 0.1415
vn -0.7983 -0.6003 0.0485
vn -0.2666 -0.9577 -0.1080
vn -0.5464 -0.8364 0.0434
vn -0.5165 -0.8556 -0.0340
vn -0.3572 -0.6113 -0.7062
vn -0.9097 -0.2037 0.3619
vn -0.9293 -0.1747 0.3255
vn -0.7333 -0.6177 0.2840
vn -0.5492 -0.8211 0.1558
vn -0.8373 -0.2626 0.4795
vn -0.8368 -0.1747 0.5188
vn -0.8527 -0.1518 0.4999
vn -0.6899 -0.3350 -0.6417
vn -0.8481 -0.2188 -0.4826
vn -0.9480 -0.1541 -0.2783
vn -0.9534 -0.2200 -0.2064
vn -0.5101 -0.3864 -0.7684
vn -0.1019 -0.5514 -0.8280
vn -0.2964 -0.3696 -0.8807
vn -0.4447 -0.4093 -0.7967
vn -0.9924 -0.1189 -0.0326
vn -0.9382 -0.0200 0.3456
vn -0.8355 -0.0611 0.5461
vn -0.8528 -0.0270 0.5215
vn -0.8750 -0.0766 -0.4780
vn -0.9834 -0.0102 -0.1812
vn -0.9916 -0.0439 -0.1215
vn -0.5183 -0.3761 -0.7681
vn -0.9014 -0.1182 -0.4165
vn -0.1561 -0.3909 -0.9071
vn -0.1312 -0.3877 -0.9124
vn -0.1368 -0.3496 -0.9269
vn -0.9982 -0.0094 0.0584
vn -0.9992 0.0018 0.0408
vn -0.9810 -0.0201 0.1930
vn -0.9843 -0.0103 0.1764
vn -0.9401 -0.0144 0.3406
vn -0.8490 0.0112 0.5284
vn -0.8352 -0.0063 0.5498
vn -0.9017 -0.0554 -0.4287
vn -0.8854 -0.0249 -0.4641
vn -0.3717 -0.3240 -0.8699
vn -0.1515 -0.4278 -0.8911
vn -0.3815 -0.3261 -0.8649
vn -0.9913 -0.0264 -0.1286
vn -0.9357 0.0004 0.3529
vn -0.8708 -0.1752 -0.4593
vn -0.9562 0.0415 -0.2898
vn -0.7611 -0.0586 -0.6460
vn -0.3688 -0.3364 -0.8665
vn -0.9956 0.0296 -0.0894
vn -0.9881 0.0481 -0.1462
vn -0.9988 0.0270 0.0416
vn -0.9990 0.0290 0.0344
vn -0.9828 0.0145 0.1840
vn -0.9858 0.0244 0.1659
vn -0.9380 0.0055 0.3465
vn -0.8456 0.0210 0.5334
vn -0.9514 0.0472 -0.3044
vn -0.7583 -0.1075 -0.6429
vn -0.8622 0.0411 -0.5049
vn -0.5925 -0.0877 -0.8008
vn -0.6003 -0.2785 -0.7498
vn -0.9832 0.0330 0.1795
vn -0.9299 0.0239 0.3670
vn -0.9393 0.0319 0.3416
vn -0.8603 0.0207 0.5093
vn -0.8268 -0.0069 0.5624
vn -0.9513 0.0489 -0.3042
vn -0.9881 0.0482 -0.1462
vn -0.9985 0.0463 0.0297
vn -0.9850 0.0427 0.1672
vn -0.8528 0.0327 0.5211
vn -0.9903 0.0521 -0.1289
vn -0.8560 0.0495 -0.5146
vn -0.9986 0.0506 0.0125
vn -0.9371 0.0585 -0.3441
vn -0.8659 0.0585 -0.4968
vn -0.9785 0.0536 0.1992
vn -0.9401 0.0539 0.3367
vn -0.9398 0.0537 0.3375
vn -0.8717 0.0481 0.4877
vn -0.9408 0.0804 -0.3294
vn -0.9899 0.0722 -0.1222
vn -0.9881 0.0760 -0.1340
vn -0.8494 0.0697 -0.5232
vn -0.9973 0.0732 0.0083
vn -0.8459 0.0864 0.5264
vn -0.8493 0.0688 -0.5234
vn -0.9967 0.0779 0.0234
vn -0.9809 0.0806 0.1769
vn -0.9796 0.0781 0.1854
vn -0.9377 0.0836 -0.3374
vn -0.8558 0.0644 -0.5133
vn -0.9295 0.0759 0.3610
vn -0.9434 0.0966 0.3174
vn -0.9004 0.4173 -0.1226
vn -0.9726 0.2312 0.0255
vn -0.8919 0.4343 -0.1260
vn -0.9386 0.0717 -0.3375
vn -0.9130 0.3731 0.1652
vn -0.8901 0.4374 0.1285
vn -0.8353 0.4537 0.3105
vn -0.8510 0.4036 0.3360
vn -0.7934 0.3505 -0.4977
vn 0.3184 0.9456 0.0674
vn 0.4957 0.8644 0.0839
vn -0.8577 0.2007 -0.4733
vn -0.3970 0.9063 -0.1450
vn 0.0778 0.9827 0.1684
vn 0.0755 0.9971 -0.0040
vn 0.0152 0.9997 -0.0213
vn 0.7233 0.6608 -0.2004
vn 0.8822 -0.1305 -0.4525
vn -0.1956 0.9802 0.0299
vn -0.8472 -0.5295 -0.0429
vn -0.7020 -0.7058 -0.0955
vn -0.7876 -0.6154 -0.0313
vn -0.2146 -0.5673 -0.7950
vn -0.8395 -0.5206 -0.1557
vn -0.9934 0.0252 -0.1121
vn -0.5153 -0.8510 -0.1012
vn -0.4758 -0.6798 0.5581
vn -0.4271 -0.7507 0.5041
vn -0.5780 -0.3899 0.7169
vn -0.7192 -0.1217 0.6841
vn -0.6658 -0.1578 0.7293
vn -0.5033 -0.5752 0.6449
vn -0.5853 -0.2935 0.7558
vn -0.5575 -0.1996 0.8058
vn -0.4980 -0.2012 0.8435
vn -0.5548 -0.1654 0.8154
vn -0.6510 -0.1195 0.7496
vn -0.4033 -0.8816 -0.2452
vn -0.3025 -0.2494 -0.9200
vn -0.8640 -0.4412 -0.2426
vn -0.8973 -0.1156 -0.4259
vn -0.3154 -0.3617 -0.8773
vn -0.2977 -0.4580 -0.8376
vn -0.6479 0.1150 0.7530
vn -0.6985 -0.0252 0.7152
vn -0.6445 -0.2754 0.7133
vn -0.2625 -0.2972 -0.9180
vn -0.6934 -0.0185 0.7204
vn -0.6635 -0.0071 0.7482
vn -0.5389 0.0683 0.8396
vn -0.5231 -0.0306 0.8517
vn -0.5474 -0.0139 0.8368
vn 0.0946 -0.3207 -0.9425
vn -0.0138 -0.3107 -0.9504
vn -0.1204 -0.2027 -0.9718
vn -0.1185 -0.1946 -0.9737
vn 0.1333 -0.4881 -0.8626
vn 0.3320 -0.3077 -0.8917
vn -0.0056 -0.3043 -0.9525
vn -0.4866 -0.0059 0.8736
vn -0.3302 -0.3392 -0.8808
vn 0.2757 -0.6659 -0.6933
vn -0.6631 -0.0077 0.7485
vn -0.2912 -0.4050 -0.8667
vn -0.2735 -0.4149 -0.8678
vn 0.0248 -0.7438 -0.6679
vn 0.1243 -0.6783 -0.7242
vn -0.2463 -0.4125 -0.8770
vn 0.0180 -0.2945 -0.9555
vn -0.5367 -0.0814 -0.8399
vn -0.6684 0.0085 -0.7437
vn -0.6377 0.0056 -0.7702
vn -0.4329 -0.0851 -0.8974
vn -0.4301 -0.0870 -0.8986
vn -0.6463 0.0036 0.7630
vn -0.6896 0.0317 0.7235
vn -0.4984 0.0066 0.8669
vn -0.4951 0.0058 0.8688
vn -0.5979 0.0323 -0.8009
vn -0.4942 0.0262 -0.8690
vn -0.4463 0.0010 -0.8949
vn -0.7503 0.0469 -0.6594
vn -0.7636 0.0367 0.6446
vn -0.6816 0.0143 0.7316
vn -0.6239 0.0597 -0.7792
vn -0.7137 0.0738 -0.6965
vn -0.5074 0.0825 -0.8578
vn -0.4840 0.0707 -0.8722
vn -0.6985 0.0597 -0.7131
vn 0.9632 0.1364 0.2316
vn 0.7115 0.5982 -0.3686
vn -0.0467 0.3501 0.9355
vn -0.2675 0.5762 0.7723
vn 0.1239 0.9138 0.3867
vn -0.0287 0.6540 0.7559
vn 0.9533 0.2068 0.2202
vn 0.4469 0.4128 -0.7937
vn 0.9715 0.2274 0.0667
vn 0.7566 0.5667 -0.3263
vn 0.4692 0.8807 -0.0647
vn 0.5417 0.8274 -0.1484
vn 0.0863 0.6047 0.7917
vn -0.2433 0.8719 -0.4250
vn 0.8107 0.5823 -0.0612
vn 0.8757 0.3961 0.2761
vn 0.5731 0.4374 0.6931
vn -0.7681 -0.3518 -0.5351
vn 0.4801 0.8538 -0.2011
vn 0.2978 0.9503 -0.0911
vn -0.4185 -0.5305 -0.7372
vn 0.1560 0.8459 0.5101
vn 0.9723 0.0562 -0.2267
vn 0.7151 0.2664 -0.6462
vn 0.7520 0.2821 -0.5957
vn 0.7673 0.0433 -0.6398
vn 0.7488 0.0618 -0.6599
vn 0.7197 0.1136 -0.6850
vn 0.8573 0.3557 0.3721
vn 0.5788 0.8092 0.1012
vn 0.9114 0.1802 -0.3699
vn 0.3104 0.5574 -0.7700
vn -0.8560 0.1129 0.5045
vn 0.3049 0.6093 -0.7320
vn -0.6280 0.0370 0.7773
vn -0.6937 0.0711 0.7168
vn -0.5530 0.0352 0.8324
vn -0.5076 0.0239 0.8613
vn -0.5091 0.0656 -0.8582
vn 0.9247 0.0746 0.3733
vn 0.9895 0.1014 0.1030
vn 0.9891 0.0728 0.1282
vn 0.9252 0.0752 0.3721
vn 0.7601 0.0842 0.6443
vn 0.7837 0.0720 0.6170
vn 0.7859 0.6158 0.0560
vn 0.9954 0.0889 -0.0355
vn 0.9944 0.0974 -0.0414
vn 0.7651 0.6438 -0.0108
vn 0.6175 0.7865 0.0151
vn 0.5137 0.8566 0.0486
vn 0.7678 0.6399 0.0302
vn 0.9925 -0.0227 -0.1200
vn 0.9745 0.0894 -0.2056
vn 0.2671 0.9280 0.2596
vn 0.9110 -0.1369 -0.3890
vn 0.8657 -0.0182 -0.5002
vn 0.6730 -0.1714 -0.7195
vn 0.7347 -0.2204 -0.6416
vn -0.6940 0.0252 0.7195
vn -0.6699 0.0692 0.7392
vn -0.5615 0.0681 0.8246
vn -0.6881 0.0677 -0.7225
vn -0.7098 0.0787 -0.7000
vn -0.5244 0.0608 -0.8493
vn 0.9199 -0.1142 0.3753
vn 0.9910 -0.0424 0.1268
vn 0.9974 0.0241 0.0686
vn 0.9532 -0.0058 0.3022
vn 0.7989 -0.0027 0.6015
vn 0.9983 -0.0479 -0.0333
vn 0.9982 -0.0394 -0.0442
vn 0.9739 -0.0852 -0.2101
vn 0.9740 -0.0861 -0.2094
vn 0.7378 -0.3836 -0.5555
vn 0.8011 -0.1138 -0.5876
vn 0.7408 0.0307 -0.6710
vn 0.7539 -0.0443 -0.6555
vn -0.7023 0.0877 0.7065
vn 0.9493 0.1012 0.2977
vn 0.9975 0.0095 0.0697
vn 0.9966 -0.0083 0.0825
vn 0.9235 0.0071 0.3835
vn 0.8055 0.0194 0.5922
vn 0.9988 0.0118 -0.0473
vn 0.9989 0.0097 -0.0460
vn 0.9787 0.0165 -0.2045
vn 0.9819 -0.0104 -0.1892
vn 0.7785 0.0327 -0.6269
vn -0.8453 0.0886 0.5269
vn -0.8379 0.0808 0.5397
vn -0.7101 0.0997 -0.6970
vn 0.8874 0.1414 0.4387
vn 0.9705 0.1978 0.1382
vn 0.9758 0.1570 0.1521
vn 0.7690 -0.0049 0.6392
vn 0.9897 0.1361 -0.0451
vn 0.9788 0.1892 -0.0785
vn 0.9423 0.2336 -0.2398
vn 0.9455 0.2248 -0.2357
vn 0.7317 0.2790 -0.6219
vn 0.7800 0.0398 -0.6245
vn -0.7897 0.3433 0.5084
vn -0.6886 0.4850 0.5391
vn -0.6740 0.3216 0.6651
vn -0.1321 0.9906 -0.0356
vn -0.6442 0.2303 -0.7294
vn -0.3856 0.8211 -0.4209
vn -0.3514 0.8588 -0.3728
vn 0.5404 0.7551 -0.3712
vn -0.3442 0.9063 0.2452
vn -0.1076 0.9911 0.0788
vn 0.5876 0.5851 -0.5589
vn -0.9640 -0.0319 -0.2641
vn -0.2953 -0.7872 0.5414
vn -0.9978 -0.0399 -0.0539
vn -0.9718 -0.2348 -0.0211
vn -0.3354 -0.0799 0.9387
vn -0.3176 -0.7766 0.5440
vn -0.3095 -0.7579 0.5743
vn -0.2992 -0.3009 0.9055
vn -0.3336 -0.1538 0.9301
vn -0.3111 -0.1728 0.9345
vn -0.6605 0.0409 -0.7497
vn -0.3271 -0.0286 0.9446
vn -0.1775 -0.2064 -0.9622
vn -0.2683 0.1090 -0.9571
vn -0.2298 -0.1384 -0.9633
vn -0.0839 -0.1947 -0.9773
vn -0.1729 -0.1251 -0.9770
vn -0.3142 -0.0345 0.9487
vn -0.0557 -0.3027 -0.9514
vn -0.0982 -0.2620 -0.9601
vn -0.0965 -0.2728 -0.9572
vn -0.0736 -0.3035 -0.9500
vn -0.2821 -0.7094 -0.6459
vn 0.0544 -0.5614 -0.8257
vn 0.0555 -0.5595 -0.8270
vn -0.0298 -0.6404 -0.7674
vn -0.2926 -0.1502 -0.9444
vn -0.2731 0.0161 -0.9619
vn -0.2550 0.0289 -0.9665
vn -0.2968 0.0591 -0.9531
vn -0.5585 0.8005 -0.2176
vn -0.6355 0.7425 -0.2117
vn 0.1054 -0.8496 -0.5167
vn -0.7550 -0.6188 0.2171
vn -0.0676 0.9975 0.0213
vn 0.4595 0.6029 -0.6522
vn 0.4035 0.6340 -0.6598
vn 0.3165 0.9004 -0.2984
vn 0.8382 0.3974 -0.3734
vn 0.8150 0.5775 0.0463
vn 0.0949 0.8713 -0.4815
vn 0.3977 0.9067 -0.1406
vn 0.0506 0.8979 -0.4372
vn 0.4821 0.8205 -0.3072
vn -0.0340 0.9787 0.2026
vn 0.3518 0.9353 -0.0392
vn 0.5783 -0.0720 0.8126
vn 0.7890 -0.5802 -0.2019
vn 0.3707 0.3318 0.8674
vn 0.0115 -0.3712 -0.9285
vn -0.9063 0.0996 -0.4107
vn -0.0695 0.9949 0.0729
vn 0.6918 0.6123 0.3827
vn 0.0881 0.8296 0.5514
vn -0.0781 0.9941 0.0759
vn 0.1636 0.9714 -0.1722
vn 0.2447 0.9685 0.0468
vn 0.2152 0.9740 0.0706
vn 0.2392 0.9327 0.2699
vn 0.0552 0.9891 0.1367
vn 0.2397 0.9473 -0.2124
vn 0.6556 0.0174 -0.7549
vn 0.6032 0.0520 -0.7959
vn 0.6448 0.0852 -0.7595
vn 0.1522 0.2335 -0.9604
vn 0.2112 0.0546 -0.9759
vn 0.5894 0.0627 -0.8054
vn 0.6011 0.1241 -0.7895
vn 0.0543 0.3181 -0.9465
vn -0.3676 0.0353 0.9293
vn -0.2999 0.0491 -0.9527
vn 0.5523 0.2412 0.7980
vn 0.3755 0.2077 0.9033
vn 0.2094 0.8989 0.3849
vn 0.6340 0.0633 0.7707
vn 0.2558 0.0726 0.9640
vn 0.5728 -0.1138 -0.8117
vn 0.2574 -0.0982 -0.9613
vn 0.1686 -0.0134 -0.9856
vn 0.6509 -0.2118 -0.7290
vn -0.3407 0.0633 -0.9380
vn 0.5596 0.0171 0.8286
vn 0.4420 0.0157 0.8969
vn 0.3133 -0.3918 -0.8651
vn 0.7313 -0.0756 -0.6779
vn 0.5041 0.0452 -0.8625
vn 0.4935 -0.0587 -0.8677
vn -0.3743 0.0684 0.9248
vn 0.7080 -0.0546 -0.7041
vn 0.3408 0.0470 -0.9390
vn -0.5591 -0.7854 -0.2657
vn 0.3291 -0.1264 -0.9358
vn 0.4208 0.1327 -0.8974
vn 0.5639 0.5151 -0.6455
vn 0.5619 0.2738 -0.7806
vn 0.4141 0.6518 -0.6354
vn 0.4600 0.4155 -0.7847
vn 0.4454 0.6809 -0.5813
vn -0.5534 0.0703 0.8299
vn -0.3640 0.0713 0.9287
vn -0.3990 0.0822 0.9133
vn -0.5247 0.0518 -0.8497
vn -0.2914 0.3438 -0.8927
vn 0.6315 -0.0124 0.7753
vn -0.5016 0.3895 0.7725
vn -0.4117 0.4981 0.7631
vn -0.2829 0.4901 0.8245
vn -0.2946 0.1634 0.9416
vn -0.1665 0.7948 -0.5835
vn -0.3787 -0.0181 -0.9254
vn -0.1282 0.9128 0.3877
vn -0.0163 0.9667 0.2552
vn -0.9951 -0.0993 0.0017
vn -0.9907 -0.1363 0.0043
vn -0.9903 -0.1392 0.0043
vn -0.9977 -0.0681 -0.0009
vn -0.9944 -0.1061 0.0015
vn -0.9997 -0.0253 -0.0077
vn -0.9965 -0.0832 -0.0012
vn -0.9996 -0.0180 -0.0198
vn -0.9956 -0.0936 -0.0087
vn 0.0046 0.1608 -0.9870
vn 0.0039 0.3283 -0.9446
vn -0.9857 -0.1686 0.0070
vn -0.9803 -0.1974 0.0063
vn 0.0091 -0.7933 -0.6088
vn 0.0094 -0.6413 -0.7672
vn 0.0082 -0.8416 0.5400
vn 0.0100 -0.7175 0.6965
vn 0.0203 -0.3293 0.9440
vn 0.0190 -0.5739 0.8187
vn -0.0128 0.2283 -0.9735
vn -0.1380 -0.7916 0.5952
vn -0.0098 0.4079 -0.9130
vn -0.1566 -0.4700 0.8686
vn -0.1569 -0.4685 0.8694
vn -0.1817 -0.1755 0.9676
vn -0.1670 -0.2688 0.9486
vn -0.2052 -0.1536 0.9666
vn -0.1865 -0.1349 -0.9732
vn -0.1319 -0.0873 -0.9874
vn -0.1561 -0.1266 -0.9796
vn -0.2141 -0.1678 -0.9623
vn -0.0664 -0.4714 -0.8794
vn 0.0091 -0.3585 -0.9335
vn 0.0263 -0.3552 -0.9344
vn -0.0349 -0.1606 -0.9864
vn -0.0287 -0.1444 -0.9891
vn 0.0510 -0.4618 -0.8855
vn 0.0065 -0.4352 -0.9003
vn -0.0100 -0.4299 -0.9028
vn -0.3273 -0.0049 0.9449
vn -0.0932 0.0482 0.9945
vn -0.0078 -0.0946 0.9955
vn -0.1104 -0.6583 -0.7446
vn 0.1737 -0.5966 -0.7835
vn 0.0418 -0.5157 -0.8558
vn -0.3265 -0.0043 0.9452
vn -0.1490 -0.0125 0.9888
vn -0.3462 -0.1075 -0.9320
vn -0.2845 -0.1455 -0.9476
vn -0.1290 -0.6727 -0.7286
vn 0.1424 -0.6336 -0.7605
vn 0.0273 -0.7278 -0.6853
vn -0.0890 -0.1991 -0.9759
vn -0.0762 -0.2194 -0.9727
vn -0.3258 -0.0049 0.9454
vn -0.1386 -0.0063 0.9903
vn -0.2986 0.0083 0.9543
vn -0.1633 0.0131 0.9865
vn -0.1471 0.0199 0.9889
vn 0.0299 0.9001 -0.4347
vn 0.0557 0.3182 -0.9464
vn 0.0233 0.3483 -0.9371
vn -0.0207 0.9785 0.2051
vn -0.1131 0.9624 -0.2469
vn -0.0329 0.9819 0.1864
vn -0.0247 0.9945 0.1021
vn 0.0158 0.8580 0.5134
vn -0.2907 0.5947 0.7496
vn -0.0033 0.9975 0.0710
vn 0.1011 0.9943 0.0342
vn 0.0476 0.8279 0.5588
vn 0.0369 0.8500 0.5255
vn -0.0714 0.9966 0.0415
vn 0.1261 0.9845 -0.1222
vn 0.0584 0.8395 0.5403
vn 0.9161 0.2770 0.2898
vn 0.5941 0.3860 -0.7057
vn 0.9179 0.2377 0.3177
vn -0.5461 0.8355 0.0615
vn -0.1153 0.9929 0.0307
vn 0.6202 0.6724 -0.4039
vn -0.1396 0.8981 -0.4169
vn -0.4463 0.7717 -0.4531
vn -0.4868 0.8726 -0.0402
vn -0.5086 0.8532 0.1152
vn -0.1124 0.9931 0.0333
vn 0.3110 0.9326 0.1831
vn -0.4504 0.7032 0.5501
vn -0.2987 0.9359 -0.1866
vn -0.2284 0.9365 -0.2663
vn -0.0647 0.9954 0.0707
vn -0.0305 0.9861 0.1635
vn -0.0355 0.9892 0.1420
vn -0.0121 0.9887 0.1491
vn 0.0347 0.1341 -0.9904
vn -0.3170 0.0236 0.9481
vn -0.1585 0.0303 0.9869
vn 0.2843 0.0727 0.9560
vn 0.1828 0.1007 0.9780
vn 0.1928 -0.0130 -0.9812
vn 0.1201 0.0051 -0.9927
vn -0.1608 0.0621 -0.9850
vn -0.2300 0.1643 -0.9592
vn -0.1604 0.0671 -0.9848
vn -0.1024 0.1191 0.9876
vn -0.2633 -0.0920 -0.9603
vn 0.0679 0.7562 -0.6508
vn -0.0558 0.4090 -0.9108
vn 0.4292 0.6597 -0.6169
vn 0.3456 0.9383 0.0096
vn 0.2535 0.9354 0.2463
vn 0.5106 0.5845 -0.6305
vn 0.2772 0.9240 0.2636
vn -0.1275 0.1232 0.9842
vn -0.0045 -0.9184 -0.3956
vn -0.0065 -0.9887 -0.1500
vn -0.0070 -0.9108 -0.4128
vn -0.0024 -0.7259 -0.6878
vn 0.0149 -0.5964 -0.8026
vn -0.0076 -0.9945 0.1043
vn -0.0080 -0.9874 -0.1582
vn -0.0067 -0.9387 0.3446
vn -0.0075 -0.9945 0.1046
vn -0.0029 -0.7797 0.6261
vn -0.0040 -0.9328 0.3605
vn 0.0151 -0.3717 -0.9282
vn 0.0191 -0.3967 -0.9177
vn 0.0209 -0.5427 0.8397
vn 0.0200 -0.6518 0.7581
vn 0.0298 -0.4957 0.8680
vn 0.0296 -0.3752 0.9265
vn -0.0006 -0.6398 0.7685
vn 0.0003 -0.8260 0.5637
vn 0.0356 -0.1361 0.9901
vn 0.0140 -0.1418 0.9898
vn 0.0893 -0.1934 0.9770
vn -0.0228 -0.1212 -0.9924
vn 0.0011 -0.1573 -0.9876
vn 0.0174 -0.1561 -0.9876
vn 0.0345 -0.1599 -0.9865
vn -0.0303 -0.1458 -0.9888
vn -0.0225 -0.1316 -0.9911
vn -0.1706 -0.0359 0.9847
vn -0.1552 -0.0444 0.9869
vn -0.0081 -0.0561 0.9984
vn 0.2014 -0.3516 -0.9143
vn 0.0541 -0.1701 0.9839
vn 0.0032 0.4209 0.9071
vn 0.2065 -0.8198 -0.5341
vn -0.5148 0.3459 0.7844
vn 0.0018 -0.5218 -0.8530
vn 0.4396 0.1393 0.8873
vn 0.0655 -0.4222 -0.9042
vn 0.0635 -0.4064 -0.9115
vn -0.5054 -0.4688 -0.7244
vn 0.5406 -0.4926 -0.6820
vn -0.0067 0.4170 0.9089
vn 0.0088 -0.3686 -0.9296
vn 0.0090 -0.3533 -0.9355
vn 0.0224 -0.3582 -0.9334
vn 0.0515 -0.0255 0.9983
vn -0.0005 -0.3904 -0.9206
vn 0.0023 -0.3896 -0.9210
vn -0.0035 -0.5069 -0.8620
vn -0.4164 0.1584 0.8952
vn 0.0797 -0.5212 -0.8497
vn 0.0740 -0.5174 -0.8525
vn 0.0399 -0.0116 0.9991
vn 0.0748 -0.7221 -0.6877
vn 0.0103 -0.0008 0.9999
vn 0.0302 -0.7406 -0.6713
vn 0.0431 -0.2632 -0.9638
vn -0.0958 -0.0010 -0.9954
vn -0.1689 0.0279 -0.9852
vn 0.0042 0.0124 -0.9999
vn -0.0056 0.0139 0.9999
vn 0.0116 0.0080 0.9999
vn -0.1463 0.0421 -0.9883
vn -0.0125 0.0394 -0.9991
vn -0.0298 0.9711 -0.2367
vn -0.0631 0.3397 -0.9384
vn -0.0052 0.2796 -0.9601
vn -0.0354 0.9818 0.1868
vn -0.0301 0.9712 -0.2363
vn -0.0371 0.9823 0.1836
vn -0.1718 0.0539 -0.9836
vn 0.0028 0.6347 0.7728
vn 0.0240 0.6253 0.7800
vn 0.0128 0.1307 -0.9913
vn 0.0054 0.0350 0.9994
vn 0.0347 0.0589 -0.9977
vn 0.1234 0.0997 0.9873
vn 0.0045 0.1447 0.9895
vn 0.1747 0.0346 -0.9840
vn 0.1169 0.0440 -0.9922
vn 0.0126 0.1223 -0.9924
vn 0.0447 0.0392 -0.9982
vn 0.1762 0.1671 -0.9701
vn 0.3303 0.1274 -0.9352
vn 0.1702 0.1722 -0.9702
vn 0.3480 0.6109 -0.7111
vn 0.2226 0.2104 -0.9519
vn 0.5212 0.5503 -0.6523
vn 0.3579 0.6507 -0.6697
vn 0.3331 0.8453 -0.4177
vn 0.3913 0.5613 -0.7293
vn -0.1417 0.0461 0.9888
vn -0.1651 0.0649 0.9841
vn 0.0004 0.0377 0.9993
vn -0.1574 0.1616 0.9742
vn -0.0009 0.0696 -0.9976
vn 0.4048 0.8210 -0.4026
vn 0.3881 0.7718 -0.5037
vn 0.3738 0.9273 -0.0188
vn 0.4320 0.7492 -0.5021
vn 0.9719 -0.2352 0.0062
vn 0.9603 -0.2789 0.0086
vn 0.9644 -0.2641 0.0090
vn 0.9407 -0.1940 -0.2782
vn 0.7904 -0.6126 0.0003
vn 0.9484 -0.1619 -0.2725
vn 0.9537 -0.1943 0.2297
vn 0.8169 -0.5768 0.0054
vn 0.9019 -0.2551 0.3485
vn 0.9112 -0.3402 0.2323
vn 0.8972 -0.1304 -0.4220
vn 0.9263 -0.2261 -0.3012
vn 0.8870 -0.0378 -0.4603
vn 0.0176 -0.1181 -0.9929
vn 0.0135 -0.0946 -0.9954
vn 0.9029 -0.2054 0.3777
vn 0.8797 -0.2070 0.4282
vn 0.8980 -0.2256 0.3777
vn 0.0144 0.1047 -0.9944
vn 0.1606 -0.3453 0.9246
vn 0.1130 -0.7945 0.5966
vn 0.1797 -0.8083 0.5606
vn -0.0563 0.0365 -0.9977
vn 0.0037 -0.1095 -0.9940
vn -0.0560 0.0229 -0.9982
vn 0.1214 -0.5456 0.8292
vn 0.1160 -0.5832 0.8040
vn -0.0533 -0.1963 0.9791
vn 0.0033 -0.1809 -0.9835
vn 0.2007 -0.1449 0.9689
vn 0.1485 -0.3419 0.9279
vn 0.2082 -0.1535 0.9660
vn 0.2102 -0.0403 0.9768
vn 0.0207 -0.2422 -0.9700
vn 0.0114 -0.1186 -0.9929
vn 0.0575 -0.1273 -0.9902
vn 0.0602 -0.1433 -0.9878
vn 0.0578 -0.1275 -0.9902
vn -0.1518 -0.3569 -0.9217
vn -0.1068 -0.1203 0.9870
vn 0.0924 -0.3927 -0.9150
vn 0.1169 -0.3712 -0.9212
vn 0.1079 -0.3842 -0.9169
vn -0.0189 -0.3192 -0.9475
vn -0.0134 -0.3032 -0.9528
vn 0.0025 -0.3069 -0.9517
vn 0.1795 -0.0283 0.9833
vn 0.2019 -0.0132 0.9793
vn -0.7124 -0.6149 -0.3382
vn 0.0078 -0.5385 -0.8426
vn -0.3996 -0.9067 -0.1353
vn 0.1320 -0.6089 -0.7822
vn 0.1408 -0.6202 -0.7717
vn 0.1827 -0.0058 0.9832
vn -0.6554 -0.3162 -0.6859
vn 0.1197 -0.7378 -0.6644
vn -0.1943 -0.9780 -0.0764
vn 0.2737 -0.6213 -0.7342
vn 0.1318 -0.1856 -0.9737
vn 0.1169 -0.5883 -0.8001
vn 0.1864 -0.2729 -0.9438
vn 0.1155 -0.0197 -0.9931
vn 0.1228 -0.0251 -0.9921
vn 0.1838 -0.0040 0.9830
vn 0.1629 0.0067 0.9866
vn -0.0484 0.9715 -0.2319
vn -0.0194 0.2518 -0.9676
vn -0.1100 0.3036 -0.9464
vn -0.0484 0.9819 0.1832
vn 0.0998 0.9182 -0.3833
vn -0.0708 0.9857 0.1526
vn 0.1663 0.0488 -0.9849
vn -0.0066 0.6273 0.7787
vn 0.3283 0.3964 0.8574
vn -0.1471 0.2588 -0.9547
vn -0.1535 0.9076 -0.3908
vn -0.3219 0.1624 -0.9327
vn -0.1027 0.1935 -0.9757
vn -0.3051 0.2163 -0.9274
vn -0.3400 0.2462 -0.9076
vn 0.0249 0.1303 -0.9912
vn 0.1691 0.0267 0.9852
vn 0.1779 0.0193 0.9839
vn 0.1635 0.0498 -0.9853
vn -0.0475 0.1405 0.9889
vn -0.1231 0.1803 0.9759
vn 0.1942 0.0495 0.9797
vn 0.0923 0.1267 -0.9876
vn 0.1595 0.0398 -0.9864
vn 0.0873 0.1664 -0.9822
vn 0.0071 0.2920 -0.9564
vn 0.1370 0.1376 0.9810
vn 0.1920 0.1060 0.9757
vn 0.1502 0.6334 -0.7591
vn 0.1291 0.1993 0.9714
vn 0.0874 -0.0190 -0.9960
vn 0.4205 0.6270 -0.6558
vn 0.4322 0.8291 0.3546
vn 0.4669 0.8233 -0.3229
vn 0.4141 -0.1291 0.9010
vn 0.8831 -0.1546 0.4431
vn 0.3896 -0.7693 0.5064
vn 0.4705 -0.7649 0.4400
vn 0.3939 0.5382 -0.7451
vn 0.5130 0.0020 -0.8584
vn 0.4357 0.0664 -0.8977
vn 0.4149 -0.7068 0.5729
vn 0.1269 -0.5429 0.8302
vn 0.3966 -0.0495 0.9167
vn 0.4042 -0.1562 0.9012
vn 0.3911 -0.1446 0.9089
vn 0.4897 -0.1357 -0.8613
vn 0.4030 -0.0575 0.9134
vn 0.1606 -0.1125 -0.9806
vn 0.3381 -0.0115 0.9410
vn 0.4088 -0.0480 0.9114
vn 0.3594 -0.0297 0.9327
vn 0.3838 -0.0046 0.9234
vn 0.0882 -0.2620 -0.9610
vn 0.0049 0.3688 0.9295
vn 0.0728 -0.2678 -0.9607
vn 0.0736 -0.1782 -0.9812
vn 0.1139 -0.3103 -0.9438
vn 0.1099 -0.2940 -0.9495
vn 0.0355 -0.2469 -0.9684
vn 0.3350 -0.1755 -0.9257
vn 0.3514 -0.1773 -0.9193
vn 0.1920 -0.1691 -0.9667
vn -0.0543 -0.0967 -0.9938
vn -0.6135 0.1876 0.7671
vn 0.8413 -0.5350 -0.0775
vn 0.8502 -0.5202 -0.0815
vn 0.9894 -0.1453 0.0006
vn -0.6017 0.5576 0.5719
vn 0.3580 -0.0240 -0.9334
vn 0.1937 0.0540 -0.9796
vn 0.9918 -0.1265 -0.0170
vn -0.5836 0.7168 0.3816
vn 0.1304 -0.4952 0.8589
vn 0.1955 0.9417 -0.2736
vn -0.0545 0.6316 -0.7733
vn -0.7615 -0.6469 -0.0415
vn -0.7959 0.0318 -0.6046
vn -0.1783 0.6304 0.7555
vn -0.1180 -0.9882 -0.0980
vn 0.4335 0.8995 0.0547
vn -0.4657 -0.2017 0.8616
vn 0.9658 0.0154 -0.2588
vn 0.3565 -0.0023 0.9343
vn 0.3403 0.0044 -0.9403
vn 0.3670 -0.0168 -0.9301
vn 0.9961 -0.0871 -0.0162
vn 0.4787 0.0151 -0.8778
vn 0.3628 0.0755 -0.9288
vn 0.9863 -0.0147 -0.1642
vn 0.1110 -0.0827 0.9904
vn 0.2006 -0.1080 0.9737
vn 0.3559 -0.0013 0.9345
vn 0.6878 0.1695 -0.7058
vn 0.9778 0.1165 -0.1742
vn -0.1978 0.4421 -0.8749
vn 0.1610 -0.0450 0.9859
vn 0.1148 -0.0317 0.9929
vn 0.3541 -0.0021 0.9352
vn -0.2206 0.2414 0.9450
vn 0.1615 0.0534 0.9854
vn -0.4418 0.8701 0.2185
vn -0.3242 0.9354 -0.1414
vn -0.3218 0.7659 0.5567
vn 0.3354 0.0361 -0.9414
vn 0.3532 0.0257 -0.9352
vn -0.2036 0.3173 0.9262
vn 0.3705 0.0109 0.9288
vn 0.3532 0.0189 0.9353
vn 0.3338 0.0347 -0.9420
vn -0.3644 0.1721 0.9152
vn 0.3443 0.0666 -0.9365
vn 0.3430 0.0689 -0.9368
vn -0.3306 0.1851 0.9254
vn -0.1608 0.2543 -0.9537
vn -0.2332 0.4197 -0.8772
vn 0.3944 0.0265 0.9186
vn 0.3672 0.0567 0.9284
vn 0.2240 0.1146 0.9678
vn 0.4148 0.1186 0.9022
vn 0.4043 0.1337 0.9048
vn -0.2024 0.1779 -0.9630
vn 0.4468 0.2777 0.8505
vn 0.3367 0.8443 -0.4169
vn 0.8807 -0.1574 0.4467
vn 0.7076 -0.7010 0.0891
vn 0.5201 -0.7454 0.4170
vn 0.6463 -0.7093 0.2814
vn 0.9232 -0.1581 0.3504
vn 0.9779 -0.0134 0.2086
vn 0.9187 -0.3576 0.1677
vn 0.2685 -0.5080 -0.8184
vn 0.6933 -0.7116 0.1141
vn 0.5666 -0.6700 -0.4796
vn 0.9186 -0.1909 0.3461
vn 0.9162 -0.3371 0.2167
vn 0.8967 -0.1871 0.4012
vn 0.9285 -0.2360 0.2868
vn 0.8900 -0.4559 0.0048
vn 0.9238 -0.3635 0.1204
vn 0.9159 -0.2289 -0.3298
vn 0.9391 -0.2974 -0.1721
vn 0.9376 -0.1577 -0.3100
vn 0.9062 0.0646 -0.4180
vn 0.9077 0.0642 -0.4148
vn 0.8947 0.0337 -0.4454
vn 0.9148 0.0473 -0.4012
vn 0.8038 -0.0368 -0.5938
vn 0.8022 -0.0456 -0.5954
vn 0.9745 -0.0923 -0.2044
vn 0.9760 -0.0949 -0.1959
vn 0.8992 0.2159 -0.3806
vn 0.9107 0.0428 -0.4109
vn 0.9744 -0.0915 -0.2053
vn 0.8560 0.4038 -0.3226
vn 0.8746 0.3846 -0.2952
vn 0.9206 0.1165 -0.3726
vn 0.9074 0.1055 -0.4069
vn 0.7414 -0.0975 -0.6640
vn 0.7391 -0.0896 -0.6676
vn 0.8629 -0.0450 -0.5033
vn 0.8627 -0.0361 -0.5044
vn 0.8051 -0.0406 -0.5917
vn 0.8000 -0.0439 -0.5984
vn 0.9020 -0.3749 -0.2142
vn 0.9056 -0.3699 -0.2076
vn 0.5359 -0.4470 -0.7163
vn 0.4148 -0.7335 -0.5384
vn 0.4864 -0.6425 -0.5922
vn 0.3548 -0.3284 -0.8754
vn 0.3010 -0.3294 -0.8949
vn 0.5389 -0.4371 -0.7200
vn 0.4622 -0.4122 -0.7852
vn 0.5274 -0.5277 -0.6659
vn 0.5135 -0.4728 -0.7161
vn 0.7181 -0.0127 0.6959
vn 0.7728 0.0231 0.6343
vn 0.8672 -0.2628 0.4230
vn 0.8974 -0.1808 0.4025
vn 0.9869 -0.1614 -0.0061
vn 0.7457 0.6635 0.0610
vn 0.8022 0.5953 0.0458
vn 0.9839 -0.1632 -0.0730
vn 0.9938 -0.0921 -0.0626
vn 0.3716 -0.9215 -0.1126
vn 0.4378 -0.6077 -0.6626
vn 0.4874 -0.8517 -0.1923
vn 0.5530 -0.6667 -0.4997
vn 0.8569 0.4810 -0.1851
vn 0.8732 0.4788 -0.0906
vn 0.8877 0.4477 -0.1076
vn 0.9779 -0.1948 -0.0761
vn 0.9668 -0.2528 -0.0370
vn 0.2040 -0.6231 0.7550
vn 0.0675 -0.5636 0.8233
vn 0.0673 -0.1894 -0.9796
vn 0.1857 -0.2835 -0.9408
vn 0.5679 -0.1513 0.8090
vn 0.5490 -0.1380 0.8243
vn 0.1783 -0.9779 -0.1091
vn 0.3122 -0.9102 -0.2723
vn 0.5649 -0.0557 0.8233
vn 0.3093 -0.2094 -0.9276
vn 0.1365 -0.2324 -0.9630
vn 0.3160 -0.3942 -0.8630
vn -0.0866 -0.2372 -0.9676
vn 0.1244 -0.4424 -0.8882
vn 0.6061 -0.0055 0.7954
vn 0.6251 -0.0194 0.7803
vn -0.4490 -0.2250 -0.8647
vn -0.0766 -0.5260 -0.8470
vn 0.5501 -0.0114 0.8350
vn 0.6031 -0.0372 0.7968
vn -0.9046 -0.0856 -0.4176
vn -0.3964 -0.6762 -0.6210
vn -0.1904 -0.8266 -0.5296
vn -0.1187 -0.6500 -0.7506
vn -0.0658 -0.6137 -0.7868
vn 0.4698 0.1896 -0.8622
vn 0.2466 -0.1855 -0.9512
vn 0.5088 -0.1783 -0.8422
vn 0.3632 -0.0905 -0.9273
vn 0.3095 -0.2535 -0.9165
vn -0.0743 -0.6340 -0.7697
vn 0.1456 -0.4499 -0.8811
vn 0.2890 0.2155 0.9328
vn 0.8529 0.4851 0.1930
vn -0.8269 -0.5527 -0.1035
vn -0.0495 -0.5244 -0.8501
vn -0.9950 -0.0027 -0.1003
vn -0.9962 -0.0872 0.0020
vn 0.5359 0.0094 0.8442
vn 0.5413 0.0068 0.8408
vn 0.5372 -0.0172 -0.8433
vn 0.4954 0.0074 -0.8687
vn -1.0000 0.0086 0.0013
vn -1.0000 0.0050 0.0051
vn 0.5376 0.0220 0.8429
vn -0.9997 0.0199 0.0135
vn -0.9996 0.0263 0.0061
vn 0.5625 -0.0155 0.8267
vn 0.5343 0.0278 -0.8449
vn -0.8686 0.4952 -0.0179
vn -0.9689 0.1271 0.2122
vn -0.3642 0.8850 -0.2901
vn -0.5057 0.8624 0.0226
vn -0.3331 0.2185 0.9172
vn -0.5981 0.5364 0.5955
vn -0.7847 0.4714 -0.4025
vn 0.5451 0.0247 -0.8380
vn -0.8025 0.4334 0.4101
vn -0.1913 0.6187 -0.7620
vn 0.2906 0.9437 0.1583
vn -0.5319 0.7821 0.3246
vn -0.3623 0.9308 0.0473
vn -0.2711 0.5811 0.7674
vn -0.0072 0.4682 -0.8836
vn -0.5561 0.8269 -0.0835
vn -0.3721 0.8848 -0.2803
vn -0.1888 0.5598 -0.8068
vn -0.7960 0.2135 -0.5664
vn -0.5979 0.3787 -0.7065
vn -0.4950 0.2320 -0.8374
vn -0.7294 0.3628 -0.5800
vn 0.5498 0.0076 0.8353
vn 0.5717 -0.0034 0.8205
vn 0.5423 0.0607 -0.8380
vn 0.5465 0.0577 -0.8354
vn -0.6289 0.2222 -0.7451
vn 0.5828 0.0447 0.8114
vn 0.5529 0.0680 0.8305
vn 0.5222 0.1177 -0.8446
vn -0.6288 0.1675 0.7593
vn -0.6033 0.2514 -0.7568
vn -0.6040 0.2466 -0.7579
vn 0.5350 0.1522 0.8310
vn 0.5754 0.7980 -0.1795
vn 0.1567 0.8876 0.4331
vn 0.5346 0.5593 -0.6335
vn 0.2435 0.9456 0.2160
vn 0.5720 0.8005 0.1791
vn -0.0071 0.8066 -0.5910
vn -0.0838 0.8532 -0.5148
vn 0.1182 0.9401 -0.3197
vn 0.9861 -0.1450 -0.0814
vn 0.9938 -0.1088 -0.0224
vn 0.9857 -0.1612 -0.0490
vn 0.9411 -0.3275 -0.0836
vn 0.9658 -0.2570 -0.0338
vn 0.9642 -0.1871 -0.1879
vn 0.9804 -0.1689 -0.1015
vn 0.9773 -0.1976 -0.0761
vn 0.9533 0.0027 -0.3019
vn 0.9443 -0.0237 -0.3283
vn 0.0374 0.6693 0.7420
vn -0.8616 -0.1046 0.4968
vn 0.6593 -0.6402 0.3944
vn 0.4890 0.5193 0.7009
vn 0.5830 -0.8078 0.0875
vn -0.8842 -0.4666 -0.0213
vn -0.0076 0.8690 0.4948
vn -0.9625 0.2647 0.0586
vn 0.7394 -0.1742 0.6503
vn 0.7452 -0.1697 0.6449
vn -0.1227 0.9813 0.1481
vn -0.8907 0.4115 -0.1932
vn -0.7182 -0.6864 0.1139
vn -0.0539 0.9574 -0.2837
vn -0.9626 0.2529 0.0974
vn -0.2581 0.6624 0.7033
vn 0.1740 0.5563 0.8125
vn -0.7517 0.4098 0.5167
vn 0.4187 -0.0203 -0.9079
vn 0.5567 0.7769 -0.2942
vn 0.8949 -0.1312 0.4266
vn 0.6847 -0.6029 -0.4095
vn 0.1891 0.8127 0.5511
vn -0.7423 0.5389 0.3983
vn 0.7531 -0.0937 0.6511
vn -0.5106 0.7239 -0.4640
vn 0.3222 0.9466 0.0078
vn 0.3869 -0.3972 -0.8322
vn 0.4646 -0.4615 -0.7557
vn 0.3230 -0.4447 -0.8354
vn 0.3963 -0.4645 -0.7919
vn 0.6732 -0.0255 0.7390
vn 0.7718 0.0242 0.6354
vn 0.3263 -0.4294 -0.8421
vn 0.7751 0.0127 0.6317
vn 0.3886 -0.3534 -0.8509
vn 0.2076 -0.4975 -0.8423
vn 0.5769 -0.1280 -0.8067
vn 0.5399 -0.0917 -0.8367
vn 0.4385 -0.2801 -0.8539
vn 0.1723 -0.4867 -0.8564
vn 0.7579 -0.0135 0.6522
vn 0.5577 -0.0624 -0.8277
vn 0.7474 -0.0765 -0.6599
vn 0.7409 -0.0434 -0.6702
vn 0.6219 -0.1056 -0.7759
vn 0.7669 -0.0891 -0.6356
vn 0.7493 -0.0032 0.6622
vn 0.6464 -0.0054 -0.7630
vn 0.7474 -0.0189 0.6641
vn 0.7603 -0.0052 0.6496
vn 0.7915 0.0130 -0.6110
vn 0.7623 -0.0092 0.6472
vn 0.7123 0.0239 -0.7015
vn 0.7817 0.0176 -0.6235
vn 0.6960 0.0302 -0.7174
vn -0.9480 -0.0453 0.3150
vn -0.9718 0.1482 0.1833
vn -0.8656 0.3576 -0.3505
vn -0.9735 0.0601 -0.2207
vn -0.4844 0.3069 0.8192
vn -0.7048 0.4432 0.5540
vn -0.9598 0.2152 0.1803
vn -0.9536 0.1090 0.2805
vn -0.9645 0.2594 0.0492
vn -0.9672 0.2540 0.0098
vn -0.9655 0.2603 0.0024
vn -0.9674 0.2452 0.0636
vn -0.9277 0.3285 -0.1775
vn -0.9686 0.2307 -0.0928
vn -0.9439 0.2221 -0.2444
vn -0.8779 0.3244 -0.3522
vn 0.6878 0.0055 0.7259
vn 0.8197 0.0144 0.5726
vn 0.6960 0.0351 -0.7172
vn 0.8302 0.1143 -0.5457
vn 0.6709 0.0563 -0.7394
vn -0.7770 0.2310 0.5855
vn -0.9127 0.2021 0.3551
vn -0.9157 0.3265 0.2343
vn -0.7569 0.2858 -0.5877
vn -0.9130 0.1764 -0.3678
vn 0.6824 0.0704 0.7276
vn 0.6760 0.0655 0.7340
vn 0.7970 0.0736 0.5994
vn 0.8192 0.0502 0.5713
vn 0.7860 0.2914 -0.5452
vn -0.6726 0.1328 0.7280
vn -0.9199 0.1758 0.3504
vn -0.8576 0.2822 -0.4301
vn 0.7554 0.2309 0.6133
vn -0.7485 0.2044 0.6309
vn 0.2259 0.9742 0.0003
vn -0.0771 0.9874 0.1379
vn -0.0896 0.9733 -0.2112
vn -0.1347 0.9611 -0.2409
vn 0.8877 -0.4527 -0.0840
vn 0.4147 0.3783 -0.8276
vn 0.6313 0.0238 0.7752
vn 0.8797 -0.3437 -0.3285
vn 0.8109 0.5778 0.0924
vn 0.8899 -0.4463 -0.0937
vn 0.8078 0.4437 0.3881
vn 0.8307 -0.5313 0.1666
vn 0.6252 0.6233 0.4698
vn 0.9675 -0.2198 0.1253
vn 0.9467 -0.3053 0.1030
vn 0.9063 -0.3985 0.1408
vn 0.6944 -0.5804 -0.4254
vn 0.9338 -0.0348 0.3562
vn 0.6670 -0.5934 -0.4506
vn 0.8993 -0.3756 0.2241
vn 0.8553 -0.2434 0.4573
vn 0.8729 -0.2308 0.4298
vn 0.6997 -0.5321 -0.4768
vn 0.9732 0.1840 0.1382
vn 0.8701 -0.3490 -0.3481
vn 0.9823 -0.0671 0.1750
vn 0.9353 -0.0339 0.3522
vn 0.9704 -0.0839 0.2266
vn 0.8975 -0.0444 0.4387
vn 0.8977 -0.0441 0.4384
vn 0.9773 -0.1123 -0.1795
vn 0.9604 -0.2786 0.0010
vn 0.9986 -0.0522 0.0101
vn 0.9857 -0.0494 0.1614
vn 0.9940 -0.0775 0.0768
vn 0.7559 -0.2542 -0.6033
vn 0.9096 -0.2210 -0.3519
vn 0.8779 -0.1263 -0.4618
vn 0.8671 -0.1873 -0.4616
vn 0.9904 -0.0551 -0.1270
vn 0.9987 -0.0431 0.0273
vn 0.8726 -0.0073 0.4884
vn 0.7559 -0.2582 -0.6016
vn 0.8070 -0.1181 -0.5786
vn 0.9338 -0.0928 -0.3455
vn 0.7892 -0.0915 -0.6073
vn 0.9918 -0.0604 -0.1131
vn 0.9836 -0.0178 0.1793
vn 0.9379 -0.0151 0.3465
vn 0.7844 -0.0287 -0.6196
vn 0.8536 -0.1064 -0.5099
vn 0.9604 -0.0279 -0.2773
vn 0.9490 -0.0016 -0.3152
vn 0.9870 -0.0228 -0.1589
vn 0.9332 -0.0066 0.3592
vn 0.8726 -0.0077 0.4884
vn 0.8663 -0.0118 0.4994
vn 0.9988 -0.0070 0.0476
vn 0.9869 -0.0017 0.1611
vn 0.9490 0.0130 -0.3150
vn 0.9924 0.0085 -0.1228
vn 0.9924 0.0086 -0.1230
vn 0.9999 0.0039 0.0098
vn 0.9842 0.0051 0.1769
vn 0.9323 -0.0085 0.3616
vn 0.9468 0.0035 0.3217
vn 0.8663 -0.0160 0.4993
vn 0.8770 -0.0086 0.4803
vn 0.8570 0.0188 -0.5150
vn 0.9484 0.0137 -0.3169
vn 0.8811 0.0070 -0.4729
vn 0.9504 0.0271 -0.3099
vn 0.9927 0.0183 -0.1191
vn 0.9924 0.0196 -0.1219
vn 0.9995 0.0272 0.0132
vn 0.9992 0.0189 0.0346
vn 0.9844 0.0070 0.1757
vn 0.9467 0.0091 0.3221
vn 0.9880 0.0165 0.1537
vn 0.8774 0.0285 -0.4789
vn 0.9564 0.0158 -0.2917
vn 0.8575 0.0440 -0.5126
vn 0.9386 0.0202 0.3444
vn 0.8764 -0.0025 0.4816
vn 0.8551 0.0953 -0.5097
vn 0.8515 0.1038 -0.5140
vn -0.9463 0.3183 0.0568
vn -0.9699 0.2129 0.1184
vn -0.9514 0.3080 0.0026
vn -0.9482 0.3177 -0.0017
vn -0.9629 0.2551 -0.0885
vn -0.9450 0.3081 -0.1097
vn 0.9372 0.0679 0.3420
vn 0.9496 0.1948 0.2455
vn 0.8843 0.1264 0.4494
vn 0.7088 0.6306 -0.3161
vn -0.5666 0.8157 0.1164
vn -0.8878 0.4602 0.0063
vn -0.8787 0.4774 0.0027
vn -0.7858 0.6006 -0.1474
vn -0.2611 0.9651 0.0181
vn -0.1535 0.9881 -0.0034
vn -0.1437 0.9896 -0.0021
vn -0.0364 0.9992 -0.0160
vn -0.6335 0.7341 -0.2446
vn 0.9342 -0.3173 -0.1630
vn 0.9188 -0.2832 -0.2749
vn 0.8811 -0.2225 -0.4174
vn 0.9521 -0.0949 -0.2908
vn 0.9673 -0.2115 -0.1400
vn 0.9584 0.1153 -0.2611
vn 0.9483 0.1465 -0.2817
vn 0.9884 0.1275 -0.0828
vn 0.9685 0.2075 -0.1379
vn 0.9818 0.1803 0.0589
vn 0.9679 0.2496 0.0312
vn 0.9789 0.1363 0.1524
usemtl material_0.028
s off
f 1//1 2//1 3//1
f 4//2 3//2 5//2
f 4//3 6//3 3//3
f 7//4 3//4 2//4
f 7//5 5//5 3//5
f 8//6 1//6 3//6
f 6//7 8//7 3//7
f 9//8 2//8 1//8
f 10//9 11//9 2//9
f 9//10 10//10 2//10
f 12//11 1//11 8//11
f 13//12 1//12 12//12
f 14//13 9//13 1//13
f 13//14 14//14 1//14
f 7//15 2//15 11//15
f 15//16 5//16 16//16
f 15//17 4//17 5//17
f 16//18 5//18 7//18
f 10//19 7//19 11//19
f 17//20 16//20 7//20
f 18//21 17//21 7//21
f 10//22 18//22 7//22
f 19//23 16//23 20//23
f 19//24 15//24 16//24
f 21//25 20//25 16//25
f 21//26 16//26 17//26
f 22//27 20//27 21//27
f 23//28 19//28 20//28
f 23//29 20//29 22//29
f 12//30 8//30 24//30
f 25//31 24//31 8//31
f 26//32 8//32 6//32
f 26//33 25//33 8//33
f 27//34 12//34 24//34
f 28//35 12//35 29//35
f 28//36 13//36 12//36
f 27//37 29//37 12//37
f 4//38 26//38 6//38
f 30//39 15//39 19//39
f 31//40 30//40 19//40
f 31//41 19//41 23//41
f 32//42 24//42 25//42
f 33//43 25//43 26//43
f 33//44 32//44 25//44
f 34//45 27//45 24//45
f 32//46 34//46 24//46
f 28//47 29//47 27//47
f 35//48 27//48 34//48
f 35//49 28//49 27//49
f 36//50 26//50 4//50
f 36//51 33//51 26//51
f 37//52 4//52 15//52
f 37//53 36//53 4//53
f 30//54 37//54 15//54
f 38//55 39//55 30//55
f 38//56 30//56 31//56
f 40//57 34//57 32//57
f 41//58 34//58 40//58
f 42//59 34//59 41//59
f 42//60 35//60 34//60
f 43//61 42//61 41//61
f 33//62 40//62 32//62
f 39//63 37//63 30//63
f 44//64 41//64 40//64
f 45//65 44//65 40//65
f 46//66 41//66 44//66
f 46//67 43//67 41//67
f 47//68 40//68 33//68
f 47//69 45//69 40//69
f 48//70 33//70 36//70
f 48//71 47//71 33//71
f 49//72 36//72 37//72
f 49//73 48//73 36//73
f 39//74 49//74 37//74
f 50//75 39//75 38//75
f 45//76 51//76 44//76
f 52//77 46//77 44//77
f 52//78 44//78 51//78
f 53//79 46//79 52//79
f 54//80 53//80 52//80
f 55//81 48//81 49//81
f 56//82 49//82 39//82
f 56//83 55//83 49//83
f 57//84 56//84 39//84
f 57//85 39//85 50//85
f 58//86 51//86 45//86
f 47//87 58//87 45//87
f 59//88 47//88 48//88
f 55//89 59//89 48//89
f 60//90 56//90 57//90
f 61//91 58//91 47//91
f 62//92 52//92 51//92
f 59//93 61//93 47//93
f 63//94 51//94 58//94
f 62//95 51//95 63//95
f 64//96 59//96 55//96
f 65//97 55//97 56//97
f 65//98 64//98 55//98
f 60//99 65//99 56//99
f 66//100 63//100 58//100
f 67//101 58//101 61//101
f 67//102 66//102 58//102
f 68//103 62//103 63//103
f 59//104 67//104 61//104
f 69//105 65//105 60//105
f 68//106 63//106 70//106
f 71//107 67//107 59//107
f 72//108 59//108 64//108
f 72//109 71//109 59//109
f 70//110 63//110 66//110
f 73//111 68//111 70//111
f 74//112 72//112 64//112
f 74//113 64//113 65//113
f 75//114 66//114 67//114
f 75//115 67//115 71//115
f 75//116 76//116 66//116
f 70//117 66//117 76//117
f 77//118 71//118 72//118
f 77//119 75//119 71//119
f 78//120 77//120 72//120
f 78//121 72//121 74//121
f 73//122 70//122 76//122
f 79//123 76//123 75//123
f 79//124 80//124 76//124
f 81//125 73//125 76//125
f 82//126 81//126 76//126
f 80//127 82//127 76//127
f 83//128 79//128 75//128
f 84//129 75//129 77//129
f 84//130 83//130 75//130
f 85//131 84//131 77//131
f 85//132 77//132 78//132
f 86//133 17//133 18//133
f 87//134 21//134 17//134
f 86//135 87//135 17//135
f 88//136 18//136 10//136
f 89//137 18//137 88//137
f 89//138 86//138 18//138
f 88//139 10//139 9//139
f 90//140 22//140 21//140
f 90//141 21//141 87//141
f 91//142 22//142 92//142
f 93//143 22//143 91//143
f 93//144 23//144 22//144
f 94//145 92//145 22//145
f 94//146 22//146 90//146
f 95//147 91//147 92//147
f 96//148 95//148 92//148
f 96//149 92//149 94//149
f 95//150 93//150 91//150
f 88//151 9//151 14//151
f 97//152 14//152 13//152
f 98//153 88//153 14//153
f 98//154 14//154 97//154
f 99//155 13//155 28//155
f 99//156 97//156 13//156
f 95//157 23//157 93//157
f 100//158 31//158 23//158
f 95//159 100//159 23//159
f 99//160 28//160 35//160
f 38//161 31//161 100//161
f 101//162 38//162 100//162
f 96//163 100//163 95//163
f 102//164 101//164 100//164
f 102//165 100//165 96//165
f 42//166 103//166 35//166
f 104//167 35//167 103//167
f 105//168 99//168 35//168
f 104//169 105//169 35//169
f 43//170 103//170 42//170
f 106//171 103//171 43//171
f 104//172 103//172 106//172
f 107//173 101//173 102//173
f 108//174 43//174 46//174
f 106//175 43//175 108//175
f 101//176 50//176 38//176
f 53//177 108//177 46//177
f 109//178 108//178 53//178
f 110//179 106//179 108//179
f 109//180 110//180 108//180
f 111//181 109//181 53//181
f 110//182 104//182 106//182
f 112//183 53//183 54//183
f 113//184 54//184 52//184
f 112//185 54//185 113//185
f 114//186 53//186 112//186
f 114//187 111//187 53//187
f 115//188 50//188 101//188
f 115//189 57//189 50//189
f 116//190 115//190 101//190
f 116//191 101//191 107//191
f 117//192 112//192 113//192
f 118//193 112//193 117//193
f 118//194 114//194 112//194
f 62//195 113//195 52//195
f 119//196 60//196 57//196
f 115//197 119//197 57//197
f 120//198 117//198 113//198
f 120//199 113//199 62//199
f 121//200 117//200 120//200
f 121//201 118//201 117//201
f 68//202 120//202 62//202
f 122//203 123//203 124//203
f 125//204 124//204 123//204
f 126//205 122//205 124//205
f 127//206 124//206 125//206
f 128//207 124//207 127//207
f 126//208 124//208 128//208
f 129//209 123//209 122//209
f 130//210 125//210 123//210
f 131//211 123//211 129//211
f 132//212 123//212 131//212
f 133//213 123//213 132//213
f 130//214 123//214 133//214
f 134//215 122//215 126//215
f 130//216 127//216 125//216
f 135//217 136//217 137//217
f 138//218 137//218 136//218
f 139//219 135//219 137//219
f 140//220 137//221 138//221
f 141//222 137//222 140//223
f 139//224 137//224 141//224
f 142//225 136//225 135//225
f 143//226 138//227 136//227
f 144//228 136//228 142//228
f 144//229 143//230 136//229
f 145//231 135//231 146//231
f 139//232 146//232 135//232
f 142//233 135//233 145//233
f 143//234 140//235 138//236
f 147//237 119//237 115//237
f 147//238 60//238 119//238
f 148//239 147//239 115//239
f 148//240 115//240 116//240
f 121//241 120//241 149//241
f 150//242 129//242 122//242
f 151//243 131//243 129//243
f 151//244 129//244 150//244
f 152//245 150//245 122//245
f 153//246 152//246 122//246
f 153//247 122//247 134//247
f 154//248 132//248 131//248
f 155//249 154//249 131//249
f 155//250 131//250 151//250
f 146//251 132//251 154//251
f 156//252 132//252 146//252
f 156//253 133//253 132//253
f 145//254 146//254 154//254
f 157//255 145//255 154//255
f 157//256 154//256 155//256
f 139//257 156//257 146//257
f 158//258 142//258 145//258
f 158//259 145//259 157//259
f 159//260 142//260 158//260
f 159//261 144//261 142//261
f 69//262 60//262 147//262
f 160//263 69//263 147//263
f 148//264 160//264 147//264
f 149//265 120//265 68//265
f 149//266 68//266 73//266
f 161//267 121//267 149//267
f 162//268 150//268 152//268
f 163//269 151//269 150//269
f 163//270 150//270 162//270
f 164//271 162//271 152//271
f 153//272 164//272 152//272
f 165//273 155//273 151//273
f 165//274 151//274 163//274
f 166//275 157//275 155//275
f 166//276 155//276 165//276
f 159//277 158//277 157//277
f 167//278 157//278 166//278
f 168//279 159//279 157//279
f 167//280 168//280 157//280
f 160//281 169//281 69//281
f 170//282 162//282 164//282
f 171//283 163//283 162//283
f 171//284 162//284 170//284
f 82//285 170//285 164//285
f 153//286 82//286 164//286
f 172//287 165//287 163//287
f 172//288 163//288 171//288
f 173//289 166//289 165//289
f 173//290 165//290 172//290
f 167//291 166//291 173//291
f 169//292 65//292 69//292
f 169//293 74//293 65//293
f 81//294 149//294 73//294
f 80//295 170//295 82//295
f 79//296 171//296 170//296
f 79//297 170//297 80//297
f 174//298 82//298 153//298
f 83//299 172//299 171//299
f 83//300 171//300 79//300
f 84//301 173//301 172//301
f 84//302 172//302 83//302
f 175//303 173//303 84//303
f 167//304 173//304 175//304
f 78//305 74//305 169//305
f 176//306 78//306 169//306
f 176//307 169//307 160//307
f 174//308 81//308 82//308
f 177//309 149//309 81//309
f 178//310 177//310 81//310
f 174//311 178//311 81//311
f 175//312 84//312 85//312
f 176//313 85//313 78//313
f 179//314 85//314 176//314
f 179//315 175//315 85//315
f 98//316 89//316 88//316
f 180//317 90//317 87//317
f 86//318 181//318 87//318
f 182//319 87//319 181//319
f 183//320 87//320 182//320
f 180//321 87//321 183//321
f 180//322 94//322 90//322
f 184//323 94//323 180//323
f 185//324 96//324 94//324
f 185//325 94//325 184//325
f 98//326 97//326 99//326
f 186//327 96//327 185//327
f 187//328 99//328 105//328
f 188//329 98//329 99//329
f 187//330 188//330 99//330
f 189//331 105//331 104//331
f 189//332 187//332 105//332
f 186//333 102//333 96//333
f 190//334 104//334 110//334
f 191//335 189//335 104//335
f 192//336 104//336 190//336
f 192//337 191//337 104//337
f 190//338 110//338 109//338
f 193//339 109//339 111//339
f 193//340 190//340 109//340
f 194//341 193//341 111//341
f 194//342 111//342 114//342
f 195//343 114//343 118//343
f 196//344 195//344 118//344
f 196//345 118//345 121//345
f 130//346 128//346 127//346
f 130//347 126//347 128//347
f 143//348 141//349 140//350
f 143//351 197//352 140//353
f 198//354 140//355 197//354
f 199//356 140//357 198//356
f 200//358 140//359 199//358
f 201//360 140//361 200//360
f 201//362 143//363 140//364
f 143//365 139//366 141//366
f 202//367 126//367 130//367
f 134//368 126//368 203//368
f 204//369 203//369 126//369
f 202//370 204//370 126//370
f 202//371 130//371 133//371
f 205//372 133//372 156//372
f 205//373 202//373 133//373
f 205//374 156//374 139//374
f 201//375 205//375 139//375
f 201//376 139//376 143//377
f 206//378 197//378 143//379
f 207//380 198//380 197//380
f 207//381 197//381 206//381
f 144//382 206//382 143//383
f 207//384 199//384 198//384
f 208//385 148//385 116//385
f 209//386 196//386 121//386
f 210//387 134//387 203//387
f 211//388 210//388 203//388
f 211//389 203//389 204//389
f 153//390 134//390 210//390
f 212//391 210//391 211//391
f 213//392 206//392 144//392
f 214//393 206//393 213//393
f 214//394 207//394 206//394
f 159//395 213//395 144//395
f 209//396 121//396 161//396
f 178//397 153//397 210//397
f 212//398 178//398 210//398
f 214//399 213//399 159//399
f 215//400 159//400 168//400
f 215//401 216//401 159//401
f 214//402 159//402 216//402
f 217//403 148//403 208//403
f 167//404 215//404 168//404
f 218//405 216//405 215//405
f 219//406 214//406 216//406
f 218//407 219//407 216//407
f 218//408 215//408 220//408
f 221//409 215//409 175//409
f 167//410 175//410 215//410
f 222//411 215//411 221//411
f 220//412 215//412 222//412
f 221//413 175//413 179//413
f 223//414 160//414 148//414
f 224//415 223//415 148//415
f 224//416 148//416 217//416
f 177//417 161//417 149//417
f 225//418 161//418 177//418
f 174//419 153//419 178//419
f 176//420 160//420 223//420
f 226//421 176//421 223//421
f 227//422 223//422 224//422
f 227//423 226//423 223//423
f 212//424 177//424 178//424
f 225//425 177//425 212//425
f 226//426 179//426 176//426
f 226//427 221//427 179//427
f 228//428 229//428 230//428
f 231//429 228//429 230//429
f 232//430 231//430 230//430
f 233//431 234//431 229//431
f 228//432 233//432 229//432
f 235//433 236//433 234//433
f 233//434 235//434 234//434
f 182//435 181//435 236//435
f 235//436 182//436 236//436
f 237//437 181//437 86//437
f 89//438 237//438 86//438
f 232//439 238//439 231//439
f 232//440 239//440 238//440
f 240//441 230//441 229//441
f 240//442 229//442 234//442
f 241//443 228//443 231//443
f 233//444 228//444 241//444
f 242//445 182//445 235//445
f 183//446 182//446 242//446
f 243//447 237//447 89//447
f 244//448 180//448 183//448
f 243//449 89//449 98//449
f 245//450 180//450 244//450
f 245//451 184//451 180//451
f 246//452 185//452 184//452
f 247//453 184//453 245//453
f 246//454 184//454 247//454
f 248//455 188//455 187//455
f 249//456 187//456 189//456
f 249//457 248//457 187//457
f 249//458 189//458 191//458
f 193//459 192//459 190//459
f 250//460 191//461 192//461
f 250//462 249//463 191//463
f 251//464 192//464 193//464
f 251//465 250//466 192//465
f 186//467 107//467 102//467
f 252//468 186//468 253//468
f 254//469 186//469 252//469
f 255//470 193//470 194//470
f 256//471 193//471 255//471
f 256//472 251//472 193//472
f 257//473 107//473 186//473
f 254//474 257//474 186//474
f 195//475 258//475 194//475
f 195//476 194//476 114//476
f 255//477 194//477 258//477
f 256//478 255//478 258//478
f 259//479 256//479 258//479
f 260//480 258//480 195//480
f 260//481 259//481 258//481
f 257//482 116//482 107//482
f 261//483 257//483 254//483
f 262//484 116//484 257//484
f 261//485 262//485 257//485
f 263//486 262//486 261//486
f 264//487 200//487 199//487
f 265//488 199//488 207//488
f 265//489 264//489 199//489
f 266//490 201//490 200//490
f 267//491 200//491 264//491
f 266//492 200//492 267//492
f 268//493 204//493 202//493
f 269//494 211//494 204//494
f 270//495 211//495 269//495
f 205//496 268//496 202//496
f 268//497 271//497 204//497
f 272//498 204//498 271//498
f 272//499 269//499 204//499
f 268//500 273//500 271//500
f 274//501 271//501 273//501
f 275//502 272//502 271//502
f 276//503 271//503 277//503
f 274//504 277//504 271//504
f 275//505 271//505 276//505
f 278//506 273//506 279//506
f 268//507 279//507 273//507
f 274//508 273//508 280//508
f 281//509 280//509 273//509
f 282//510 281//510 273//510
f 282//511 273//511 278//511
f 283//512 278//512 279//512
f 284//513 279//513 268//513
f 284//514 285//514 279//514
f 283//515 279//515 285//515
f 286//516 268//516 287//516
f 286//517 284//517 268//517
f 287//518 268//518 288//518
f 266//519 268//519 205//519
f 288//520 268//520 266//520
f 266//521 205//521 201//521
f 289//522 265//522 207//522
f 208//523 116//523 262//523
f 263//524 208//524 262//524
f 290//525 212//525 211//525
f 290//526 211//526 270//526
f 219//527 207//527 214//527
f 219//528 289//528 207//528
f 291//529 292//529 209//529
f 293//530 209//530 161//530
f 293//531 291//531 209//531
f 227//532 224//532 217//532
f 225//533 293//533 161//533
f 290//534 225//534 212//534
f 290//535 293//535 225//535
f 294//536 222//536 221//536
f 295//537 221//537 226//537
f 294//538 221//538 295//538
f 294//539 220//539 222//539
f 295//540 226//540 227//540
f 295//541 227//541 217//541
f 296//542 232//542 230//542
f 297//543 239//543 232//543
f 296//544 297//544 232//544
f 240//545 296//545 230//545
f 298//546 240//546 234//546
f 299//547 238//547 239//547
f 299//548 239//548 297//548
f 300//549 231//549 238//549
f 300//550 238//550 299//550
f 301//551 241//551 231//551
f 301//552 231//552 300//552
f 302//553 298//553 234//553
f 236//554 302//554 234//554
f 303//555 235//555 233//555
f 303//556 233//556 241//556
f 304//557 235//557 303//557
f 242//558 235//558 304//558
f 305//559 183//559 242//559
f 244//560 183//560 305//560
f 246//561 247//561 245//561
f 306//562 246//562 245//562
f 306//563 245//563 307//563
f 308//564 248//564 249//564
f 309//565 249//566 250//567
f 309//568 308//569 249//569
f 253//570 186//570 185//570
f 253//571 185//571 246//571
f 306//572 253//572 246//572
f 310//573 311//573 250//574
f 312//575 250//576 311//575
f 309//577 310//578 250//579
f 313//580 250//581 251//580
f 309//582 250//583 312//584
f 313//585 309//586 250//587
f 252//588 253//588 306//588
f 312//589 311//589 310//589
f 314//590 312//590 310//590
f 314//591 310//591 309//592
f 315//593 251//593 256//593
f 315//594 313//594 251//594
f 316//595 254//595 252//595
f 315//596 256//596 259//596
f 316//597 261//597 254//597
f 317//598 315//598 259//598
f 260//599 317//599 259//599
f 318//600 260//600 195//600
f 318//601 195//601 196//601
f 319//602 260//602 318//602
f 320//603 263//603 261//603
f 320//604 261//604 316//604
f 292//605 318//605 196//605
f 319//606 318//606 292//606
f 321//607 267//607 264//607
f 322//608 264//608 265//608
f 322//609 321//609 264//609
f 288//610 266//610 267//610
f 323//611 267//611 321//611
f 288//612 267//612 323//612
f 292//613 196//613 209//613
f 324//614 270//614 269//614
f 324//615 269//615 272//615
f 322//616 265//616 289//616
f 325//617 263//617 320//617
f 326//618 319//618 292//618
f 327//619 290//619 270//619
f 327//620 270//620 324//620
f 218//621 289//621 219//621
f 328//622 289//622 218//622
f 328//623 322//623 289//623
f 291//624 326//624 292//624
f 329//625 328//625 218//625
f 220//626 330//626 218//626
f 329//627 218//627 330//627
f 331//628 330//628 220//628
f 332//629 329//629 330//629
f 331//630 333//630 330//630
f 334//631 330//631 333//631
f 332//632 330//632 334//632
f 331//633 220//633 294//633
f 335//634 208//634 263//634
f 335//635 217//635 208//635
f 335//636 263//636 325//636
f 295//637 217//637 335//637
f 336//638 291//638 293//638
f 327//639 293//639 290//639
f 327//640 336//640 293//640
f 333//641 294//641 295//641
f 331//642 294//642 333//642
f 301//643 297//643 296//643
f 300//644 299//644 297//644
f 301//645 300//645 297//645
f 337//646 296//646 240//646
f 337//647 301//647 296//647
f 337//648 240//648 298//648
f 338//649 241//649 301//649
f 337//650 338//650 301//650
f 339//651 303//651 241//651
f 338//652 339//652 241//652
f 340//653 298//653 302//653
f 340//654 337//654 298//654
f 341//655 340//655 302//655
f 341//656 302//656 236//656
f 341//657 236//657 181//657
f 339//658 304//658 303//658
f 342//659 242//659 304//659
f 339//660 342//660 304//660
f 237//661 341//661 181//661
f 343//662 305//662 242//662
f 344//663 244//663 305//663
f 344//664 305//664 343//664
f 345//665 243//665 98//665
f 346//666 98//666 188//666
f 346//667 345//667 98//667
f 344//668 245//668 244//668
f 307//669 245//669 344//669
f 306//670 307//670 347//670
f 346//671 188//671 248//671
f 348//672 306//672 347//672
f 349//673 347//673 307//673
f 348//674 347//674 349//674
f 350//675 306//675 348//675
f 351//676 248//676 308//676
f 351//677 346//677 248//677
f 352//678 308//678 309//679
f 352//680 351//680 308//680
f 314//681 309//682 312//681
f 353//683 309//684 313//685
f 353//686 352//687 309//688
f 350//689 252//689 306//689
f 354//690 252//690 350//690
f 355//691 313//692 315//692
f 355//693 353//694 313//695
f 354//696 316//696 252//696
f 355//697 315//698 317//698
f 356//699 355//700 317//699
f 357//701 317//701 260//701
f 358//702 356//702 317//702
f 357//703 358//703 317//703
f 359//704 260//704 319//704
f 359//705 357//705 260//705
f 360//706 316//706 354//706
f 360//707 320//707 316//707
f 361//708 323//708 321//708
f 362//709 361//709 321//709
f 322//710 362//710 321//710
f 287//711 288//711 323//711
f 363//712 323//712 361//712
f 287//713 323//713 363//713
f 364//714 359//714 319//714
f 365//715 324//715 272//715
f 365//716 272//716 275//716
f 366//717 361//717 362//717
f 366//718 363//718 361//718
f 367//719 366//719 362//719
f 368//720 362//720 322//720
f 369//721 362//721 368//721
f 369//722 367//722 362//722
f 368//723 322//723 328//723
f 370//724 325//724 320//724
f 370//725 320//725 360//725
f 364//726 319//726 326//726
f 371//727 327//727 324//727
f 371//728 324//728 365//728
f 372//729 325//729 370//729
f 373//730 326//730 291//730
f 373//731 364//731 326//731
f 374//732 328//732 329//732
f 374//733 368//733 328//733
f 334//734 335//734 325//734
f 334//735 325//735 372//735
f 332//736 374//736 329//736
f 334//737 295//737 335//737
f 373//738 291//738 336//738
f 371//739 336//739 327//739
f 334//740 333//740 295//740
f 371//741 373//741 336//741
f 375//742 343//742 242//742
f 342//743 375//743 242//743
f 376//744 344//744 343//744
f 376//745 343//745 375//745
f 377//746 243//746 345//746
f 378//747 345//747 346//747
f 377//748 345//748 378//748
f 379//749 344//749 376//749
f 349//750 307//750 344//750
f 379//751 349//751 344//751
f 380//752 348//752 349//752
f 380//753 349//753 379//753
f 378//754 346//754 351//754
f 381//755 348//755 380//755
f 382//756 351//756 352//756
f 383//757 354//757 350//757
f 383//758 350//758 384//758
f 381//759 350//759 348//759
f 384//760 350//760 381//760
f 385//761 352//761 386//761
f 382//762 352//762 385//762
f 387//763 385//763 386//763
f 388//764 387//764 386//764
f 353//765 386//766 352//766
f 387//767 382//767 385//767
f 389//768 386//768 353//769
f 390//770 386//770 389//770
f 390//771 388//771 386//771
f 355//772 389//773 353//774
f 391//775 389//775 355//776
f 392//777 389//777 391//777
f 392//778 390//778 389//778
f 393//779 391//779 355//780
f 394//781 393//781 355//782
f 353//783 355//784 356//785
f 395//786 355//787 353//788
f 394//789 355//790 395//789
f 396//791 354//791 383//791
f 397//792 357//792 359//792
f 398//793 357//793 397//793
f 277//794 391//794 393//794
f 399//795 391//795 277//795
f 399//796 392//796 391//796
f 400//797 277//797 393//797
f 401//798 400//798 393//798
f 401//799 393//799 394//799
f 396//800 360//800 354//800
f 280//801 399//801 277//801
f 276//802 277//802 400//802
f 274//803 280//803 277//803
f 402//804 276//804 400//804
f 402//805 400//805 401//805
f 403//806 360//806 396//806
f 404//807 275//807 276//807
f 404//808 276//808 402//808
f 286//809 287//809 363//809
f 405//810 363//810 366//810
f 286//811 363//811 405//811
f 406//812 359//812 364//812
f 406//813 397//813 359//813
f 404//814 365//814 275//814
f 407//815 370//815 360//815
f 407//816 360//816 403//816
f 408//817 406//817 364//817
f 404//818 371//818 365//818
f 409//819 364//819 373//819
f 409//820 408//820 364//820
f 410//821 371//821 404//821
f 411//822 368//822 374//822
f 411//823 369//823 368//823
f 412//824 372//824 370//824
f 412//825 370//825 407//825
f 413//826 334//826 372//826
f 414//827 413//827 372//827
f 414//828 372//828 412//828
f 411//829 374//829 332//829
f 414//830 334//830 413//830
f 411//831 332//831 334//831
f 342//832 415//832 375//832
f 416//833 375//833 415//833
f 417//834 376//834 375//834
f 417//835 375//835 416//835
f 418//836 415//836 342//836
f 419//837 415//837 418//837
f 420//838 415//838 419//838
f 421//839 415//839 420//839
f 422//840 416//840 415//840
f 421//841 422//841 415//841
f 418//842 342//842 339//842
f 423//843 339//843 338//843
f 424//844 418//844 339//844
f 424//845 339//845 423//845
f 425//846 338//846 337//846
f 423//847 338//847 425//847
f 426//848 337//848 340//848
f 426//849 425//849 337//849
f 427//850 426//850 340//850
f 237//851 428//851 340//851
f 429//852 340//852 428//852
f 341//853 237//853 340//853
f 429//854 427//854 340//854
f 377//855 430//856 428//855
f 431//857 428//857 430//858
f 243//859 377//859 428//859
f 237//860 243//860 428//860
f 432//861 428//861 431//861
f 433//862 428//863 432//863
f 429//864 428//864 433//865
f 378//866 434//866 430//867
f 435//868 430//869 434//868
f 377//870 378//870 430//871
f 435//872 431//872 430//873
f 436//874 434//874 378//874
f 437//875 435//875 434//875
f 436//876 437//876 434//876
f 438//877 378//877 351//877
f 439//878 378//878 438//878
f 440//879 436//879 378//879
f 441//880 378//880 439//880
f 442//881 440//881 378//881
f 441//882 442//882 378//882
f 443//883 419//884 418//884
f 443//885 418//886 424//886
f 444//887 419//887 432//887
f 443//888 432//889 419//889
f 420//890 419//890 444//890
f 444//891 432//891 431//891
f 445//892 444//892 431//892
f 437//893 431//893 435//893
f 446//894 445//894 431//894
f 437//895 446//895 431//895
f 443//896 433//897 432//898
f 447//899 420//899 444//899
f 448//900 447//900 444//900
f 449//901 448//901 444//901
f 449//902 444//902 445//902
f 450//903 420//903 447//903
f 450//904 421//904 420//904
f 451//905 380//905 379//905
f 451//906 379//906 376//906
f 450//907 447//907 448//907
f 450//908 448//908 449//908
f 451//909 381//909 380//909
f 382//910 438//910 351//910
f 452//911 438//911 382//911
f 452//912 439//912 438//912
f 453//913 382//913 387//913
f 453//914 452//914 382//914
f 454//915 384//915 381//915
f 454//916 381//916 451//916
f 455//917 387//917 388//917
f 455//918 453//918 387//918
f 456//919 383//919 384//919
f 456//920 384//920 454//920
f 390//921 457//921 388//921
f 455//922 388//922 457//922
f 458//923 356//923 358//923
f 457//924 356//924 458//924
f 457//925 353//926 356//925
f 398//927 458//927 358//927
f 459//928 458//928 398//928
f 459//929 460//929 458//929
f 357//930 398//930 358//930
f 461//931 457//931 458//931
f 460//932 461//932 458//932
f 395//933 353//934 457//933
f 390//935 395//935 457//935
f 455//936 457//936 461//936
f 392//937 395//937 390//937
f 392//938 394//938 395//938
f 462//939 396//939 383//939
f 462//940 383//940 456//940
f 463//941 398//941 397//941
f 463//942 459//942 398//942
f 399//943 394//943 392//943
f 399//944 401//944 394//944
f 464//945 396//945 462//945
f 280//946 401//946 399//946
f 280//947 402//947 401//947
f 464//948 403//948 396//948
f 465//949 463//949 397//949
f 466//950 402//950 280//950
f 466//951 404//951 402//951
f 467//952 280//952 281//952
f 468//953 280//953 467//953
f 469//954 280//954 468//954
f 469//955 466//955 280//955
f 366//956 286//956 405//956
f 465//957 397//957 406//957
f 470//958 404//958 466//958
f 282//959 467//959 281//959
f 471//960 285//960 284//960
f 472//961 285//961 471//961
f 473//962 285//962 472//962
f 283//963 285//963 473//963
f 474//964 471//964 284//964
f 475//965 284//965 286//965
f 474//966 284//966 475//966
f 474//967 472//967 471//967
f 367//968 286//968 366//968
f 476//969 286//969 367//969
f 477//970 475//970 286//970
f 477//971 286//971 476//971
f 478//972 407//972 403//972
f 478//973 403//973 464//973
f 479//974 406//974 408//974
f 479//975 465//975 406//975
f 476//976 367//976 369//976
f 480//977 412//977 407//977
f 480//978 407//978 478//978
f 479//979 408//979 409//979
f 410//980 404//980 470//980
f 481//981 369//981 411//981
f 481//982 476//982 369//982
f 480//983 414//983 412//983
f 371//984 410//984 409//984
f 479//985 409//985 410//985
f 371//986 409//986 373//986
f 482//987 479//987 410//987
f 334//988 414//988 411//988
f 480//989 411//989 414//989
f 483//990 481//990 411//990
f 480//991 483//991 411//991
f 427//992 425//992 426//992
f 427//993 423//993 425//993
f 424//994 423//994 427//994
f 443//995 424//996 427//996
f 443//997 427//998 433//999
f 429//1000 433//1001 427//1000
f 443//1002 422//1003 421//1003
f 484//1004 422//1004 443//1005
f 416//1006 422//1006 484//1006
f 450//1007 445//1007 421//1007
f 443//1008 421//1009 445//1009
f 451//1010 376//1010 417//1010
f 485//1011 451//1011 417//1011
f 433//1012 445//1013 446//1013
f 450//1014 449//1014 445//1014
f 443//1015 445//1016 433//1017
f 430//1018 446//1019 437//1019
f 486//1020 433//1021 446//1020
f 430//1022 486//1023 446//1023
f 430//1024 437//1025 436//1025
f 487//1026 451//1026 485//1026
f 440//1027 430//1028 436//1027
f 488//1029 439//1029 452//1029
f 488//1030 441//1030 439//1030
f 489//1031 452//1031 453//1031
f 489//1032 488//1032 452//1032
f 454//1033 451//1033 487//1033
f 490//1034 454//1034 487//1034
f 489//1035 453//1035 455//1035
f 490//1036 456//1036 454//1036
f 491//1037 455//1037 461//1037
f 491//1038 489//1038 455//1038
f 460//1039 492//1039 461//1039
f 493//1040 461//1040 492//1040
f 494//1041 461//1041 493//1041
f 491//1042 461//1042 494//1042
f 495//1043 456//1043 490//1043
f 496//1044 492//1044 460//1044
f 497//1045 493//1045 492//1045
f 497//1046 492//1046 496//1046
f 459//1047 496//1047 460//1047
f 497//1048 494//1048 493//1048
f 495//1049 462//1049 456//1049
f 463//1050 496//1050 459//1050
f 464//1051 462//1051 495//1051
f 498//1052 464//1052 495//1052
f 499//1053 497//1053 496//1053
f 498//1054 500//1054 464//1054
f 501//1055 496//1055 463//1055
f 499//1056 496//1056 501//1056
f 465//1057 501//1057 463//1057
f 282//1058 468//1058 467//1058
f 282//1059 469//1059 468//1059
f 474//1060 473//1060 472//1060
f 474//1061 283//1061 473//1061
f 502//1062 466//1062 469//1062
f 502//1063 470//1063 466//1063
f 503//1064 469//1064 282//1064
f 503//1065 502//1065 469//1065
f 504//1066 282//1066 278//1066
f 505//1067 278//1067 283//1067
f 505//1068 504//1068 278//1068
f 504//1069 503//1069 282//1069
f 506//1070 283//1070 474//1070
f 506//1071 505//1071 283//1071
f 477//1072 474//1072 475//1072
f 506//1073 474//1073 477//1073
f 478//1074 464//1074 500//1074
f 507//1075 500//1075 498//1075
f 508//1076 501//1076 465//1076
f 509//1077 501//1077 508//1077
f 479//1078 508//1078 465//1078
f 482//1079 470//1079 502//1079
f 510//1080 482//1080 502//1080
f 510//1081 502//1081 503//1081
f 481//1082 477//1082 476//1082
f 506//1083 477//1083 481//1083
f 480//1084 478//1084 500//1084
f 511//1085 480//1085 500//1085
f 483//1086 511//1086 500//1086
f 483//1087 500//1087 507//1087
f 509//1088 508//1088 479//1088
f 482//1089 410//1089 470//1089
f 512//1090 482//1090 510//1090
f 513//1091 506//1091 481//1091
f 480//1092 511//1092 483//1092
f 514//1093 479//1093 482//1093
f 515//1094 514//1094 482//1094
f 515//1095 482//1095 512//1095
f 516//1096 513//1096 481//1096
f 483//1097 516//1097 481//1097
f 517//1098 443//1099 433//1100
f 486//1101 518//1101 433//1102
f 517//1103 433//1104 518//1103
f 484//1105 443//1106 517//1105
f 484//1107 517//1107 518//1107
f 519//1108 484//1108 518//1108
f 520//1109 519//1109 518//1109
f 521//1110 486//1110 430//1111
f 518//1112 486//1112 521//1112
f 519//1113 416//1113 484//1113
f 485//1114 417//1114 416//1114
f 485//1115 416//1115 519//1115
f 440//1116 521//1116 430//1117
f 521//1118 440//1118 442//1118
f 522//1119 519//1119 520//1119
f 523//1120 519//1120 522//1120
f 522//1121 520//1121 524//1121
f 487//1122 485//1122 519//1122
f 487//1123 519//1123 523//1123
f 520//1124 521//1124 524//1124
f 525//1125 524//1125 521//1125
f 526//1126 524//1126 525//1126
f 522//1127 524//1127 526//1127
f 527//1128 526//1128 525//1128
f 528//1129 488//1129 489//1129
f 529//1130 488//1130 528//1130
f 530//1131 488//1131 529//1131
f 441//1132 488//1132 530//1132
f 531//1133 527//1133 530//1133
f 526//1134 527//1134 531//1134
f 490//1135 487//1135 523//1135
f 491//1136 528//1136 489//1136
f 532//1137 528//1137 491//1137
f 529//1138 528//1138 532//1138
f 532//1139 491//1139 494//1139
f 531//1140 530//1140 529//1140
f 533//1141 522//1141 526//1141
f 523//1142 522//1142 533//1142
f 534//1143 532//1143 494//1143
f 497//1144 534//1144 494//1144
f 535//1145 529//1145 532//1145
f 535//1146 532//1146 534//1146
f 531//1147 529//1147 535//1147
f 536//1148 523//1148 533//1148
f 495//1149 490//1149 523//1149
f 495//1150 523//1150 536//1150
f 537//1151 526//1151 531//1151
f 533//1152 526//1152 537//1152
f 538//1153 535//1153 534//1153
f 539//1154 531//1154 535//1154
f 539//1155 535//1155 538//1155
f 537//1156 531//1156 539//1156
f 540//1157 533//1157 537//1157
f 541//1158 536//1158 533//1158
f 541//1159 533//1159 540//1159
f 498//1160 495//1160 536//1160
f 498//1161 536//1161 541//1161
f 542//1162 534//1162 497//1162
f 538//1163 534//1163 542//1163
f 499//1164 542//1164 497//1164
f 543//1165 538//1165 542//1165
f 544//1166 539//1166 538//1166
f 544//1167 538//1167 543//1167
f 545//1168 537//1168 539//1168
f 545//1169 539//1169 544//1169
f 546//1170 540//1170 537//1170
f 541//1171 540//1171 546//1171
f 546//1172 537//1172 545//1172
f 547//1173 542//1173 499//1173
f 543//1174 542//1174 547//1174
f 501//1175 547//1175 499//1175
f 507//1176 541//1176 546//1176
f 507//1177 498//1177 541//1177
f 514//1178 547//1178 501//1178
f 509//1179 514//1179 501//1179
f 548//1180 503//1180 504//1180
f 548//1181 510//1181 503//1181
f 549//1182 504//1182 505//1182
f 549//1183 548//1183 504//1183
f 513//1184 505//1184 506//1184
f 513//1185 549//1185 505//1185
f 516//1186 507//1186 546//1186
f 550//1187 516//1187 546//1187
f 483//1188 507//1188 516//1188
f 514//1189 509//1189 479//1189
f 512//1190 510//1190 548//1190
f 551//1191 548//1191 549//1191
f 551//1192 512//1192 548//1192
f 513//1193 551//1193 549//1193
f 552//1194 515//1194 512//1194
f 552//1195 512//1195 551//1195
f 550//1196 552//1196 551//1196
f 550//1197 551//1197 513//1197
f 516//1198 550//1198 513//1198
f 520//1199 518//1199 521//1199
f 525//1200 521//1200 442//1200
f 530//1201 442//1201 441//1201
f 527//1202 525//1202 442//1202
f 527//1203 442//1203 530//1203
f 514//1204 515//1204 547//1204
f 543//1205 547//1205 515//1205
f 552//1206 543//1206 515//1206
f 544//1207 543//1207 552//1207
f 550//1208 544//1208 552//1208
f 545//1209 544//1209 550//1209
f 546//1210 545//1210 550//1210
