# Blender v2.82 (sub 7) OBJ File: ''
# www.blender.org
mtllib sim_sea_2-5_r_foot_prt.mtl
o sim_sea_2-5_r_foot_prt
v -92.147209 -642.672180 -50.043766
v -90.783989 -645.243835 -45.583591
v -91.910965 -642.710754 -42.861931
v -94.388290 -635.073425 -46.336891
v -93.720978 -635.305969 -42.158482
v -94.184212 -635.156189 -50.520054
v -93.241119 -638.917480 -51.519867
v -89.121025 -645.250854 -55.145744
v -84.847557 -646.930481 -55.540089
v -92.603615 -638.860718 -41.015709
v -90.366547 -643.261047 -37.770981
v -88.509048 -646.419312 -35.964291
v -91.431412 -638.931519 -37.325920
v -92.979156 -635.107483 -56.475079
v -91.027489 -638.653320 -58.929523
v -91.780350 -634.097046 -59.981510
v -93.377251 -628.618652 -48.337872
v -92.041893 -628.493103 -56.050720
v -90.665390 -628.118835 -59.616234
v -89.821030 -634.966064 -65.390129
v -87.796684 -642.786072 -60.963886
v -89.973618 -629.715149 -65.849930
v -92.406319 -628.416748 -39.767769
v -90.248749 -635.099731 -32.409000
v -89.696136 -628.239441 -32.879772
v -88.323853 -630.290710 -26.928047
v -88.755730 -643.273376 -34.778328
v -88.329933 -639.263794 -31.574514
v -87.229980 -635.517944 -26.644453
v -88.921722 -634.336426 -26.779938
v -91.199425 -627.241150 -55.043804
v -88.744530 -626.229065 -57.721638
v -91.479042 -627.181030 -40.087547
v -89.182823 -627.961243 -63.407104
v -87.676689 -626.132446 -32.090603
v -86.391762 -626.758545 -28.612396
v -92.912430 -595.029602 8.648456
v -91.815048 -592.394409 5.767336
v -89.427727 -599.143799 5.676382
v -87.514488 -596.000061 4.240507
v -90.797760 -599.363159 8.622180
v -91.348473 -590.428406 5.114579
v -93.972748 -590.144653 8.581308
v -46.013733 -590.052979 8.690396
v -47.552952 -595.677246 8.658950
v -88.301239 -605.276123 5.128691
v -89.256454 -605.704346 8.636488
v -49.628319 -599.551880 8.641010
v -86.878616 -605.283142 4.962298
v -78.151176 -623.384949 2.701622
v -87.787628 -625.462036 5.918377
v -58.118767 -624.044495 3.705950
v -51.913967 -625.000732 4.957762
v -77.433319 -610.240967 4.919844
v -82.959747 -628.484558 -2.592093
v -89.123535 -625.794434 9.784548
v -88.886276 -629.496155 7.207435
v -87.644394 -631.012451 -1.651331
v -75.533455 -626.975525 -2.828506
v -51.957111 -630.337585 -2.222338
v -64.761536 -626.982178 -2.712493
v -57.641712 -628.118835 -2.798134
v -58.174229 -605.504333 4.333242
v -52.713100 -605.451294 6.164574
v -51.242249 -625.540344 9.470507
v -62.795643 -605.453247 3.941944
v -67.840874 -610.368408 4.306919
v -72.685730 -610.350281 4.563994
v -51.411892 -630.152161 7.435589
v -53.423119 -599.436340 4.516754
v -51.018673 -599.256104 5.845537
v -51.302197 -605.631897 8.694862
v -49.015266 -594.750122 5.927605
v -49.201283 -590.441528 5.202114
v -47.842548 -587.950439 6.079518
v -52.945255 -591.085449 3.885931
v -45.773663 -584.341248 8.670757
v -48.927219 -579.564880 5.904159
v -49.521748 -581.456604 5.362041
v -47.841042 -577.194885 8.471019
v -53.376900 -576.347595 4.259147
v -54.053490 -571.252502 5.569448
v -51.201595 -572.513794 8.146153
v -57.503513 -568.141785 7.552920
v -56.206913 -569.214478 5.255466
v -57.898365 -573.098328 3.388456
v -58.902431 -567.866272 5.115800
v -57.508377 -574.477478 2.992303
v -53.407276 -580.811218 3.717298
v -57.026821 -581.665894 3.153869
v -57.514690 -575.337280 2.941794
v -62.414223 -580.894714 3.124835
v -57.332176 -590.834656 3.264267
v -52.932774 -586.807556 3.425725
v -57.722183 -597.791870 3.135633
v -57.710648 -599.272217 3.122213
v -57.937405 -600.472778 3.333146
v -70.155777 -604.772705 3.358480
v -62.845016 -600.595642 3.396745
v -82.463257 -605.411560 4.395983
v -77.747429 -605.415100 4.084449
v -77.934631 -600.593506 3.444960
v -72.936867 -600.544678 3.345908
v -78.062653 -595.755920 3.162064
v -67.890984 -600.518555 3.330884
v -70.072418 -603.861450 3.288319
v -62.616608 -595.785645 3.226169
v -78.278107 -590.848755 3.050895
v -83.681252 -580.870422 2.708084
v -67.793045 -575.826660 3.132431
v -62.735229 -575.811829 3.196052
v -78.139999 -575.723083 2.945270
v -62.917130 -571.248047 3.754409
v -69.904251 -569.885498 3.458332
v -63.475491 -567.715454 5.011344
v -82.999191 -575.685791 2.985902
v -82.449646 -574.422729 2.951875
v -77.827995 -571.188599 3.595874
v -87.372551 -585.593811 3.167296
v -87.595566 -580.734863 3.768852
v -82.872055 -578.571533 2.372286
v -86.814232 -587.031799 3.078915
v -83.255493 -590.711914 3.064870
v -82.641953 -597.756714 3.101511
v -82.420776 -599.172363 3.066825
v -82.852554 -600.352905 3.315771
v -92.268768 -586.093201 5.864014
v -91.692680 -581.087402 5.828209
v -90.783646 -578.210938 5.753529
v -87.378136 -576.375061 4.355315
v -87.083443 -572.333130 5.686112
v -82.418167 -573.199829 3.349960
v -81.905632 -567.629333 5.305496
v -80.365105 -566.673157 5.112929
v -77.441452 -567.368835 4.741089
v -72.709679 -567.411804 4.783456
v -68.078606 -567.548279 4.900195
v -70.145103 -569.222961 3.671463
v -62.447029 -566.299866 5.548383
v -75.161156 -565.746094 5.628387
v -64.060905 -566.423706 7.182081
v -68.223984 -565.359497 6.197888
v -74.479370 -565.648376 7.254907
v -82.180267 -567.117493 7.648706
v -89.052376 -572.407898 8.161576
v -92.429909 -577.257446 8.445610
v -93.933533 -582.997498 8.475834
v -52.939098 -629.670959 9.906981
v -52.367477 -633.886536 8.441015
v -87.750710 -629.633362 9.752616
v -88.137619 -633.707642 7.042932
v -85.584099 -645.270325 -60.731277
v -87.278023 -639.808411 -64.867271
v -78.820251 -646.003479 -66.210991
v -83.872498 -643.072998 -65.169426
v -72.823112 -647.352051 -68.439293
v -78.041382 -646.679321 -27.431509
v -68.071342 -647.384705 -68.512901
v -65.287331 -645.881897 -27.398556
v -72.466118 -645.831360 -26.926023
v -62.316139 -648.395081 -31.111038
v -58.317734 -645.695557 -30.187624
v -59.733376 -646.729309 -65.936821
v -51.456543 -646.663025 -35.912758
v -49.737091 -645.455078 -51.924271
v -49.611832 -645.379456 -43.814346
v -53.391098 -643.170105 -32.249619
v -58.423309 -643.031555 -28.131298
v -53.415237 -645.211548 -59.338310
v -63.600994 -646.695557 -67.415955
v -68.030067 -640.457092 -71.526474
v -73.009087 -640.450989 -71.488205
v -86.851936 -643.234924 -32.475597
v -84.716530 -643.403625 -30.401335
v -88.732368 -633.927246 -70.096039
v -87.218704 -635.625061 -70.510712
v -83.927109 -635.393066 -75.392685
v -88.296463 -633.176575 -76.431396
v -86.639175 -632.978577 -78.058472
v -88.580872 -628.968628 -77.829903
v -86.979195 -629.164612 -79.057220
v -86.906937 -624.781799 -78.624466
v -78.422729 -624.922791 -80.935287
v -88.869820 -622.007996 -74.085411
v -87.984016 -622.346741 -77.755905
v -86.538437 -620.424561 -78.622032
v -88.971527 -624.902466 -73.339462
v -82.661209 -619.494507 -73.953537
v -87.099792 -619.857544 -74.097046
v -86.984398 -626.281128 -64.509247
v -87.337318 -623.900085 -72.641510
v -83.559631 -637.426880 -71.539467
v -87.958511 -634.002625 3.184354
v -86.866463 -629.340393 -21.856987
v -81.950539 -634.891479 -21.756025
v -77.942139 -635.903748 3.204478
v -67.931755 -636.046082 3.266806
v -54.161053 -635.037964 2.859305
v -83.524895 -639.738831 -26.738434
v -78.306702 -634.335632 8.141984
v -70.929886 -635.025391 7.034497
v -63.061081 -633.647705 8.828012
v -73.016830 -633.599121 8.715960
v -59.410072 -634.972778 7.000165
v -62.535435 -636.430054 -16.512812
v -51.733673 -634.190186 7.496614
v -72.650909 -635.630005 -16.617491
v -53.899597 -635.148865 -26.664143
v -52.430103 -633.614746 -26.875624
v -53.911491 -635.110596 -21.785160
v -57.892872 -636.273193 -21.591480
v -62.326946 -636.951599 -21.207390
v -52.349670 -638.890625 -31.030014
v -50.062531 -634.898743 -32.256100
v -50.459118 -627.950500 -33.234894
v -51.940617 -629.687439 -27.059391
v -52.481056 -630.444946 -21.993923
v -57.120552 -639.481812 -26.372122
v -63.748585 -643.314209 -26.008213
v -68.225235 -639.854065 -23.138485
v -68.013741 -643.249634 -25.385242
v -72.510910 -639.901978 -23.206093
v -77.646339 -636.384766 -20.953989
v -81.289894 -643.795654 -28.037745
v -76.485123 -643.423523 -25.785904
v -83.158089 -628.359558 -16.895601
v -86.531654 -633.298279 8.543233
v -53.508171 -633.728394 8.973174
v -82.962341 -605.776611 -80.499832
v -83.018616 -601.077454 -80.593506
v -85.620918 -615.313782 -79.144333
v -62.704384 -606.441772 -81.457123
v -62.467247 -625.007629 -80.780693
v -73.130447 -627.580322 -81.206894
v -73.139435 -606.908508 -82.067787
v -51.921749 -622.143799 -77.950310
v -51.484661 -625.819885 -78.081345
v -62.723938 -629.359558 -80.656845
v -55.128731 -615.425476 -78.326797
v -54.934086 -600.366150 -79.109360
v -58.268353 -605.481934 -80.286942
v -72.878296 -629.562805 -81.216629
v -51.065449 -625.176025 -73.196678
v -53.867706 -628.811768 -78.852287
v -51.855743 -622.096375 -74.608253
v -54.329231 -615.011536 -75.142509
v -56.971184 -601.616394 -81.006226
v -58.790936 -599.122070 -84.446892
v -54.465343 -595.294006 -79.278900
v -56.721786 -595.933899 -83.963379
v -64.317871 -602.637817 -84.851509
v -64.805611 -600.283142 -86.776466
v -61.719749 -598.747559 -86.931061
v -70.394447 -603.494446 -85.113609
v -79.240959 -599.386414 -86.715630
v -81.717194 -599.012634 -84.741913
v -85.087456 -600.280823 -79.028938
v -83.696022 -595.956543 -84.152176
v -85.633476 -585.572998 -74.841118
v -85.509956 -594.453369 -79.415871
v -86.106384 -614.960999 -75.752022
v -83.404655 -625.290955 -65.222229
v -82.371468 -624.264832 -68.227829
v -83.002579 -625.362061 -27.690420
v -78.512932 -624.809692 -65.446747
v -65.679871 -624.983582 -26.703075
v -77.994469 -623.482361 -68.799026
v -70.024155 -623.944153 -69.769028
v -72.971336 -619.242981 -73.439415
v -62.611919 -624.329468 -69.183220
v -62.868965 -619.133911 -73.122116
v -57.748718 -625.438660 -27.271706
v -57.456459 -625.372681 -31.661970
v -53.579617 -619.690369 -74.011009
v -58.196835 -624.626953 -68.406158
v -49.171829 -626.763428 -37.934429
v -48.682484 -627.106384 -55.328430
v -53.839241 -626.175903 -64.339203
v -52.834209 -625.918457 -36.608391
v -52.843819 -626.014282 -31.833584
v -51.300739 -627.937988 -63.721191
v -46.710320 -628.643188 -48.946266
v -47.987820 -628.587891 -56.301289
v -47.750698 -628.354736 -39.595867
v -54.328003 -626.584106 -28.585976
v -59.882587 -625.988342 -24.530228
v -53.821808 -628.857178 -21.787922
v -72.786423 -625.738342 -23.460442
v -79.646111 -625.971252 -24.160622
v -75.526688 -627.040039 -17.093845
v -54.434345 -585.701355 -74.903603
v -85.083382 -584.318787 -84.066406
v -84.771149 -581.599365 -74.765457
v -55.514877 -581.602966 -74.819153
v -82.603149 -578.034363 -74.904099
v -82.990692 -578.063416 -79.839622
v -58.463696 -577.195374 -74.997055
v -77.206543 -574.302124 -75.310150
v -79.742310 -575.171753 -83.954750
v -76.400536 -573.579407 -86.580978
v -64.805481 -573.924377 -75.438095
v -70.603951 -573.198303 -75.674683
v -71.108559 -571.806458 -84.555382
v -65.404037 -573.110596 -86.931175
v -60.743080 -575.831970 -86.762520
v -58.142418 -577.796082 -79.985931
v -56.164627 -581.465942 -86.444328
v -54.681084 -585.499146 -82.990578
v -54.156975 -590.304077 -79.321739
v -52.800056 -623.587402 -72.283119
v -81.036415 -643.328735 -66.969368
v -77.956490 -640.225037 -70.509384
v -78.530182 -636.421814 -75.928383
v -78.291512 -633.867249 -79.347435
v -72.151299 -637.418396 -76.050285
v -69.967484 -635.461609 -82.122505
v -70.284210 -635.102295 -82.255745
v -83.629997 -593.515869 -85.711914
v -84.067924 -587.970398 -85.941193
v -81.981209 -596.084900 -87.234238
v -76.412643 -598.928284 -88.229958
v -77.013466 -599.807983 -87.175995
v -73.492882 -572.717651 -87.871414
v -82.989426 -580.185486 -86.200661
v -83.202950 -579.006531 -84.159149
v -64.626228 -627.087646 -16.906023
v -70.153160 -601.695923 -86.578339
v -57.817554 -579.867493 -88.023476
v -55.819458 -587.448425 -86.071381
v -70.243385 -572.073914 -86.573021
v -68.987343 -637.674316 -75.540482
v -57.540367 -628.212219 -16.899578
v -62.948055 -640.344543 -70.604736
v -63.133308 -634.301819 -79.278831
v -62.560993 -636.753784 -75.603706
v -59.406998 -643.554260 -67.221489
v -59.155357 -640.183350 -69.393867
v -59.379108 -636.012268 -75.655045
v -54.158283 -633.012268 -78.013046
v -56.610645 -643.351990 -65.435394
v -53.325951 -635.994751 -70.383133
v -52.133202 -633.229431 -76.248970
v -53.760967 -629.412231 -17.004499
v -56.596012 -593.566833 -84.965225
v -57.437786 -578.846130 -84.251617
v -54.517788 -643.037720 -63.401878
v -53.476887 -639.693665 -65.433739
v -52.725456 -642.717896 -61.192623
v -50.756569 -634.820190 -65.484528
v -49.622478 -639.006042 -59.483597
v -49.229176 -643.204285 -54.949821
v -48.201370 -638.938721 -56.038670
v -46.637100 -635.266357 -54.331963
v -49.732422 -643.286133 -37.394341
v -48.171429 -643.028320 -42.176334
v -48.848721 -638.917603 -36.717819
v -47.384914 -635.152100 -38.323711
v -48.484364 -634.595581 -59.757267
v -50.371674 -629.626709 -63.953819
v -47.623802 -643.012695 -48.354263
v -45.861355 -635.227966 -50.589901
v -45.746685 -635.220642 -44.868614
vn -0.9021 -0.4307 0.0274
vn -0.9547 -0.2961 0.0298
vn -0.9588 -0.2476 0.1393
vn -0.9637 -0.2638 -0.0418
vn -0.9644 -0.2576 0.0594
vn -0.7625 -0.6334 -0.1321
vn -0.3701 -0.9268 -0.0637
vn -0.8672 -0.3795 -0.3226
vn -0.9552 -0.2487 0.1603
vn -0.8086 -0.5585 0.1849
vn -0.3303 -0.9432 -0.0371
vn -0.8879 -0.4323 0.1571
vn -0.9108 -0.2999 0.2836
vn -0.9325 -0.2556 0.2552
vn -0.9622 -0.1891 -0.1962
vn -0.9095 -0.3050 -0.2826
vn -0.8703 -0.4090 -0.2746
vn -0.9350 -0.1996 0.2932
vn -0.8971 -0.2347 -0.3743
vn -0.9638 0.1836 -0.1935
vn -0.9748 0.1488 -0.1663
vn -0.9442 0.1924 -0.2674
vn -0.9272 0.1533 -0.3419
vn -0.9275 -0.2226 -0.3002
vn -0.8109 -0.4493 -0.3749
vn -0.8074 -0.4348 -0.3989
vn -0.9692 0.1903 -0.1563
vn -0.9416 -0.0564 -0.3320
vn -0.9890 0.1391 -0.0510
vn -0.9780 0.1299 0.1634
vn -0.9768 0.1859 0.1063
vn -0.9315 -0.1421 0.3348
vn -0.9405 0.0637 0.3336
vn -0.8746 -0.2574 0.4109
vn -0.9268 0.0995 0.3621
vn -0.9624 0.0950 0.2546
vn -0.8444 -0.2856 0.4533
vn -0.8327 -0.2890 0.4724
vn -0.8519 -0.3076 0.4238
vn -0.9666 0.1504 0.2075
vn -0.5686 -0.7866 0.2407
vn -0.7742 0.6207 -0.1239
vn -0.7241 0.6567 -0.2106
vn -0.5662 0.7947 -0.2187
vn -0.3914 0.9202 -0.0110
vn -0.7054 0.6639 -0.2483
vn -0.5832 0.7885 -0.1953
vn -0.5647 0.8252 -0.0139
vn -0.7882 0.6108 0.0749
vn -0.7343 0.6216 0.2729
vn -0.7435 0.6102 0.2735
vn -0.7314 0.5750 0.3668
vn -0.7356 0.5651 0.3735
vn -0.7899 -0.2720 -0.5496
vn -0.4346 -0.1417 -0.8894
vn -0.8202 -0.3978 -0.4111
vn -0.4595 -0.1797 -0.8698
vn -0.8467 -0.1906 -0.4968
vn -0.0023 0.0132 0.9999
vn -0.0003 -0.0055 1.0000
vn -0.0003 -0.0062 1.0000
vn -0.8958 -0.1265 -0.4260
vn -0.9322 -0.2272 -0.2816
vn -0.0005 -0.0044 1.0000
vn -0.0004 0.0021 1.0000
vn -0.1156 0.0673 -0.9910
vn -0.4859 -0.1008 -0.8682
vn -0.3076 -0.0450 -0.9505
vn -0.9632 -0.0349 -0.2666
vn 0.0547 0.1627 -0.9852
vn 0.2430 0.4557 -0.8563
vn -0.0952 -0.1672 -0.9813
vn -0.1146 -0.2100 -0.9710
vn -0.3347 0.8120 -0.4782
vn -0.9442 -0.0250 -0.3284
vn -0.9376 0.1561 -0.3106
vn -0.9632 0.2078 -0.1706
vn -0.4836 0.7015 -0.5235
vn 0.0543 0.8490 -0.5255
vn -0.1783 0.7846 -0.5938
vn 0.2372 0.7790 -0.5804
vn 0.0051 0.9073 -0.4205
vn 0.1286 0.8446 -0.5197
vn 0.3612 0.8019 -0.4759
vn 0.3165 0.0713 -0.9459
vn 0.9887 0.0491 -0.1413
vn 0.0843 -0.0048 -0.9964
vn -0.0141 -0.0597 -0.9981
vn -0.0531 -0.1020 -0.9934
vn -0.0772 -0.1360 -0.9877
vn 0.9892 0.0272 -0.1440
vn 0.9959 0.0694 -0.0576
vn 0.4862 -0.1770 -0.8557
vn 0.8370 -0.2539 -0.4848
vn 0.3123 -0.2165 -0.9250
vn 0.8728 -0.0164 -0.4878
vn 0.4854 -0.2003 -0.8511
vn 0.7780 -0.3363 -0.5307
vn 0.7928 -0.4226 -0.4391
vn 0.8587 -0.2404 -0.4525
vn 0.6594 -0.0971 -0.7455
vn 0.7662 -0.1180 -0.6317
vn 0.3498 -0.1408 -0.9262
vn 0.3905 -0.0915 -0.9160
vn 0.8258 -0.2231 -0.5179
vn 0.8047 -0.0359 -0.5926
vn 0.4834 0.0442 -0.8743
vn 0.7224 0.0791 -0.6869
vn 0.6087 0.0358 -0.7926
vn 0.8095 0.2190 -0.5447
vn 0.4221 0.1247 -0.8979
vn 0.5031 0.2773 -0.8185
vn 0.7045 0.4112 -0.5785
vn 0.6375 0.4125 -0.6507
vn 0.6832 0.7288 0.0453
vn 0.5682 0.7858 -0.2442
vn 0.3778 0.2623 -0.8880
vn 0.2192 0.3436 -0.9132
vn 0.3943 0.2776 -0.8760
vn 0.3318 0.3459 -0.8776
vn 0.1253 0.1187 -0.9850
vn 0.4225 0.1235 0.8979
vn 0.3037 -0.0112 -0.9527
vn 0.3014 -0.0087 -0.9535
vn 0.0007 0.5233 0.8522
vn 0.4027 0.1076 -0.9090
vn 0.3148 0.0534 -0.9477
vn 0.3171 0.0557 -0.9467
vn 0.2373 -0.6222 0.7461
vn 0.2667 0.5432 -0.7961
vn -0.1586 0.0209 0.9871
vn 0.0036 -0.0122 -0.9999
vn -0.0010 -0.0331 -0.9995
vn 0.0492 -0.0137 -0.9987
vn 0.0612 -0.0314 -0.9976
vn -0.0004 -0.0367 -0.9993
vn -0.0200 -0.0272 -0.9994
vn 0.0006 -0.0334 -0.9994
vn 0.1303 -0.7402 -0.6596
vn 0.0269 -0.0314 -0.9991
vn 0.0313 -0.0104 -0.9995
vn 0.3994 0.0760 -0.9136
vn 0.5008 -0.6083 -0.6158
vn 0.2721 0.0682 -0.9598
vn 0.4549 0.0321 -0.8900
vn 0.3454 -0.1014 -0.9330
vn 0.2740 -0.0880 -0.9577
vn 0.1409 0.0104 -0.9900
vn 0.1335 -0.1064 -0.9853
vn 0.3097 0.0110 -0.9508
vn 0.2912 -0.1997 -0.9356
vn 0.2942 -0.2190 -0.9303
vn 0.0805 -0.1980 -0.9769
vn 0.0653 -0.1404 -0.9879
vn 0.0684 -0.1106 -0.9915
vn -0.0101 -0.1116 -0.9937
vn -0.0527 -0.1880 -0.9807
vn -0.0776 -0.1769 -0.9812
vn -0.0650 -0.1743 -0.9825
vn -0.0790 -0.1750 -0.9814
vn -0.1304 -0.2401 -0.9620
vn -0.0184 -0.1322 -0.9911
vn -0.0898 -0.0620 -0.9940
vn -0.0654 -0.1337 -0.9889
vn -0.0028 -0.0413 -0.9991
vn -0.0031 0.0147 -0.9999
vn -0.0192 -0.0589 -0.9981
vn -0.0981 -0.0675 -0.9929
vn 0.0129 -0.0078 -0.9999
vn 0.0128 -0.0133 -0.9998
vn 0.1573 -0.0901 -0.9834
vn 0.0041 -0.0356 -0.9994
vn -0.0448 -0.0333 -0.9984
vn -0.0085 -0.1715 -0.9851
vn 0.0102 -0.0032 -0.9999
vn -0.0107 0.0191 -0.9998
vn 0.0041 -0.0225 -0.9997
vn -0.0148 0.0089 -0.9999
vn 0.0102 -0.0288 -0.9995
vn 0.0196 -0.0040 -0.9998
vn 0.0125 0.0148 -0.9998
vn -0.0526 0.0092 -0.9986
vn -0.0496 0.0109 -0.9987
vn 0.0183 0.0209 -0.9996
vn 0.0196 0.0249 -0.9995
vn 0.0121 0.1219 -0.9925
vn -0.0689 0.1184 -0.9906
vn -0.0539 0.0590 -0.9968
vn -0.0566 0.0610 -0.9965
vn 0.0568 0.0748 -0.9956
vn 0.0327 0.3396 -0.9400
vn 0.1074 0.3483 -0.9312
vn 0.0497 0.3217 -0.9455
vn 0.0353 0.2851 -0.9579
vn 0.0187 0.0614 -0.9979
vn -0.0079 0.0545 -0.9985
vn 0.0405 0.1392 -0.9894
vn -0.0410 0.1447 -0.9886
vn -0.0085 -0.0232 -0.9997
vn -0.2566 0.1071 -0.9606
vn -0.2579 0.0855 -0.9624
vn 0.4610 -0.2853 -0.8403
vn 0.4611 -0.2850 -0.8403
vn -0.1112 0.1816 0.9771
vn -0.1111 0.1818 0.9770
vn -0.0038 -0.0364 -0.9993
vn -0.0433 -0.0381 -0.9983
vn -0.0030 -0.0055 -1.0000
vn -0.2363 -0.0256 -0.9713
vn 0.0227 -0.0216 -0.9995
vn 0.0661 -0.0565 -0.9962
vn 0.0024 0.0249 -0.9997
vn 0.0155 -0.2077 -0.9781
vn 0.0153 -0.2117 -0.9772
vn -0.1304 -0.2166 -0.9675
vn -0.2768 -0.0933 -0.9564
vn -0.2812 -0.0984 -0.9546
vn -0.2461 -0.0173 -0.9691
vn -0.2319 -0.0124 -0.9727
vn -0.2464 -0.2347 -0.9403
vn -0.7461 -0.0435 -0.6644
vn -0.4865 0.0487 -0.8723
vn -0.4813 0.0491 -0.8752
vn -0.4541 0.1206 -0.8828
vn -0.4534 0.0890 -0.8868
vn -0.4402 0.1412 -0.8867
vn -0.3157 0.1419 -0.9382
vn -0.3732 0.3146 -0.8728
vn -0.4974 0.3038 -0.8126
vn -0.3125 0.1105 -0.9435
vn -0.3705 0.3378 -0.8652
vn -0.3835 0.2948 -0.8752
vn -0.1256 0.0025 -0.9921
vn -0.1375 0.3393 -0.9306
vn 0.0112 0.2861 -0.9581
vn -0.0776 0.2935 -0.9528
vn 0.0123 0.5111 -0.8594
vn -0.0812 0.3975 -0.9140
vn -0.0853 0.3104 -0.9468
vn 0.0387 0.7130 -0.7001
vn 0.0374 0.5608 -0.8271
vn -0.2617 0.2080 -0.9425
vn 0.0433 0.7644 -0.6432
vn 0.0391 0.5023 -0.8638
vn 0.2317 0.3732 -0.8984
vn 0.0394 0.7078 -0.7054
vn 0.4162 0.8621 0.2889
vn 0.0169 0.3015 -0.9533
vn 0.4086 0.8935 -0.1866
vn 0.0130 0.4291 -0.9031
vn 0.2266 0.9285 0.2942
vn 0.0243 0.6648 -0.7466
vn 0.1831 0.9500 0.2529
vn -0.0525 0.9979 -0.0380
vn -0.1794 0.9828 0.0437
vn -0.1864 0.9823 0.0192
vn -0.5334 0.8112 -0.2397
vn -0.6632 0.7112 -0.2330
vn -0.5701 0.6986 -0.4323
vn -0.6942 0.4304 -0.5769
vn -0.7026 0.4574 -0.5450
vn -0.8201 0.2458 -0.5168
vn -0.8004 0.2067 -0.5627
vn -0.7904 0.0866 -0.6065
vn -0.8113 -0.0495 -0.5825
vn -0.8450 -0.0033 -0.5347
vn -0.0036 0.0148 0.9999
vn -0.0023 0.0035 1.0000
vn -0.0039 0.0063 1.0000
vn -0.0006 0.0278 0.9996
vn -0.0007 0.0589 0.9983
vn 0.0006 0.0697 0.9976
vn 0.0007 0.0956 0.9954
vn 0.0100 0.1486 0.9888
vn 0.0121 0.1993 0.9799
vn 0.0305 0.3207 0.9467
vn 0.0637 0.8005 0.5959
vn -0.0016 0.0093 1.0000
vn 0.0080 0.0390 0.9992
vn -0.0016 0.0570 0.9984
vn 0.0076 0.1020 0.9948
vn 0.6284 -0.1781 0.7572
vn 0.9428 -0.1630 0.2907
vn -0.0044 -0.0099 0.9999
vn -0.9695 -0.1789 0.1677
vn -0.7889 -0.2866 0.5436
vn -0.6596 -0.6264 -0.4155
vn -0.3743 -0.8973 -0.2339
vn -0.6073 -0.5907 -0.5313
vn -0.7707 -0.4531 -0.4481
vn -0.3030 -0.9193 -0.2510
vn -0.6117 -0.5893 -0.5277
vn -0.5043 -0.6806 -0.5315
vn -0.0346 -0.9993 0.0120
vn -0.0088 -0.9997 0.0244
vn -0.0066 -0.9999 0.0156
vn 0.0420 -0.7005 0.7124
vn 0.0490 -0.8085 0.5865
vn -0.1107 -0.9938 -0.0098
vn 0.2921 -0.6671 0.6854
vn 0.0908 -0.9950 -0.0409
vn 0.1415 -0.9893 -0.0368
vn 0.3678 -0.7382 0.5655
vn 0.5680 -0.8230 -0.0011
vn 0.1984 -0.9787 -0.0525
vn 0.5657 -0.4267 0.7056
vn 0.5054 -0.5146 0.6926
vn 0.4774 -0.8380 -0.2643
vn 0.2758 -0.6187 -0.7356
vn -0.0169 -0.3988 -0.9169
vn 0.2755 -0.3848 -0.8809
vn -0.3960 -0.3800 -0.8359
vn -0.0075 -0.4043 -0.9146
vn -0.2997 -0.9209 -0.2493
vn -0.8552 -0.2402 0.4593
vn -0.7355 -0.2887 0.6129
vn -0.7045 -0.3959 0.5890
vn -0.6623 -0.3694 0.6518
vn -0.5471 -0.5208 0.6553
vn -0.7821 -0.3996 0.4781
vn -0.6274 -0.4888 0.6062
vn -0.8321 -0.4690 -0.2960
vn -0.9707 -0.0488 -0.2353
vn -0.7275 -0.5475 -0.4135
vn -0.6338 -0.6182 -0.4649
vn -0.3240 -0.8414 -0.4325
vn -0.6559 -0.2776 -0.7019
vn -0.6079 -0.2514 -0.7532
vn -0.9868 -0.1070 -0.1214
vn -0.5990 0.0885 -0.7958
vn -0.2600 0.0991 -0.9605
vn -0.9662 0.0898 -0.2415
vn -0.5711 0.0606 -0.8186
vn -0.9953 0.0103 -0.0959
vn -0.9931 0.0300 -0.1136
vn -0.5164 0.0441 -0.8552
vn -0.8247 0.5093 -0.2460
vn -0.1223 0.2517 0.9600
vn -0.7609 0.6254 -0.1728
vn -0.0351 0.0343 0.9988
vn -0.9450 0.3178 0.0778
vn -0.5089 0.8257 0.2435
vn -0.5819 0.7734 0.2517
vn -0.5929 0.7303 0.3392
vn -0.9763 -0.1965 -0.0905
vn -0.7556 -0.6424 -0.1281
vn -0.3756 -0.8786 -0.2950
vn -0.4920 -0.7884 -0.3692
vn -0.4836 -0.6431 -0.5938
vn -0.9886 0.1472 0.0301
vn -0.9876 0.1538 0.0309
vn -0.6377 0.7693 0.0391
vn -0.8383 0.5264 0.1423
vn -0.4872 -0.6281 0.6067
vn -0.1865 -0.9823 0.0169
vn -0.0139 -0.9988 -0.0471
vn 0.0695 -0.9920 -0.1050
vn -0.3458 -0.8556 0.3852
vn -0.5549 -0.5018 0.6636
vn -0.5476 -0.4957 0.6741
vn -0.9880 -0.0941 -0.1224
vn -0.9843 -0.1737 -0.0324
vn -0.1862 -0.9803 0.0663
vn -0.0937 -0.9509 0.2951
vn -0.0442 -0.9531 0.2994
vn -0.0153 -0.9681 0.2501
vn -0.0109 -0.7692 0.6389
vn 0.0309 -0.7430 0.6686
vn 0.0054 -0.8044 0.5940
vn -0.0122 -0.2950 0.9554
vn 0.0052 -0.9642 0.2653
vn 0.0758 -0.9908 0.1117
vn 0.7424 -0.6099 -0.2771
vn 0.0921 -0.9869 0.1322
vn -0.0795 -0.9912 0.1056
vn -0.1938 -0.9576 0.2131
vn 0.7201 -0.6934 -0.0262
vn 0.2936 -0.9559 0.0082
vn 0.2807 -0.9597 0.0093
vn 0.1543 -0.9873 0.0380
vn -0.0358 -0.9934 0.1088
vn 0.0727 -0.9343 0.3491
vn 0.6012 -0.4887 0.6323
vn 0.8290 -0.3381 0.4455
vn 0.9730 -0.1118 0.2020
vn 0.9890 -0.1192 0.0877
vn 0.9192 0.1059 0.3792
vn 0.9966 -0.0797 -0.0215
vn 0.9486 0.3108 -0.0595
vn 0.9980 0.0573 -0.0268
vn 0.8027 -0.5963 0.0066
vn 0.7190 -0.5021 0.4806
vn 0.5581 -0.4500 0.6971
vn 0.7529 -0.3432 0.5615
vn 0.2562 -0.7830 0.5669
vn 0.1611 -0.6171 0.7702
vn 0.3040 -0.6747 0.6726
vn 0.7408 -0.4962 0.4527
vn 0.4068 -0.9058 0.1187
vn -0.0015 -0.5519 0.8339
vn 0.1050 -0.6138 0.7824
vn -0.0732 -0.8590 0.5068
vn 0.0008 -0.8391 0.5440
vn -0.3634 -0.7523 0.5495
vn -0.3224 -0.7974 0.5102
vn -0.3354 -0.5596 0.7579
vn -0.3113 -0.5722 0.7587
vn -0.0293 -0.5690 0.8218
vn -0.5400 -0.5116 0.6683
vn -0.3354 0.9399 0.0649
vn -0.4726 0.8812 0.0143
vn -0.5593 -0.4216 0.7137
vn -0.0046 -0.2237 0.9747
vn -0.0171 -0.3232 0.9462
vn -0.0192 -0.3191 0.9475
vn -0.2632 -0.0405 -0.9639
vn -0.3375 -0.0228 -0.9410
vn -0.7054 0.0570 -0.7066
vn -0.7330 0.0624 -0.6773
vn 0.0095 -0.0363 -0.9993
vn 0.0103 0.1219 -0.9925
vn 0.0618 -0.0807 -0.9948
vn -0.1593 -0.0153 -0.9871
vn -0.1329 -0.1647 -0.9774
vn 0.2426 0.0634 -0.9681
vn 0.2356 -0.0415 -0.9710
vn 0.2430 0.0618 -0.9680
vn 0.3781 -0.0529 -0.9242
vn 0.4238 -0.0683 -0.9032
vn 0.2614 -0.0318 -0.9647
vn 0.0556 -0.0317 -0.9979
vn 0.0376 0.0097 -0.9992
vn 0.9875 0.1210 -0.1007
vn 0.1929 0.0979 -0.9763
vn 0.9027 0.4296 -0.0239
vn 0.9708 0.2388 -0.0226
vn 0.9704 -0.0250 -0.2404
vn 0.9155 0.2994 -0.2688
vn 0.7444 -0.3550 -0.5655
vn 0.7416 -0.2920 -0.6039
vn 0.8673 -0.0965 -0.4884
vn 0.7100 -0.3699 -0.5993
vn 0.9018 -0.0974 -0.4211
vn 0.6987 -0.3505 -0.6237
vn 0.3223 -0.5505 -0.7701
vn 0.3141 -0.5611 -0.7659
vn 0.2637 -0.6056 -0.7508
vn 0.5539 -0.4234 -0.7169
vn 0.0729 -0.6959 -0.7144
vn 0.1221 -0.6315 -0.7657
vn -0.1928 -0.6242 -0.7571
vn -0.1342 -0.5974 -0.7906
vn -0.9515 -0.0175 -0.3072
vn -0.6179 -0.3329 -0.7122
vn -0.5962 0.0273 -0.8023
vn -0.6373 -0.4948 -0.5908
vn -0.7848 -0.4203 -0.4554
vn -0.9667 0.0362 -0.2533
vn -0.9928 -0.0653 0.1000
vn -0.9393 -0.0901 -0.3311
vn -0.9768 0.1609 -0.1413
vn -0.9771 0.1458 -0.1550
vn -0.9894 0.0204 -0.1437
vn -0.6517 0.7381 -0.1747
vn -0.2029 0.9373 0.2832
vn -0.2805 0.9565 -0.0801
vn -0.1672 0.9492 0.2666
vn -0.4665 0.6678 0.5800
vn -0.1685 0.9857 0.0033
vn -0.2817 0.9595 0.0081
vn -0.1660 0.9861 0.0036
vn -0.0978 0.9952 0.0029
vn -0.0800 0.9514 0.2973
vn -0.0225 0.9997 0.0119
vn -0.1205 0.9292 0.3493
vn -0.0849 0.9959 0.0326
vn 0.0995 0.9198 0.3796
vn 0.1284 0.6591 0.7411
vn 0.0504 0.9985 0.0190
vn -0.0317 0.6028 0.7972
vn -0.0315 0.6027 0.7973
vn 0.0625 0.9979 0.0191
vn 0.0587 0.9981 0.0196
vn 0.1117 0.6039 0.7892
vn -0.0591 0.7728 0.6319
vn 0.2083 0.9780 -0.0134
vn 0.2188 0.9755 -0.0245
vn 0.2186 0.9757 -0.0180
vn 0.0946 0.9953 0.0202
vn 0.1381 0.9904 0.0086
vn 0.0004 0.9347 0.3556
vn 0.5925 0.7623 -0.2604
vn 0.6114 0.7913 0.0016
vn 0.7747 0.5583 -0.2970
vn 0.8559 0.4965 -0.1449
vn 0.7781 0.6246 0.0673
vn 0.6362 0.7714 0.0168
vn 0.3198 0.8941 0.3134
vn 0.1425 0.9618 0.2339
vn 0.6198 0.6743 0.4015
vn 0.7053 0.6200 0.3436
vn 0.3298 0.9434 0.0361
vn 0.0734 0.9653 0.2507
vn 0.2524 0.8919 0.3752
vn 0.3961 0.8793 0.2645
vn -0.0308 0.9863 0.1621
vn -0.0556 0.9737 0.2209
vn -0.4333 0.8454 0.3123
vn -0.4419 0.7138 0.5434
vn -0.3151 0.8937 0.3194
vn -0.3908 0.9137 0.1115
vn -0.1701 0.9854 0.0110
vn -0.1595 0.9581 0.2379
vn -0.1993 0.9799 -0.0045
vn -0.0176 0.3234 0.9461
vn -0.0799 0.6947 0.7148
vn 0.0019 -0.0310 0.9995
vn -0.0192 -0.0082 0.9998
vn -0.9982 0.0157 -0.0574
vn 0.0019 -0.0195 0.9998
vn -0.9767 0.2125 -0.0294
vn 0.0018 0.0377 0.9993
vn -0.8516 0.5203 0.0638
vn 0.0018 -0.0201 0.9998
vn -0.9295 0.3612 -0.0744
vn 0.0024 0.0419 0.9991
vn 0.0001 0.1081 0.9941
vn -0.5627 0.8226 0.0823
vn -0.6318 0.7738 0.0451
vn -0.4113 0.9110 0.0290
vn 0.0058 0.1447 0.9895
vn 0.0003 0.3120 0.9501
vn -0.1540 0.9748 0.1615
vn -0.3301 0.9432 0.0369
vn 0.1214 0.9905 0.0638
vn 0.2735 0.9525 0.1337
vn 0.4576 0.8891 0.0144
vn 0.5030 0.8636 0.0350
vn 0.6745 0.7369 -0.0453
vn 0.8312 0.5545 -0.0399
vn 0.8799 0.4752 -0.0005
vn 0.9666 0.2553 -0.0231
vn 0.9504 0.3072 -0.0495
vn 0.9958 0.0871 -0.0282
vn 0.9982 0.0031 0.0594
vn 0.6353 0.2762 0.7212
vn 0.1071 0.2499 0.9623
vn -0.0326 0.4935 0.8691
vn -0.0581 0.5825 0.8108
vn 0.9446 -0.0611 -0.3225
vn 0.6990 0.4384 0.5650
vn 0.7373 0.3916 0.5505
vn 0.7183 0.6629 0.2111
vn 0.4687 0.4347 0.7690
vn 0.0434 0.9482 0.3146
vn 0.4836 0.8116 0.3277
vn -0.0539 0.7658 0.6408
vn -0.0531 0.7652 0.6416
vn -0.3568 -0.0814 -0.9306
vn -0.1675 -0.0046 -0.9859
vn -0.1673 -0.0044 -0.9859
vn -0.4732 -0.5801 -0.6631
vn -0.4443 -0.6595 -0.6064
vn -0.1897 -0.6505 -0.7354
vn -0.3636 -0.5204 -0.7726
vn -0.5276 -0.5086 0.6805
vn -0.5394 -0.4592 0.7058
vn -0.3453 -0.8432 -0.4121
vn -0.2092 -0.8212 -0.5309
vn -0.1755 -0.7827 -0.5971
vn -0.1746 -0.2640 -0.9486
vn -0.1348 -0.7893 -0.5991
vn -0.2965 -0.8727 -0.3879
vn -0.3553 -0.5839 -0.7300
vn -0.3021 -0.0338 -0.9527
vn -0.3389 0.0177 -0.9407
vn -0.1306 -0.1811 -0.9748
vn 0.0497 0.2066 -0.9772
vn -0.2088 -0.8107 -0.5469
vn -0.0995 -0.9278 0.3596
vn 0.3789 -0.2577 0.8888
vn -0.0156 -0.8241 0.5663
vn 0.0594 -0.9149 0.3993
vn -0.0223 -0.5098 0.8600
vn -0.9371 -0.1696 -0.3051
vn -0.9509 -0.0874 -0.2969
vn -0.9448 -0.1030 -0.3111
vn -0.8460 -0.2707 -0.4594
vn -0.7952 -0.4330 -0.4244
vn -0.5652 -0.5637 -0.6023
vn -0.7450 -0.0862 -0.6615
vn -0.3691 -0.4353 -0.8211
vn -0.2698 -0.6580 -0.7030
vn -0.1604 0.0314 -0.9866
vn -0.4376 0.0307 -0.8986
vn -0.7922 0.0896 -0.6037
vn -0.2111 0.0501 -0.9762
vn -0.9072 0.3163 -0.2775
vn -0.9425 0.3332 -0.0264
vn -0.6602 0.6185 -0.4262
vn -0.7350 0.6691 -0.1100
vn -0.4694 0.4236 -0.7748
vn -0.6461 0.6187 -0.4470
vn -0.1846 -0.5687 -0.8016
vn -0.3936 -0.2579 0.8824
vn -0.0133 -0.4460 0.8949
vn -0.0782 -0.5302 0.8442
vn -0.1476 -0.8168 -0.5577
vn -0.1378 -0.8127 -0.5661
vn -0.0516 0.9826 0.1787
vn 0.0044 1.0000 -0.0045
vn 0.0007 1.0000 -0.0074
vn -0.2642 -0.7866 -0.5581
vn -0.1389 -0.7199 -0.6800
vn -0.1028 -0.6198 -0.7780
vn -0.0033 0.0140 -0.9999
vn 0.0693 -0.3910 -0.9178
vn 0.0887 -0.0758 -0.9932
vn 0.0880 -0.2734 -0.9579
vn 0.3873 -0.1328 -0.9123
vn 0.6880 -0.0055 -0.7257
vn 0.7680 0.6138 -0.1826
vn 0.3107 0.4814 -0.8196
vn 0.1244 0.2929 -0.9480
vn -0.2361 0.9652 0.1125
vn 0.0498 -0.5737 0.8175
vn -0.0074 -0.5315 0.8470
vn 0.0303 -0.5502 0.8345
vn -0.0053 -0.8323 -0.5543
vn -0.0260 -0.9487 -0.3151
vn 0.0262 -0.8186 -0.5738
vn 0.0008 0.9797 0.2007
vn -0.0077 0.9775 0.2107
vn 0.1567 0.9876 -0.0058
vn 0.0943 0.9754 0.1993
vn 0.1522 0.9604 0.2332
vn 0.1576 0.9875 -0.0054
vn 0.1122 0.7494 -0.6525
vn -0.2312 0.9466 -0.2246
vn 0.1686 -0.4561 -0.8738
vn 0.1152 -0.5255 0.8430
vn 0.1239 -0.8014 -0.5851
vn 0.3846 -0.0033 -0.9231
vn 0.3956 -0.2769 -0.8757
vn 0.2943 -0.8918 -0.3436
vn 0.1117 -0.8185 -0.5635
vn 0.1106 -0.8112 -0.5742
vn 0.1226 -0.6365 -0.7614
vn 0.1324 -0.6108 -0.7807
vn 0.2064 0.9776 -0.0411
vn 0.3270 -0.3831 -0.8639
vn 0.2885 -0.4531 -0.8434
vn 0.4194 -0.5137 -0.7485
vn 0.3250 -0.5935 0.7363
vn 0.3180 -0.5714 0.7566
vn 0.2126 -0.8014 -0.5591
vn 0.1786 -0.8054 -0.5652
vn 0.1953 -0.7932 -0.5768
vn 0.1654 -0.2042 -0.9648
vn 0.2083 -0.2787 -0.9375
vn 0.1812 -0.8155 -0.5497
vn 0.5215 -0.2017 -0.8291
vn 0.5196 -0.3658 -0.7721
vn 0.6665 -0.5400 -0.5140
vn 0.2496 -0.5376 -0.8054
vn 0.4507 -0.6279 -0.6345
vn 0.4443 -0.7382 -0.5076
vn 0.2907 -0.8505 -0.4384
vn 0.6232 -0.2387 -0.7448
vn 0.3101 -0.8827 -0.3531
vn 0.3022 0.9361 0.1800
vn 0.3878 0.9162 0.1014
vn 0.3025 0.9531 -0.0041
vn 0.3623 0.9319 0.0141
vn 0.6009 -0.2762 -0.7501
vn 0.6134 -0.3353 -0.7151
vn 0.5321 -0.2156 -0.8188
vn 0.6973 0.7142 -0.0606
vn 0.5826 -0.6403 -0.5006
vn 0.6278 -0.5375 -0.5630
vn 0.6875 -0.5461 -0.4787
vn 0.8200 -0.4612 -0.3390
vn 0.7206 -0.4611 -0.5178
vn 0.6893 -0.5903 -0.4201
vn 0.8244 -0.3314 0.4589
vn 0.8253 -0.4641 -0.3216
vn 0.6859 -0.7020 -0.1915
vn 0.7648 0.6260 0.1524
vn 0.7364 0.6532 0.1763
vn 0.7666 0.6389 0.0644
vn 0.5800 0.8144 -0.0198
vn 0.9285 -0.0605 -0.3663
vn 0.9366 -0.1739 -0.3042
vn 0.9530 -0.1112 -0.2818
vn 0.8908 -0.2164 -0.3995
vn 0.9310 0.0310 -0.3636
vn 0.9147 0.4006 0.0525
vn 0.7536 0.5968 -0.2755
vn 0.7899 -0.4914 -0.3669
vn 0.7376 -0.4623 -0.4921
vn 0.8827 -0.3041 -0.3582
vn 0.7755 -0.4396 -0.4532
vn 0.6821 -0.6369 -0.3593
vn 0.9285 -0.2846 -0.2386
vn 0.8030 -0.1579 0.5746
vn 0.8997 -0.3385 0.2755
vn 0.7715 -0.3100 0.5556
vn 0.8577 -0.2436 0.4528
vn 0.9259 -0.2333 0.2970
vn 0.9278 -0.2346 0.2902
vn 0.9023 -0.2544 -0.3480
vn 0.9045 -0.2138 -0.3689
vn 0.9054 -0.2547 -0.3398
vn 0.8977 -0.1769 0.4035
vn 0.9920 -0.1045 -0.0714
vn 0.9873 -0.0786 -0.1379
vn 0.9943 -0.0453 -0.0964
vn 0.9282 0.0402 -0.3698
vn 0.8744 0.4596 0.1557
vn 0.9462 0.0991 -0.3082
vn 0.9173 0.1064 0.3838
vn 0.8205 -0.0568 0.5689
vn 0.8111 0.4902 -0.3192
vn 0.8491 0.4079 0.3356
vn 0.8655 -0.4605 -0.1973
vn 0.9360 -0.2750 -0.2198
vn 0.9739 -0.2260 -0.0192
vn 0.9373 -0.2912 -0.1913
vn 0.7603 -0.6495 -0.0057
vn 0.8274 -0.5570 0.0719
vn 0.9595 -0.2689 0.0844
vn 0.9476 -0.2117 0.2394
vn 0.8166 -0.5688 0.0982
vn 0.9456 0.1000 -0.3096
vn 0.9638 0.1746 -0.2016
vn 0.9747 0.1475 -0.1682
vn 0.9909 0.1328 -0.0200
vn 0.9733 0.2058 0.1019
vn 0.9657 0.0970 0.2407
vn 0.9098 0.1231 0.3964
usemtl material_0.021
s off
f 1//1 2//1 3//1
f 4//2 1//2 3//2
f 5//3 4//3 3//3
f 6//4 1//4 4//4
f 7//5 1//5 6//5
f 8//6 2//6 1//6
f 9//7 2//7 8//7
f 8//8 1//8 7//8
f 10//9 5//9 3//9
f 11//10 3//10 2//10
f 12//11 2//11 9//11
f 12//12 11//12 2//12
f 13//13 10//13 3//13
f 11//14 13//14 3//14
f 14//15 7//15 6//15
f 15//16 7//16 14//16
f 8//17 7//17 15//17
f 13//18 5//18 10//18
f 16//19 15//19 14//19
f 17//20 14//20 6//20
f 17//21 18//21 14//21
f 19//22 16//22 14//22
f 19//23 14//23 18//23
f 20//24 15//24 16//24
f 21//25 8//25 15//25
f 20//26 21//26 15//26
f 22//27 16//27 19//27
f 22//28 20//28 16//28
f 17//29 6//29 4//29
f 23//30 4//30 5//30
f 23//31 17//31 4//31
f 24//32 5//32 13//32
f 24//33 23//33 5//33
f 11//34 24//34 13//34
f 25//35 23//35 24//35
f 26//36 25//36 24//36
f 27//37 24//37 11//37
f 28//38 24//38 27//38
f 29//39 24//39 28//39
f 30//40 26//40 24//40
f 29//41 30//41 24//41
f 31//42 18//42 17//42
f 19//43 18//43 31//43
f 32//44 19//44 31//44
f 33//45 32//45 31//45
f 34//46 22//46 19//46
f 32//47 34//47 19//47
f 33//48 31//48 17//48
f 33//49 17//49 23//49
f 25//50 33//50 23//50
f 35//51 33//51 25//51
f 36//52 25//52 26//52
f 36//53 35//53 25//53
f 37//54 38//54 39//54
f 40//55 39//55 38//55
f 41//56 37//56 39//56
f 42//57 40//57 38//57
f 43//58 38//58 37//58
f 44//59 43//59 37//59
f 45//60 44//60 37//60
f 45//61 37//61 41//61
f 46//62 41//62 39//62
f 47//63 41//63 46//63
f 48//64 45//64 41//64
f 47//65 48//65 41//65
f 49//66 46//66 39//66
f 40//67 49//67 39//67
f 50//68 51//68 46//68
f 47//69 46//69 51//69
f 52//70 50//70 46//70
f 53//71 52//71 46//71
f 54//72 53//72 46//72
f 49//73 54//73 46//73
f 55//74 51//74 50//74
f 47//75 51//75 56//75
f 57//76 56//76 51//76
f 57//77 51//77 58//77
f 55//78 58//78 51//78
f 59//79 50//79 52//79
f 59//80 55//80 50//80
f 60//81 52//81 53//81
f 61//82 59//82 52//82
f 62//83 61//83 52//83
f 60//84 62//84 52//84
f 63//85 64//85 53//85
f 65//86 53//86 64//86
f 66//87 63//87 53//87
f 67//88 66//88 53//88
f 68//89 67//89 53//89
f 54//90 68//90 53//90
f 69//91 53//91 65//91
f 60//92 53//92 69//92
f 70//93 71//93 64//93
f 72//94 64//94 71//94
f 63//95 70//95 64//95
f 65//96 64//96 72//96
f 70//97 73//97 71//97
f 45//98 71//98 73//98
f 48//99 71//99 45//99
f 72//100 71//100 48//100
f 74//101 75//101 73//101
f 44//102 73//102 75//102
f 76//103 74//103 73//103
f 70//104 76//104 73//104
f 45//105 73//105 44//105
f 44//106 75//106 77//106
f 74//107 78//107 75//107
f 77//108 75//108 78//108
f 74//109 79//109 78//109
f 77//110 78//110 80//110
f 79//111 81//111 78//111
f 81//112 82//112 78//112
f 83//113 78//113 82//113
f 80//114 78//114 83//114
f 84//115 82//115 85//115
f 83//116 82//116 84//116
f 86//117 85//117 82//117
f 86//118 87//118 85//118
f 88//119 82//119 81//119
f 88//120 86//120 82//120
f 89//121 90//122 81//121
f 91//123 81//124 90//125
f 79//126 89//126 81//126
f 88//127 81//127 91//128
f 91//129 90//130 89//131
f 92//132 90//133 93//132
f 94//134 93//134 90//135
f 91//136 90//137 92//138
f 91//139 94//140 90//141
f 94//142 89//142 79//142
f 91//143 89//144 94//144
f 94//145 79//145 74//145
f 94//146 74//146 76//146
f 95//147 76//147 70//147
f 95//148 93//148 76//148
f 94//149 76//149 93//149
f 96//150 95//150 70//150
f 97//151 70//151 63//151
f 96//152 70//152 97//152
f 97//153 63//153 66//153
f 98//154 66//154 67//154
f 98//155 99//155 66//155
f 97//156 66//156 99//156
f 98//157 67//157 68//157
f 98//158 68//158 54//158
f 100//159 101//159 54//159
f 98//160 54//160 101//160
f 49//161 100//161 54//161
f 102//162 103//162 101//162
f 98//163 101//163 103//163
f 100//164 102//164 101//164
f 104//165 105//165 103//165
f 106//166 103//166 105//166
f 102//167 104//167 103//167
f 106//168 98//168 103//168
f 104//169 99//169 105//169
f 98//170 105//170 99//170
f 106//171 105//171 98//171
f 104//172 107//172 99//172
f 96//173 99//173 107//173
f 96//174 97//174 99//174
f 108//175 93//175 107//175
f 95//176 107//176 93//176
f 104//177 108//177 107//177
f 95//178 96//178 107//178
f 108//179 109//179 93//179
f 109//180 92//180 93//180
f 110//181 111//181 92//181
f 91//182 92//183 111//183
f 112//184 110//184 92//184
f 109//185 112//185 92//185
f 110//186 113//186 111//186
f 88//187 111//187 113//187
f 88//188 91//189 111//188
f 114//190 113//190 110//190
f 87//191 113//191 115//191
f 114//192 115//192 113//192
f 86//193 113//193 87//193
f 86//194 88//194 113//194
f 114//195 110//195 112//195
f 116//196 112//196 109//196
f 117//197 118//197 112//197
f 114//198 112//198 118//198
f 117//199 112//199 116//199
f 119//200 120//200 109//200
f 116//201 109//201 120//201
f 121//202 109//203 122//203
f 121//204 119//205 109//205
f 108//206 123//206 109//206
f 122//207 109//207 123//207
f 124//208 123//208 108//208
f 124//209 40//209 123//209
f 124//210 108//210 104//210
f 125//211 104//211 102//211
f 125//212 124//212 104//212
f 126//213 102//213 100//213
f 125//214 102//214 126//214
f 126//215 100//215 49//215
f 126//216 49//216 40//216
f 125//217 126//217 40//217
f 42//218 123//218 40//218
f 124//219 125//219 40//219
f 122//220 123//220 42//220
f 38//221 127//221 42//221
f 119//222 42//222 128//222
f 127//223 128//223 42//223
f 129//224 120//224 128//224
f 119//225 128//225 120//225
f 129//226 130//226 120//226
f 116//227 120//227 130//227
f 117//228 130//228 131//228
f 129//229 131//229 130//229
f 117//230 116//230 130//230
f 132//231 131//231 133//231
f 132//232 117//232 131//232
f 134//233 135//233 133//233
f 132//234 133//234 135//234
f 136//235 118//235 135//235
f 132//236 135//236 118//236
f 134//237 136//237 135//237
f 114//238 118//238 136//238
f 117//239 132//239 118//239
f 134//240 137//240 136//240
f 138//241 136//241 137//241
f 138//242 114//242 136//242
f 134//243 115//243 137//243
f 114//244 137//244 115//244
f 138//245 137//245 114//245
f 134//246 87//246 115//246
f 139//247 85//247 87//247
f 134//248 139//248 87//248
f 84//249 85//249 139//249
f 134//250 140//250 139//250
f 84//251 139//251 141//251
f 140//252 142//252 139//252
f 141//253 139//253 142//253
f 143//254 142//254 140//254
f 144//255 140//255 134//255
f 143//256 140//256 144//256
f 144//257 134//257 133//257
f 144//258 133//258 131//258
f 144//259 131//259 145//259
f 146//260 131//260 129//260
f 145//261 131//261 146//261
f 147//262 129//262 128//262
f 146//263 129//263 147//263
f 147//264 128//264 127//264
f 43//265 127//265 38//265
f 147//266 127//266 43//266
f 77//267 147//267 43//267
f 44//268 77//268 43//268
f 77//269 146//269 147//269
f 77//270 80//270 146//270
f 80//271 145//271 146//271
f 80//272 83//272 145//272
f 83//273 144//273 145//273
f 83//274 84//274 144//274
f 84//275 143//275 144//275
f 84//276 141//276 143//276
f 141//277 142//277 143//277
f 47//278 72//278 48//278
f 56//279 65//279 72//279
f 47//280 56//280 72//280
f 148//281 65//281 56//281
f 149//282 65//282 148//282
f 149//283 69//283 65//283
f 148//284 56//284 150//284
f 151//285 56//285 57//285
f 150//286 56//286 151//286
f 21//287 152//287 8//287
f 9//288 8//288 152//288
f 153//289 152//289 21//289
f 153//290 21//290 20//290
f 9//291 152//291 154//291
f 155//292 152//292 153//292
f 155//293 154//293 152//293
f 156//294 157//294 12//294
f 9//295 156//295 12//295
f 156//296 158//296 157//296
f 159//297 160//297 157//297
f 161//298 159//298 157//298
f 158//299 161//299 157//299
f 162//300 159//300 161//300
f 158//301 163//301 161//301
f 163//302 164//302 161//302
f 162//303 161//303 164//303
f 165//304 166//304 164//304
f 163//305 165//305 164//305
f 167//306 168//306 164//306
f 162//307 164//307 168//307
f 165//308 163//308 169//308
f 170//309 163//309 158//309
f 171//310 158//310 156//310
f 170//311 158//311 171//311
f 172//312 156//312 154//312
f 171//313 156//313 172//313
f 9//314 154//314 156//314
f 27//315 11//315 12//315
f 173//316 27//316 12//316
f 28//317 27//317 173//317
f 174//318 173//318 12//318
f 157//319 174//319 12//319
f 29//320 28//320 173//320
f 174//321 29//321 173//321
f 175//322 153//322 20//322
f 175//323 20//323 22//323
f 176//324 153//324 175//324
f 155//325 153//325 176//325
f 177//326 178//326 179//326
f 180//327 179//327 178//327
f 180//328 181//328 179//328
f 22//329 180//329 178//329
f 182//330 181//330 180//330
f 183//331 181//331 182//331
f 184//332 185//332 180//332
f 186//333 180//333 185//333
f 187//334 184//334 180//334
f 22//335 187//335 180//335
f 186//336 182//336 180//336
f 186//337 185//337 184//337
f 188//338 184//338 187//338
f 189//339 186//339 184//339
f 188//340 189//340 184//340
f 34//341 187//341 22//341
f 190//342 187//342 34//342
f 191//343 187//343 190//343
f 188//344 187//344 191//344
f 178//345 175//345 22//345
f 176//346 175//346 178//346
f 176//347 178//347 177//347
f 192//348 176//348 177//348
f 192//349 155//349 176//349
f 193//350 26//350 30//350
f 58//351 26//351 193//351
f 194//352 26//352 58//352
f 194//353 36//353 26//353
f 195//354 30//354 29//354
f 196//355 193//355 30//355
f 197//356 196//356 30//356
f 198//357 197//357 30//357
f 195//358 198//358 30//358
f 199//359 195//359 29//359
f 199//360 29//360 174//360
f 57//361 58//361 193//361
f 151//362 57//362 193//362
f 151//363 193//363 196//363
f 200//364 151//364 196//364
f 200//365 196//365 201//365
f 197//366 201//366 196//366
f 202//367 203//367 201//367
f 200//368 201//368 203//368
f 204//369 202//369 201//369
f 203//370 202//370 150//370
f 204//371 201//371 197//371
f 204//372 197//372 198//372
f 205//373 206//373 198//373
f 204//374 198//374 206//374
f 207//375 205//375 198//375
f 195//376 207//376 198//376
f 208//377 209//377 206//377
f 210//378 208//378 206//378
f 211//379 210//379 206//379
f 212//380 211//380 206//380
f 205//381 212//381 206//381
f 149//382 204//382 206//382
f 213//383 209//383 208//383
f 214//384 209//384 213//384
f 215//385 216//385 209//385
f 217//386 209//386 216//386
f 214//387 215//387 209//387
f 69//388 206//388 209//388
f 60//389 69//389 209//389
f 217//390 60//390 209//390
f 218//391 208//391 210//391
f 218//392 168//392 208//392
f 167//393 208//393 168//393
f 213//394 208//394 167//394
f 218//395 210//395 211//395
f 219//396 211//396 212//396
f 168//397 211//397 219//397
f 218//398 211//398 168//398
f 220//399 212//399 205//399
f 220//400 221//400 212//400
f 219//401 212//401 221//401
f 220//402 205//402 207//402
f 220//403 207//403 222//403
f 195//404 223//404 207//404
f 222//405 207//405 223//405
f 224//406 223//406 195//406
f 225//407 223//407 224//407
f 222//408 223//408 225//408
f 199//409 224//409 195//409
f 226//410 194//410 58//410
f 55//411 226//411 58//411
f 150//412 151//412 227//412
f 228//413 148//413 150//413
f 202//414 228//414 150//414
f 227//415 203//415 150//415
f 229//416 183//416 182//416
f 230//417 229//417 182//417
f 231//418 230//418 182//418
f 186//419 231//419 182//419
f 232//420 233//420 183//420
f 234//421 183//421 233//421
f 235//422 232//422 183//422
f 229//423 235//423 183//423
f 181//424 183//424 234//424
f 236//425 237//425 233//425
f 238//426 233//426 237//426
f 239//427 236//427 233//427
f 240//428 239//428 233//428
f 241//429 240//429 233//429
f 232//430 241//430 233//430
f 238//431 242//431 233//431
f 234//432 233//432 242//432
f 243//433 237//433 236//433
f 244//434 238//434 237//434
f 245//435 236//435 239//435
f 243//436 236//436 245//436
f 246//437 239//437 240//437
f 245//438 239//438 246//438
f 241//439 247//439 240//439
f 248//440 240//440 247//440
f 249//441 246//441 240//441
f 250//442 240//442 248//442
f 250//443 249//443 240//443
f 248//444 247//444 241//444
f 251//445 241//445 232//445
f 252//446 241//446 251//446
f 253//447 241//447 252//447
f 248//448 241//448 253//448
f 254//449 232//449 235//449
f 251//450 232//450 254//450
f 255//451 235//451 229//451
f 254//452 235//452 255//452
f 256//453 229//453 230//453
f 255//454 229//454 256//454
f 231//455 257//455 230//455
f 258//456 230//456 257//456
f 256//457 230//457 258//457
f 259//458 257//458 231//458
f 260//459 257//459 259//459
f 258//460 257//460 260//460
f 189//461 231//461 186//461
f 261//462 231//462 189//462
f 259//463 231//463 261//463
f 32//464 190//464 34//464
f 262//465 191//465 190//465
f 262//466 190//466 32//466
f 263//467 191//467 262//467
f 263//468 188//468 191//468
f 35//469 262//469 32//469
f 33//470 35//470 32//470
f 35//471 264//471 262//471
f 264//472 265//472 262//472
f 263//473 262//473 265//473
f 264//474 266//474 265//474
f 267//475 263//475 265//475
f 266//476 268//476 265//476
f 267//477 265//477 268//477
f 267//478 268//478 269//478
f 266//479 270//479 268//479
f 271//480 268//480 270//480
f 269//481 268//481 271//481
f 272//482 273//482 270//482
f 266//483 272//483 270//483
f 271//484 270//484 274//484
f 275//485 274//485 270//485
f 276//486 277//486 270//486
f 278//487 270//487 277//487
f 279//488 276//488 270//488
f 280//489 279//489 270//489
f 273//490 280//490 270//490
f 278//491 275//491 270//491
f 281//492 278//492 277//492
f 276//493 282//493 277//493
f 283//494 281//494 277//494
f 282//495 283//495 277//495
f 284//496 282//496 276//496
f 215//497 279//497 280//497
f 215//498 276//498 279//498
f 285//499 280//499 273//499
f 216//500 280//500 285//500
f 215//501 280//501 216//501
f 285//502 273//502 272//502
f 286//503 272//503 266//503
f 287//504 272//504 286//504
f 287//505 285//505 272//505
f 288//506 266//506 264//506
f 288//507 264//507 289//507
f 36//508 264//508 35//508
f 289//509 264//509 36//509
f 289//510 36//510 194//510
f 289//511 194//511 226//511
f 290//512 226//512 55//512
f 290//513 289//513 226//513
f 59//514 290//514 55//514
f 246//515 261//515 189//515
f 188//516 246//516 189//516
f 291//517 259//517 261//517
f 246//518 291//518 261//518
f 292//519 260//519 259//519
f 291//520 293//520 259//520
f 292//521 259//521 293//521
f 294//522 295//522 293//522
f 296//523 293//523 295//523
f 291//524 294//524 293//524
f 296//525 292//525 293//525
f 294//526 297//526 295//526
f 297//527 298//527 295//527
f 299//528 295//528 298//528
f 299//529 296//529 295//529
f 300//530 299//530 298//530
f 297//531 301//531 298//531
f 301//532 302//532 298//532
f 303//533 298//533 302//533
f 303//534 300//534 298//534
f 304//535 302//535 301//535
f 304//536 303//536 302//536
f 305//537 301//537 297//537
f 305//538 304//538 301//538
f 306//539 305//539 297//539
f 307//540 297//540 294//540
f 306//541 297//541 307//541
f 308//542 294//542 291//542
f 307//543 294//543 308//543
f 308//544 291//544 309//544
f 309//545 291//545 246//545
f 274//546 245//546 246//546
f 271//547 274//547 246//547
f 269//548 271//548 246//548
f 188//549 269//549 246//549
f 249//550 309//550 246//550
f 310//551 243//551 245//551
f 274//552 310//552 245//552
f 281//553 243//553 310//553
f 275//554 310//554 274//554
f 278//555 310//555 275//555
f 281//556 310//556 278//556
f 263//557 269//557 188//557
f 267//558 269//558 263//558
f 122//559 42//559 119//559
f 121//560 122//561 119//561
f 311//562 154//562 155//562
f 192//563 311//563 155//563
f 312//564 311//564 192//564
f 312//565 154//565 311//565
f 199//566 174//566 224//566
f 224//567 174//567 157//567
f 312//568 192//568 177//568
f 313//569 177//569 179//569
f 313//570 179//570 314//570
f 181//571 314//571 179//571
f 315//572 313//572 314//572
f 316//573 315//573 314//573
f 317//574 316//574 314//574
f 234//575 242//575 314//575
f 317//576 314//576 242//576
f 181//577 234//577 314//577
f 238//578 317//578 242//578
f 313//579 312//579 177//579
f 200//580 227//580 151//580
f 149//581 148//581 228//581
f 204//582 228//582 202//582
f 149//583 228//583 204//583
f 200//584 203//584 227//584
f 258//585 260//585 318//585
f 319//586 318//586 260//586
f 292//587 319//587 260//587
f 258//588 318//588 320//588
f 256//589 258//589 320//589
f 255//590 256//590 320//590
f 320//591 318//591 319//591
f 321//592 255//592 320//592
f 321//593 322//593 255//593
f 323//594 321//594 320//594
f 324//595 320//595 319//595
f 324//596 319//596 292//596
f 323//597 320//597 324//597
f 325//598 324//598 292//598
f 296//599 325//599 292//599
f 299//600 324//600 325//600
f 296//601 299//601 325//601
f 300//602 323//602 324//602
f 300//603 324//603 299//603
f 172//604 154//604 312//604
f 225//605 224//605 157//605
f 160//606 225//606 157//606
f 222//607 225//607 160//607
f 172//608 312//608 313//608
f 315//609 172//609 313//609
f 290//610 288//610 289//610
f 326//611 290//611 59//611
f 61//612 326//612 59//612
f 254//613 255//613 322//613
f 327//614 322//614 321//614
f 327//615 254//615 322//615
f 323//616 328//616 321//616
f 252//617 327//617 321//617
f 253//618 321//618 328//618
f 253//619 252//619 321//619
f 329//620 253//620 328//620
f 307//621 329//621 328//621
f 307//622 328//622 305//622
f 305//623 328//623 304//623
f 304//624 328//624 323//624
f 330//625 323//625 300//625
f 221//626 160//626 159//626
f 220//627 222//627 160//627
f 220//628 160//628 221//628
f 171//629 172//629 315//629
f 331//630 315//630 316//630
f 331//631 171//631 315//631
f 326//632 288//632 290//632
f 266//633 288//633 326//633
f 332//634 326//634 61//634
f 286//635 266//635 326//635
f 332//636 286//636 326//636
f 62//637 332//637 61//637
f 330//638 304//638 323//638
f 330//639 300//639 303//639
f 333//640 170//640 171//640
f 219//641 221//641 159//641
f 333//642 171//642 331//642
f 334//643 316//643 317//643
f 238//644 334//644 317//644
f 334//645 331//645 316//645
f 335//646 331//646 334//646
f 335//647 333//647 331//647
f 251//648 254//648 327//648
f 252//649 251//649 327//649
f 304//650 330//650 303//650
f 336//651 163//651 170//651
f 337//652 170//652 333//652
f 337//653 336//653 170//653
f 168//654 219//654 159//654
f 162//655 168//655 159//655
f 337//656 333//656 335//656
f 338//657 335//657 334//657
f 338//658 334//658 339//658
f 339//659 334//659 244//659
f 244//660 334//660 238//660
f 338//661 337//661 335//661
f 237//662 339//662 244//662
f 340//663 163//663 336//663
f 169//664 163//664 340//664
f 341//665 336//665 337//665
f 341//666 340//666 336//666
f 341//667 337//667 338//667
f 342//668 338//668 339//668
f 237//669 342//669 339//669
f 342//670 341//670 338//670
f 343//671 286//671 332//671
f 343//672 287//672 286//672
f 343//673 332//673 62//673
f 60//674 343//674 62//674
f 250//675 248//675 253//675
f 250//676 253//676 344//676
f 329//677 344//677 253//677
f 306//678 345//678 305//678
f 169//679 340//679 346//679
f 347//680 346//680 340//680
f 348//681 169//681 346//681
f 349//682 346//682 347//682
f 349//683 348//683 346//683
f 341//684 347//684 340//684
f 214//685 213//685 167//685
f 349//686 347//686 341//686
f 349//687 341//687 342//687
f 217//688 285//688 287//688
f 217//689 216//689 285//689
f 217//690 287//690 343//690
f 217//691 343//691 60//691
f 344//692 309//692 249//692
f 329//693 309//693 344//693
f 308//694 309//694 329//694
f 250//695 344//695 249//695
f 307//696 308//696 329//696
f 306//697 307//697 345//697
f 305//698 345//698 307//698
f 348//699 350//699 169//699
f 351//700 169//700 350//700
f 352//701 351//701 350//701
f 349//702 350//702 348//702
f 165//703 169//703 351//703
f 353//704 351//704 352//704
f 354//705 167//705 164//705
f 355//706 354//706 164//706
f 214//707 167//707 354//707
f 356//708 214//708 354//708
f 357//709 356//709 354//709
f 357//710 354//710 355//710
f 358//711 350//711 349//711
f 353//712 352//712 350//712
f 358//713 353//713 350//713
f 214//714 356//714 357//714
f 237//715 243//715 342//715
f 349//716 342//716 243//716
f 243//717 359//717 349//717
f 359//718 358//718 349//718
f 281//719 359//719 243//719
f 283//720 358//720 359//720
f 284//721 215//721 214//721
f 149//722 206//722 69//722
f 283//723 359//723 281//723
f 284//724 276//724 215//724
f 351//725 360//725 165//725
f 361//726 360//726 351//726
f 362//727 360//727 361//727
f 353//728 361//728 351//728
f 166//729 165//729 360//729
f 355//730 166//730 360//730
f 362//731 355//731 360//731
f 357//732 355//732 362//732
f 164//733 166//733 355//733
f 283//734 353//734 358//734
f 282//735 361//735 353//735
f 282//736 353//736 283//736
f 282//737 362//737 361//737
f 284//738 362//738 282//738
f 284//739 357//739 362//739
f 284//740 214//740 357//740
