# Blender v2.82 (sub 7) OBJ File: ''
# www.blender.org
mtllib sim_sea_2-5_l_elbow_prt.mtl
o sim_sea_2-5_l_elbow_prt
v 158.500961 -37.135761 54.420521
v 151.600601 -32.195148 62.444324
v 157.073227 -35.326035 41.244465
v 164.437454 -36.894524 35.258995
v 160.155518 -33.250587 27.550535
v 163.186569 -28.423983 20.419880
v 164.548492 -26.466888 14.958600
v 167.173706 -11.315596 6.270988
v 168.200897 -7.717386 2.791913
v 154.835037 -30.841951 52.326790
v 163.408188 -28.707397 35.137680
v 165.880737 -24.915417 17.217827
v 148.712677 -21.355162 73.229134
v 149.977783 -26.557175 70.735298
v 154.627579 -34.220562 62.270603
v 160.919037 -37.727612 57.266644
v 153.937378 -26.660950 75.381920
v 146.785492 -13.623071 79.312935
v 165.486435 -31.461170 74.873474
v 151.145737 -22.823851 69.645782
v 156.616714 -22.752600 69.354317
v 158.305130 -27.812702 53.538727
v 146.780228 -7.794747 79.908417
v 145.833725 -3.611925 82.300026
v 170.343155 -4.974108 74.255890
v 165.629364 -15.071910 88.769318
v 163.257935 -23.590590 82.468483
v 147.187622 15.660213 79.264977
v 147.624756 8.183405 82.790573
v 147.986969 14.921252 77.920868
v 151.953140 8.419106 79.843452
v 151.490158 -3.630948 81.343605
v 159.104675 -1.782951 82.607101
v 169.980789 -5.293245 93.731712
v 168.340027 7.329652 92.400352
v 149.412949 25.366976 70.799797
v 160.759659 9.207322 78.306946
v 161.227264 14.590005 74.004723
v 153.650742 25.259596 57.759460
v 168.141953 18.218555 88.025482
v 158.019409 34.405991 40.153782
v 157.393555 36.062855 42.256908
v 158.370285 26.326189 52.026573
v 180.124146 10.860482 56.155510
v 161.797775 30.291056 72.761330
v 164.787140 23.115578 82.938011
v 153.762955 31.423676 63.443596
v 163.373138 28.412497 20.347891
v 162.214142 31.334551 37.032169
v 164.762558 34.640816 65.176445
v 164.024918 37.387627 46.517567
v 161.226212 32.963577 28.231815
v 166.446732 -32.698353 23.802582
v 177.265015 -33.878395 22.971983
v 187.100540 -26.385553 9.232390
v 179.086349 -21.515181 5.821330
v 195.356735 -34.839123 79.335144
v 177.355576 -15.197173 2.262761
v 177.054611 -2.351877 -0.510101
v 183.372742 -16.529291 40.378422
v 180.606537 -16.162975 49.682098
v 190.078796 -5.465446 36.267357
v 178.963989 -23.259039 19.457106
v 180.595856 -9.057000 55.138897
v 196.937317 -15.874211 98.830536
v 166.025497 23.702545 11.167964
v 167.816147 15.567421 9.791272
v 169.135864 -7.528615 6.355748
v 169.032059 16.875027 4.733221
v 178.307816 8.855288 -0.411188
v 177.718597 7.871135 6.571692
v 177.007965 -7.130810 5.926261
v 175.675339 7.017110 67.104149
v 175.579544 -3.871562 67.412643
v 165.300858 22.914303 13.350487
v 180.944000 21.441431 4.739620
v 181.770782 21.785164 20.556725
v 168.798462 25.796963 11.268041
v 179.989639 24.372852 24.946547
v 179.435501 24.975670 31.053888
v 180.214615 20.027643 49.392754
v 166.134201 33.856232 25.541691
v 177.252213 34.721767 24.705282
v 179.915558 37.728943 35.466640
v 183.470612 38.046188 61.849716
v 192.305099 33.342285 81.078384
v 216.711258 -38.848579 55.462662
v 193.414780 -37.994431 68.358330
v 195.009995 -26.785902 90.808876
v 191.582336 -16.646221 2.981266
v 190.836594 -21.344137 5.473800
v 190.291977 -3.985057 -0.077491
v 189.355484 -5.571207 38.238281
v 180.630325 -18.924006 9.531208
v 194.555328 -22.743195 19.181868
v 192.826202 -5.132259 33.660564
v 194.278351 -4.992538 5.479524
v 193.768707 -18.396879 9.136886
v 193.451874 7.127014 7.658240
v 195.557022 7.996593 101.058777
v 195.654709 -3.518906 101.734589
v 194.275604 20.747429 4.982556
v 195.504379 17.602034 21.360950
v 198.963608 20.058542 97.493362
v 192.006058 19.256485 24.210997
v 188.812820 16.801094 37.269318
v 188.108978 11.396615 39.365112
v 197.221741 29.403452 89.038177
v 194.252777 34.679947 24.842941
v 216.447845 -36.932243 82.883835
v 213.654053 -32.733746 90.412407
v 211.875076 5.511556 3.253348
v 208.903885 -23.838661 21.073111
v 211.135040 -4.587920 11.357971
v 207.585159 -4.419561 9.294418
v 204.819000 -16.392120 11.785652
v 212.360092 -24.096058 97.683098
v 203.563095 5.413897 10.871325
v 206.083008 14.796140 23.178511
v 208.685303 -4.319173 104.472549
v 210.999222 -16.878393 102.006371
v 209.073105 8.306490 103.983856
v 200.763657 17.906631 5.192045
v 189.446472 13.047215 38.330593
v 212.095428 20.250814 101.298370
v 213.791931 28.663902 96.414177
v 204.993301 25.605461 12.591282
v 213.973907 37.471470 37.744717
v 207.795959 39.690449 68.049149
v 208.464005 36.518833 82.281303
v 213.495667 32.971237 91.842888
v 241.422241 -31.768955 36.383438
v 233.203598 -22.518806 16.575481
v 224.758514 -33.273693 91.410400
v 212.697815 -12.286343 38.343853
v 224.515091 -24.666681 32.656338
v 223.194870 -23.410892 22.911701
v 225.268784 -4.668334 14.411385
v 224.010315 0.330175 101.887321
v 212.292862 6.105228 37.328384
v 221.064514 -3.827515 45.632305
v 234.328461 19.602388 14.503100
v 220.535141 6.523637 40.497414
v 226.496078 6.616511 17.151030
v 242.891861 23.275948 19.373611
v 237.929611 35.752014 39.537464
v 245.406708 39.828075 68.348534
v 251.563324 37.685535 52.711346
v 266.799591 37.749813 67.981941
v 251.552551 32.086784 35.442642
v 264.377472 37.194500 81.493271
v 247.850128 38.818321 81.429756
v 218.453491 39.338097 77.909851
v 224.933640 34.995403 90.963799
v 250.723251 -38.876007 67.482826
v 249.145035 -38.655025 82.485191
v 239.021530 -33.027199 93.818214
v 224.879318 -20.041077 98.261208
v 237.788986 -17.120338 96.743431
v 260.416809 -17.408678 19.735039
v 237.677734 -25.952147 36.287354
v 232.146530 -2.651731 51.117302
v 237.596756 -22.566046 24.315710
v 239.513535 -1.942069 16.752155
v 252.900146 -26.813568 36.782784
v 234.798248 -3.926611 53.082321
v 239.265747 -14.333012 52.950348
v 253.781754 -27.802986 50.495815
v 230.514603 -16.863119 98.071518
v 233.945251 -3.113520 98.164993
v 239.071136 6.787184 19.202333
v 240.103531 15.833089 33.389290
v 235.077560 6.764036 98.013191
v 275.309784 10.274608 24.240707
v 275.921417 -16.609859 25.938963
v 273.836365 18.296389 26.246824
v 262.782959 19.114944 22.086918
v 240.810242 24.049288 97.606361
v 224.788803 25.265799 98.450050
v 238.888245 34.027832 93.388680
v 254.179688 -28.701721 29.295279
v 267.229919 -36.758514 58.672558
v 260.996613 -33.743351 95.829765
v 265.571991 -22.852385 25.397327
v 253.173767 -4.604043 20.241196
v 252.135544 -19.589046 24.622126
v 240.457047 -5.223107 93.187714
v 254.235855 -28.899500 96.206284
v 252.596970 -25.985922 94.404922
v 263.568634 6.860573 26.821756
v 239.121140 6.140306 51.281944
v 243.743973 -0.630969 62.268497
v 246.451660 7.844215 60.748276
v 238.550980 8.354218 96.400284
v 256.329590 24.416311 95.756882
v 243.836212 8.771259 93.096748
v 253.262756 18.394129 35.827396
v 256.640350 32.244320 95.134270
v 267.637909 -34.514236 92.392403
v 265.359314 -31.398548 95.919594
v 267.594055 -25.043072 37.067970
v 268.009674 -29.263239 50.073112
v 266.744995 -4.568094 24.563848
v 264.553711 -16.996944 27.101320
v 247.222443 -4.692109 69.258904
v 256.412781 -23.559965 70.595795
v 263.890747 -28.292027 69.382874
v 255.351654 -23.784100 83.046661
v 269.863678 -31.713646 83.213249
v 249.850464 9.172609 70.441406
v 246.613281 -5.183877 81.824196
v 249.019730 8.480687 82.256248
v 266.851532 18.949776 38.071972
v 257.387787 20.246273 66.239899
v 265.277557 22.061754 82.526627
v 265.170959 23.583344 70.618675
v 264.041748 21.936850 73.436157
v 268.074310 23.716259 45.505733
v 258.830627 24.160439 55.233559
v 267.961029 25.889256 50.833302
v 261.308319 23.599512 93.764412
v 265.262421 22.925154 25.859243
v 283.584015 -28.476812 44.159863
v 278.581818 -33.266304 55.664082
v 273.999908 -36.449516 75.651695
v 281.844910 -23.650791 35.768017
v 279.889252 -0.531711 32.662437
v 280.036621 -27.479609 48.478092
v 280.628845 -17.969412 39.304203
v 283.038666 -5.289636 35.203140
v 276.904572 -33.914783 61.819626
v 284.425476 8.985814 36.551437
v 282.071045 7.784713 35.747993
v 280.240814 29.279745 49.582706
v 275.206116 31.902605 66.204880
v 267.932373 24.421852 77.486214
v 266.708954 24.990623 88.443481
v 267.304688 31.176582 90.424797
v 283.013336 29.107731 42.825466
v 279.570374 33.191151 54.282768
v 271.624237 34.023338 77.939651
v 283.909180 -18.130753 32.349171
v 285.211975 -3.701562 35.788193
v 285.316345 -19.218828 35.390457
v 283.527466 17.646458 32.645153
v 284.250885 22.650688 36.457989
vn -0.6134 -0.7887 -0.0419
vn -0.2845 -0.9534 -0.1001
vn -0.3712 -0.9021 -0.2203
vn -0.8747 0.4825 -0.0452
vn -0.9727 0.0371 -0.2293
vn -0.9616 0.0094 -0.2742
vn -0.9399 0.2554 -0.2267
vn -0.2000 0.9795 0.0219
vn -0.7823 0.6224 0.0238
vn 0.1247 0.6149 0.7787
vn -0.9761 0.0406 -0.2136
vn -0.9398 0.2055 -0.2730
vn -0.9754 -0.2161 -0.0439
vn -0.9533 0.0435 -0.2989
vn -0.5544 -0.8315 0.0353
vn -0.3919 -0.9086 0.1440
vn -0.5066 -0.7558 0.4148
vn -0.9736 -0.2276 -0.0192
vn -0.4890 -0.7666 0.4162
vn -0.3235 -0.8270 0.4598
vn -0.2056 -0.9039 0.3750
vn -0.1019 0.8943 -0.4357
vn -0.0345 0.9041 -0.4259
vn -0.5633 0.7676 -0.3057
vn -0.6022 0.7717 -0.2045
vn -0.7756 0.1865 -0.6031
vn -0.9536 -0.0008 -0.3010
vn -0.6649 0.2517 -0.7032
vn -0.2583 0.4925 -0.8311
vn -0.0546 0.3044 -0.9510
vn -0.6543 -0.5235 0.5458
vn -0.4250 -0.4670 0.7754
vn -0.4413 -0.4510 0.7758
vn -0.2652 -0.7074 0.6552
vn -0.9263 0.0058 -0.3767
vn -0.9182 0.1238 0.3763
vn -0.8593 0.0009 -0.5115
vn 0.2981 -0.0989 -0.9494
vn 0.3913 -0.1285 -0.9113
vn 0.1102 0.2102 -0.9714
vn -0.2366 0.7579 -0.6080
vn -0.4255 -0.2957 0.8553
vn -0.4262 0.0271 0.9042
vn -0.4503 -0.2366 0.8610
vn -0.4191 0.0412 0.9070
vn -0.8854 -0.1732 -0.4313
vn -0.1300 -0.3532 -0.9264
vn -0.1606 -0.1159 -0.9802
vn -0.1653 -0.8580 -0.4864
vn -0.2420 -0.5929 -0.7681
vn 0.2412 -0.3849 -0.8909
vn -0.3963 0.3725 0.8391
vn -0.3845 0.3381 0.8590
vn -0.9555 -0.0657 -0.2877
vn -0.1757 -0.8551 -0.4878
vn -0.9615 -0.0149 -0.2744
vn -0.4351 -0.7503 -0.4978
vn -0.4673 -0.8231 -0.3227
vn -0.4372 -0.7482 -0.4991
vn -0.3658 0.6579 0.6583
vn -0.3818 0.5272 0.7592
vn -0.4146 0.6819 0.6026
vn -0.8211 0.5706 -0.0158
vn -0.9679 -0.0544 -0.2452
vn -0.5326 -0.8392 0.1100
vn -0.7136 -0.5888 -0.3796
vn -0.2997 0.9414 0.1548
vn -0.2858 0.9464 0.1506
vn -0.9645 0.0026 -0.2641
vn -0.0478 0.9725 -0.2280
vn -0.3913 0.8105 0.4359
vn -0.3142 0.8713 0.3769
vn -0.2405 -0.8170 -0.5241
vn -0.1322 -0.8234 -0.5518
vn -0.1282 -0.9273 -0.3517
vn -0.1648 -0.7333 -0.6597
vn -0.1361 -0.8256 -0.5476
vn -0.1311 -0.9224 -0.3633
vn -0.1658 -0.9841 -0.0638
vn -0.1585 -0.9165 0.3673
vn -0.4061 -0.4404 -0.8007
vn -0.3146 -0.5298 -0.7876
vn -0.2270 -0.2106 -0.9509
vn -0.5375 0.8369 0.1029
vn -0.4795 0.8600 -0.1748
vn -0.4785 0.8602 -0.1761
vn -0.8657 -0.2224 -0.4485
vn -0.7472 0.4584 0.4812
vn -0.9823 -0.1869 -0.0092
vn -0.0708 0.9538 -0.2919
vn -0.5018 -0.8054 -0.3155
vn -0.0414 -0.6724 0.7391
vn 0.2759 0.7713 0.5736
vn -0.7211 0.6339 -0.2798
vn -0.5566 0.6997 -0.4479
vn -0.4143 0.5539 -0.7222
vn -0.2731 -0.5218 0.8082
vn -0.9610 0.0071 -0.2764
vn 0.2127 -0.1319 0.9682
vn 0.1536 -0.1319 0.9793
vn -0.8746 0.0675 -0.4802
vn -0.4257 0.0855 -0.9008
vn -0.3755 0.0502 -0.9254
vn -0.8098 0.0180 -0.5864
vn -0.7679 0.3864 0.5110
vn 0.2123 -0.1319 0.9683
vn -0.0522 0.9981 -0.0323
vn -0.4949 0.2773 -0.8235
vn 0.0567 -0.0456 0.9973
vn -0.6205 -0.2029 -0.7575
vn -0.7626 -0.3622 -0.5360
vn -0.5219 -0.2536 -0.8144
vn -0.7417 0.4531 -0.4946
vn -0.7933 -0.0103 -0.6087
vn -0.9228 -0.1426 -0.3579
vn -0.9530 0.0470 -0.2994
vn -0.1535 0.4016 -0.9028
vn -0.4561 -0.5177 0.7238
vn -0.3748 -0.5050 0.7775
vn -0.3126 -0.6950 0.6475
vn -0.2668 -0.6434 0.7175
vn -0.8963 0.2319 -0.3780
vn -0.5039 0.6918 -0.5172
vn -0.3807 0.5399 -0.7507
vn -0.2192 0.5728 -0.7899
vn -0.3353 -0.7835 0.5232
vn -0.2428 -0.8756 0.4176
vn -0.3301 -0.8357 0.4389
vn -0.2982 -0.9435 0.1445
vn -0.2544 -0.9644 0.0721
vn -0.5753 -0.6702 -0.4690
vn -0.2587 -0.5718 -0.7785
vn -0.2983 -0.8797 -0.3703
vn -0.4144 0.7572 -0.5049
vn -0.2738 0.9436 -0.1864
vn -0.1047 0.8575 -0.5037
vn -0.1450 0.9732 -0.1784
vn -0.0936 0.9646 -0.2464
vn 0.0010 0.8327 -0.5537
vn -0.4047 -0.8871 -0.2221
vn -0.0273 0.9996 -0.0083
vn -0.1512 0.9771 0.1498
vn -0.2042 0.8815 0.4257
vn -0.2409 0.7585 0.6056
vn -0.0214 -0.9989 -0.0412
vn 0.0401 -0.9793 -0.1985
vn -0.0191 -0.9993 0.0318
vn -0.1075 -0.9503 0.2922
vn -0.2452 -0.7083 0.6620
vn -0.1754 -0.8083 0.5620
vn -0.0061 -0.4920 -0.8706
vn -0.0153 -0.5903 -0.8070
vn -0.0194 -0.4662 -0.8845
vn 0.0059 -0.2109 -0.9775
vn 0.0254 -0.2323 -0.9723
vn -0.8750 0.4833 0.0289
vn 0.3021 0.2729 0.9134
vn -0.9330 0.2182 -0.2860
vn -0.8471 0.3926 -0.3581
vn -0.0431 -0.6572 -0.7525
vn 0.6257 0.6016 0.4966
vn 0.8727 -0.4839 -0.0648
vn -0.0234 0.9176 0.3968
vn 0.2338 0.5846 -0.7769
vn -0.0346 0.6327 -0.7737
vn 0.9632 0.2254 -0.1466
vn -0.7597 0.6147 -0.2121
vn 0.4501 0.5641 0.6922
vn -0.7151 0.6611 -0.2270
vn -0.5099 0.7372 -0.4432
vn 0.3827 0.8212 0.4233
vn -0.4918 0.7118 -0.5015
vn -0.2642 -0.5405 0.7988
vn 0.0333 0.0051 -0.9994
vn 0.9040 0.1560 -0.3980
vn -0.0473 -0.1395 -0.9891
vn -0.0110 0.2892 0.9572
vn -0.0248 0.9168 0.3986
vn 0.0184 0.2625 0.9647
vn -0.0707 -0.0395 0.9967
vn 0.0469 -0.1736 0.9837
vn -0.9260 -0.0025 -0.3774
vn -0.9261 -0.0027 -0.3772
vn -0.8880 0.0024 -0.4598
vn -0.3039 0.0608 0.9507
vn -0.2970 -0.3237 0.8983
vn -0.2728 -0.2469 0.9299
vn -0.3005 0.0533 0.9523
vn 0.0363 0.3720 -0.9275
vn 0.2034 0.1647 -0.9652
vn -0.3877 -0.7010 0.5986
vn -0.1815 -0.7164 0.6736
vn -0.2408 -0.6523 0.7187
vn -0.1163 -0.8862 0.4485
vn -0.0795 -0.7862 0.6129
vn -0.2921 0.3460 0.8916
vn -0.3449 -0.8631 0.3688
vn -0.3048 -0.8369 0.4546
vn -0.2962 -0.9378 0.1808
vn -0.2021 -0.9587 0.2000
vn -0.3923 0.8988 0.1956
vn -0.6622 -0.7492 0.0139
vn -0.3916 -0.8821 -0.2616
vn -0.8579 -0.2996 -0.4175
vn -0.9020 -0.0377 -0.4301
vn -0.7999 -0.5871 -0.1244
vn -0.2589 0.6049 0.7530
vn -0.2940 0.3517 0.8887
vn -0.2641 0.6196 0.7392
vn 0.0065 0.8332 -0.5530
vn 0.0530 0.8175 -0.5734
vn 0.0046 0.9628 -0.2702
vn 0.2592 -0.3784 -0.8886
vn -0.1216 0.9498 0.2882
vn -0.2575 0.7933 0.5516
vn -0.1436 -0.9441 0.2968
vn -0.2427 -0.7975 0.5524
vn -0.1610 -0.8862 0.4344
vn 0.2369 -0.2053 -0.9496
vn -0.7536 -0.5355 -0.3811
vn 0.0179 0.9181 0.3959
vn -0.3851 -0.4722 0.7929
vn -0.7123 0.4027 -0.5749
vn -0.4275 -0.5906 0.6844
vn -0.0456 0.9707 0.2361
vn 0.0819 -0.4566 -0.8859
vn -0.2763 0.2627 0.9244
vn -0.2851 0.6827 0.6728
vn -0.3679 -0.2257 -0.9020
vn -0.2689 0.2554 0.9287
vn -0.1913 -0.6487 0.7366
vn -0.3263 -0.1888 0.9262
vn -0.2564 -0.2544 0.9325
vn -0.9370 -0.0458 -0.3463
vn -0.9554 -0.0083 -0.2951
vn -0.6583 -0.4645 -0.5923
vn -0.6348 -0.3085 -0.7084
vn -0.6007 -0.2720 -0.7518
vn -0.0412 -0.7109 0.7021
vn -0.9695 -0.0910 0.2277
vn -0.9589 -0.1556 0.2372
vn -0.3002 -0.4860 -0.8208
vn -0.1122 -0.4638 -0.8788
vn 0.6683 -0.7439 -0.0022
vn -0.5270 -0.8455 -0.0860
vn 0.0241 -0.4779 -0.8781
vn 0.0350 -0.6396 -0.7679
vn -0.2260 -0.7002 -0.6772
vn -0.1416 0.4237 0.8946
vn -0.7624 0.1803 -0.6215
vn -0.2137 -0.2445 0.9458
vn -0.2210 -0.5520 0.8040
vn -0.2300 -0.2281 0.9461
vn -0.2124 0.0555 0.9756
vn -0.2028 0.0441 0.9782
vn 0.1112 0.1820 -0.9770
vn 0.0599 0.2064 -0.9766
vn -0.9825 -0.1682 0.0805
vn -0.1127 -0.7939 0.5975
vn -0.2995 -0.7358 0.6074
vn -0.6391 -0.6769 -0.3651
vn -0.3177 -0.7216 0.6151
vn -0.4526 0.7072 0.5431
vn 0.1578 -0.1948 0.9681
vn -0.3155 -0.3071 -0.8979
vn -0.8622 -0.5054 -0.0358
vn 0.7600 -0.1029 0.6418
vn 0.2565 0.9066 0.3349
vn -0.8857 -0.2585 -0.3856
vn 0.3645 0.0377 0.9304
vn -0.5902 -0.7548 -0.2863
vn 0.0509 0.5634 0.8246
vn -0.2662 0.3416 0.9014
vn -0.2098 0.2647 0.9412
vn -0.2442 0.5232 0.8164
vn 0.0366 0.8181 -0.5739
vn 0.0238 0.9690 -0.2460
vn 0.0123 0.9974 -0.0705
vn -0.0667 0.9978 -0.0030
vn -0.2056 0.9246 0.3207
vn -0.1218 0.9676 0.2213
vn -0.2683 0.7872 0.5553
vn -0.2048 0.8776 0.4334
vn -0.2673 0.6926 0.6699
vn -0.2998 0.6087 0.7346
vn 0.1156 -0.9045 -0.4105
vn 0.0839 -0.9648 -0.2494
vn 0.1476 -0.8712 -0.4681
vn -0.0844 -0.8832 0.4612
vn -0.0993 -0.6495 0.7539
vn 0.1714 -0.6674 -0.7247
vn 0.2092 -0.4840 -0.8497
vn -0.7571 0.5702 0.3190
vn -0.6864 0.3895 0.6142
vn 0.2233 0.2100 -0.9519
vn -0.3392 -0.5248 0.7807
vn 0.9806 -0.1662 -0.1042
vn 0.8557 0.4124 -0.3126
vn 0.4538 0.6914 -0.5622
vn 0.4949 0.8681 0.0387
vn -0.0469 0.9899 0.1339
vn 0.4494 0.7716 0.4502
vn -0.1281 0.4214 0.8978
vn 0.4880 0.3804 0.7856
vn -0.1850 0.4598 0.8686
vn -0.3050 0.6470 0.6989
vn 0.2122 0.8158 0.5379
vn -0.3291 0.5906 0.7368
vn -0.4720 0.2828 0.8350
vn -0.2394 -0.5317 0.8124
vn 0.2089 -0.1512 0.9662
vn -0.4937 -0.7353 -0.4643
vn -0.7906 -0.3980 0.4653
vn -0.1062 -0.5500 0.8284
vn -0.1368 -0.9743 -0.1792
vn -0.4395 -0.5484 0.7114
vn 0.9984 0.0191 -0.0524
vn -0.2783 0.0701 0.9579
vn 0.6715 -0.0261 -0.7405
vn 0.0358 -0.9487 -0.3140
vn 0.9171 0.3525 -0.1860
vn -0.3969 0.5091 0.7637
vn 0.1704 0.5410 -0.8236
vn 0.1564 0.0334 0.9871
vn 0.2337 0.3513 -0.9066
vn 0.2643 -0.7658 -0.5863
vn 0.3030 -0.2762 0.9121
vn 0.3462 -0.4026 -0.8474
vn 0.0488 -0.5107 0.8584
vn 0.8124 -0.2933 -0.5040
vn -0.0969 -0.6976 0.7099
vn -0.3964 -0.9121 -0.1048
vn 0.7524 -0.1345 0.6448
vn 0.2207 0.1605 0.9621
vn 0.2792 0.5812 -0.7644
vn 0.1781 0.6293 -0.7565
vn 0.1427 0.8511 -0.5053
vn 0.1756 0.6125 -0.7707
vn 0.1453 0.8570 -0.4945
vn 0.0928 0.9344 -0.3440
vn -0.0031 0.9973 -0.0736
vn 0.0419 0.9920 -0.1194
vn 0.0869 0.9688 -0.2321
vn 0.0945 0.9906 -0.0985
vn 0.1611 0.9388 -0.3045
vn 0.0974 0.9935 0.0585
vn 0.0975 0.9935 0.0583
vn -0.0040 0.9992 0.0400
vn 0.0086 0.9971 0.0754
vn -0.1736 0.9595 0.2220
vn -0.0894 0.9175 0.3875
vn -0.0752 0.7233 0.6864
vn -0.0148 -0.9991 0.0395
vn -0.0502 -0.9871 0.1517
vn -0.0152 -0.9998 0.0131
vn -0.0591 -0.8952 0.4417
vn -0.0429 -0.9096 0.4134
vn 0.1333 -0.4566 0.8796
vn 0.0626 -0.5041 0.8614
vn -0.5301 0.0747 -0.8446
vn 0.2043 -0.4515 0.8686
vn 0.0992 -0.3041 -0.9475
vn -0.1602 -0.1905 0.9685
vn 0.1952 -0.5287 -0.8260
vn 0.2297 -0.1987 -0.9528
vn 0.0639 0.9908 0.1190
vn 0.2705 0.5618 -0.7818
vn 0.3274 0.5379 -0.7768
vn -0.0827 0.9588 0.2718
vn -0.2252 0.4230 0.8777
vn -0.1112 0.3513 0.9296
vn 0.0456 0.9613 0.2716
vn 0.6568 0.5096 -0.5557
vn 0.8616 0.3742 -0.3431
vn 0.5334 0.6691 -0.5174
vn 0.0541 0.9962 0.0684
vn 0.1649 -0.2861 0.9439
vn 0.1899 -0.2806 0.9408
vn 0.2802 -0.2053 0.9377
vn 0.1848 -0.0336 0.9822
vn 0.1974 -0.0559 0.9787
vn 0.1664 -0.2628 0.9504
vn 0.1663 -0.2378 0.9570
vn -0.6180 0.1290 -0.7755
vn -0.2076 -0.2094 0.9555
vn -0.4686 -0.2202 0.8555
vn -0.1543 -0.2172 0.9639
vn -0.1047 -0.2737 0.9561
vn -0.1103 -0.4462 -0.8881
vn 0.3672 -0.7213 -0.5873
vn 0.3432 -0.0249 0.9389
vn 0.3151 -0.0151 -0.9489
vn 0.3733 -0.0500 -0.9264
vn 0.3559 0.2877 -0.8891
vn 0.2954 0.1905 -0.9362
vn 0.2483 0.3311 -0.9103
vn 0.4603 -0.8804 0.1140
vn -0.0767 -0.8382 0.5400
vn 0.1142 0.0975 0.9887
vn 0.3825 -0.1053 0.9179
vn -0.0047 0.5028 0.8644
vn 0.0753 0.3416 0.9368
vn 0.0415 0.6089 0.7922
vn -0.0948 0.6079 0.7883
vn 0.0785 0.4009 0.9127
vn -0.1339 0.9185 0.3721
vn 0.0120 0.9506 0.3103
vn -0.0260 0.9345 0.3549
vn 0.0578 -0.9559 -0.2879
vn 0.0500 -0.9883 -0.1438
vn 0.1187 -0.9712 -0.2067
vn -0.0661 -0.9159 0.3958
vn 0.4256 -0.4537 -0.7829
vn -0.3026 -0.3046 0.9031
vn -0.1715 0.1653 -0.9712
vn -0.0141 -0.9082 -0.4183
vn 0.1666 -0.7505 -0.6395
vn 0.2032 -0.6069 -0.7684
vn -0.1663 0.3531 0.9207
vn -0.1828 0.8402 0.5106
vn -0.0784 0.2847 0.9554
vn 0.6234 0.0923 0.7765
vn 0.6298 0.1424 0.7636
vn 0.1995 -0.0377 0.9792
vn 0.1546 -0.0044 0.9880
vn 0.1776 -0.0510 0.9828
vn 0.1828 0.2114 0.9602
vn 0.1350 0.1938 0.9717
vn 0.8842 0.0119 0.4669
vn 0.4783 0.6405 0.6008
vn 0.5204 0.6098 0.5977
vn 0.2779 0.2173 0.9357
vn 0.3265 0.2033 0.9231
vn -0.2850 -0.2724 0.9190
vn -0.2871 -0.2676 0.9198
vn 0.4487 -0.3404 -0.8263
vn 0.6349 0.2817 -0.7194
vn 0.7540 -0.4149 -0.5092
vn 0.7318 -0.3398 -0.5908
vn 0.7546 -0.5934 -0.2800
vn 0.2950 0.4695 -0.8322
vn 0.4344 -0.0360 0.9000
vn 0.5811 -0.1093 0.8065
vn 0.5462 -0.5804 0.6040
vn 0.1187 -0.0160 0.9928
vn 0.5330 -0.1233 0.8371
vn 0.4849 -0.5083 0.7117
vn 0.0654 -0.8435 0.5331
vn -0.2071 -0.7103 0.6727
vn 0.6152 -0.7069 -0.3491
vn 0.2381 -0.9161 -0.3227
vn 0.2244 0.5466 -0.8068
vn 0.1163 0.0742 0.9904
vn 0.0768 0.8562 -0.5109
vn 0.0519 0.9130 0.4046
vn -0.0526 0.3802 0.9234
vn 0.1427 -0.9893 0.0296
vn 0.0485 -0.9505 0.3068
vn -0.0959 -0.2095 0.9731
vn -0.0715 -0.2888 0.9547
vn 0.5909 -0.6391 0.4924
vn 0.0121 -0.0607 0.9981
vn 0.3167 -0.8695 -0.3791
vn -0.1125 0.8511 0.5127
vn 0.1038 0.9925 0.0649
vn -0.1197 0.9432 0.3099
vn -0.2914 0.2870 0.9125
vn -0.2775 0.7044 0.6533
vn -0.2371 0.2343 0.9428
vn 0.8875 0.4148 -0.2007
vn 0.8857 0.4170 -0.2040
vn 0.4908 0.8373 -0.2410
vn 0.1012 0.9945 -0.0284
vn 0.1509 0.5799 0.8006
vn 0.8174 0.4952 0.2942
vn 0.4586 0.8450 0.2750
vn 0.3769 0.9196 0.1108
vn -0.2922 -0.2629 0.9195
vn 0.8591 -0.1204 -0.4974
vn 0.8957 0.4406 0.0607
vn 0.9838 -0.1745 0.0409
vn 0.9800 -0.1907 0.0577
vn 0.9020 -0.3366 -0.2702
vn 0.8997 0.4282 0.0844
vn 0.5408 0.8389 0.0612
vn 0.8030 0.4059 0.4364
vn 0.8609 -0.2049 0.4657
vn 0.8873 -0.1698 0.4288
vn 0.4794 0.8775 0.0101
vn -0.0953 -0.6642 0.7415
vn 0.7766 -0.6007 -0.1900
vn 0.6411 -0.7675 0.0001
vn 0.5718 -0.6011 -0.5583
vn 0.6760 -0.7324 -0.0818
vn 0.6785 -0.7195 -0.1485
vn 0.4615 -0.8552 -0.2359
vn 0.7706 -0.6257 -0.1215
vn 0.4384 -0.0290 0.8983
vn 0.6898 -0.6651 0.2860
vn 0.6082 -0.7306 0.3104
vn 0.2892 -0.3803 0.8785
vn 0.6056 -0.7312 0.3140
vn 0.2305 0.6048 -0.7623
vn -0.0559 -0.8363 0.5454
vn 0.4913 -0.8390 -0.2339
vn 0.1408 -0.9855 -0.0950
vn 0.3792 0.0584 0.9235
vn 0.1702 0.8225 -0.5427
vn 0.0888 0.9191 0.3839
vn 0.1186 -0.9140 -0.3879
vn 0.2708 -0.9584 -0.0905
vn 0.2078 -0.9318 -0.2976
vn 0.0842 -0.9963 -0.0154
vn 0.1316 -0.9778 0.1630
vn 0.3097 -0.6044 0.7340
vn 0.2931 -0.8013 -0.5216
vn 0.3437 -0.5008 -0.7944
vn -0.6879 0.4477 0.5713
vn -0.0991 0.9456 0.3100
vn -0.4517 0.6338 0.6279
vn -0.3385 0.3472 0.8746
vn -0.2776 0.3031 0.9116
vn -0.5631 0.2595 0.7846
vn 0.4174 0.9077 0.0434
vn -0.0788 0.9050 0.4180
vn 0.4177 0.9075 0.0441
vn 0.9044 0.2895 0.3134
vn 0.8926 0.3716 0.2555
vn 0.8996 0.3117 0.3059
vn -0.7574 -0.3227 0.5677
vn -0.3570 -0.4640 0.8107
vn 0.3301 0.5469 -0.7694
vn -0.3781 -0.7498 0.5430
vn -0.0943 -0.3245 0.9412
vn -0.1278 -0.3661 0.9218
vn 0.2821 -0.8862 0.3675
vn -0.0318 -0.5447 0.8380
vn 0.6383 -0.7698 0.0003
vn 0.2808 -0.9313 0.2320
vn 0.5868 -0.8068 -0.0687
vn 0.7761 -0.6193 0.1188
vn 0.4940 -0.8208 0.2868
vn 0.5531 -0.7966 -0.2438
vn 0.6182 -0.7773 -0.1169
vn 0.4092 0.0769 0.9092
vn 0.1994 0.8350 -0.5129
vn 0.3857 0.6605 -0.6442
vn 0.1676 0.9378 -0.3041
vn 0.1573 0.9442 -0.2893
vn 0.1654 0.9716 -0.1691
vn 0.4455 0.8877 0.1163
vn 0.2901 0.8350 0.4676
vn 0.5156 0.7793 0.3561
vn 0.4040 -0.6107 -0.6810
vn 0.4363 -0.5860 -0.6828
vn -0.8777 0.3599 0.3164
vn -0.6481 0.7343 0.2020
vn 0.9281 -0.0033 0.3723
vn -0.4740 0.3512 0.8074
vn 0.7264 -0.0269 -0.6867
vn 0.6274 0.0131 -0.7786
vn -0.6973 -0.0813 0.7121
vn -0.2941 -0.0615 0.9538
vn -0.2101 -0.0717 0.9750
vn 0.5400 0.2962 -0.7878
vn 0.4691 0.5982 -0.6497
vn 0.7959 -0.5934 0.1197
vn 0.9384 -0.1467 0.3129
vn 0.9414 -0.1817 0.2843
vn 0.9276 -0.1954 0.3184
vn 0.7097 -0.2760 0.6482
vn 0.4434 0.8886 0.1177
vn 0.8705 -0.4544 0.1893
vn 0.7515 0.6028 0.2683
vn 0.8897 0.2150 0.4027
vn 0.8058 0.0143 0.5920
vn 0.0072 0.0257 -0.9996
vn 0.9582 0.0142 0.2856
vn 0.7363 -0.5977 0.3173
vn 0.9051 -0.1977 0.3764
vn 0.9354 -0.1320 0.3281
vn -0.4515 0.5812 -0.6771
vn 0.9116 0.0336 -0.4097
vn 0.9794 0.0121 -0.2017
vn 0.6761 -0.5694 -0.4676
vn 0.6584 -0.5586 -0.5045
usemtl material_0.005
s off
f 1//1 2//1 3//1
f 1//2 3//2 4//2
f 4//3 3//3 5//3
f 6//4 7//4 5//4
f 6//5 8//5 7//5
f 9//6 7//6 8//6
f 10//7 6//7 5//7
f 11//8 6//8 10//8
f 12//9 6//9 11//9
f 8//10 6//10 12//10
f 10//11 5//11 3//11
f 10//12 3//12 2//12
f 13//13 2//13 14//13
f 13//14 10//14 2//14
f 15//15 2//15 1//15
f 16//16 15//16 1//16
f 17//17 14//17 2//17
f 18//18 13//18 14//18
f 17//19 2//19 15//19
f 19//20 17//20 15//20
f 19//21 15//21 16//21
f 20//22 10//22 13//22
f 21//23 10//23 20//23
f 21//24 22//24 10//24
f 22//25 11//25 10//25
f 23//26 20//26 13//26
f 24//27 13//27 18//27
f 23//28 13//28 24//28
f 25//29 20//29 23//29
f 25//30 21//30 20//30
f 17//31 18//31 14//31
f 26//32 18//32 17//32
f 27//33 26//33 17//33
f 27//34 17//34 19//34
f 28//35 23//35 24//35
f 29//36 28//36 24//36
f 30//37 23//37 28//37
f 30//38 31//38 23//38
f 32//39 23//39 31//39
f 33//40 23//40 32//40
f 25//41 23//41 33//41
f 34//42 24//42 18//42
f 29//43 24//43 34//43
f 34//44 18//44 26//44
f 35//45 29//45 34//45
f 28//46 36//46 30//46
f 37//47 31//47 30//47
f 37//48 32//48 31//48
f 38//49 30//49 39//49
f 38//50 37//50 30//50
f 37//51 33//51 32//51
f 40//52 28//52 29//52
f 40//53 29//53 35//53
f 41//54 30//54 36//54
f 41//55 39//55 30//55
f 36//56 42//56 41//56
f 43//57 39//57 41//57
f 44//58 38//58 39//58
f 43//59 44//59 39//59
f 45//60 36//60 28//60
f 46//61 28//61 40//61
f 46//62 45//62 28//62
f 47//63 42//63 36//63
f 48//64 41//64 42//64
f 49//65 41//65 48//65
f 49//66 43//66 41//66
f 50//67 42//67 47//67
f 50//68 51//68 42//68
f 52//69 48//69 42//69
f 51//70 52//70 42//70
f 45//71 47//71 36//71
f 45//72 50//72 47//72
f 7//73 53//73 5//73
f 54//74 53//74 7//74
f 54//75 5//75 53//75
f 55//76 7//76 56//76
f 55//77 54//77 7//77
f 54//78 4//78 5//78
f 16//79 1//79 4//79
f 57//80 19//80 16//80
f 58//81 7//81 9//81
f 58//82 56//82 7//82
f 59//83 58//83 9//83
f 60//84 12//84 11//84
f 61//85 11//85 22//85
f 61//86 60//86 11//86
f 62//87 8//88 12//88
f 63//89 12//90 60//90
f 62//91 12//92 63//93
f 25//94 22//94 21//94
f 64//95 22//95 25//95
f 64//96 61//96 22//96
f 65//97 26//97 27//97
f 66//98 9//98 8//98
f 67//99 8//99 68//99
f 67//100 66//100 8//100
f 69//101 9//101 66//101
f 70//102 9//102 69//102
f 70//103 59//103 9//103
f 62//104 68//105 8//105
f 71//106 67//106 68//106
f 72//107 68//107 62//108
f 71//109 68//109 72//109
f 37//110 25//110 33//110
f 38//111 25//111 37//111
f 73//112 25//112 38//112
f 74//113 64//113 25//113
f 73//114 74//114 25//114
f 75//115 66//115 67//115
f 75//116 48//116 66//116
f 76//117 70//117 69//117
f 77//118 75//119 67//119
f 77//120 67//121 71//121
f 52//122 66//122 48//122
f 78//123 66//123 52//123
f 69//124 66//124 78//124
f 76//125 69//125 78//125
f 79//126 48//126 75//126
f 79//127 75//127 77//128
f 80//129 49//129 48//129
f 80//130 48//130 79//130
f 73//131 38//131 44//131
f 81//132 44//132 43//132
f 81//133 43//133 49//133
f 78//134 52//134 82//134
f 51//135 82//135 52//135
f 83//136 78//136 82//136
f 84//137 82//137 51//137
f 84//138 83//138 82//138
f 83//139 76//139 78//139
f 80//140 81//140 49//140
f 85//141 84//141 51//141
f 50//142 85//142 51//142
f 86//143 50//143 45//143
f 46//144 86//144 45//144
f 87//145 16//145 4//145
f 87//146 4//146 54//146
f 88//147 16//147 87//147
f 57//148 16//148 88//148
f 89//149 27//149 19//149
f 89//150 19//150 57//150
f 90//151 56//151 58//151
f 91//152 55//152 56//152
f 90//153 91//153 56//153
f 92//154 58//154 59//154
f 92//155 90//155 58//155
f 93//156 63//157 60//156
f 64//158 60//158 61//158
f 93//159 60//159 64//159
f 62//160 63//161 94//162
f 95//163 94//163 63//164
f 96//165 95//165 63//166
f 62//167 63//168 93//169
f 96//170 63//171 62//172
f 65//173 27//173 89//173
f 92//174 59//174 70//174
f 72//175 62//176 94//175
f 97//177 72//177 94//177
f 98//178 94//178 95//178
f 97//179 94//179 98//179
f 99//180 71//180 72//180
f 99//181 72//181 97//181
f 73//182 64//182 74//182
f 44//183 64//183 73//183
f 93//184 64//184 44//184
f 100//185 35//185 34//185
f 34//186 26//186 65//186
f 101//187 34//187 65//187
f 100//188 34//188 101//188
f 102//189 70//189 76//189
f 102//190 92//190 70//190
f 103//191 77//192 71//193
f 103//194 71//195 99//195
f 104//196 35//196 100//196
f 105//197 79//197 77//198
f 105//199 77//200 103//201
f 106//202 80//202 79//202
f 106//203 79//203 105//203
f 107//204 44//204 81//204
f 107//205 93//205 44//205
f 107//206 81//206 80//206
f 108//207 46//207 40//207
f 104//208 40//208 35//208
f 108//209 40//209 104//209
f 109//210 76//210 83//210
f 109//211 102//211 76//211
f 84//212 109//212 83//212
f 106//213 107//213 80//213
f 86//214 85//214 50//214
f 108//215 86//215 46//215
f 110//216 57//216 88//216
f 111//217 89//217 57//217
f 111//218 57//218 110//218
f 112//219 90//219 92//219
f 113//220 98//221 95//221
f 114//222 95//223 96//223
f 114//224 113//225 95//226
f 115//227 97//227 98//227
f 116//228 98//228 113//229
f 115//230 98//230 116//230
f 117//231 89//231 111//231
f 118//232 99//232 97//232
f 118//233 97//233 115//233
f 107//234 62//235 93//234
f 103//236 96//237 62//238
f 77//239 62//240 107//241
f 103//242 62//243 77//244
f 119//245 96//246 103//247
f 119//248 114//249 96//250
f 120//251 101//251 65//251
f 121//252 65//252 89//252
f 120//253 65//253 121//253
f 122//254 100//254 101//254
f 122//255 101//255 120//255
f 123//256 92//256 102//256
f 123//257 112//257 92//257
f 119//258 103//259 99//260
f 119//261 99//262 118//262
f 124//263 77//264 107//263
f 106//265 124//265 107//265
f 103//266 77//267 124//268
f 106//269 103//270 124//269
f 106//271 105//271 103//272
f 125//273 104//273 100//273
f 125//274 100//274 122//274
f 126//275 104//275 125//275
f 127//276 102//276 109//276
f 128//277 109//277 84//277
f 129//278 128//278 84//278
f 129//279 84//279 85//279
f 130//280 85//280 86//280
f 130//281 129//281 85//281
f 131//282 86//282 108//282
f 131//283 130//283 86//283
f 126//284 131//284 108//284
f 126//285 108//285 104//285
f 55//286 132//286 54//286
f 87//287 54//287 132//287
f 133//288 132//288 55//288
f 134//289 111//289 110//289
f 117//290 111//290 134//290
f 133//291 55//291 91//291
f 90//292 133//292 91//292
f 114//293 116//294 113//295
f 114//296 135//297 113//298
f 136//299 113//300 135//299
f 137//301 113//302 136//301
f 138//303 113//304 137//303
f 138//305 114//306 113//307
f 114//308 115//309 116//309
f 121//310 89//310 117//310
f 139//311 120//311 121//311
f 119//312 118//313 115//313
f 114//314 119//315 115//316
f 140//317 135//317 114//318
f 141//319 135//319 140//319
f 119//320 140//321 114//322
f 141//323 136//323 135//323
f 139//324 122//324 120//324
f 142//325 112//325 123//325
f 143//326 140//326 119//327
f 143//328 141//328 140//328
f 144//329 119//330 114//331
f 143//332 119//333 144//332
f 125//334 122//334 139//334
f 102//335 127//335 123//335
f 142//336 123//336 127//336
f 145//337 127//337 109//337
f 145//338 142//338 127//338
f 146//339 145//339 109//339
f 128//340 146//340 109//340
f 129//341 147//341 128//341
f 128//342 147//342 148//342
f 146//343 128//343 148//343
f 149//344 148//344 147//344
f 150//345 146//345 148//345
f 151//346 147//346 152//346
f 149//347 147//347 151//347
f 153//348 147//348 129//348
f 152//349 147//349 153//349
f 153//350 129//350 130//350
f 131//351 153//351 130//351
f 154//352 131//352 126//352
f 155//353 88//353 87//353
f 156//354 110//354 88//354
f 156//355 88//355 155//355
f 157//356 134//356 110//356
f 157//357 110//357 156//357
f 158//358 121//358 134//358
f 117//359 134//359 121//359
f 159//360 158//361 134//361
f 159//362 134//363 157//363
f 160//364 133//364 90//364
f 160//365 90//365 112//365
f 161//366 137//366 136//366
f 162//367 161//367 136//367
f 162//368 136//368 141//368
f 163//369 137//369 161//369
f 164//370 138//370 137//370
f 164//371 137//371 163//371
f 165//372 163//372 161//372
f 162//373 166//373 161//373
f 167//374 161//374 166//374
f 168//375 161//375 167//375
f 168//376 165//376 161//376
f 169//377 121//378 158//378
f 170//379 139//379 121//379
f 169//380 170//381 121//381
f 169//382 158//383 159//384
f 144//385 114//386 138//385
f 171//387 144//387 138//387
f 171//388 138//388 164//388
f 172//389 141//389 143//389
f 172//390 162//390 141//390
f 173//391 139//391 170//391
f 174//392 160//392 112//392
f 175//393 160//393 174//393
f 176//394 174//394 177//394
f 177//395 174//395 112//395
f 177//396 112//396 142//396
f 172//397 143//397 144//397
f 172//398 144//398 171//398
f 178//399 125//399 139//399
f 178//400 139//400 173//400
f 126//401 125//401 179//401
f 178//402 179//402 125//402
f 154//403 126//403 179//403
f 180//404 154//404 179//404
f 180//405 179//405 178//405
f 154//406 153//406 131//406
f 180//407 153//407 154//407
f 152//408 153//408 180//408
f 181//409 182//409 87//409
f 155//410 87//410 182//410
f 132//411 181//411 87//411
f 183//412 157//412 156//412
f 169//413 159//414 157//415
f 181//416 132//416 133//416
f 184//417 181//417 133//417
f 160//418 184//418 133//418
f 185//419 164//419 163//419
f 186//420 163//420 165//420
f 185//421 163//421 186//421
f 187//422 170//422 159//423
f 169//424 159//425 170//426
f 188//427 159//428 169//429
f 189//430 159//431 188//430
f 187//432 159//433 189//432
f 190//434 171//434 164//434
f 190//435 164//435 185//435
f 191//436 166//436 162//436
f 192//437 167//437 166//437
f 193//438 166//438 191//438
f 193//439 192//439 166//439
f 172//440 191//440 162//440
f 192//441 168//441 167//441
f 194//442 173//442 170//442
f 187//443 194//443 170//443
f 195//444 173//444 194//444
f 195//445 178//445 173//445
f 196//446 194//446 187//446
f 195//447 194//447 196//447
f 197//448 172//448 171//448
f 197//449 171//449 190//449
f 193//450 191//450 172//450
f 197//451 193//451 172//451
f 145//452 177//452 142//452
f 198//453 178//453 195//453
f 150//454 145//454 146//454
f 198//455 152//455 180//455
f 198//456 180//456 178//456
f 156//457 155//457 182//457
f 199//458 183//458 156//458
f 188//459 157//459 183//459
f 188//460 169//461 157//460
f 200//462 188//462 183//462
f 184//463 182//463 181//463
f 201//464 186//464 165//464
f 202//465 165//465 168//465
f 202//466 201//466 165//466
f 203//467 185//467 186//467
f 204//468 186//468 201//468
f 203//469 186//469 204//469
f 192//470 205//470 168//470
f 206//471 168//471 205//471
f 207//472 168//472 206//472
f 207//473 202//473 168//473
f 200//474 189//474 188//474
f 187//475 189//475 208//475
f 209//476 208//476 189//476
f 200//477 209//477 189//477
f 190//478 185//478 203//478
f 210//479 205//479 192//479
f 211//480 206//480 205//480
f 212//481 211//481 205//481
f 212//482 205//482 210//482
f 193//483 210//483 192//483
f 208//484 206//484 211//484
f 207//485 206//485 208//485
f 187//486 208//486 211//486
f 196//487 187//487 211//487
f 212//488 196//488 211//488
f 209//489 207//489 208//489
f 213//490 197//490 190//490
f 214//491 210//491 193//491
f 215//492 212//492 210//492
f 216//493 210//493 214//493
f 217//494 215//494 210//494
f 216//495 217//495 210//495
f 218//496 193//496 197//496
f 219//497 214//497 193//497
f 220//498 219//498 193//498
f 220//499 193//499 218//499
f 221//500 196//500 212//500
f 221//501 195//501 196//501
f 221//502 212//502 215//502
f 222//503 177//503 145//503
f 218//504 197//504 213//504
f 216//505 214//505 219//505
f 216//506 219//506 220//506
f 198//507 195//507 221//507
f 222//508 145//508 150//508
f 198//509 151//509 152//509
f 223//510 182//510 184//510
f 224//511 225//511 182//511
f 223//512 224//512 182//512
f 225//513 156//513 182//513
f 199//514 156//514 225//514
f 199//515 200//515 183//515
f 223//516 184//516 226//516
f 175//517 184//517 160//517
f 227//518 204//518 201//518
f 228//519 201//519 202//519
f 229//520 201//520 228//520
f 230//521 201//521 229//521
f 230//522 227//522 201//522
f 227//523 203//523 204//523
f 231//524 202//524 207//524
f 231//525 228//525 202//525
f 231//526 207//526 209//526
f 225//527 209//527 200//527
f 231//528 209//528 225//528
f 199//529 225//529 200//529
f 213//530 190//530 203//530
f 227//531 213//531 203//531
f 176//532 177//532 222//532
f 232//533 218//533 213//533
f 233//534 213//534 227//534
f 232//535 213//535 233//535
f 234//536 220//536 218//536
f 234//537 218//537 232//537
f 235//538 216//538 220//538
f 235//539 220//539 234//539
f 236//540 215//540 217//540
f 237//541 215//541 236//541
f 237//542 221//542 215//542
f 235//543 217//543 216//543
f 235//544 236//544 217//544
f 238//545 198//545 221//545
f 239//546 222//546 150//546
f 239//547 176//547 222//547
f 240//548 150//548 148//548
f 240//549 239//549 150//549
f 240//550 148//550 149//550
f 241//551 149//551 151//551
f 238//552 151//552 198//552
f 238//553 241//553 151//553
f 226//554 184//554 175//554
f 242//555 226//555 175//555
f 243//556 229//556 228//556
f 244//557 228//557 231//557
f 243//558 228//558 244//558
f 243//559 230//559 229//559
f 245//560 175//560 174//560
f 245//561 242//561 175//561
f 233//562 227//562 230//562
f 232//563 233//563 230//563
f 243//564 232//564 230//564
f 245//565 174//565 176//565
f 239//566 245//566 176//566
f 235//567 237//567 236//567
f 241//568 237//568 235//568
f 238//569 237//569 241//569
f 241//570 235//570 240//570
f 238//571 221//571 237//571
f 149//572 241//572 240//572
f 223//573 231//573 224//573
f 231//574 225//574 224//574
f 223//575 244//575 231//575
f 246//576 232//576 243//576
f 244//577 246//577 243//577
f 246//578 234//578 232//578
f 239//579 235//579 234//579
f 246//580 239//580 234//580
f 239//581 240//581 235//581
f 245//582 239//582 246//582
f 242//583 246//583 244//583
f 245//584 246//584 242//584
f 226//585 244//585 223//585
f 242//586 244//586 226//586
