# Blender v2.82 (sub 7) OBJ File: ''
# www.blender.org
mtllib sim_sea_2-5_l_thigh_prt.mtl
o sim_sea_2-5_l_thigh_prt
v 22.979240 -355.350708 -33.466286
v 21.124250 -345.674438 -42.250008
v 22.414818 -347.393372 -43.123222
v 20.820770 -334.189331 -53.660107
v 21.448458 -335.612640 -53.445389
v 19.223162 -346.491882 -31.803057
v 17.963482 -334.792053 -43.913361
v 24.461414 -353.433502 -38.467808
v 27.377977 -345.751465 -50.512367
v 38.915894 -358.164185 -56.579998
v 21.368338 -347.290497 -17.046122
v 24.530991 -357.911346 -22.151552
v 24.224653 -358.877563 -29.611681
v 18.159634 -335.280884 -32.311886
v 18.877640 -313.091919 -20.892515
v 22.253675 -328.218445 -59.011608
v 16.927402 -322.787445 -44.816776
v 18.299124 -321.649811 -55.869102
v 22.612970 -320.331879 -64.243935
v 31.090086 -331.760956 -62.212978
v 29.138130 -323.253662 -65.764069
v 16.502134 -306.995789 -33.098301
v 17.539139 -311.486969 -57.828396
v 15.975765 -304.217041 -46.107288
v 25.037939 -308.611359 -72.835144
v 20.825129 -310.349548 -66.823906
v 17.616917 -246.549026 -57.826939
v 17.670101 -281.430939 -58.447987
v 15.826260 -261.745026 -44.832165
v 16.262339 -257.131927 -34.986904
v 18.566311 -286.626556 -20.882290
v 18.795601 -249.418259 -20.659275
v 16.934509 -224.039093 -32.740345
v 18.769634 -224.263702 -21.130171
v 16.688894 -224.236847 -45.277115
v 18.582443 -216.954025 -51.749142
v 18.100563 -225.265518 -56.328133
v 18.233162 -216.697250 -33.869370
v 21.526413 -224.472336 -67.871788
v 21.156088 -242.438507 -68.181496
v 22.739065 -215.412384 -67.830757
v 19.677525 -216.437988 -21.908262
v 23.377968 -215.385513 -9.969872
v 22.413929 -224.195923 -10.283280
v 26.098392 -224.498291 -76.029373
v 27.340719 -213.904282 -76.071030
v 19.856184 -216.874786 -52.345371
v 26.261450 -215.103851 -72.148094
v 19.882113 -216.578568 -31.197254
v 22.485813 -216.054367 -17.166307
v 27.493906 -213.941513 -4.681058
v 33.187107 -375.305725 -37.650349
v 33.690964 -375.543854 -42.123463
v 25.944656 -358.905640 -20.998922
v 27.786503 -357.229889 -31.116617
v 35.368729 -360.287018 -32.804089
v 27.444345 -358.223907 -23.445786
v 29.298031 -354.687683 -24.996840
v 30.619461 -353.881378 -28.713617
v 33.740425 -354.883850 -28.846954
v 28.618021 -350.419891 -46.995178
v 34.555138 -351.803284 -49.780327
v 36.086449 -358.860474 -44.872200
v 27.018604 -359.538788 -11.340020
v 29.249174 -361.554901 -7.735355
v 34.824490 -361.356232 -23.864590
v 33.709797 -355.348236 -25.072979
v 43.165318 -375.794556 -11.639771
v 39.672291 -372.393677 -18.565775
v 28.572214 -348.213654 -1.509951
v 31.474895 -360.282654 -1.892308
v 39.925831 -361.872742 5.859473
v 43.962963 -361.075653 10.056037
v 38.101574 -360.071533 5.217189
v 36.772686 -347.332947 7.364961
v 39.877617 -348.741180 -57.986843
v 22.357334 -309.412628 -10.871717
v 27.326555 -318.481720 -2.083281
v 30.863626 -330.786804 2.343224
v 39.359200 -323.438568 -67.168510
v 42.870251 -347.558929 -61.168324
v 39.737232 -334.404755 -64.285225
v 33.323624 -312.752258 5.397184
v 28.383039 -311.779602 -72.023781
v 39.398045 -311.267853 -70.722992
v 27.916058 -305.376953 -75.637009
v 20.479071 -299.139679 -68.372414
v 33.951103 -293.734375 -83.162537
v 27.700981 -301.320312 -77.376060
v 31.198750 -301.062561 -78.632668
v 27.094223 -273.387909 -2.100144
v 29.076149 -286.436951 -80.839043
v 29.492121 -296.299530 -79.901756
v 21.050751 -287.906555 -69.617729
v 25.252949 -287.301819 -76.426239
v 36.557114 -290.151489 -85.523087
v 43.517937 -285.804504 -88.778778
v 39.103703 -289.655823 -86.120956
v 22.683798 -279.258698 -10.201622
v 37.073627 -294.841278 9.029683
v 20.852419 -273.157074 -69.062714
v 29.358110 -274.832947 -81.675842
v 25.265491 -253.107712 -76.081123
v 34.882626 -267.813995 6.927890
v 34.645020 -273.251373 -86.395409
v 22.505257 -246.057632 -9.666188
v 29.734751 -241.245209 -81.256187
v 28.321249 -244.679153 0.251533
v 36.350864 -224.906143 8.137761
v 34.911682 -224.422516 -85.245506
v 28.950975 -235.512878 -67.205925
v 26.576487 -235.322372 -57.698929
v 29.107077 -241.490295 -65.656181
v 27.695042 -240.956253 -61.682507
v 42.738400 -244.552872 -66.947540
v 38.393719 -245.817093 -62.680874
v 42.118511 -249.577103 -68.905525
v 23.331068 -223.837509 -54.560791
v 39.757153 -243.176422 -57.545105
v 22.605598 -222.766647 -44.717880
v 25.856913 -232.758347 -45.049820
v 40.463840 -241.033813 -44.563377
v 27.656372 -225.928864 -69.262100
v 32.278324 -226.718674 -75.503532
v 26.811520 -224.109070 -2.308885
v 31.153929 -223.357849 3.238064
v 30.695608 -214.193832 -80.693169
v 22.861656 -217.757889 -60.927895
v 21.060352 -218.718842 -44.797646
v 32.090931 -212.368179 -79.238197
v 22.618521 -222.228851 -34.831394
v 21.294991 -218.858917 -34.618931
v 26.162500 -231.865860 -32.348412
v 40.680393 -240.462051 -32.580074
v 24.829918 -224.209167 -19.045925
v 30.257690 -234.192337 -19.284216
v 44.065460 -241.943405 -24.018776
v 28.765247 -224.888474 -8.276917
v 31.745098 -233.689804 -10.015306
v 36.106850 -238.161652 -7.535351
v 28.609411 -213.513107 -1.969874
v 32.438793 -225.036758 -2.814970
v 31.410589 -212.921753 -0.407119
v 31.558914 -215.074020 2.967588
v 37.034203 -209.144775 7.931263
v 35.739231 -209.459015 -84.177719
v 42.375256 -212.427399 -89.298866
v 45.163761 -205.213547 -89.383270
v 39.687775 -207.659241 -85.686165
v 40.264336 -208.302170 8.561042
v 44.589767 -206.023117 11.966146
v 37.364372 -392.828857 -50.828571
v 42.909180 -407.236359 -56.376225
v 37.518219 -396.239624 -45.012791
v 44.139545 -406.903534 -34.807995
v 39.649731 -385.443756 -58.952427
v 44.212379 -409.495239 -60.330395
v 44.781738 -405.569916 -64.576614
v 35.308437 -383.553009 -35.999565
v 37.149456 -392.430542 -38.212273
v 36.649719 -385.711792 -51.114307
v 40.244007 -396.805084 -31.599686
v 44.923698 -402.728180 -21.327408
v 44.646847 -406.486816 -24.761757
v 39.840153 -372.614777 -56.937733
v 45.846748 -378.220978 -69.612587
v 45.134789 -401.682190 -67.178680
v 45.547424 -394.882965 -69.830597
v 45.816196 -386.715271 -70.689415
v 37.726662 -384.794098 -31.418253
v 42.034950 -385.732574 -19.742016
v 44.854801 -386.691040 -13.858012
v 45.224796 -395.690216 -17.267336
v 35.785397 -379.797180 -48.374325
v 36.977840 -370.963440 -32.433933
v 37.040394 -369.908722 -44.771896
v 45.562664 -370.624756 -67.524895
v 49.645382 -362.166809 11.993706
v 42.765205 -347.905304 11.478473
v 52.791553 -360.418762 13.870664
v 51.990334 -348.165131 15.483660
v 42.559376 -331.487488 12.300479
v 53.286270 -335.756409 16.602634
v 44.526169 -364.509674 -65.102020
v 56.189735 -336.732147 -67.817772
v 59.728657 -344.196960 -67.217438
v 48.479786 -324.399994 -68.142891
v 51.009785 -311.300537 -71.681755
v 45.139427 -311.223175 13.652117
v 53.716469 -310.629761 17.137474
v 41.139244 -299.132568 -73.272049
v 37.867531 -292.691803 -83.319527
v 55.963497 -298.724823 -76.849197
v 42.422924 -287.197327 -74.258896
v 41.659164 -286.461395 -82.847832
v 47.321568 -285.969666 -85.887611
v 45.958935 -286.503143 -87.721390
v 47.286217 -287.203186 -75.854759
v 47.315865 -273.784607 15.005714
v 41.886330 -274.269897 -90.569695
v 42.203995 -275.333069 -73.429344
v 45.366455 -275.506470 -75.236725
v 42.401093 -262.667572 -79.091019
v 45.475830 -275.613373 -80.239059
v 41.639565 -240.251831 -90.213173
v 54.547092 -249.352921 -95.067863
v 42.206764 -266.806000 -72.533173
v 45.723351 -250.770187 -72.311241
v 42.160957 -249.795670 -79.010002
v 46.225113 -249.959412 -78.211784
v 44.968834 -244.109573 14.289067
v 51.061871 -244.004074 -70.801773
v 40.799805 -237.398438 -79.780388
v 49.887943 -236.002655 -83.665848
v 52.246128 -209.805801 -92.953033
v 49.632244 -243.375565 -47.261913
v 49.919617 -243.385025 -31.649668
v 53.916904 -245.621078 -16.133789
v 40.944893 -236.403046 2.192858
v 44.500557 -247.702545 -3.631148
v 38.842339 -225.417603 3.634466
v 43.189762 -244.111893 1.620024
v 51.697887 -245.251266 2.349012
v 51.521992 -248.649719 -4.694947
v 50.187023 -229.488113 6.678041
v 45.135979 -223.893494 13.912743
v 48.414131 -213.011322 9.473646
v 43.377705 -212.905930 12.813291
v 52.778919 -213.390839 16.850317
v 53.733269 -223.667603 17.261929
v 54.784031 -200.183426 -92.545631
v 52.109856 -201.518646 -90.682800
v 49.914127 -203.698639 11.871635
v 52.776077 -203.564423 15.453750
v 56.101875 -199.423416 15.626650
v 55.590168 -199.935760 13.603044
v 94.694733 -405.580261 -64.849319
v 45.215187 -409.619934 -29.186941
v 45.041199 -412.100403 -54.431976
v 94.378319 -409.076569 -60.301266
v 94.892616 -401.904633 -67.837769
v 94.941383 -395.288513 -70.626816
v 95.089127 -402.773895 -20.555733
v 94.689865 -406.412781 -24.385014
v 94.290764 -409.399750 -29.067331
v 45.721401 -412.437134 -36.429317
v 93.877823 -412.061279 -36.308037
v 45.721931 -413.446533 -45.544689
v 93.733452 -413.033478 -45.405819
v 94.019089 -411.704071 -54.204121
v 95.073257 -386.407654 -71.672134
v 95.703979 -396.100494 -16.096970
v 96.588203 -386.882324 -12.844296
v 95.539200 -377.902191 -70.606026
v 72.250786 -379.903198 -7.179602
v 62.579334 -363.445282 15.092351
v 64.574020 -361.196442 16.431677
v 62.739365 -358.018341 16.761763
v 60.415001 -340.396454 -67.965988
v 64.458000 -347.701385 18.186886
v 56.936852 -313.343536 -71.567757
v 54.599365 -278.551300 17.647991
v 64.157127 -272.535919 19.676422
v 63.581161 -318.037323 18.895277
v 49.944309 -283.305786 -90.751854
v 53.649471 -272.088562 -94.586983
v 65.133354 -292.047241 -82.087387
v 63.247375 -280.976593 -93.875664
v 69.277771 -273.023895 -96.609589
v 65.069550 -254.251251 -96.557236
v 54.014572 -242.445740 17.747990
v 61.395969 -245.383667 1.967512
v 61.733440 -231.402756 7.144028
v 63.790264 -246.944138 -14.331850
v 64.334061 -248.400360 -8.696609
v 63.985069 -223.827301 19.124060
v 63.411106 -242.217575 -71.028687
v 64.576469 -239.899460 -74.817062
v 62.890408 -223.693619 -88.396698
v 89.446960 -246.677048 -19.572018
v 89.064819 -242.256714 -70.664650
v 75.061485 -239.429214 -75.404251
v 100.361603 -243.827332 -57.299892
v 96.210640 -243.098206 -66.238197
v 89.451920 -232.419983 -84.145737
v 103.093590 -242.065613 -44.270618
v 102.590820 -242.313080 -33.255131
v 99.594490 -245.752274 -64.205650
v 101.870399 -246.507431 -60.713306
v 113.652596 -235.330185 -60.239132
v 96.744003 -245.977814 -21.255589
v 112.226234 -237.069824 -15.626738
v 104.889648 -240.290665 -2.888113
v 86.441071 -247.201996 -15.585357
v 75.374382 -247.322662 -14.231005
v 66.847900 -211.470581 8.826197
v 63.845581 -200.831177 -94.273346
v 74.031799 -209.014572 -94.758080
v 65.051834 -193.820679 -93.203323
v 71.798813 -195.209839 11.036581
v 74.014198 -190.278976 -93.751793
v 71.790810 -191.092026 16.249441
v 64.458008 -200.503540 18.144045
v 96.417068 -370.380432 -68.079475
v 75.732872 -363.569031 14.971233
v 74.266853 -361.129669 16.584938
v 76.559761 -349.477203 18.116131
v 65.326820 -310.567444 -72.482529
v 75.560730 -335.388916 -69.175980
v 74.424088 -310.578369 -72.858322
v 74.236160 -324.627502 19.050755
v 63.310722 -301.289825 -76.497162
v 67.617691 -312.729736 -71.284645
v 69.669159 -321.313019 -67.699669
v 70.735542 -321.521423 -67.636185
v 76.259224 -301.837158 -77.420670
v 72.096794 -312.852753 -71.386131
v 75.084457 -296.689514 19.623770
v 72.442268 -292.291962 -82.792244
v 74.957932 -257.152802 19.863705
v 75.302338 -282.781860 -93.182007
v 84.031670 -281.486694 -93.708397
v 75.827225 -246.706329 -96.430862
v 62.850384 -209.571533 -94.228851
v 87.643814 -245.407257 0.933833
v 77.985695 -231.221756 6.343761
v 75.625237 -248.429504 -9.021690
v 75.873596 -223.180313 -89.340927
v 73.306839 -198.757385 18.236568
v 76.538162 -214.626663 6.950708
v 74.649605 -199.683868 -94.383179
v 78.590942 -188.153519 -91.945763
v 77.022255 -199.792389 8.534018
v 75.424522 -189.476151 16.045551
v 73.833740 -191.607468 -93.900352
v 77.647758 -194.548721 9.235641
v 75.741051 -189.555038 14.107757
v 87.956795 -379.147980 -8.661056
v 88.953857 -362.675201 12.731152
v 87.170761 -364.089264 -67.477608
v 87.264107 -344.731720 -67.489716
v 76.414238 -358.113129 17.005522
v 86.431458 -360.074707 14.368391
v 86.745148 -348.392303 16.555132
v 84.796936 -319.295898 18.057039
v 88.055466 -339.487427 -68.052490
v 84.509895 -312.942535 -72.385239
v 81.344269 -302.231018 -77.807434
v 82.449684 -308.748688 -74.063698
v 85.066704 -297.710327 18.328775
v 86.888435 -286.229401 -90.981117
v 84.764008 -263.767761 18.460457
v 89.435516 -285.436188 -91.291145
v 85.898109 -273.845154 -95.050674
v 85.546959 -247.831451 -95.133232
v 87.005196 -229.507034 5.132005
v 89.825844 -249.378632 -6.903382
v 86.159866 -222.170547 -93.614365
v 87.663040 -223.626480 -88.020531
v 99.408615 -238.694473 1.789014
v 97.118912 -244.560074 1.051465
v 85.874588 -219.882996 4.554515
v 85.387756 -213.721451 4.754752
v 97.324936 -216.842834 1.803814
v 94.345520 -208.554413 1.328018
v 85.172089 -222.174454 17.479355
v 84.472595 -202.032928 5.279475
v 85.588158 -199.012314 16.310282
v 86.797096 -188.077499 -91.274925
v 90.292023 -183.291946 -88.868622
v 95.615570 -188.206848 1.566891
v 94.567062 -199.347778 0.889086
v 91.633461 -188.470825 3.882220
v 90.981377 -183.408661 9.448841
v 83.535072 -186.510559 14.221100
v 87.199532 -184.898361 -90.653030
v 89.690643 -184.080551 12.147048
v 99.021843 -376.878784 -13.025109
v 101.090767 -362.662506 8.051913
v 96.962822 -365.393982 -64.112396
v 98.556885 -347.350433 -62.836952
v 96.629539 -361.272125 11.270407
v 97.815926 -347.658600 12.913952
v 100.309341 -332.280945 -66.896477
v 96.634499 -321.956482 14.077982
v 91.024780 -311.584229 -72.174408
v 105.122879 -293.390533 -85.033691
v 97.076805 -297.404205 14.136950
v 96.380325 -268.695343 14.587240
v 96.678467 -273.077026 -92.114655
v 96.994576 -284.942566 -90.067245
v 96.618263 -259.190857 -92.181961
v 94.262688 -232.809601 14.680925
v 96.146149 -229.585785 -90.471581
v 99.357407 -248.826843 -7.168490
v 95.867775 -187.653885 -87.830513
v 97.256660 -233.676437 -82.098099
v 100.350037 -180.719482 -83.733833
v 96.945122 -221.073547 12.828156
v 87.138718 -189.065536 14.281155
v 95.531296 -187.323029 10.804278
v 98.470230 -182.341187 -85.781708
v 104.625114 -207.124405 -6.423535
v 101.691917 -207.789780 -3.873596
v 97.090919 -185.703506 1.902280
v 102.901451 -185.205139 -3.562530
v 100.260231 -182.214035 5.854962
v 99.029877 -182.182678 4.721094
v 98.871765 -373.878510 -31.149099
v 100.196869 -374.939423 -18.846277
v 114.534378 -362.427856 -4.815430
v 109.178955 -360.928223 3.393372
v 123.218605 -359.752594 -21.333529
v 119.613045 -360.593170 -11.112328
v 102.744759 -363.482422 -45.216171
v 103.608780 -365.900757 -36.820259
v 105.338295 -364.344788 -37.008705
v 101.445503 -360.025299 -56.281586
v 121.127754 -360.698547 -34.692631
v 123.341492 -359.871857 -31.779985
v 114.692642 -359.114502 -43.996471
v 100.897171 -349.415771 -61.083710
v 115.670624 -346.825073 -57.586773
v 122.646065 -357.109802 -44.232407
v 122.614761 -345.968781 -55.096424
v 124.265556 -352.535614 -49.660763
v 110.322884 -331.015564 -65.539055
v 112.195869 -335.953766 -63.127148
v 103.892998 -360.747772 7.298714
v 104.588318 -348.658936 9.004078
v 105.358414 -322.647888 9.205246
v 101.991608 -304.765625 -73.461296
v 109.794952 -312.631805 -71.234459
v 107.430695 -305.508209 -73.356445
v 104.822983 -295.804260 9.632093
v 104.593719 -289.571655 -86.745468
v 110.091881 -294.703339 -83.304695
v 109.664871 -274.237091 -84.720596
v 104.918678 -271.165222 9.210080
v 104.459602 -256.880615 -87.910759
v 103.285477 -225.733383 8.959790
v 105.762871 -231.661545 -85.341339
v 101.014412 -249.633286 -14.524696
v 107.688377 -244.861221 -7.783680
v 109.986763 -239.242523 -7.629245
v 106.808777 -224.405365 -76.747223
v 110.527000 -243.609955 -66.166557
v 111.587440 -226.370056 -70.619217
v 104.198067 -247.388718 -61.434219
v 103.349197 -248.749969 -14.309607
v 104.660454 -212.217758 -84.701103
v 105.431129 -227.061462 -2.180502
v 105.132889 -187.302490 -82.024368
v 101.886436 -187.205826 6.711889
v 106.456139 -180.993210 -78.135643
v 109.948845 -215.589706 -9.168849
v 115.127449 -212.403244 -18.220058
v 114.720459 -199.467285 -19.425142
v 114.959824 -188.706436 -18.889757
v 116.015816 -183.482071 -17.759247
v 110.156746 -182.089767 -7.339593
v 106.300163 -181.922134 0.260541
v 111.063438 -182.172897 -75.302444
v 112.755478 -182.062943 -71.897041
v 113.423149 -360.775940 -1.677495
v 109.723770 -358.210388 3.853136
v 120.460052 -338.433502 -60.556362
v 111.016907 -342.935822 4.273019
v 115.161301 -347.800293 -0.421922
v 119.237396 -315.148499 -71.080818
v 122.250328 -332.450256 -62.774292
v 122.790634 -324.835968 -65.846779
v 110.728767 -309.190948 4.914722
v 115.735306 -305.251099 -76.269386
v 115.461243 -301.006134 -78.137665
v 110.890862 -239.259888 -81.810608
v 109.659195 -243.413834 4.381506
v 115.943672 -225.296341 -60.289909
v 117.999290 -221.175827 -45.343109
v 117.257576 -223.502441 -32.148800
v 115.483704 -226.302216 -18.417669
v 108.298729 -217.844833 4.133924
v 112.277039 -212.819244 -70.801285
v 116.814873 -212.429871 -59.874119
v 112.797737 -212.482437 -76.970512
v 112.376923 -200.621414 -71.037003
v 117.667297 -200.013733 -54.485676
v 110.169342 -187.274567 -1.396051
v 113.819389 -224.493698 -1.741353
v 112.511284 -188.328812 -74.762947
v 117.210808 -189.518585 -59.985088
v 118.310356 -211.799179 -31.944838
v 117.924606 -198.477142 -34.821430
v 117.970688 -183.359512 -60.094280
v 118.119698 -192.984482 -35.665100
v 117.097740 -182.869812 -64.916306
v 120.176193 -183.389069 -55.559200
v 114.077484 -182.724167 -10.666797
v 119.540359 -184.128479 -31.485620
v 119.391045 -183.591492 -24.677015
v 124.912888 -356.367615 -43.501564
v 124.622025 -358.572571 -32.210423
v 122.620537 -348.081696 -12.408348
v 125.750336 -354.977692 -45.192200
v 118.131966 -331.889679 -3.378019
v 115.210564 -313.543427 -0.058538
v 122.506554 -316.103760 -11.953386
v 120.032784 -311.399872 -72.017998
v 123.914803 -332.838623 -61.108627
v 120.590103 -298.117126 -73.149208
v 119.975853 -275.139374 -8.043107
v 123.158707 -284.014374 -14.387982
v 120.299339 -284.595093 -73.858932
v 114.569557 -272.550720 -0.127534
v 117.124641 -268.507019 -77.434441
v 122.322891 -271.262787 -68.284500
v 124.586800 -298.487946 -66.435089
v 120.439835 -246.455505 -11.245815
v 119.624451 -215.381012 -66.847298
v 118.826744 -212.501923 -45.484707
v 115.717812 -186.735352 -10.130684
v 121.886566 -209.160538 -20.082371
v 116.942146 -187.552261 -67.563263
v 118.365242 -199.231033 -45.211708
v 121.214935 -187.575211 -55.874996
v 118.435257 -193.041046 -45.199158
v 120.314453 -187.839844 -22.259571
v 119.998100 -184.160172 -45.693913
v 121.491394 -183.870499 -38.380371
v 128.492477 -345.151093 -34.838593
v 128.194489 -346.111603 -43.273186
v 125.451370 -345.740784 -52.912941
v 126.060173 -347.635651 -21.942127
v 129.204681 -335.857697 -44.817596
v 127.483253 -334.580688 -54.324501
v 127.783875 -323.128632 -55.543247
v 129.216888 -319.551514 -45.818214
v 128.633743 -321.410156 -34.439194
v 126.564789 -324.300659 -23.175627
v 128.016907 -311.631012 -56.405502
v 125.857224 -273.323090 -57.643822
v 127.757347 -275.509552 -45.386280
v 127.273102 -272.642792 -33.175640
v 125.736954 -294.558990 -21.490894
v 124.895477 -263.485077 -22.252752
v 123.642540 -224.086823 -56.961987
v 125.027237 -225.272125 -32.740932
v 123.578323 -229.885757 -22.439608
v 125.016350 -221.480698 -44.880562
v 122.754738 -187.598175 -39.918625
vn -0.8280 -0.4555 -0.3270
vn -0.8196 -0.4145 -0.3954
vn -0.8136 -0.4195 -0.4026
vn -0.9157 -0.3518 -0.1942
vn -0.9079 -0.3073 -0.2852
vn -0.7046 -0.5673 -0.4263
vn -0.6419 -0.5345 -0.5499
vn -0.9248 -0.0696 0.3739
vn -0.7108 -0.5644 -0.4198
vn -0.7214 -0.3912 -0.5715
vn -0.9654 0.2346 0.1137
vn -0.9075 -0.4054 0.1100
vn -0.9628 -0.2600 0.0732
vn -0.9485 -0.3111 0.0597
vn -0.9774 -0.1011 -0.1858
vn -0.9885 -0.0562 0.1407
vn -0.9719 -0.0822 0.2208
vn -0.9605 -0.2783 0.0045
vn -0.6789 -0.3930 -0.6202
vn -0.9527 -0.1037 -0.2857
vn -0.9652 -0.2192 -0.1424
vn -0.7150 -0.3636 -0.5971
vn -0.8433 -0.2531 -0.4742
vn -0.4651 -0.4995 -0.7309
vn -0.4722 -0.4884 -0.7338
vn -0.4009 -0.4937 -0.7717
vn -0.4549 -0.4299 -0.7799
vn -0.9941 -0.0804 0.0722
vn -0.9982 -0.0581 0.0144
vn -0.8679 -0.1558 -0.4716
vn -0.9898 -0.0597 -0.1290
vn -0.9930 -0.0891 -0.0772
vn -0.3990 -0.4869 -0.7769
vn -0.7426 -0.2891 -0.6041
vn -0.8977 -0.2538 -0.3600
vn -0.9983 -0.0491 0.0299
vn -0.9908 0.0009 -0.1355
vn -0.9990 -0.0031 0.0457
vn -0.9864 0.0015 0.1642
vn -0.9852 0.0050 0.1715
vn -0.9992 0.0179 0.0359
vn -0.9849 0.0022 0.1729
vn -0.9877 0.0095 0.1563
vn -0.9935 0.0215 -0.1117
vn -0.9995 0.0232 0.0192
vn -0.9815 0.1328 -0.1377
vn -0.9722 0.2329 -0.0223
vn -0.9841 0.1766 0.0165
vn -0.9911 0.0316 -0.1295
vn -0.9428 0.2012 -0.2660
vn -0.9505 0.0433 -0.3077
vn -0.9588 0.0246 -0.2829
vn -0.9629 0.1300 -0.2364
vn -0.9752 0.1900 0.1136
vn -0.9791 0.1292 0.1573
vn -0.9494 0.1382 0.2821
vn -0.9441 0.0920 0.3166
vn -0.8661 0.1181 -0.4858
vn -0.8764 0.1009 -0.4709
vn -0.0196 0.9957 0.0904
vn 0.3704 0.8549 0.3633
vn 0.0363 0.9943 0.1006
vn -0.0472 0.9988 -0.0153
vn -0.0686 0.9976 -0.0139
vn -0.1246 0.9922 -0.0065
vn -0.0163 0.9993 -0.0343
vn 0.3994 0.8641 -0.3064
vn -0.3670 0.9297 0.0318
vn -0.6457 0.7314 0.2194
vn -0.8941 -0.4346 -0.1087
vn -0.8756 -0.3034 -0.3758
vn -0.7727 0.6286 0.0883
vn -0.3546 0.3372 -0.8721
vn -0.8941 -0.4412 -0.0772
vn -0.6342 0.1256 0.7629
vn -0.8300 -0.5331 0.1640
vn -0.5836 0.6259 0.5173
vn -0.6368 -0.7609 0.1247
vn 0.8933 0.4051 -0.1948
vn 0.0933 0.9842 0.1504
vn 0.0164 0.9654 -0.2602
vn 0.2230 0.6768 0.7016
vn 0.9627 0.2533 0.0950
vn -0.4107 -0.8725 -0.2648
vn 0.9626 0.2599 0.0766
vn -0.0258 0.8442 0.5354
vn 0.8815 -0.4717 -0.0218
vn 0.7198 -0.6859 0.1071
vn -0.1260 -0.5058 0.8534
vn -0.0659 -0.6024 0.7955
vn 0.7672 0.3877 0.5110
vn -0.1244 0.5475 0.8275
vn -0.4045 -0.7823 -0.4737
vn -0.4777 -0.8687 -0.1311
vn -0.5852 -0.5447 -0.6007
vn 0.8610 -0.1213 0.4939
vn -0.0710 0.6466 0.7595
vn -0.9226 -0.3513 0.1594
vn -0.5611 -0.8273 -0.0254
vn -0.7232 -0.6877 0.0629
vn -0.3700 -0.8112 -0.4528
vn -0.0713 -0.3691 -0.9267
vn -0.1487 -0.2214 -0.9638
vn -0.7097 -0.7035 0.0363
vn -0.7012 -0.7130 0.0035
vn -0.3895 -0.5320 -0.7519
vn -0.8877 -0.2262 0.4009
vn -0.8891 -0.2243 0.3989
vn -0.8791 -0.2691 0.3935
vn -0.4784 -0.8024 0.3569
vn -0.5794 -0.6867 0.4390
vn -0.6815 -0.2211 0.6976
vn -0.5488 -0.6460 0.5306
vn -0.7111 -0.1925 0.6762
vn -0.7157 -0.1881 0.6726
vn 0.7598 0.5078 0.4061
vn -0.1361 0.8081 0.5731
vn -0.4484 -0.6108 -0.6526
vn -0.5347 -0.4541 -0.7126
vn -0.4963 -0.6572 -0.5672
vn -0.9407 -0.0305 0.3379
vn -0.1474 -0.9544 -0.2594
vn -0.3082 -0.9439 -0.1186
vn -0.9075 -0.0299 0.4190
vn -0.8908 -0.0504 0.4517
vn -0.8108 -0.0227 0.5848
vn -0.7307 -0.0544 0.6806
vn -0.1315 -0.4074 -0.9037
vn -0.5552 -0.4598 -0.6931
vn -0.3055 -0.2878 -0.9076
vn -0.2978 -0.2523 -0.9207
vn -0.9848 -0.0531 0.1651
vn -0.6915 -0.0279 0.7218
vn -0.2467 -0.4766 -0.8438
vn 0.1250 -0.4688 -0.8744
vn -0.1357 -0.2773 -0.9511
vn -0.7804 0.0006 0.6252
vn -0.2611 -0.4888 -0.8324
vn -0.7996 -0.1063 -0.5911
vn -0.9333 -0.0773 -0.3507
vn -0.4889 -0.2805 -0.8260
vn -0.2622 -0.4393 -0.8592
vn -0.7875 -0.0919 -0.6094
vn 0.1248 -0.4807 -0.8680
vn -0.1712 -0.4707 -0.8655
vn 0.0416 -0.5910 -0.8056
vn -0.9826 -0.0116 0.1854
vn -0.9433 -0.0112 0.3317
vn -0.8724 -0.0043 0.4888
vn -0.7788 -0.0038 0.6273
vn -0.7117 -0.0961 -0.6959
vn -0.7832 -0.0290 -0.6211
vn -0.8413 -0.1111 -0.5291
vn -0.7447 -0.0852 -0.6619
vn -0.4696 -0.2573 -0.8446
vn -0.5483 -0.1020 -0.8300
vn -0.5694 -0.1215 -0.8130
vn -0.2735 -0.3140 -0.9092
vn -0.0887 -0.5022 -0.8602
vn -0.9628 -0.0014 -0.2701
vn -0.9545 0.0156 -0.2979
vn -0.9912 0.0005 -0.1325
vn -0.9907 0.0015 -0.1363
vn -0.9992 -0.0047 0.0394
vn -0.9336 0.0021 0.3584
vn -0.8779 -0.0011 0.4788
vn -0.7305 0.0145 0.6828
vn -0.8513 0.0083 -0.5247
vn -0.9574 -0.0020 -0.2886
vn -0.7526 -0.0291 -0.6578
vn -0.8536 0.0056 -0.5208
vn -0.7951 0.0064 -0.6065
vn -0.5468 -0.0470 -0.8360
vn -0.7541 -0.0101 0.6567
vn -0.9586 0.0036 -0.2846
vn -0.6429 -0.1119 -0.7577
vn -0.9305 -0.0109 0.3662
vn -0.9479 0.0039 0.3187
vn -0.8744 -0.0125 0.4851
vn -0.8741 0.0226 -0.4852
vn -0.9483 0.0185 -0.3168
vn -0.7752 0.0166 -0.6315
vn -0.6686 0.0168 -0.7434
vn -0.8623 -0.0046 0.5063
vn -0.7502 -0.0221 0.6608
vn -0.7059 0.0042 0.7083
vn -0.8719 0.0263 -0.4890
vn -0.7831 0.0239 -0.6215
vn -0.9480 0.0050 0.3184
vn -0.8720 0.0264 -0.4888
vn -0.6529 0.0214 -0.7571
vn 0.9669 0.0874 0.2397
vn 0.9385 -0.0547 0.3409
vn -0.7175 0.4694 0.5146
vn 0.1472 0.2518 0.9565
vn 0.4155 0.9092 0.0254
vn 0.4709 0.8510 -0.2323
vn -0.8243 -0.4553 0.3365
vn -0.7208 -0.6231 0.3037
vn 0.0065 -0.3638 0.9315
vn 0.0028 0.7955 -0.6060
vn 0.9506 0.2049 0.2333
vn 0.3574 0.5855 -0.7277
vn 0.9644 0.2609 0.0427
vn 0.9508 0.3097 -0.0087
vn 0.4913 0.8586 -0.1461
vn 0.5061 0.8461 -0.1672
vn 0.9499 0.1827 0.2535
vn 0.7961 0.2278 0.5607
vn 0.3572 0.5660 0.7431
vn -0.4010 0.8963 0.1895
vn 0.3194 0.8056 -0.4990
vn -0.9479 0.0050 0.3184
vn -0.8626 -0.0003 0.5059
vn -0.8757 0.0100 0.4828
vn -0.7885 0.0186 0.6147
vn -0.6876 -0.0103 0.7260
vn -0.7548 0.0404 -0.6547
vn -0.8031 0.0919 -0.5887
vn -0.6873 0.0395 -0.7253
vn 0.9232 0.3096 0.2276
vn 0.9336 0.3570 0.0300
vn 0.9721 0.2013 0.1205
vn 0.9218 0.2063 0.3281
vn 0.6909 0.2680 0.6715
vn 0.8029 0.1599 0.5743
vn 0.9506 0.3099 -0.0181
vn 0.9301 0.3666 -0.0212
vn 0.9342 0.3563 -0.0166
vn 0.9413 0.3343 -0.0461
vn 0.5073 0.8587 -0.0725
vn 0.4936 0.8682 -0.0503
vn 0.9420 0.3229 -0.0915
vn 0.9505 0.2954 -0.0961
vn 0.9212 0.3695 -0.1222
vn 0.8614 0.4728 -0.1858
vn 0.4899 0.8718 0.0017
vn 0.5082 0.8597 -0.0522
vn 0.8411 0.4639 -0.2781
vn 0.9219 0.2133 -0.3234
vn 0.8527 0.3371 -0.3991
vn 0.9234 0.3456 -0.1669
vn 0.7488 0.6444 -0.1551
vn 0.5003 0.8648 0.0431
vn -0.8686 0.1321 0.4776
vn -0.8425 0.0732 0.5338
vn 0.7773 0.3645 -0.5129
vn 0.6660 0.3015 -0.6823
vn 0.8188 0.1780 -0.5458
vn 0.7283 0.4029 -0.5544
vn -0.7899 0.0585 0.6104
vn -0.8340 0.1243 0.5375
vn -0.7040 0.0575 0.7079
vn -0.6793 0.0391 0.7328
vn -0.7389 0.3751 -0.5598
vn -0.6219 0.0899 -0.7779
vn 0.9398 0.1306 0.3157
vn 0.5595 0.8213 0.1114
vn 0.8419 0.5396 -0.0120
vn 0.8526 0.5225 -0.0084
vn 0.7154 0.6806 -0.1582
vn -0.7890 0.2641 0.5548
vn -0.5830 0.0899 -0.8075
vn -0.5411 0.1996 -0.8169
vn -0.3750 0.9198 0.1159
vn -0.1400 0.9570 0.2541
vn 0.3706 0.4860 0.7915
vn -0.4235 0.9054 -0.0283
vn 0.7588 0.1542 -0.6327
vn -0.6917 0.6577 0.2984
vn -0.2094 0.9561 -0.2052
vn 0.7460 -0.1911 -0.6380
vn -0.1561 0.9010 -0.4047
vn -0.9406 -0.3031 -0.1529
vn -0.8718 -0.4865 0.0572
vn -0.8907 -0.1824 -0.4164
vn -0.8197 -0.5701 0.0556
vn -0.9522 -0.1723 -0.2524
vn -0.9613 -0.1256 -0.2451
vn -0.9756 -0.2033 -0.0832
vn -0.9824 -0.1713 -0.0745
vn -0.9731 -0.2193 0.0700
vn -0.9827 -0.1843 0.0185
vn -0.9760 -0.2156 0.0297
vn -0.9023 -0.3952 0.1724
vn -0.9273 -0.1075 -0.3586
vn -0.9739 -0.1059 -0.2008
vn -0.9666 -0.1338 -0.2185
vn -0.9032 -0.3989 0.1588
vn -0.8981 -0.4027 0.1770
vn -0.7461 -0.6627 0.0652
vn -0.9984 0.0286 0.0492
vn -0.9325 0.0695 -0.3545
vn -0.8853 0.0849 -0.4571
vn -0.9300 -0.1424 -0.3390
vn -0.9090 -0.1024 -0.4040
vn -0.8860 -0.0196 -0.4634
vn -0.8807 0.0627 -0.4695
vn -0.9316 -0.1998 0.3038
vn -0.8784 -0.2789 0.3881
vn -0.9245 -0.1987 0.3252
vn -0.8857 -0.2650 0.3813
vn -0.9276 -0.1651 0.3352
vn -0.9296 -0.1535 0.3350
vn -0.9341 -0.3137 -0.1705
vn -0.9591 -0.2764 -0.0618
vn -0.9595 -0.2656 -0.0939
vn -0.9455 0.0125 -0.3253
vn -0.9370 -0.0099 -0.3493
vn -0.9178 0.0484 -0.3940
vn -0.8858 -0.0139 0.4638
vn -0.7763 -0.0744 0.6260
vn -0.7239 -0.1334 0.6769
vn -0.9816 -0.0394 0.1867
vn -0.9255 -0.1927 0.3260
vn -0.8381 0.2775 -0.4696
vn -0.8209 0.2780 -0.4989
vn -0.8504 0.5245 0.0405
vn -0.8322 0.5525 0.0465
vn -0.6759 0.7280 -0.1149
vn -0.6708 0.7370 -0.0826
vn -0.6045 0.7889 -0.1108
vn -0.9400 0.2156 -0.2643
vn -0.9749 -0.0860 -0.2052
vn -0.9886 -0.1496 -0.0178
vn -0.9938 -0.0864 -0.0693
vn -0.9711 -0.0581 -0.2315
vn -0.9697 -0.0561 -0.2377
vn -0.8831 0.0933 -0.4598
vn -0.8746 -0.0506 -0.4823
vn -0.8754 -0.0441 -0.4814
vn -0.9297 -0.3384 0.1457
vn -0.9854 -0.1512 -0.0781
vn -0.9109 -0.1935 0.3644
vn -0.3627 -0.7608 0.5382
vn -0.8934 -0.2184 0.3926
vn -0.9767 -0.1979 -0.0831
vn -0.3166 -0.8285 0.4619
vn -0.6445 -0.1398 0.7517
vn -0.5677 -0.1941 0.8000
vn -0.3591 -0.3019 0.8831
vn -0.3978 -0.1342 0.9076
vn -0.3833 -0.1451 0.9121
vn -0.9644 -0.2614 -0.0400
vn -0.9037 -0.3584 -0.2343
vn -0.9010 -0.3619 -0.2393
vn -0.8397 0.0113 -0.5429
vn -0.8398 0.0047 -0.5429
vn -0.5684 -0.0482 0.8213
vn -0.3892 -0.0509 0.9198
vn -0.3989 -0.0410 0.9161
vn -0.7410 0.0823 -0.6664
vn -0.8307 0.0012 -0.5567
vn -0.8343 0.0028 -0.5513
vn -0.2390 -0.2774 -0.9305
vn -0.3635 0.1768 -0.9147
vn -0.2920 -0.2134 -0.9323
vn -0.1294 -0.2563 -0.9579
vn -0.2297 -0.1689 -0.9585
vn -0.6209 -0.0173 0.7837
vn -0.0798 -0.2792 -0.9569
vn -0.1278 -0.2356 -0.9634
vn -0.5742 0.0185 0.8185
vn -0.3756 -0.0140 0.9267
vn -0.3768 -0.0133 0.9262
vn 0.4966 -0.2461 -0.8323
vn -0.0813 -0.1937 -0.9777
vn -0.5679 -0.0477 0.8217
vn 0.1596 -0.7038 -0.6923
vn 0.1141 -0.5530 -0.8253
vn -0.6976 -0.0130 -0.7164
vn 0.0320 -0.6848 -0.7280
vn 0.4457 -0.6806 -0.5814
vn 0.9153 -0.1300 -0.3813
vn 0.8521 -0.5095 -0.1194
vn -0.9394 -0.2702 -0.2112
vn 0.4669 -0.3458 0.8139
vn -0.7581 0.6458 0.0907
vn 0.3774 -0.9260 0.0079
vn -0.1330 0.5114 0.8490
vn 0.1312 -0.6605 -0.7393
vn -0.4786 0.1877 -0.8577
vn 0.0999 -0.6144 -0.7826
vn -0.3115 -0.0450 -0.9492
vn -0.0635 -0.1798 -0.9817
vn -0.5006 -0.0022 0.8657
vn -0.3166 -0.1891 -0.9295
vn -0.5075 -0.1016 -0.8556
vn 0.9960 0.0244 -0.0865
vn -0.4934 0.0516 -0.8683
vn -0.3118 -0.0010 -0.9502
vn 0.9993 -0.0271 -0.0258
vn -0.2469 -0.1436 0.9584
vn 0.4655 -0.3584 0.8092
vn -0.9760 0.2170 0.0186
vn -0.5372 0.0220 0.8432
vn -0.4988 0.0055 -0.8667
vn -0.3475 0.0073 -0.9376
vn 0.9996 -0.0032 0.0276
vn -0.4903 0.0913 -0.8667
vn 0.9231 -0.3211 -0.2117
vn 0.9996 -0.0010 0.0290
vn -0.6514 0.1531 -0.7431
vn -0.5782 -0.2465 -0.7777
vn -0.4513 0.1112 -0.8854
vn 0.9998 0.0186 0.0038
vn 0.9187 -0.0083 -0.3949
vn -0.1931 -0.0098 0.9811
vn 0.0361 -0.0798 0.9962
vn -0.5526 -0.0236 0.8331
vn -0.5851 -0.0028 0.8109
vn -0.5589 0.0226 -0.8289
vn 0.4257 -0.6912 -0.5839
vn 0.9570 0.2664 0.1153
vn 0.9921 -0.1251 0.0069
vn 0.0911 0.8756 -0.4744
vn -0.3028 -0.5061 0.8076
vn -0.9604 -0.2576 0.1065
vn 0.7011 0.0756 0.7090
vn -0.9148 0.2396 -0.3251
vn -0.4804 0.5342 -0.6956
vn -0.1494 0.4110 -0.8993
vn -0.4098 0.3747 -0.8317
vn -0.0499 0.5659 -0.8229
vn 0.0151 -0.1034 -0.9945
vn 0.9904 0.1030 -0.0922
vn 0.4174 0.0773 -0.9054
vn 0.3783 0.0987 0.9204
vn -0.1616 0.3957 0.9040
vn -0.5279 0.0418 -0.8483
vn -0.3562 0.0401 -0.9335
vn -0.3326 0.0311 -0.9426
vn 0.8032 0.5636 0.1929
vn 0.1373 0.8651 -0.4824
vn 0.6091 0.1763 0.7733
vn 0.3602 0.1946 0.9124
vn 0.1966 0.9656 -0.1701
vn 0.3059 0.9507 -0.0509
vn 0.2464 0.9692 -0.0039
vn 0.1280 0.9863 -0.1038
vn 0.1182 0.8344 0.5384
vn 0.2969 0.9537 0.0476
vn 0.3726 0.9274 -0.0329
vn 0.3086 0.9495 0.0573
vn 0.7516 0.4733 -0.4594
vn 0.5302 0.6759 0.5119
vn 0.8556 0.2249 -0.4662
vn 0.6590 0.4108 -0.6301
vn 0.9599 0.2757 0.0511
vn 0.1570 0.8331 -0.5304
vn 0.0553 0.8987 -0.4350
vn 0.1705 0.9431 0.2854
vn 0.3282 0.1647 -0.9301
vn 0.3153 0.1826 -0.9313
vn 0.1184 0.2735 -0.9546
vn -0.5508 0.0201 0.8344
vn 0.5500 0.2171 0.8065
vn 0.3179 0.1917 -0.9285
vn 0.7017 0.1957 -0.6851
vn -0.5490 -0.0042 0.8358
vn -0.5959 0.0363 0.8023
vn -0.3931 0.0290 0.9190
vn -0.3631 0.0036 0.9318
vn -0.3715 0.1329 -0.9189
vn -0.3759 0.1379 -0.9164
vn 0.2930 0.1725 0.9404
vn 0.6615 0.1562 -0.7335
vn 0.2026 0.2553 -0.9454
vn 0.3239 0.1867 -0.9275
vn -0.5233 0.1943 0.8297
vn -0.4316 0.1847 0.8829
vn -0.3856 0.1297 0.9135
vn -0.5156 0.8527 0.0843
vn 0.3964 -0.1841 -0.8994
vn -0.4477 0.8872 -0.1114
vn -0.4520 0.3284 0.8294
vn -0.0039 -0.7340 -0.6791
vn -0.9750 -0.2200 0.0305
vn -0.9703 -0.2401 0.0303
vn 0.0079 -0.9143 -0.4049
vn 0.0070 -0.7930 -0.6091
vn -0.0135 -0.5553 -0.8315
vn -0.0044 -0.6307 -0.7760
vn -0.0139 -0.3883 -0.9214
vn -0.0180 -0.3624 -0.9319
vn -0.7913 0.0984 -0.6034
vn -0.7939 0.1029 -0.5993
vn -0.0138 -0.4992 0.8664
vn -0.0046 -0.6744 0.7384
vn -0.0113 -0.7243 0.6894
vn 0.0023 -0.8160 0.5780
vn -0.0028 -0.8430 0.5380
vn -0.9664 -0.2552 0.0317
vn 0.0064 -0.9318 0.3629
vn 0.0034 -0.9387 0.3448
vn -0.9594 -0.2805 0.0310
vn 0.0082 -0.9939 0.1101
vn 0.0075 -0.9943 0.1061
vn 0.0087 -0.9886 -0.1504
vn 0.0089 -0.9888 -0.1491
vn 0.0093 -0.9185 -0.3953
vn -0.0170 -0.1166 -0.9930
vn -0.0192 -0.1039 -0.9944
vn -0.0238 -0.5539 0.8323
vn -0.0246 -0.3305 0.9435
vn -0.0196 -0.3549 0.9347
vn -0.0206 0.1258 -0.9918
vn -0.0206 0.1255 -0.9919
vn -0.1784 -0.2228 0.9584
vn -0.0171 -0.6653 0.7463
vn -0.0210 0.2642 -0.9642
vn -0.2084 -0.8215 0.5308
vn -0.1975 -0.8274 0.5257
vn -0.2506 -0.3216 0.9131
vn -0.2148 -0.5086 0.8338
vn -0.2211 -0.2262 0.9487
vn -0.1730 -0.1602 -0.9718
vn -0.2048 -0.1409 0.9686
vn -0.2091 -0.0661 0.9757
vn -0.1249 -0.1041 -0.9867
vn -0.0669 -0.2481 -0.9664
vn -0.1916 -0.1537 -0.9694
vn -0.1018 -0.3529 -0.9301
vn -0.1006 -0.3440 -0.9336
vn -0.3970 -0.2166 -0.8919
vn -0.3884 -0.2152 -0.8960
vn -0.3489 -0.0136 0.9371
vn -0.3762 -0.0044 0.9265
vn -0.2015 -0.0100 0.9794
vn -0.1883 -0.0177 0.9820
vn -0.1860 -0.0145 0.9824
vn 0.0802 -0.7365 -0.6717
vn -0.1891 -0.2612 -0.9466
vn -0.2864 -0.1864 -0.9398
vn -0.1690 -0.5539 -0.8153
vn 0.5402 -0.8260 -0.1611
vn -0.1659 -0.8245 -0.5410
vn 0.3884 -0.0792 -0.9181
vn -0.0320 -0.7311 -0.6815
vn -0.1397 -0.2787 -0.9502
vn -0.1940 -0.1841 -0.9636
vn -0.0284 0.6453 -0.7634
vn 0.7849 0.0982 -0.6118
vn 0.7378 -0.6745 0.0249
vn -0.9867 -0.1607 -0.0232
vn 0.4067 0.6239 0.6673
vn -0.8051 -0.5880 -0.0780
vn -0.7996 -0.5957 -0.0761
vn 0.4567 0.1430 0.8781
vn -0.9860 -0.1659 -0.0180
vn 0.3791 0.8167 0.4351
vn -0.0298 -0.5913 -0.8059
vn -0.0288 -0.5835 -0.8116
vn 0.7681 -0.6085 -0.1993
vn -0.3220 -0.0073 -0.9467
vn -0.1299 -0.0263 -0.9912
vn -0.1470 -0.0151 -0.9890
vn -0.9996 0.0171 -0.0222
vn -0.9962 0.0354 -0.0798
vn -0.3458 -0.0082 0.9383
vn -0.3563 -0.0056 0.9344
vn -0.2040 -0.0060 0.9790
vn -0.7869 0.6169 0.0178
vn -0.8880 0.3497 0.2986
vn -0.0048 0.9007 -0.4344
vn 0.0837 0.2713 -0.9588
vn -0.0321 0.3477 -0.9370
vn 0.0792 0.9594 0.2706
vn -0.1118 0.9477 -0.2989
vn 0.0575 0.9679 0.2446
vn -0.1562 0.0106 0.9877
vn -0.1116 0.8392 0.5322
vn -0.0750 0.8607 0.5036
vn -0.2923 0.5962 0.7478
vn -0.0803 0.9963 -0.0315
vn 0.5167 0.8330 0.1980
vn 0.0969 0.9951 -0.0207
vn -0.1387 0.9781 0.1549
vn 0.0833 0.9965 -0.0009
vn 0.0003 0.9963 0.0862
vn -0.0062 0.8507 0.5257
vn -0.0092 0.8542 0.5199
vn 0.0368 0.9956 0.0859
vn 0.0939 0.9949 0.0375
vn -0.0360 0.8078 0.5884
vn -0.2575 0.7841 0.5647
vn -0.5254 0.8508 -0.0049
vn -0.3407 0.9398 -0.0276
vn 0.6885 0.6752 -0.2647
vn 0.6502 0.7101 -0.2702
vn -0.5027 0.5579 -0.6603
vn -0.5388 0.8424 -0.0009
vn -0.0274 0.9597 0.2797
vn -0.5036 0.8637 0.0184
vn -0.7849 0.0998 -0.6115
vn -0.2916 0.9519 -0.0945
vn -0.5519 0.1129 -0.8262
vn -0.1459 0.9615 -0.2330
vn 0.0057 0.9909 0.1348
vn 0.0267 0.9832 0.1807
vn 0.0303 0.9797 0.1982
vn 0.1116 0.9872 0.1135
vn -0.3601 0.0187 0.9327
vn -0.3634 0.0203 0.9314
vn -0.1783 0.0228 0.9837
vn -0.0482 0.1620 -0.9856
vn 0.0519 0.0707 -0.9961
vn -0.1804 0.0891 -0.9796
vn -0.0810 -0.0418 -0.9958
vn 0.0750 0.1942 0.9781
vn 0.2193 0.1395 0.9656
vn -0.1403 0.2680 -0.9531
vn -0.0471 0.1486 -0.9878
vn -0.2210 0.1372 0.9656
vn -0.3104 0.7418 -0.5945
vn -0.4771 0.8771 -0.0562
vn -0.4861 0.8609 -0.1505
vn -0.1686 0.2101 -0.9630
vn -0.5274 0.8346 -0.1588
vn -0.0561 -0.0127 -0.9983
vn -0.4631 0.8800 -0.1057
vn -0.3107 0.7456 -0.5895
vn -0.2678 0.1471 0.9522
vn -0.2264 0.3587 0.9056
vn -0.0119 0.3196 -0.9475
vn -0.0021 -0.8047 0.5937
vn -0.0119 0.3666 -0.9303
vn -0.0102 -0.5050 0.8631
vn 0.0025 -0.5507 0.8347
vn -0.0456 -0.1292 0.9906
vn -0.0131 -0.1291 0.9915
vn -0.0148 -0.1274 0.9917
vn -0.2579 -0.0899 0.9620
vn -0.0258 -0.1602 -0.9867
vn -0.0312 -0.1446 -0.9890
vn -0.0661 -0.1553 -0.9857
vn -0.0616 -0.1395 -0.9883
vn -0.0581 -0.1515 -0.9867
vn -0.0410 -0.1485 -0.9881
vn -0.0245 -0.1506 -0.9883
vn -0.1702 -0.0286 0.9850
vn -0.0299 -0.0247 0.9992
vn 0.0003 -0.0376 0.9993
vn 0.0132 -0.3476 -0.9375
vn -0.0066 -0.3423 -0.9396
vn 0.0097 -0.3392 -0.9407
vn -0.1010 -0.4135 -0.9049
vn -0.1103 -0.4005 -0.9096
vn -0.0931 -0.4188 -0.9033
vn 0.1536 -0.3493 -0.9243
vn 0.1121 -0.1676 0.9795
vn 0.0271 0.4156 0.9091
vn 0.1991 -0.8134 -0.5466
vn -0.4999 0.3015 0.8120
vn -0.0360 -0.5132 -0.8575
vn 0.4803 0.1346 0.8667
vn -0.0821 -0.4108 -0.9080
vn -0.0836 -0.3956 -0.9146
vn -0.5586 -0.4935 -0.6666
vn 0.5094 -0.4812 -0.7134
vn 0.0380 0.4199 0.9068
vn -0.0373 -0.4562 -0.8891
vn -0.0374 -0.4406 -0.8969
vn -0.0242 -0.4473 -0.8941
vn -0.0213 -0.3897 -0.9207
vn -0.0316 -0.3926 -0.9191
vn -0.0336 -0.5186 -0.8544
vn -0.3776 0.1175 0.9185
vn -0.0322 -0.0167 0.9993
vn -0.1313 -0.4940 -0.8595
vn -0.1220 -0.4925 -0.8617
vn -0.0997 -0.5005 -0.8600
vn -0.0826 -0.5136 -0.8540
vn -0.0896 -0.7331 -0.6742
vn -0.0087 -0.0061 0.9999
vn -0.0694 -0.7263 -0.6839
vn -0.0015 -0.3676 -0.9300
vn -0.0004 -0.3249 -0.9458
vn 0.0085 0.0047 -1.0000
vn -0.1191 0.0458 -0.9918
vn -0.0239 0.0508 -0.9984
vn -0.0100 0.9615 -0.2747
vn -0.0500 0.3478 -0.9362
vn -0.0368 0.3341 -0.9418
vn 0.0295 0.9685 0.2474
vn -0.0057 0.9588 -0.2842
vn 0.0085 0.9782 0.2074
vn -0.0333 0.0112 0.9994
vn -0.1203 0.0460 -0.9917
vn 0.0302 0.6438 0.7646
vn 0.0133 0.6506 0.7593
vn 0.0188 0.0284 0.9994
vn -0.0493 0.0419 -0.9979
vn -0.1504 0.1214 -0.9812
vn -0.0495 0.0322 -0.9983
vn -0.0632 0.9330 -0.3543
vn -0.0145 0.0411 -0.9990
vn 0.0656 0.1539 0.9859
vn -0.1325 0.1730 -0.9760
vn -0.1585 0.0447 0.9863
vn -0.0188 0.0424 0.9989
vn -0.1267 0.0833 0.9884
vn -0.3488 0.1107 -0.9307
vn -0.0496 0.2341 0.9709
vn -0.0579 0.2419 0.9686
vn -0.0746 0.1208 -0.9899
vn -0.0163 0.0580 -0.9982
vn -0.3713 0.9180 -0.1394
vn -0.3071 0.1621 -0.9378
vn -0.2957 0.6069 -0.7377
vn -0.5400 0.6601 -0.5222
vn 0.1050 -0.3799 0.9190
vn 0.1513 -0.8068 0.5711
vn 0.0951 -0.7909 0.6046
vn -0.0557 0.0136 -0.9984
vn -0.0117 -0.0949 -0.9954
vn -0.0556 -0.0004 -0.9985
vn 0.1783 -0.4661 0.8666
vn -0.0154 -0.1273 0.9917
vn 0.1952 -0.2704 0.9427
vn -0.0134 -0.1909 -0.9815
vn 0.1636 -0.1285 0.9781
vn 0.2161 -0.1852 0.9586
vn 0.1073 -0.0273 0.9938
vn 0.1556 -0.0405 0.9870
vn 0.0052 -0.2496 -0.9683
vn 0.0004 -0.1068 -0.9943
vn 0.0121 -0.1463 -0.9892
vn 0.0154 -0.1632 -0.9865
vn 0.0375 -0.1561 -0.9870
vn -0.2247 -0.3569 -0.9067
vn -0.0241 -0.1585 0.9871
vn -0.1021 -0.4434 -0.8905
vn -0.0926 -0.4306 -0.8978
vn -0.0487 -0.3917 -0.9188
vn -0.0315 -0.3947 -0.9183
vn -0.0160 -0.5001 -0.8658
vn 0.0004 -0.4951 -0.8689
vn 0.0450 0.0962 0.9943
vn 0.1182 -0.0974 0.9882
vn 0.0387 -0.0131 0.9992
vn -0.2284 -0.5452 -0.8066
vn -0.1070 -0.6096 -0.7855
vn -0.0850 -0.7232 -0.6854
vn 0.1380 -0.0056 0.9904
vn 0.1284 -0.0027 0.9917
vn 0.0220 -0.4999 -0.8658
vn 0.0335 -0.4553 -0.8897
vn 0.0822 -0.1919 -0.9780
vn 0.1294 -0.0255 -0.9913
vn 0.0933 -0.0019 -0.9956
vn -0.1747 0.2448 -0.9537
vn 0.0147 0.9782 0.2071
vn 0.1229 0.8986 -0.4211
vn 0.0304 0.9723 0.2319
vn 0.1384 0.0552 -0.9888
vn -0.0600 0.6516 0.7562
vn 0.3030 0.4352 0.8478
vn -0.0735 0.2518 -0.9650
vn -0.0730 0.8813 -0.4669
vn 0.0012 0.1243 -0.9922
vn -0.1191 -0.0734 -0.9902
vn -0.7830 -0.5294 0.3265
vn 0.9200 0.0851 -0.3826
vn -0.2517 -0.0489 -0.9666
vn 0.2842 -0.4077 0.8678
vn -0.2780 -0.0259 -0.9602
vn -0.8599 -0.3724 -0.3491
vn -0.3037 0.0084 -0.9527
vn 0.0053 -0.9381 0.3462
vn 0.7991 -0.5043 0.3272
vn 0.1248 0.0312 0.9917
vn 0.1560 0.0218 0.9875
vn 0.1483 0.0509 -0.9876
vn 0.1275 0.0314 -0.9913
vn -0.3698 0.1105 -0.9225
vn -0.2431 0.0245 -0.9697
vn -0.7039 -0.0108 -0.7102
vn 0.1557 0.0470 0.9867
vn 0.1778 0.0766 -0.9811
vn 0.1899 0.0637 -0.9797
vn -0.2893 0.0933 0.9527
vn -0.1102 0.0281 0.9935
vn -0.4371 0.1703 -0.8832
vn -0.3995 0.0031 -0.9167
vn -0.3997 0.0931 -0.9119
vn -0.4773 0.4172 -0.7734
vn -0.4371 0.5370 -0.7215
vn -0.5003 0.6106 -0.6139
vn 0.1467 0.1954 0.9697
vn 0.1560 0.1877 0.9698
vn 0.1959 0.0827 -0.9771
vn 0.1505 0.1714 -0.9736
vn -0.2854 0.8983 -0.3339
vn -0.3006 0.9069 -0.2953
vn -0.4090 0.9066 -0.1037
vn -0.3755 0.9215 -0.0989
vn -0.2849 0.9277 0.2412
vn -0.3572 0.9320 0.0612
vn 0.3792 -0.0756 0.9222
vn 0.2273 -0.7767 0.5875
vn 0.3583 -0.7899 0.4976
vn 0.3346 0.5640 -0.7549
vn 0.3805 -0.0024 -0.9248
vn 0.3293 0.0376 -0.9435
vn 0.2232 -0.2367 0.9456
vn 0.2548 -0.7078 0.6589
vn 0.1970 -0.5016 0.8424
vn 0.3181 -0.1827 0.9303
vn 0.2729 -0.1387 0.9520
vn 0.3463 -0.1516 -0.9258
vn 0.3140 -0.0280 0.9490
vn 0.1722 -0.1362 -0.9756
vn 0.3127 -0.0286 0.9494
vn 0.0987 -0.3276 -0.9397
vn 0.0762 -0.2142 -0.9738
vn -0.0730 -0.5060 -0.8594
vn -0.0087 -0.5726 -0.8198
vn 0.3299 -0.0160 0.9439
vn 0.3170 -0.0080 0.9484
vn 0.1128 -0.6545 -0.7476
vn -0.0051 -0.6245 -0.7810
vn 0.3297 -0.0068 0.9441
vn 0.3160 -0.0009 0.9488
vn 0.2710 -0.2304 -0.9346
vn 0.2273 -0.1597 -0.9606
vn 0.2630 -0.0035 -0.9648
vn 0.2580 0.0004 -0.9662
vn 0.3226 0.0166 0.9464
vn 0.3139 0.0598 -0.9476
vn -0.9748 -0.1018 -0.1987
vn -0.5493 0.7346 0.3983
vn -0.9862 0.1632 0.0281
vn -0.0640 0.8785 -0.4734
vn -0.6049 -0.7952 0.0407
vn 0.0519 -0.4743 0.8788
vn 0.3501 0.7265 0.5913
vn 0.3320 0.0478 -0.9421
vn 0.3408 0.0614 -0.9381
vn -0.1807 0.3656 0.9131
vn 0.0043 0.8596 0.5109
vn 0.3147 0.0193 0.9490
vn -0.4820 0.0552 0.8744
vn -0.5634 -0.1888 0.8043
vn 0.2063 0.2666 0.9414
vn 0.5797 0.4981 0.6449
vn -0.3230 -0.5701 0.7554
vn 0.0650 0.1972 -0.9782
vn 0.3583 -0.0020 0.9336
vn -0.3713 0.0133 -0.9284
vn -0.3399 0.5215 -0.7826
vn -0.3640 0.0133 -0.9313
vn -0.2770 -0.1606 -0.9474
vn -0.2747 -0.1532 -0.9492
vn 0.6746 0.0328 0.7375
vn 0.3615 0.0642 0.9302
vn 0.3639 0.0404 0.9306
vn 0.3521 0.0575 -0.9342
vn -0.4640 0.0488 0.8845
vn -0.3945 -0.0276 -0.9185
vn -0.3909 -0.0344 -0.9198
vn 0.1126 0.1817 0.9769
vn 0.3556 0.1333 0.9251
vn 0.4173 0.0718 0.9059
vn 0.3675 0.1335 -0.9204
vn 0.3410 0.1882 -0.9210
vn -0.5326 0.1012 -0.8403
vn -0.5759 -0.0251 -0.8171
vn -0.5717 -0.0193 -0.8202
vn -0.6381 -0.1085 -0.7623
vn -0.4142 0.6487 -0.6384
vn -0.6212 0.4519 -0.6403
vn -0.5907 0.0586 -0.8048
vn -0.6303 0.4557 -0.6286
vn 0.1965 0.2991 0.9338
vn 0.3336 0.2215 0.9163
vn 0.3969 0.2244 -0.8900
vn 0.1362 0.7120 -0.6888
vn -0.0386 0.9738 0.2240
vn -0.4394 0.6963 -0.5675
vn -0.0823 0.9898 0.1166
vn 0.9912 -0.1323 0.0014
vn 0.9909 -0.1346 0.0014
vn 0.9957 -0.0924 -0.0018
vn 0.9829 -0.1842 0.0041
vn 0.9862 -0.1652 0.0045
vn 0.9943 -0.1069 -0.0021
vn 0.9961 -0.0879 -0.0058
vn 0.9983 -0.0580 -0.0052
vn 0.9959 -0.0862 -0.0263
vn 0.9998 -0.0165 -0.0142
vn 0.9998 -0.0133 -0.0142
vn 0.9700 -0.2370 -0.0545
vn 0.9983 -0.0514 -0.0261
vn 0.6180 -0.7748 -0.1334
vn 0.7044 -0.7038 -0.0923
vn 0.7679 -0.6309 -0.1108
vn 0.9936 -0.0964 -0.0584
vn 0.4366 -0.7651 0.4732
vn 0.4718 -0.7602 0.4467
vn 0.5362 -0.8341 -0.1297
vn 0.5334 -0.8243 0.1900
vn 0.5557 -0.8214 0.1285
vn 0.7408 -0.6213 -0.2552
vn 0.5544 -0.6752 -0.4867
vn 0.7051 -0.6491 -0.2856
vn 0.8648 -0.4719 -0.1715
vn 0.9961 -0.0524 -0.0712
vn 0.2527 -0.6252 -0.7384
vn 0.4970 -0.8676 0.0157
vn 0.4902 -0.8622 -0.1279
vn 0.6264 -0.7295 -0.2746
vn 0.3540 -0.8800 -0.3165
vn 0.3545 -0.9117 -0.2078
vn 0.3186 -0.3771 -0.8696
vn 0.2759 -0.3845 -0.8809
vn 0.8798 -0.0443 -0.4733
vn 0.2352 -0.9546 -0.1828
vn 0.3496 -0.4576 -0.8175
vn 0.3987 -0.7565 -0.5185
vn 0.3917 -0.5263 -0.7547
vn 0.2781 -0.4188 -0.8645
vn 0.2515 -0.2789 -0.9268
vn 0.1631 -0.2743 -0.9477
vn 0.2835 -0.3619 -0.8880
vn 0.2650 -0.3402 -0.9022
vn 0.4666 -0.3663 0.8050
vn 0.5141 -0.4701 0.7175
vn 0.4783 -0.1462 0.8659
vn 0.4827 -0.1495 0.8630
vn 0.4975 -0.0214 0.8672
vn 0.4865 -0.0172 0.8735
vn 0.0313 -0.2338 -0.9718
vn 0.0410 -0.2343 -0.9713
vn 0.1643 -0.2876 -0.9436
vn -0.0214 -0.2919 -0.9562
vn 0.3715 -0.7104 -0.5977
vn -0.0818 -0.6996 -0.7098
vn 0.5044 -0.0112 0.8634
vn 0.4874 -0.0042 0.8732
vn 0.1676 -0.3838 -0.9081
vn 0.2149 -0.3745 -0.9020
vn 0.0713 -0.6851 -0.7250
vn 0.5029 -0.0014 0.8643
vn 0.1979 -0.3004 -0.9331
vn 0.1434 -0.4107 -0.9004
vn 0.4809 -0.1366 -0.8661
vn 0.3956 -0.0096 -0.9184
vn 0.5354 0.0124 0.8445
vn 0.4788 -0.0022 -0.8779
vn 0.4940 -0.0117 -0.8694
vn 0.5193 0.0284 0.8541
vn 0.5377 0.0240 0.8428
vn 0.4796 0.0582 -0.8755
vn 0.4622 0.0662 -0.8843
vn -0.8263 0.3754 -0.4199
vn -0.3724 0.5396 0.7551
vn -0.0621 -0.8838 -0.4637
vn 0.1666 0.9807 0.1018
vn 0.7566 -0.6093 0.2372
vn -0.4333 0.8801 -0.1941
vn 0.4804 -0.4392 -0.7591
vn -0.5066 0.5548 -0.6600
vn -0.0334 0.8636 0.5031
vn -0.4066 0.6063 -0.6834
vn -0.1071 0.0710 -0.9917
vn 0.8438 0.3722 0.3867
vn -0.5928 0.6335 -0.4972
vn 0.9162 0.3298 0.2277
vn -0.5667 0.5735 -0.5916
vn -0.7457 0.5933 0.3033
vn 0.0183 0.6225 0.7824
vn 0.0041 0.2498 0.9683
vn -0.5077 0.6226 0.5955
vn 0.3475 0.9374 -0.0238
vn -0.0566 0.8157 0.5757
vn -0.1989 0.2499 -0.9476
vn 0.0270 -0.3293 -0.9438
vn 0.8727 0.1954 -0.4475
vn -0.5446 0.5421 0.6399
vn -0.3078 0.8933 -0.3277
vn -0.1803 0.2444 0.9528
vn 0.5279 0.0134 0.8492
vn 0.4756 0.0584 -0.8777
vn 0.4793 0.0560 -0.8758
vn -0.4866 -0.0458 -0.8724
vn -0.6363 0.0672 -0.7685
vn -0.6846 0.1547 -0.7123
vn 0.5271 0.0809 -0.8460
vn -0.5295 0.0571 0.8464
vn -0.5439 -0.2416 -0.8036
vn -0.5378 -0.2458 -0.8064
vn -0.6125 -0.1863 -0.7682
vn 0.5558 0.0685 0.8285
vn -0.6752 0.0181 0.7374
vn -0.6294 -0.1485 -0.7628
vn -0.6513 -0.1909 -0.7344
vn -0.7748 -0.3083 -0.5519
vn -0.7626 -0.0837 -0.6414
vn -0.7836 0.0194 -0.6209
vn -0.8023 0.0475 -0.5950
vn -0.7215 0.2826 -0.6322
vn -0.5289 0.7498 -0.3976
vn -0.5272 0.6888 -0.4977
vn -0.3057 0.8395 -0.4492
vn -0.4950 0.8261 -0.2694
vn 0.5390 0.0729 0.8391
vn 0.5279 0.0679 -0.8466
vn 0.4132 0.4068 0.8147
vn 0.5117 0.3046 0.8034
vn 0.6211 0.2272 -0.7501
vn 0.2526 0.9549 -0.1563
vn 0.6088 -0.4023 -0.6837
vn -0.0113 0.9991 0.0399
vn 0.2583 -0.9069 -0.3330
vn 0.6441 -0.5589 0.5223
vn 0.7619 -0.4215 0.4917
vn 0.5500 -0.1476 0.8220
vn 0.5704 -0.2469 0.7834
vn 0.2235 -0.9235 -0.3118
vn 0.1573 -0.4080 -0.8993
vn 0.3478 -0.4829 -0.8037
vn 0.6334 -0.0748 0.7702
vn 0.7053 -0.0791 0.7045
vn 0.7455 -0.2537 0.6163
vn 0.7835 -0.1630 0.5997
vn 0.6064 -0.0241 0.7948
vn 0.1688 -0.3801 -0.9094
vn -0.0637 -0.2970 -0.9528
vn 0.1641 -0.3857 -0.9079
vn 0.1654 -0.3791 -0.9104
vn 0.1834 -0.4144 -0.8914
vn 0.6381 -0.0092 0.7699
vn -0.2985 -0.3621 -0.8830
vn -0.1175 -0.4934 -0.8618
vn 0.6241 0.0000 0.7813
vn -0.2412 -0.6245 -0.7428
vn 0.4076 -0.3457 -0.8452
vn 0.4961 -0.0496 -0.8668
vn 0.6388 0.0107 0.7693
vn 0.6227 0.0432 -0.7812
vn 0.6315 0.0270 0.7749
vn 0.6142 0.0485 -0.7877
vn -0.6811 0.5785 -0.4489
vn -0.8635 0.3431 0.3697
vn -0.7980 0.5996 -0.0605
vn -0.9555 0.2192 0.1977
vn -0.9163 0.1521 0.3706
vn -0.7861 0.5461 -0.2895
vn -0.7878 0.6155 -0.0221
vn -0.8113 0.5818 0.0570
vn -0.9723 0.2224 0.0724
vn -0.8607 0.3550 0.3649
vn -0.7891 0.6139 0.0232
vn -0.9507 0.2352 -0.2023
vn -0.6869 0.0668 -0.7237
vn -0.6253 0.1545 -0.7649
vn 0.6576 0.0423 0.7522
vn 0.6259 0.0611 -0.7775
vn -0.7801 0.0481 0.6238
vn -0.9229 0.0521 0.3814
vn -0.9221 0.0500 0.3837
vn -0.8083 -0.0395 -0.5874
vn -0.8740 -0.0330 -0.4848
vn 0.6884 0.0646 -0.7224
vn -0.7540 0.0189 0.6566
vn -0.9526 0.0137 0.3040
vn -0.9172 -0.1039 0.3846
vn -0.8656 -0.0151 -0.5005
vn 0.6343 0.0680 0.7701
vn 0.6973 0.0861 0.7116
vn 0.7648 0.0691 0.6405
vn 0.7047 0.0729 -0.7058
vn -0.7468 0.0152 0.6649
vn -0.9474 0.1153 0.2986
vn -0.9723 -0.0518 -0.2278
vn -0.9909 -0.0235 -0.1328
vn -0.9710 0.0912 -0.2212
vn -0.9789 0.0318 -0.2017
vn -0.9755 -0.0731 -0.2077
vn 0.7049 0.1043 -0.7016
vn 0.6150 0.2630 -0.7433
vn -0.6988 0.0473 0.7137
vn -0.9125 0.0375 0.4073
vn -0.9485 0.1222 0.2921
vn -0.9405 0.2418 -0.2388
vn -0.9824 0.0062 -0.1866
vn 0.6615 0.3310 0.6730
vn 0.6516 0.2493 0.7165
vn 0.7086 0.5998 -0.3715
vn 0.2009 0.9795 -0.0117
vn -0.8379 0.3605 0.4098
vn 0.0919 0.9925 -0.0809
vn 0.2425 0.9648 0.1017
vn -0.9301 0.2679 -0.2514
vn -0.1337 0.9877 -0.0808
vn -0.3826 0.9018 -0.2009
vn 0.5377 -0.8249 -0.1745
vn 0.6863 -0.7169 -0.1223
vn 0.7148 -0.6991 0.0164
vn 0.3777 -0.8849 -0.2728
vn 0.8264 -0.1629 0.5390
vn 0.8382 -0.1471 0.5251
vn 0.4119 -0.7537 -0.5122
vn 0.2681 -0.8051 -0.5291
vn 0.4680 -0.4269 -0.7738
vn 0.7141 -0.3311 -0.6168
vn 0.8469 -0.0599 0.5284
vn 0.7423 -0.0141 0.6699
vn 0.7370 -0.0066 0.6759
vn 0.7414 -0.0034 0.6711
vn 0.8557 0.0430 0.5156
vn 0.8932 -0.0032 0.4497
vn 0.4156 -0.3026 -0.8577
vn 0.6285 -0.3290 -0.7048
vn 0.4271 -0.3036 -0.8518
vn 0.3437 -0.3596 -0.8675
vn 0.7197 -0.0888 -0.6885
vn 0.8527 0.0028 0.5224
vn 0.9017 0.0145 0.4321
vn 0.7034 -0.0222 -0.7104
vn 0.6857 -0.0124 -0.7277
vn 0.8278 0.0139 0.5608
vn 0.7484 0.0128 0.6632
vn 0.6917 -0.0239 -0.7218
vn 0.8760 0.0667 -0.4776
vn 0.8994 0.0453 -0.4347
vn 0.7115 -0.0337 -0.7019
vn 0.6970 0.0256 0.7166
vn 0.9103 0.0314 0.4128
vn 0.6837 0.0367 -0.7288
vn 0.8302 0.0317 0.5566
vn 0.6958 0.0061 0.7182
vn 0.7759 0.0333 0.6300
vn 0.8630 0.0423 0.5035
vn 0.7564 0.0638 -0.6510
vn 0.8752 0.0546 -0.4807
vn 0.8362 0.0691 -0.5441
vn 0.7537 0.0464 0.6556
vn 0.6879 0.0814 -0.7213
vn -0.9893 0.0962 0.1095
vn -0.9884 0.0624 0.1385
vn -0.9951 0.0902 -0.0400
vn -0.9946 0.0942 -0.0428
vn 0.8794 0.0607 0.4722
vn 0.9063 0.0639 0.4179
vn 0.8360 0.0666 -0.5447
vn 0.8474 0.0583 -0.5278
vn -0.9897 -0.0373 0.1382
vn -0.9967 0.0372 0.0719
vn -0.9987 -0.0367 -0.0362
vn -0.9986 -0.0339 -0.0399
vn 0.8394 0.0773 0.5380
vn 0.9361 0.0814 -0.3421
vn -0.9972 0.0111 0.0741
vn -0.9966 -0.0001 0.0825
vn -0.9990 0.0114 -0.0432
vn -0.9990 0.0304 -0.0332
vn 0.9331 0.1040 0.3442
vn 0.8067 0.2703 -0.5256
vn 0.9271 0.1606 -0.3386
vn 0.8582 0.1591 -0.4880
vn -0.9761 0.1787 0.1234
vn -0.9817 0.1237 0.1451
vn -0.9842 0.1737 -0.0336
vn -0.9847 0.1715 -0.0321
vn 0.8703 0.3952 0.2939
vn 0.7643 0.3947 0.5099
vn 0.7659 0.3823 0.5170
vn 0.8771 0.3670 0.3099
vn -0.0524 0.9981 0.0320
vn -0.8234 0.5482 0.1464
vn -0.1562 0.9877 -0.0072
vn -0.4056 0.9105 -0.0807
vn 0.7966 -0.5968 -0.0960
vn 0.9612 -0.2758 0.0072
vn 0.9642 -0.2650 -0.0039
vn 0.8060 -0.3641 -0.4668
vn 0.9404 -0.1997 -0.2753
vn 0.9697 -0.2223 0.1010
vn 0.9590 -0.2506 0.1326
vn 0.9305 -0.1913 0.3125
vn 0.9245 -0.2005 0.3242
vn 0.4794 -0.4455 -0.7561
vn 0.6123 -0.3707 -0.6983
vn 0.9516 -0.1353 -0.2760
vn 0.9591 -0.2000 -0.2005
vn 0.8402 -0.2159 -0.4974
vn 0.9946 -0.1015 -0.0236
vn 0.8747 -0.0739 -0.4791
vn 0.9837 -0.0118 -0.1797
vn 0.9905 -0.0400 -0.1313
vn 0.9010 -0.1202 -0.4167
vn 0.9979 -0.0070 0.0647
vn 0.9987 0.0024 0.0516
vn 0.9830 -0.0116 0.1832
vn 0.9839 -0.0089 0.1785
vn 0.9407 -0.0015 0.3393
vn 0.9399 -0.0023 0.3415
vn 0.9020 -0.0504 -0.4288
vn 0.8899 -0.0265 -0.4555
vn 0.9904 -0.0302 -0.1348
vn 0.8837 -0.1155 -0.4536
vn 0.9620 0.0455 -0.2693
vn 0.8546 -0.0796 -0.5131
vn 0.9956 0.0339 -0.0875
vn 0.9882 0.0511 -0.1441
vn 0.9981 0.0264 0.0555
vn 0.9990 0.0328 0.0319
vn 0.9826 0.0169 0.1848
vn 0.9847 0.0230 0.1726
vn 0.9419 0.0063 0.3360
vn 0.9435 0.0075 0.3313
vn 0.8590 -0.0084 -0.5118
vn 0.9507 0.0584 -0.3045
vn 0.9818 0.0312 0.1876
vn 0.9542 0.0331 0.2972
vn 0.9470 0.0419 0.3185
vn 0.9507 0.0470 -0.3067
vn 0.9884 0.0465 -0.1449
vn 0.9985 0.0471 0.0285
vn 0.9827 0.0395 0.1808
vn 0.9862 0.0453 0.1590
vn 0.9457 0.0389 0.3227
vn 0.9910 0.0514 -0.1238
vn 0.9986 0.0505 0.0149
vn 0.9407 0.0540 -0.3348
vn 0.9842 0.0615 0.1660
vn 0.9450 0.0402 0.3245
vn 0.9446 0.0723 -0.3202
vn 0.9894 0.0696 -0.1275
vn 0.9978 0.0638 0.0190
vn 0.9870 0.0855 0.1361
vn 0.9922 0.0802 -0.0956
vn 0.9867 0.0868 0.1375
vn 0.9315 0.3526 -0.0894
vn 0.9235 0.2510 -0.2899
vn 0.9672 0.2451 -0.0672
vn 0.9495 0.2832 0.1351
vn 0.9539 0.2652 0.1408
usemtl material_0.013
s off
f 1//1 2//1 3//1
f 4//2 3//2 2//2
f 5//3 3//3 4//3
f 6//4 2//4 1//4
f 7//5 4//5 2//5
f 8//6 1//6 3//6
f 9//7 3//7 5//7
f 10//8 8//9 3//9
f 9//10 10//11 3//10
f 11//12 6//12 1//12
f 12//13 1//13 13//13
f 11//14 1//14 12//14
f 14//15 2//15 6//15
f 15//16 6//16 11//16
f 15//17 14//17 6//17
f 14//18 7//18 2//18
f 16//19 5//19 4//19
f 17//20 4//20 7//20
f 17//21 18//21 4//21
f 19//22 16//22 4//22
f 19//23 4//23 18//23
f 20//24 5//24 16//24
f 20//25 9//25 5//25
f 21//26 16//26 19//26
f 21//27 20//27 16//27
f 22//28 17//28 7//28
f 22//29 7//29 14//29
f 23//30 19//30 18//30
f 24//31 18//31 17//31
f 24//32 23//32 18//32
f 25//33 21//33 19//33
f 26//34 25//34 19//34
f 23//35 26//35 19//35
f 22//36 24//36 17//36
f 27//37 28//37 29//37
f 22//38 30//38 29//38
f 31//39 30//39 22//39
f 32//40 30//40 31//40
f 33//41 29//41 30//41
f 34//42 30//42 32//42
f 34//43 33//43 30//43
f 35//44 27//44 29//44
f 33//45 35//45 29//45
f 35//46 36//46 37//46
f 38//47 36//47 35//47
f 33//48 38//48 35//48
f 27//49 35//49 37//49
f 39//50 37//50 36//50
f 27//51 37//51 40//51
f 39//52 40//52 37//52
f 39//53 36//53 41//53
f 42//54 38//54 33//54
f 34//55 42//55 33//55
f 43//56 42//56 34//56
f 43//57 34//57 44//57
f 45//58 39//58 41//58
f 46//59 45//59 41//59
f 47//60 41//60 36//60
f 48//61 46//61 41//61
f 47//62 48//62 41//62
f 49//63 36//63 38//63
f 49//64 47//64 36//64
f 50//65 38//65 42//65
f 50//66 49//66 38//66
f 51//67 50//67 42//67
f 51//68 42//68 43//68
f 52//69 13//70 1//70
f 8//71 53//72 1//71
f 52//73 1//74 53//75
f 54//76 13//76 52//77
f 54//78 12//78 13//78
f 8//79 55//79 53//80
f 52//81 53//82 55//83
f 56//84 55//84 8//84
f 57//85 52//86 55//85
f 58//87 57//87 55//87
f 59//88 58//88 55//88
f 60//89 59//89 55//89
f 60//90 55//90 56//90
f 61//91 8//91 10//92
f 62//93 8//93 61//93
f 63//94 56//94 8//94
f 62//95 63//95 8//95
f 54//96 52//97 57//96
f 11//98 12//98 64//98
f 65//99 12//99 54//99
f 65//100 64//100 12//100
f 66//101 54//101 57//101
f 67//102 57//102 58//102
f 67//103 66//103 57//103
f 68//104 65//104 54//104
f 69//105 68//105 54//105
f 66//106 69//106 54//106
f 70//107 64//107 71//107
f 70//108 11//108 64//108
f 71//109 64//109 65//109
f 72//110 71//110 65//110
f 72//111 65//111 68//111
f 73//112 71//112 72//112
f 73//113 74//113 71//113
f 75//114 70//114 71//114
f 75//115 71//115 74//115
f 9//116 61//116 10//117
f 62//118 61//118 9//118
f 76//119 9//119 20//119
f 76//120 62//120 9//120
f 77//121 15//121 11//121
f 67//122 58//122 59//122
f 67//123 59//123 60//123
f 78//124 11//124 70//124
f 78//125 77//125 11//125
f 79//126 78//126 70//126
f 75//127 79//127 70//127
f 80//128 20//128 21//128
f 81//129 76//129 20//129
f 82//130 81//130 20//130
f 80//131 82//131 20//131
f 15//132 22//132 14//132
f 83//133 79//133 75//133
f 84//134 21//134 25//134
f 85//135 21//135 84//135
f 85//136 80//136 21//136
f 83//137 78//137 79//137
f 86//138 84//138 25//138
f 87//139 25//139 26//139
f 23//140 87//140 26//140
f 88//141 86//141 25//141
f 89//142 88//142 25//142
f 87//143 89//143 25//143
f 85//144 84//144 86//144
f 90//145 86//145 88//145
f 90//146 85//146 86//146
f 31//147 22//147 15//147
f 77//148 31//148 15//148
f 91//149 77//149 78//149
f 83//150 91//150 78//150
f 92//151 93//151 89//151
f 94//152 89//152 87//152
f 95//153 89//153 94//153
f 92//154 89//154 95//154
f 88//155 89//155 93//155
f 92//156 88//156 93//156
f 96//157 88//157 92//157
f 97//158 98//158 88//158
f 97//159 88//159 96//159
f 28//160 87//160 23//160
f 28//161 94//161 87//161
f 29//162 23//162 24//162
f 29//163 28//163 23//163
f 22//164 29//164 24//164
f 99//165 31//165 77//165
f 91//166 99//166 77//166
f 100//167 91//167 83//167
f 101//168 95//168 94//168
f 28//169 101//169 94//169
f 102//170 92//170 95//170
f 103//171 95//171 101//171
f 102//172 95//172 103//172
f 96//173 92//173 102//173
f 104//174 91//174 100//174
f 27//175 101//175 28//175
f 105//176 96//176 102//176
f 106//177 31//177 99//177
f 106//178 32//178 31//178
f 91//179 106//179 99//179
f 40//180 103//180 101//180
f 27//181 40//181 101//181
f 107//182 102//182 103//182
f 105//183 102//183 107//183
f 108//184 106//184 91//184
f 108//185 91//185 104//185
f 109//186 108//186 104//186
f 45//187 103//187 40//187
f 107//188 103//188 45//188
f 106//189 34//189 32//189
f 39//190 45//190 40//190
f 110//191 105//191 107//191
f 111//192 112//192 113//192
f 114//193 113//193 112//193
f 115//194 111//195 113//195
f 116//196 113//196 114//196
f 116//197 117//198 113//197
f 115//199 113//200 117//201
f 118//202 112//202 111//202
f 119//203 114//203 112//203
f 120//204 112//204 118//204
f 121//205 112//205 120//205
f 122//206 112//206 121//206
f 119//207 112//207 122//207
f 123//208 118//208 111//208
f 124//209 123//209 111//209
f 124//210 111//210 115//211
f 119//212 116//212 114//212
f 44//213 34//213 106//213
f 125//214 106//214 108//214
f 125//215 44//215 106//215
f 126//216 125//216 108//216
f 109//217 126//217 108//217
f 127//218 107//218 45//218
f 127//219 45//219 46//219
f 110//220 107//220 127//220
f 128//221 118//221 123//221
f 129//222 120//222 118//222
f 129//223 118//223 128//223
f 48//224 128//224 123//224
f 130//225 48//225 123//225
f 130//226 123//226 124//226
f 131//227 121//227 120//227
f 132//228 131//228 120//228
f 132//229 120//229 129//229
f 133//230 121//230 131//230
f 134//231 121//231 133//231
f 134//232 122//232 121//232
f 135//233 133//233 131//233
f 50//234 135//234 131//234
f 50//235 131//235 132//235
f 136//236 133//236 135//236
f 137//237 133//237 136//237
f 137//238 134//238 133//238
f 138//239 136//239 135//239
f 51//240 138//240 135//240
f 51//241 135//241 50//241
f 139//242 136//242 138//242
f 140//243 136//243 139//243
f 140//244 137//244 136//244
f 141//245 44//245 125//245
f 141//246 43//246 44//246
f 142//247 139//247 138//247
f 143//248 138//248 51//248
f 143//249 142//249 138//249
f 142//250 140//250 139//250
f 144//251 125//251 126//251
f 144//252 141//252 125//252
f 145//253 144//253 126//253
f 145//254 126//254 109//254
f 146//255 127//255 46//255
f 110//256 127//256 146//256
f 47//257 128//257 48//257
f 47//258 129//258 128//258
f 49//259 132//259 129//259
f 49//260 129//260 47//260
f 50//261 132//261 49//261
f 145//262 141//262 144//262
f 147//263 110//263 146//263
f 148//264 147//264 146//264
f 149//265 146//265 46//265
f 130//266 46//266 48//266
f 130//267 149//267 46//267
f 148//268 146//268 149//268
f 145//269 51//269 43//269
f 145//270 43//270 141//270
f 150//271 51//271 145//271
f 143//272 51//272 150//272
f 151//273 150//273 145//273
f 152//274 153//274 154//274
f 155//275 154//275 153//275
f 156//276 153//276 152//276
f 157//277 155//277 153//277
f 158//278 153//278 156//278
f 158//279 157//279 153//279
f 53//280 152//281 154//281
f 159//282 154//282 160//282
f 159//283 53//284 154//283
f 160//285 154//285 155//285
f 161//286 156//286 152//286
f 161//287 152//287 53//288
f 162//289 160//289 155//289
f 163//290 162//290 155//290
f 164//291 155//291 157//291
f 164//292 163//292 155//292
f 165//293 156//293 161//293
f 166//294 156//294 165//294
f 167//295 158//295 156//295
f 168//296 167//296 156//296
f 169//297 168//297 156//297
f 166//298 169//298 156//298
f 170//299 160//299 162//299
f 170//300 159//300 160//300
f 171//301 170//301 162//301
f 172//302 171//302 162//302
f 173//303 172//303 162//303
f 163//304 173//304 162//304
f 52//305 53//306 159//307
f 174//308 161//308 53//309
f 165//310 161//310 174//310
f 175//311 159//311 170//311
f 175//312 52//313 159//312
f 69//314 175//314 170//314
f 171//315 69//315 170//315
f 176//316 174//316 53//317
f 175//318 176//318 53//319
f 175//320 53//321 52//322
f 165//323 174//323 176//323
f 63//324 165//324 176//324
f 56//325 176//325 175//325
f 63//326 176//326 56//326
f 10//327 165//328 63//328
f 177//329 166//329 165//329
f 10//330 177//331 165//331
f 66//332 175//332 69//332
f 56//333 175//333 66//333
f 171//334 68//334 69//334
f 178//335 72//335 68//335
f 172//336 68//336 171//336
f 67//337 56//337 66//337
f 178//338 73//338 72//338
f 179//339 74//339 73//339
f 179//340 75//340 74//340
f 180//341 73//341 178//341
f 181//342 179//342 73//342
f 181//343 73//343 180//343
f 67//344 60//344 56//344
f 10//345 63//346 62//346
f 10//347 62//348 76//348
f 182//349 75//349 179//349
f 183//350 182//350 179//350
f 183//351 179//351 181//351
f 184//352 76//352 81//352
f 10//353 76//354 184//354
f 185//355 81//355 82//355
f 186//356 184//356 81//356
f 185//357 186//357 81//357
f 187//358 82//358 80//358
f 187//359 185//359 82//359
f 182//360 83//360 75//360
f 188//361 80//361 85//361
f 188//362 187//362 80//362
f 189//363 83//363 182//363
f 190//364 189//364 182//364
f 190//365 182//365 183//365
f 191//366 85//366 90//366
f 188//367 85//367 191//367
f 100//368 83//368 189//368
f 98//369 192//369 88//369
f 90//370 88//370 192//370
f 193//371 192//372 98//372
f 191//373 90//373 192//373
f 194//374 191//374 192//374
f 195//375 194//375 192//375
f 196//376 195//377 192//377
f 193//378 196//379 192//380
f 197//381 98//381 97//381
f 193//382 98//383 197//383
f 198//384 191//384 194//384
f 198//385 188//385 191//385
f 199//386 100//386 189//386
f 200//387 97//387 96//387
f 200//388 96//388 105//388
f 201//389 194//389 195//389
f 202//390 194//390 201//390
f 202//391 198//391 194//391
f 203//392 201//392 195//392
f 204//393 203//393 195//393
f 204//394 195//394 196//395
f 199//396 104//396 100//396
f 205//397 200//397 105//397
f 206//398 200//398 205//398
f 207//399 201//399 203//399
f 202//400 201//400 207//400
f 117//401 207//402 203//402
f 208//403 207//403 117//404
f 208//405 202//405 207//405
f 209//406 117//407 203//406
f 210//408 209//408 203//408
f 210//409 203//409 204//409
f 211//410 104//410 199//410
f 211//411 109//411 104//411
f 205//412 105//412 110//412
f 115//413 117//414 209//415
f 119//416 117//417 116//416
f 115//418 117//419 119//420
f 212//421 208//421 117//422
f 212//423 117//424 115//425
f 213//426 115//427 209//426
f 214//428 213//428 209//428
f 214//429 209//429 210//429
f 147//430 205//430 110//430
f 215//431 205//431 147//431
f 215//432 206//432 205//432
f 124//433 115//434 213//433
f 149//435 124//435 213//435
f 214//436 149//436 213//436
f 216//437 119//437 122//437
f 217//438 122//438 134//438
f 217//439 216//439 122//439
f 216//440 115//441 119//440
f 217//442 134//442 137//442
f 218//443 137//443 140//443
f 218//444 217//444 137//444
f 219//445 220//445 140//445
f 218//446 140//446 220//446
f 221//447 219//447 140//447
f 142//448 221//448 140//448
f 222//449 220//449 219//449
f 223//450 220//450 222//450
f 224//451 220//451 223//451
f 218//452 220//452 224//452
f 225//453 222//453 219//453
f 225//454 219//454 221//454
f 225//455 223//455 222//455
f 226//456 109//456 211//456
f 130//457 124//457 149//457
f 227//458 225//458 221//458
f 143//459 221//459 142//459
f 228//460 109//460 226//460
f 228//461 145//461 109//461
f 229//462 228//462 226//462
f 229//463 226//463 230//463
f 231//464 147//464 148//464
f 231//465 215//465 147//465
f 232//466 149//466 214//466
f 150//467 221//467 143//467
f 233//468 221//468 150//468
f 233//469 227//469 221//469
f 151//470 145//470 228//470
f 234//471 151//471 228//471
f 234//472 228//472 229//472
f 235//473 150//473 151//473
f 236//474 233//474 150//474
f 236//475 150//475 235//475
f 235//476 151//476 234//476
f 237//477 157//477 158//477
f 238//478 164//478 157//478
f 239//479 238//479 157//479
f 240//480 239//480 157//480
f 237//481 240//481 157//481
f 241//482 158//482 167//482
f 241//483 237//483 158//483
f 242//484 241//484 167//484
f 168//485 242//485 167//485
f 10//486 184//487 177//487
f 243//488 173//488 163//488
f 244//489 163//489 164//489
f 243//490 163//490 244//490
f 245//491 164//491 238//491
f 244//492 164//492 245//492
f 239//493 246//493 238//493
f 247//494 238//494 246//494
f 245//495 238//495 247//495
f 239//496 248//496 246//496
f 249//497 246//497 248//497
f 247//498 246//498 249//498
f 250//499 248//499 239//499
f 249//500 248//500 250//500
f 240//501 250//501 239//501
f 251//502 242//502 168//502
f 251//503 168//503 169//503
f 252//504 173//504 243//504
f 253//505 173//505 252//505
f 253//506 172//506 173//506
f 254//507 169//507 166//507
f 254//508 251//508 169//508
f 255//509 68//509 172//509
f 255//510 172//510 253//510
f 177//511 254//511 166//511
f 256//512 178//512 68//512
f 256//513 68//513 255//513
f 257//514 178//514 256//514
f 257//515 180//515 178//515
f 258//516 180//516 257//516
f 259//517 186//517 185//517
f 260//518 181//518 180//518
f 260//519 183//519 181//519
f 259//520 185//520 187//520
f 261//521 187//521 188//521
f 261//522 259//522 187//522
f 193//523 261//524 188//524
f 193//525 188//526 198//526
f 262//527 199//527 189//527
f 262//528 189//528 190//528
f 263//529 262//529 190//529
f 264//530 190//530 183//530
f 263//531 190//531 264//531
f 265//532 197//532 97//532
f 266//533 265//533 97//533
f 266//534 97//534 200//534
f 196//535 197//536 265//536
f 267//537 196//538 265//537
f 268//539 267//539 265//539
f 269//540 265//540 266//540
f 269//541 268//541 265//541
f 193//542 197//543 196//544
f 202//545 196//546 198//545
f 193//547 198//548 196//549
f 202//550 204//550 196//551
f 267//552 193//553 196//554
f 206//555 266//555 200//555
f 270//556 269//556 266//556
f 270//557 266//557 206//557
f 208//558 204//558 202//558
f 208//559 210//559 204//559
f 271//560 199//560 262//560
f 271//561 211//561 199//561
f 263//562 271//562 262//562
f 212//563 210//563 208//563
f 212//564 214//564 210//564
f 272//565 224//565 223//565
f 273//566 223//566 225//566
f 273//567 272//567 223//567
f 274//568 218//568 224//568
f 275//569 224//569 272//569
f 274//570 224//570 275//570
f 276//571 271//571 263//571
f 277//572 214//572 212//572
f 278//573 214//573 277//573
f 279//574 214//574 278//574
f 212//575 115//576 216//575
f 280//577 212//577 216//577
f 280//578 277//578 212//578
f 217//579 280//579 216//579
f 280//580 281//580 277//580
f 282//581 277//581 281//581
f 282//582 278//582 277//582
f 280//583 283//583 281//583
f 284//584 281//584 283//584
f 285//585 282//585 281//585
f 284//586 285//586 281//586
f 286//587 283//587 287//587
f 280//588 287//588 283//588
f 288//589 284//589 283//589
f 289//590 288//590 283//590
f 290//591 289//591 283//591
f 290//592 283//592 286//592
f 291//593 287//593 280//593
f 292//594 287//594 291//594
f 293//595 280//596 294//596
f 293//597 291//598 280//598
f 294//599 280//599 295//599
f 274//600 280//600 217//600
f 295//601 280//601 274//601
f 274//602 217//602 218//602
f 230//603 211//603 271//603
f 230//604 226//604 211//604
f 276//605 230//605 271//605
f 296//606 225//606 227//606
f 296//607 273//607 225//607
f 276//605 229//605 230//605
f 297//608 215//608 231//608
f 297//609 298//609 215//609
f 299//610 232//610 214//610
f 299//611 214//611 279//611
f 300//612 227//612 233//612
f 300//613 296//613 227//613
f 235//614 234//614 229//614
f 300//615 233//615 236//615
f 232//616 231//616 148//616
f 232//617 148//617 149//617
f 301//618 297//618 231//618
f 299//619 231//619 232//619
f 299//620 301//620 231//620
f 302//621 236//621 235//621
f 300//622 236//622 302//622
f 303//623 235//623 229//623
f 302//624 235//624 303//624
f 304//625 254//625 177//625
f 305//626 256//626 255//626
f 304//627 177//627 184//627
f 306//628 257//628 256//628
f 306//629 256//629 305//629
f 260//630 258//630 257//630
f 307//631 260//631 257//631
f 307//632 257//632 306//632
f 260//633 180//633 258//633
f 308//634 309//635 259//635
f 308//636 259//637 261//637
f 310//638 309//639 308//640
f 264//641 183//641 260//641
f 311//642 264//642 260//642
f 311//643 260//643 307//643
f 193//644 308//645 261//646
f 312//647 308//648 193//649
f 313//650 314//650 308//651
f 315//652 308//653 314//652
f 310//654 313//655 308//656
f 316//657 308//658 312//657
f 310//659 308//660 315//661
f 316//662 310//663 308//664
f 315//665 314//665 313//665
f 317//666 315//666 313//666
f 317//667 313//667 310//668
f 318//669 263//669 264//669
f 267//670 312//670 193//671
f 319//672 312//672 267//672
f 319//673 316//673 312//673
f 319//674 267//674 268//674
f 320//675 263//675 318//675
f 321//676 319//676 268//676
f 322//677 321//677 268//677
f 269//678 322//678 268//678
f 323//679 269//679 270//679
f 324//680 270//680 206//680
f 323//681 270//681 324//681
f 325//682 275//682 272//682
f 326//683 272//683 273//683
f 326//684 325//684 272//684
f 295//685 274//685 275//685
f 327//686 275//686 325//686
f 295//687 275//687 327//687
f 320//688 276//688 263//688
f 324//689 206//689 215//689
f 328//690 279//690 278//690
f 328//691 278//691 282//691
f 329//692 276//692 320//692
f 298//693 323//693 324//693
f 330//694 273//694 296//694
f 330//695 326//695 273//695
f 324//696 215//696 298//696
f 331//697 298//697 297//697
f 328//698 299//698 279//698
f 330//699 296//699 300//699
f 303//700 229//700 276//700
f 329//701 303//701 276//701
f 332//702 299//702 328//702
f 333//703 330//703 300//703
f 334//704 302//704 303//704
f 334//705 303//705 329//705
f 335//706 297//706 301//706
f 335//707 331//707 297//707
f 332//708 301//708 299//708
f 336//709 333//709 300//709
f 337//710 336//710 300//710
f 337//711 300//711 302//711
f 338//712 255//712 253//712
f 339//713 305//713 255//713
f 339//714 255//714 338//714
f 340//715 304//715 184//715
f 341//716 184//716 186//716
f 341//717 340//717 184//717
f 306//718 305//718 339//718
f 307//719 306//719 342//719
f 343//720 342//720 306//720
f 341//721 186//721 259//721
f 344//722 307//722 342//722
f 344//723 342//723 343//723
f 345//724 311//724 307//724
f 344//725 345//725 307//725
f 346//726 259//726 309//726
f 346//727 341//727 259//727
f 347//728 309//728 310//729
f 347//730 346//730 309//730
f 317//731 310//732 315//731
f 348//733 310//734 316//733
f 349//735 347//735 310//736
f 348//737 349//737 310//738
f 345//739 264//739 311//739
f 350//740 318//740 264//740
f 350//741 264//741 345//741
f 351//742 316//742 319//742
f 351//743 348//743 316//743
f 351//744 319//744 321//744
f 352//745 320//745 318//745
f 352//746 318//746 350//746
f 353//747 321//747 322//747
f 353//748 351//748 321//748
f 354//749 322//749 269//749
f 355//750 269//750 323//750
f 355//751 354//751 269//751
f 326//752 356//752 325//752
f 294//753 295//753 327//753
f 357//754 327//754 325//754
f 294//755 327//755 357//755
f 355//756 323//756 358//756
f 359//757 328//757 282//757
f 359//758 282//758 285//758
f 360//759 325//759 356//759
f 361//760 357//760 325//760
f 360//761 361//761 325//761
f 362//762 356//762 326//762
f 363//763 356//764 362//764
f 364//765 356//765 363//766
f 364//767 360//767 356//767
f 365//768 326//769 330//769
f 365//770 362//771 326//771
f 366//772 329//772 320//772
f 366//773 320//773 352//773
f 298//774 358//774 323//774
f 358//775 298//775 331//775
f 367//776 330//776 333//776
f 367//777 363//778 330//777
f 368//779 329//779 366//779
f 369//780 331//780 335//780
f 369//781 358//781 331//781
f 370//782 332//782 328//782
f 370//783 328//783 359//783
f 371//784 333//784 336//784
f 372//785 367//785 333//785
f 371//786 372//786 333//786
f 371//787 336//787 373//787
f 374//788 336//788 337//788
f 374//789 373//789 336//789
f 375//790 334//790 329//790
f 375//791 329//791 368//791
f 376//792 335//792 301//792
f 376//793 369//793 335//793
f 370//794 301//794 332//794
f 370//795 376//795 301//795
f 334//796 337//796 302//796
f 377//797 337//797 334//797
f 375//798 377//798 334//798
f 374//799 337//799 377//799
f 378//800 338//800 253//800
f 379//801 339//801 338//801
f 379//802 338//802 378//802
f 380//803 304//803 340//803
f 381//804 340//804 341//804
f 380//805 340//805 381//805
f 382//806 306//806 339//806
f 382//807 339//807 379//807
f 382//808 343//808 306//808
f 383//809 344//809 343//809
f 383//810 343//810 382//810
f 381//811 341//811 346//811
f 383//812 345//812 344//812
f 384//813 346//813 347//813
f 385//814 345//814 383//814
f 386//815 347//815 349//815
f 386//816 384//816 347//816
f 387//817 349//817 348//817
f 387//818 386//818 349//818
f 388//819 350//819 345//819
f 388//820 345//820 385//820
f 353//821 348//821 351//821
f 353//822 387//822 348//822
f 389//823 350//823 388//823
f 389//824 352//824 350//824
f 390//825 322//825 354//825
f 390//826 391//826 322//826
f 390//827 354//827 392//827
f 392//828 354//828 355//828
f 393//829 352//829 389//829
f 394//830 392//830 355//830
f 293//831 294//832 357//832
f 395//833 357//834 361//834
f 293//835 357//836 395//837
f 394//838 355//838 358//838
f 396//839 394//839 358//839
f 397//840 359//840 285//840
f 397//841 285//841 284//841
f 393//842 366//842 352//842
f 398//843 359//843 397//843
f 365//844 330//845 363//846
f 365//847 363//848 362//849
f 365//850 363//851 367//852
f 365//853 364//854 363//855
f 399//856 366//856 393//856
f 399//857 368//857 366//857
f 396//858 358//858 369//858
f 398//859 370//859 359//859
f 365//860 367//861 372//861
f 400//862 375//862 368//862
f 401//863 400//863 368//863
f 401//864 368//864 399//864
f 402//865 369//865 376//865
f 402//866 396//866 369//866
f 403//867 372//867 371//867
f 404//868 365//869 372//868
f 403//870 404//870 372//870
f 374//871 371//871 373//871
f 405//872 371//872 374//872
f 406//873 403//873 371//873
f 405//874 406//874 371//874
f 377//875 375//875 400//875
f 377//876 400//876 401//876
f 398//877 376//877 370//877
f 402//878 376//878 398//878
f 407//879 374//879 377//879
f 408//880 405//880 374//880
f 407//881 408//881 374//881
f 245//882 250//882 240//882
f 244//883 245//883 240//883
f 237//884 244//884 240//884
f 247//885 249//885 250//885
f 245//886 247//886 250//886
f 237//887 243//887 244//887
f 241//888 252//888 243//888
f 237//889 241//889 243//889
f 251//890 253//890 252//890
f 242//891 251//891 252//891
f 241//892 242//892 252//892
f 254//893 378//893 253//893
f 251//894 254//894 253//894
f 409//895 410//895 378//895
f 411//896 378//896 410//896
f 304//897 409//897 378//897
f 254//898 304//898 378//898
f 412//899 379//899 378//899
f 412//900 378//900 411//900
f 413//901 410//901 409//901
f 414//902 411//902 410//902
f 414//903 410//903 413//903
f 415//904 416//904 409//904
f 417//905 409//905 416//905
f 418//906 415//906 409//906
f 380//907 418//907 409//907
f 304//908 380//908 409//908
f 419//909 409//909 417//909
f 420//910 413//910 409//910
f 419//911 420//911 409//911
f 417//912 416//912 415//912
f 421//913 415//913 418//913
f 421//914 417//914 415//914
f 381//915 422//915 418//915
f 423//916 418//916 422//916
f 380//917 381//917 418//917
f 424//918 421//918 418//918
f 425//919 418//919 423//919
f 426//920 424//920 418//920
f 425//921 426//921 418//921
f 423//922 422//922 381//922
f 384//923 381//923 346//923
f 427//924 381//924 384//924
f 428//925 423//925 381//925
f 427//926 428//926 381//926
f 429//927 382//927 379//927
f 429//928 379//928 412//928
f 430//929 383//929 382//929
f 430//930 382//930 429//930
f 431//931 383//931 430//931
f 431//932 385//932 383//932
f 386//933 432//933 384//933
f 433//934 384//934 432//934
f 433//935 427//935 384//935
f 434//936 433//936 432//936
f 387//937 432//937 386//937
f 434//938 432//938 387//938
f 435//939 388//939 385//939
f 435//940 385//940 431//940
f 436//941 387//941 353//941
f 437//942 387//942 436//942
f 437//943 434//943 387//943
f 435//944 389//944 388//944
f 436//945 353//945 322//945
f 436//946 322//946 391//946
f 438//947 391//947 390//947
f 438//948 436//948 391//948
f 439//949 389//949 435//949
f 440//950 390//950 392//950
f 440//951 438//951 390//951
f 441//952 393//952 389//952
f 441//953 389//953 439//953
f 442//954 392//954 394//954
f 442//955 440//955 392//955
f 360//956 395//957 361//956
f 293//958 395//959 443//960
f 444//961 443//961 395//962
f 293//963 395//964 360//965
f 445//966 444//966 395//967
f 445//968 395//969 293//970
f 446//971 397//971 284//971
f 447//972 284//972 288//972
f 448//973 284//973 447//973
f 448//974 446//974 284//974
f 449//975 288//975 289//975
f 447//976 288//976 449//976
f 290//977 449//977 289//977
f 293//978 443//979 291//979
f 292//980 291//980 443//980
f 450//981 443//981 444//981
f 292//982 443//982 450//982
f 441//983 399//983 393//983
f 451//984 394//984 396//984
f 451//985 442//985 394//985
f 452//986 360//986 364//986
f 452//987 293//988 360//987
f 453//989 451//989 396//989
f 446//990 398//990 397//990
f 404//991 364//991 365//992
f 452//993 364//993 404//993
f 454//994 399//994 441//994
f 455//995 398//995 446//995
f 456//996 404//996 403//996
f 456//997 452//997 404//997
f 457//998 456//998 403//998
f 458//999 457//999 403//999
f 459//1000 403//1000 406//1000
f 459//1001 458//1001 403//1001
f 460//1002 459//1002 406//1002
f 460//1003 406//1003 461//1003
f 408//1004 406//1004 405//1004
f 462//1005 406//1005 408//1005
f 462//1006 461//1006 406//1006
f 454//1007 401//1007 399//1007
f 402//1008 453//1008 396//1008
f 377//1009 401//1009 407//1009
f 407//1010 401//1010 454//1010
f 463//1011 402//1011 398//1011
f 464//1012 463//1012 398//1012
f 464//1013 398//1013 455//1013
f 407//1014 462//1014 408//1014
f 419//1015 417//1015 421//1015
f 465//1016 412//1016 411//1016
f 465//1017 411//1017 414//1017
f 430//1018 429//1018 466//1018
f 412//1019 466//1019 429//1019
f 424//1020 419//1020 421//1020
f 467//1021 423//1021 428//1021
f 467//1022 425//1022 423//1022
f 468//1023 430//1023 466//1023
f 469//1024 468//1024 466//1024
f 412//1025 465//1025 466//1025
f 469//1026 466//1026 465//1026
f 468//1027 431//1027 430//1027
f 467//1028 428//1028 427//1028
f 470//1029 427//1029 433//1029
f 471//1030 467//1030 427//1030
f 472//1031 471//1031 427//1031
f 470//1032 472//1032 427//1032
f 473//1033 431//1033 468//1033
f 474//1034 433//1034 434//1034
f 474//1035 470//1035 433//1035
f 473//1036 435//1036 431//1036
f 474//1037 434//1037 437//1037
f 475//1038 474//1038 437//1038
f 438//1039 437//1039 436//1039
f 439//1040 435//1040 473//1040
f 476//1041 438//1041 440//1041
f 477//1042 441//1042 439//1042
f 476//1043 440//1043 442//1043
f 290//1044 447//1044 449//1044
f 445//1045 450//1045 444//1045
f 445//1046 292//1046 450//1046
f 478//1047 447//1047 290//1047
f 478//1048 448//1048 447//1048
f 479//1049 290//1049 286//1049
f 480//1050 286//1050 287//1050
f 480//1051 479//1051 286//1051
f 479//1052 478//1052 290//1052
f 481//1053 287//1053 292//1053
f 481//1054 480//1054 287//1054
f 481//1055 292//1055 445//1055
f 445//1056 293//1057 452//1056
f 482//1058 441//1058 477//1058
f 451//1059 476//1059 442//1059
f 483//1060 446//1060 448//1060
f 484//1061 483//1061 448//1061
f 484//1062 448//1062 478//1062
f 456//1063 445//1063 452//1063
f 481//1064 445//1064 456//1064
f 485//1065 451//1065 453//1065
f 486//1066 446//1066 483//1066
f 487//1067 486//1067 483//1067
f 487//1068 483//1068 484//1068
f 481//1069 456//1069 457//1069
f 454//1070 441//1070 482//1070
f 488//1071 454//1071 482//1071
f 488//1072 482//1072 489//1072
f 490//1073 485//1073 453//1073
f 486//1074 455//1074 446//1074
f 491//1075 486//1075 487//1075
f 492//1076 457//1076 458//1076
f 481//1077 457//1077 480//1077
f 492//1078 480//1078 457//1078
f 493//1079 458//1079 459//1079
f 493//1080 492//1080 458//1080
f 463//1081 490//1081 453//1081
f 402//1082 463//1082 453//1082
f 464//1083 455//1083 486//1083
f 494//1084 464//1084 486//1084
f 494//1085 486//1085 491//1085
f 495//1086 459//1086 460//1086
f 495//1087 493//1087 459//1087
f 407//1088 454//1088 488//1088
f 407//1089 488//1089 462//1089
f 496//1090 463//1090 464//1090
f 497//1091 496//1091 464//1091
f 497//1092 464//1092 494//1092
f 498//1093 460//1093 461//1093
f 462//1094 498//1094 461//1094
f 499//1095 495//1095 460//1095
f 500//1096 499//1096 460//1096
f 498//1097 500//1097 460//1097
f 501//1098 420//1098 419//1098
f 502//1099 420//1099 501//1099
f 413//1100 420//1100 502//1100
f 501//1101 419//1101 424//1101
f 469//1102 465//1102 414//1102
f 503//1103 469//1103 414//1103
f 501//1104 424//1104 426//1104
f 504//1105 501//1105 426//1105
f 471//1106 425//1106 467//1106
f 471//1107 426//1107 425//1107
f 505//1108 469//1108 503//1108
f 468//1109 469//1109 505//1109
f 473//1110 468//1110 505//1110
f 473//1111 505//1111 506//1111
f 507//1112 506//1112 505//1112
f 507//1113 505//1113 503//1113
f 508//1114 470//1114 474//1114
f 509//1115 471//1115 472//1115
f 508//1116 472//1116 470//1116
f 475//1117 508//1117 474//1117
f 510//1118 508//1118 475//1118
f 511//1119 506//1119 507//1119
f 512//1120 511//1120 507//1120
f 513//1121 510//1121 475//1121
f 437//1122 513//1122 475//1122
f 514//1123 506//1123 511//1123
f 473//1124 506//1124 514//1124
f 515//1125 513//1125 437//1125
f 516//1126 513//1126 515//1126
f 517//1127 513//1127 516//1127
f 438//1128 515//1128 437//1128
f 439//1129 473//1129 514//1129
f 518//1130 511//1130 512//1130
f 476//1131 515//1131 438//1131
f 489//1132 514//1132 511//1132
f 477//1133 439//1133 514//1133
f 477//1134 514//1134 489//1134
f 518//1135 489//1135 511//1135
f 485//1136 515//1136 476//1136
f 519//1137 516//1137 515//1137
f 519//1138 515//1138 485//1138
f 482//1139 477//1139 489//1139
f 451//1140 485//1140 476//1140
f 520//1141 478//1141 479//1141
f 520//1142 484//1142 478//1142
f 492//1143 479//1143 480//1143
f 492//1144 520//1144 479//1144
f 521//1145 489//1145 518//1145
f 522//1146 521//1146 518//1146
f 523//1147 519//1147 485//1147
f 490//1148 523//1148 485//1148
f 524//1149 484//1149 520//1149
f 524//1150 487//1150 484//1150
f 493//1151 520//1151 492//1151
f 493//1152 524//1152 520//1152
f 488//1153 489//1153 521//1153
f 519//1154 523//1154 525//1154
f 526//1155 487//1155 524//1155
f 526//1156 491//1156 487//1156
f 526//1157 524//1157 493//1157
f 495//1158 526//1158 493//1158
f 527//1159 521//1159 522//1159
f 496//1160 523//1160 490//1160
f 496//1161 525//1161 523//1161
f 463//1162 496//1162 490//1162
f 528//1163 491//1163 526//1163
f 528//1164 494//1164 491//1164
f 499//1165 526//1165 495//1165
f 499//1166 528//1166 526//1166
f 498//1167 521//1167 527//1167
f 462//1168 488//1168 521//1168
f 462//1169 521//1169 498//1169
f 498//1170 527//1170 500//1170
f 529//1171 497//1171 494//1171
f 529//1172 494//1172 528//1172
f 529//1173 528//1173 499//1173
f 500//1174 529//1174 499//1174
f 502//1175 501//1175 504//1175
f 530//1176 502//1176 504//1176
f 530//1177 504//1177 531//1177
f 532//1178 504//1178 426//1178
f 531//1179 504//1179 532//1179
f 533//1180 413//1180 502//1180
f 533//1181 502//1181 530//1181
f 503//1182 414//1182 413//1182
f 503//1183 413//1183 533//1183
f 532//1184 426//1184 471//1184
f 509//1185 532//1185 471//1185
f 534//1186 531//1186 532//1186
f 534//1187 532//1187 535//1187
f 509//1188 535//1188 532//1188
f 530//1189 531//1189 534//1189
f 536//1190 535//1190 509//1190
f 537//1191 534//1191 535//1191
f 537//1192 535//1192 536//1192
f 536//1193 509//1193 472//1193
f 538//1194 530//1194 534//1194
f 538//1195 534//1195 537//1195
f 539//1196 533//1196 530//1196
f 539//1197 530//1197 538//1197
f 507//1198 503//1198 533//1198
f 507//1199 533//1199 539//1199
f 540//1200 536//1200 472//1200
f 508//1201 540//1201 472//1201
f 537//1202 536//1202 540//1202
f 517//1203 540//1203 508//1203
f 541//1204 540//1204 517//1204
f 510//1205 517//1205 508//1205
f 542//1206 537//1206 540//1206
f 542//1207 540//1207 541//1207
f 543//1208 538//1208 537//1208
f 543//1209 537//1209 542//1209
f 544//1210 539//1210 538//1210
f 544//1211 538//1211 543//1211
f 512//1212 507//1212 539//1212
f 512//1213 539//1213 544//1213
f 513//1214 517//1214 510//1214
f 516//1215 541//1215 517//1215
f 545//1216 544//1216 543//1216
f 512//1217 544//1217 545//1217
f 518//1218 512//1218 545//1218
f 546//1219 541//1219 516//1219
f 542//1220 541//1220 546//1220
f 547//1221 543//1221 542//1221
f 548//1222 545//1222 543//1222
f 548//1223 543//1223 547//1223
f 518//1224 545//1224 548//1224
f 549//1225 542//1225 546//1225
f 547//1226 542//1226 549//1226
f 519//1227 546//1227 516//1227
f 522//1228 548//1228 547//1228
f 522//1229 518//1229 548//1229
f 519//1230 525//1230 546//1230
f 549//1231 546//1231 525//1231
f 550//1232 547//1232 549//1232
f 522//1233 547//1233 550//1233
f 550//1234 549//1234 525//1234
f 527//1235 522//1235 550//1235
f 529//1236 550//1236 525//1236
f 497//1237 525//1237 496//1237
f 529//1238 525//1238 497//1238
f 500//1239 527//1239 550//1239
f 500//1240 550//1240 529//1240
