# Blender v2.82 (sub 7) OBJ File: ''
# www.blender.org
mtllib sim_sea_2-5_r_hip_2_prt.mtl
o sim_sea_2-5_r_hip_2_prt
v -92.724617 -207.342834 -43.715603
v -91.370804 -203.596420 -47.998631
v -92.334663 -208.477188 -48.702415
v -92.882088 -209.141830 -43.848888
v -91.316597 -203.721252 -39.883732
v -92.426826 -208.180450 -39.029293
v -92.316467 -214.316711 -48.033596
v -92.674149 -215.962128 -44.042164
v -91.139198 -214.123962 -51.967110
v -92.297646 -213.512482 -39.438816
v -89.921272 -201.816925 -30.540026
v -89.829636 -201.641098 -57.052090
v -89.161385 -207.108047 -57.712524
v -89.379890 -200.718719 -30.546579
v -89.780411 -201.527328 -61.756359
v -89.272179 -200.684753 -57.137634
v -88.724525 -198.722061 -62.108967
v -88.407707 -204.847488 -77.127625
v -89.759285 -194.667831 -65.810997
v -87.905251 -195.218414 -64.007874
v -51.453323 -200.020844 -30.565279
v -51.144814 -200.137390 -56.846474
v -85.691505 -195.791153 -61.771435
v -50.525925 -201.459824 -25.810926
v -50.113911 -201.766678 -56.842453
v -51.519501 -198.481461 -62.085274
v -54.594311 -195.719086 -61.784882
v -50.428455 -201.568161 -30.439579
v -49.016666 -203.095840 -50.265560
v -48.773254 -207.751755 -52.477959
v -51.143288 -207.026901 -57.760174
v -50.373463 -201.453979 -62.232136
v -49.265518 -202.987762 -36.895542
v -48.688080 -203.552414 -47.230610
v -47.521782 -208.158798 -47.362297
v -48.797859 -203.539810 -40.193680
v -47.320744 -206.753922 -43.964756
v -47.490860 -208.144150 -40.052670
v -48.744072 -207.993896 -34.991867
v -50.292278 -207.545792 -30.089994
v -51.554409 -206.508087 -25.136396
v -51.485970 -198.450607 -25.479584
v -51.846386 -205.989456 -10.334693
v -51.218452 -194.608643 -21.358261
v -50.721233 -194.800644 -20.223660
v -54.606148 -195.605301 -25.615206
v -52.962879 -195.536194 -23.811117
v -88.734795 -198.305115 -25.194040
v -87.561646 -195.036835 -23.792227
v -85.387512 -195.795364 -25.688772
v -89.575401 -207.787186 -27.722799
v -89.580658 -200.826157 -25.204851
v -88.415520 -220.231995 -55.812935
v -86.336777 -224.634796 -56.424900
v -89.679588 -224.861755 -51.114147
v -91.173454 -225.186096 -47.130535
v -90.747948 -227.064270 -44.064320
v -86.544296 -213.596054 -59.913177
v -91.942032 -219.861435 -39.787712
v -90.523796 -225.002121 -38.039833
v -91.089813 -213.708069 -35.371258
v -89.480972 -213.544632 -31.854097
v -88.304398 -225.178009 -33.144985
v -86.473160 -213.561340 -27.853376
v -88.260727 -213.346924 -30.092016
v -83.294136 -224.858780 -27.829416
v -89.681824 -212.979431 -55.550438
v -88.985847 -208.059525 -58.306374
v -88.929878 -208.493561 -27.744564
v -88.668388 -208.204742 -24.019621
v -88.243263 -207.355392 -62.087788
v -87.956863 -205.099152 -77.532631
v -88.699455 -206.504883 -9.935796
v -88.762482 -192.837387 -78.591599
v -89.962364 -191.650391 -66.847870
v -89.260948 -192.750641 -77.799171
v -89.874207 -185.276718 -70.407791
v -89.103851 -185.778412 -76.045860
v -88.779160 -185.702271 -77.170845
v -88.561539 -167.025070 -74.402565
v -88.327698 -167.015793 -76.083755
v -87.852486 -167.125443 -76.818253
v -88.716438 -171.757065 -74.355728
v -89.775772 -178.647064 -71.483002
v -87.990463 -171.786072 -76.742851
v -87.036392 -161.176605 -80.546188
v -89.111137 -161.420044 -76.854698
v -89.088470 -162.148849 -74.557457
v -88.339890 -156.469467 -80.168610
v -89.691818 -149.825043 -76.398941
v -89.988686 -150.310379 -71.897263
v -89.678764 -156.039536 -71.773651
v -88.355400 -161.626801 -72.127983
v -88.195496 -161.136871 -71.604492
v -88.237961 -167.095245 -73.690849
v -88.287781 -171.516541 -73.691483
v -87.989075 -175.813812 -71.618599
v -50.553024 -178.660812 -71.581192
v -50.441967 -191.656494 -66.988960
v -50.424068 -185.435501 -70.839912
v -89.393738 -192.484833 -66.213470
v -85.292274 -194.517731 -63.059536
v -51.060127 -192.560593 -65.943199
v -54.909405 -194.462631 -63.068665
v -84.475746 -208.368790 -66.950134
v -85.680313 -209.564209 -63.589275
v -82.393349 -213.428726 -63.536278
v -72.669617 -207.812424 -72.428871
v -79.932678 -209.238037 -67.792061
v -75.263672 -209.760468 -68.618355
v -78.815727 -213.853271 -65.196991
v -70.595482 -210.131973 -68.630508
v -74.629852 -213.826920 -67.023399
v -52.823757 -205.152191 -77.541534
v -65.920677 -209.438263 -68.279434
v -61.294151 -209.225616 -67.815575
v -66.473816 -213.722122 -67.263443
v -70.367401 -213.364944 -68.518234
v -56.746483 -208.521118 -66.974022
v -61.968445 -213.539001 -65.389061
v -52.740803 -207.859787 -62.294521
v -55.623627 -210.132111 -63.660835
v -58.637024 -213.481674 -63.755383
v -51.699333 -208.897995 -58.666164
v -52.080139 -204.848618 -77.133385
v -56.470181 -213.469421 -62.219555
v -54.197906 -213.660095 -60.057343
v -51.639172 -213.763565 -57.093540
v -71.087547 -200.568375 -80.253609
v -89.933266 -162.128998 -8.554390
v -89.592659 -193.642273 -22.061275
v -88.222008 -206.636841 -9.414649
v -52.545643 -207.689377 -20.495575
v -52.388569 -206.243607 -9.291641
v -56.880817 -208.344543 -20.245420
v -61.340904 -208.933960 -19.826298
v -68.413261 -209.532852 -19.290718
v -75.210838 -209.707703 -19.324053
v -79.935860 -209.528656 -19.640240
v -84.676102 -208.995743 -20.133129
v -85.247238 -209.560150 -23.785320
v -50.623226 -159.751358 -7.967406
v -52.479298 -208.273331 -24.940311
v -51.128311 -209.172485 -28.929367
v -55.360569 -210.068542 -23.688349
v -56.505802 -213.439621 -24.968464
v -51.966927 -213.300018 -29.613516
v -61.949966 -213.765778 -22.497885
v -65.965591 -213.908508 -21.690115
v -70.535316 -214.280273 -21.527267
v -74.897598 -214.058609 -21.893435
v -78.957031 -213.828690 -22.953541
v -82.310226 -213.576508 -24.534019
v -83.900490 -213.339294 -25.642960
v -89.346436 -187.424011 -18.056131
v -89.560844 -191.861694 -21.253389
v -51.272541 -189.027252 -14.607682
v -50.672703 -192.621155 -19.913900
v -88.655373 -166.800262 -12.678429
v -87.946358 -166.953094 -13.219278
v -61.065632 -176.631287 -14.662640
v -68.560051 -176.503510 -15.400287
v -79.817665 -176.083679 -15.587316
v -84.322830 -175.809341 -15.581115
v -84.459770 -171.745529 -14.978428
v -88.051193 -171.090607 -14.215749
v -89.319267 -161.865662 -13.571132
v -88.087776 -162.044144 -15.117431
v -90.109039 -156.819000 -8.747340
v -89.483299 -156.663239 -15.561141
v -89.953224 -143.520065 -7.716477
v -50.822742 -185.832474 -76.353439
v -52.420979 -192.955566 -78.475700
v -84.745369 -194.578690 -24.460417
v -51.808113 -142.674133 -7.733102
v -50.942532 -194.678314 -65.614052
v -51.399666 -192.886230 -77.459221
v -50.204582 -198.922318 -66.776642
v -55.020317 -194.650757 -24.147243
v -52.780609 -171.428635 -14.045285
v -51.332623 -166.736053 -13.305307
v -61.080135 -176.696503 -78.087135
v -65.728844 -176.784637 -78.312798
v -73.267960 -176.905151 -78.475647
v -80.058861 -176.731567 -78.303749
v -84.610619 -176.558090 -77.885033
v -84.720779 -172.078918 -78.184395
v -52.222633 -162.530914 -76.618248
v -51.515450 -171.714188 -74.165863
v -52.509972 -167.118347 -14.381897
v -54.125763 -165.338593 -15.892595
v -51.801277 -160.799438 -15.331451
v -51.112152 -162.254654 -13.263025
v -56.696201 -171.916183 -14.983866
v -57.963848 -169.292618 -16.281841
v -62.045219 -171.654282 -16.476675
v -63.385422 -167.796402 -18.387465
v -66.332642 -172.262177 -16.698221
v -70.478127 -170.722717 -17.327299
v -74.221184 -172.687256 -16.806976
v -80.311058 -171.209457 -16.688187
v -76.969681 -167.974945 -18.608240
v -82.816238 -168.910995 -16.469316
v -86.271858 -164.803391 -15.627048
v -83.275764 -165.541260 -17.086042
v -53.004230 -167.301071 -77.532822
v -56.348515 -172.114655 -78.425392
v -53.934238 -161.942535 -80.342682
v -54.360386 -160.984497 -81.382065
v -52.876392 -158.152267 -80.401306
v -51.747059 -162.451050 -74.594025
v -50.433167 -153.327972 -75.878273
v -56.922054 -166.623322 -81.070602
v -57.436928 -165.463486 -81.985115
v -55.658249 -163.554321 -81.461441
v -61.878052 -169.944305 -81.234322
v -62.095104 -168.434998 -81.980408
v -59.065456 -167.038498 -81.777130
v -65.601891 -171.123947 -81.419296
v -72.091301 -171.245789 -81.203598
v -78.826248 -169.491379 -81.032982
v -83.844826 -166.044327 -80.982018
v -81.048325 -166.701141 -81.650848
v -84.773834 -163.243637 -81.989716
v -54.935242 -173.653275 -71.438927
v -84.430275 -171.895691 -71.297455
v -54.501938 -164.953461 -71.469185
v -84.761742 -166.812714 -71.271820
v -84.933128 -171.447388 -71.544449
v -85.205612 -167.282501 -71.542496
v -52.146133 -161.135239 -71.586372
v -50.539768 -156.411530 -71.653770
v -50.003494 -150.343079 -71.649513
v -88.792374 -143.796753 -71.609932
v -51.527996 -144.341705 -71.729332
v -54.182343 -139.507935 -71.721069
v -85.737473 -139.500168 -71.872726
v -81.325035 -135.837891 -72.079529
v -59.484325 -135.851044 -72.231163
v -77.853729 -134.531204 -72.418037
v -63.294949 -134.499878 -72.575500
v -74.303329 -133.854507 -72.724777
v -66.873535 -133.810104 -72.807480
v -70.383141 -133.584335 -72.871010
v -52.090183 -161.926743 -72.111038
v -52.312119 -166.950668 -73.383842
v -52.203579 -171.492981 -73.211357
v -52.104939 -175.985123 -71.826553
v -87.345795 -157.280792 -81.210556
v -85.992790 -158.085129 -18.960262
v -88.363419 -151.357895 -79.952484
v -90.315437 -152.663666 -9.051381
v -89.695107 -152.696426 -15.715744
v -88.233337 -152.930801 -17.101866
v -85.455994 -159.353973 -18.671671
v -87.496140 -150.198883 -80.508957
v -86.311226 -145.553192 -80.659546
v -90.296013 -148.444977 -8.961819
v -89.543190 -148.653275 -15.654479
v -86.143372 -144.886581 -18.458744
v -85.425201 -146.100021 -18.859489
v -84.679192 -152.837463 -18.652859
v -88.424538 -144.501663 -76.082230
v -88.744270 -144.638367 -15.596786
v -89.937393 -144.304474 -8.532031
v -85.354591 -139.365814 -76.387650
v -84.776009 -141.429871 -80.117828
v -81.114021 -137.400330 -81.523628
v -86.497971 -140.603226 -15.751153
v -84.133217 -139.189819 -17.062376
v -84.894402 -144.229095 -18.723545
v -87.229469 -140.547623 -8.971702
v -59.006748 -135.233810 -8.082215
v -83.462219 -137.101395 -15.588975
v -82.671333 -136.419724 -9.419674
v -82.675652 -219.311172 -61.900757
v -78.869476 -225.058029 -62.825729
v -74.272507 -227.375244 -24.266994
v -72.940414 -226.671204 -62.374130
v -78.011230 -224.995712 -24.515768
v -71.958244 -225.197418 -22.960979
v -70.764191 -226.441284 -66.014610
v -56.884212 -226.558365 -25.914196
v -66.166054 -225.180206 -23.205431
v -61.681515 -225.402100 -24.274055
v -54.507759 -225.908630 -59.058739
v -57.824863 -221.371475 -25.126814
v -55.150356 -225.927795 -28.065094
v -53.413837 -225.871445 -30.660135
v -50.924664 -225.478607 -38.718773
v -50.361423 -224.760376 -35.662819
v -49.977356 -225.156311 -48.184788
v -51.811123 -221.521912 -31.332457
v -48.959774 -224.759918 -40.995556
v -48.980900 -224.039581 -47.541275
v -51.053398 -224.930115 -52.200905
v -51.632401 -219.857513 -56.255131
v -62.086658 -225.117020 -63.191143
v -57.968750 -219.907898 -62.208729
v -66.407669 -225.432220 -64.813278
v -74.405746 -225.162216 -64.508400
v -70.465462 -218.392899 -67.330116
v -50.487770 -162.022476 -9.350397
v -79.123108 -134.536972 -8.759602
v -79.157356 -134.088089 -9.458537
v -74.640770 -132.819916 -9.690986
v -70.532623 -132.399918 -9.710606
v -64.531853 -132.575714 -9.475428
v -59.003258 -134.860855 -9.094908
v -52.671902 -140.933502 -8.969203
v -55.628666 -137.716385 -9.233326
v -50.538528 -147.127823 -9.488309
v -50.083672 -153.675781 -9.501451
v -77.883339 -167.232590 -18.559998
v -79.984421 -162.261795 -18.665668
v -80.025192 -162.149384 -82.869469
v -79.988029 -152.789520 -83.190674
v -79.892365 -148.178665 -83.055450
v -79.760948 -143.645874 -82.845085
v -85.017853 -157.798203 -19.007315
v -80.194199 -157.798004 -19.027376
v -70.585335 -162.208588 -83.388344
v -75.638725 -169.010956 -81.662056
v -66.738831 -169.978180 -82.434044
v -66.249786 -161.884323 -83.098305
v -62.949799 -156.781555 -82.818535
v -56.098579 -140.660873 -82.354858
v -52.974304 -146.378494 -80.949295
v -52.592194 -153.800552 -80.583076
v -55.338547 -141.089783 -81.568047
v -52.142548 -146.882050 -79.919487
v -61.136143 -143.650330 -83.174324
v -59.722923 -137.268158 -81.264847
v -61.504791 -148.108337 -83.268898
v -62.163853 -152.498810 -83.083771
v -65.729240 -144.640701 -83.934418
v -63.559280 -135.428253 -81.008438
v -65.943558 -138.916992 -82.811852
v -66.000778 -147.851425 -84.149368
v -66.117470 -152.754959 -83.980705
v -66.344368 -157.268234 -83.696541
v -70.689339 -157.594086 -83.907997
v -74.947731 -153.060669 -84.036491
v -74.708839 -147.485977 -84.096886
v -74.928978 -144.666229 -83.857910
v -74.838043 -134.579956 -80.944824
v -71.772873 -139.094177 -83.214195
v -70.875000 -146.558746 -84.332207
v -68.462669 -134.306778 -80.490524
v -79.679855 -135.584320 -80.085045
v -80.329979 -153.068069 -19.040926
v -80.162018 -148.234802 -19.125746
v -79.885498 -143.552795 -19.166288
v -77.798996 -137.009430 -18.778513
v -77.074310 -136.039078 -18.618752
v -81.455124 -135.755707 -76.337547
v -78.268585 -133.656616 -15.658465
v -74.410042 -217.862747 -66.271408
v -76.204773 -166.862061 -18.825275
v -60.832390 -157.584564 -18.854206
v -70.692131 -162.406311 -18.739452
v -65.878052 -162.305756 -18.688349
v -61.074905 -162.214767 -18.595915
v -60.626297 -152.715775 -18.991226
v -70.458916 -166.984985 -18.300659
v -63.730236 -166.752075 -18.603922
v -54.421944 -157.694382 -18.520399
v -57.161785 -162.579849 -17.931736
v -56.353718 -152.908798 -18.665565
v -54.010754 -145.216812 -18.993349
v -52.570057 -152.790558 -17.424204
v -70.325584 -143.072800 -19.122719
v -60.810020 -143.162857 -19.319429
v -55.072731 -144.619247 -19.139887
v -75.161064 -143.309601 -19.154749
v -62.781929 -136.753143 -19.075865
v -56.864407 -139.313492 -17.462589
v -70.543015 -138.539871 -18.848715
v -63.065338 -135.613266 -18.947475
v -76.427048 -136.988617 -18.979322
v -70.473412 -134.466125 -17.687389
v -64.424614 -135.496628 -18.769379
v -74.524490 -132.508667 -15.703834
v -75.875786 -133.112564 -76.391075
v -72.387230 -133.416702 -79.629166
v -70.475273 -215.464752 -71.280220
v -70.474297 -215.135513 -71.311958
v -70.470108 -133.361832 -16.866493
v -70.567085 -132.455475 -76.242867
v -70.498077 -132.116989 -15.488838
v -66.573456 -217.834320 -66.503960
v -70.248329 -215.583649 -71.394363
v -69.986626 -215.207367 -80.447403
v -70.019554 -215.242371 -79.931816
v -70.019211 -215.190964 -80.544098
v -70.011452 -215.155380 -80.438011
v -69.979218 -215.177597 -80.461777
v -70.301239 -215.015930 -71.488907
v -69.854904 -215.458405 -71.381561
v -69.836052 -215.162292 -71.418304
v -66.538750 -132.396576 -15.764787
v -66.333893 -132.765488 -76.348976
v -58.918518 -136.794617 -17.130331
v -62.820469 -133.274765 -15.837276
v -61.104885 -134.443176 -76.303543
v -57.325394 -165.972687 -17.067020
v -59.387154 -135.094788 -15.614906
v -53.954887 -158.386398 -18.228821
v -50.710712 -148.565002 -15.851265
v -50.606022 -152.776520 -15.740684
v -51.413879 -145.085999 -15.935306
v -53.823895 -144.822144 -18.660480
v -56.237019 -137.880554 -15.750883
v -54.297081 -139.858841 -76.363548
v -49.308735 -213.239685 -34.386005
v -50.842300 -156.798920 -15.484621
v -52.981831 -141.719727 -15.699323
v -49.128155 -214.690460 -52.393795
v -47.743111 -214.043182 -48.047020
v -47.707447 -213.749619 -39.546589
v -47.686592 -208.992371 -48.494423
v -47.661205 -209.015060 -39.046577
v -50.967869 -146.747864 -76.079803
v -47.325039 -213.906448 -43.943008
vn -0.9700 0.2094 -0.1235
vn -0.9906 0.0940 -0.0989
vn -0.9361 0.3516 0.0117
vn -0.9937 0.0812 0.0777
vn -0.9597 0.2595 0.1074
vn -0.9933 -0.0162 -0.1143
vn -0.9944 -0.0332 0.1005
vn -0.9946 -0.0275 -0.1005
vn -0.9569 -0.0360 -0.2882
vn -0.9947 -0.0316 0.0982
vn -0.7821 0.6231 0.0014
vn -0.9775 -0.0969 -0.1873
vn -0.8380 0.5454 0.0140
vn -0.9291 0.2257 -0.2929
vn -0.9067 0.4217 0.0007
vn -0.9927 -0.1197 -0.0133
vn -0.8969 0.4422 -0.0002
vn -0.8495 0.5276 -0.0028
vn -0.9337 0.3562 0.0378
vn -0.9871 -0.1499 -0.0558
vn -0.9959 -0.0439 -0.0795
vn -0.8794 0.3688 0.3011
vn -0.5650 0.4211 0.7095
vn -0.0143 0.9999 -0.0046
vn -0.0155 0.6934 0.7204
vn -0.0184 0.9998 0.0012
vn -0.6925 0.6938 0.1976
vn 0.8450 0.5347 0.0059
vn 0.8400 0.5318 0.1080
vn 0.8294 0.5585 0.0073
vn -0.0014 0.7448 0.6673
vn 0.6670 0.7228 0.1808
vn 0.7609 0.6489 0.0042
vn 0.9831 0.1180 -0.1402
vn 0.8667 0.4988 0.0066
vn 0.9021 -0.1034 -0.4189
vn 0.9816 -0.1820 -0.0578
vn 0.9324 0.3607 -0.0240
vn 0.7951 0.6064 0.0099
vn 0.7807 0.6249 0.0095
vn 0.9667 0.2467 -0.0676
vn 0.9622 0.1563 -0.2230
vn 0.9145 0.4044 0.0135
vn 0.7953 0.6061 0.0113
vn 0.9561 0.2466 -0.1585
vn 0.9515 0.2744 0.1389
vn 0.9574 0.2745 0.0898
vn 0.9548 0.1872 0.2309
vn 0.9849 0.0324 0.1703
vn 0.9388 0.2035 0.2779
vn 0.9802 -0.1963 0.0252
vn 0.9702 0.0361 0.2396
vn 0.9459 0.3117 -0.0902
vn 0.9802 -0.1962 0.0262
vn 0.8787 0.3194 -0.3548
vn 0.8892 0.3091 -0.3374
vn 0.9966 -0.0338 0.0751
vn -0.0140 0.7417 -0.6705
vn 0.4365 0.7914 -0.4279
vn 0.8432 0.5152 -0.1537
vn -0.8935 0.4399 -0.0907
vn -0.9334 0.3556 -0.0478
vn -0.2412 0.7737 -0.5859
vn -0.0026 0.7034 -0.7108
vn -0.9621 0.2570 0.0913
vn -0.9685 0.0582 0.2422
vn -0.9973 -0.0255 0.0684
vn -0.9481 0.3181 0.0015
vn -0.7998 -0.3058 -0.5165
vn -0.9053 -0.1545 -0.3958
vn -0.9253 -0.1270 -0.3573
vn -0.9449 -0.1515 -0.2902
vn -0.4644 -0.8229 -0.3275
vn -0.6894 -0.2300 -0.6869
vn -0.9841 -0.1147 -0.1355
vn -0.6833 -0.6610 -0.3101
vn -0.9859 -0.1662 0.0173
vn -0.9675 -0.2417 0.0740
vn -0.9917 -0.1055 0.0730
vn -0.9230 -0.1317 0.3616
vn -0.8974 -0.1435 0.4172
vn -0.6479 -0.7130 0.2681
vn -0.9041 -0.1364 0.4050
vn -0.7910 -0.1459 0.5941
vn -0.7409 -0.3776 0.5555
vn -0.7074 -0.1976 0.6786
vn -0.9002 -0.1423 -0.4116
vn -0.8139 -0.1215 -0.5681
vn -0.9916 -0.0618 0.1140
vn -0.9572 -0.0691 0.2809
vn -0.9282 0.0184 -0.3716
vn -0.9405 -0.0409 -0.3374
vn -0.9641 -0.0123 -0.2653
vn -0.8090 -0.1960 -0.5541
vn -0.9582 -0.0449 0.2824
vn -0.8601 -0.3066 0.4077
vn -0.9666 -0.0709 0.2462
vn -0.7432 -0.3716 0.5564
vn -0.5257 -0.5016 0.6870
vn -0.9811 -0.1751 0.0825
vn -0.6526 -0.5993 0.4637
vn -0.9779 -0.0542 -0.2021
vn -0.7225 -0.6821 -0.1130
vn -0.9119 -0.3322 -0.2409
vn -0.7342 -0.6736 0.0847
vn -0.5093 -0.8545 0.1020
vn -0.5622 -0.8186 -0.1171
vn -0.6968 -0.1070 -0.7092
vn -0.9957 -0.0734 -0.0564
vn -0.8475 -0.0888 -0.5234
vn -0.9956 -0.0824 -0.0448
vn -0.9885 0.0575 -0.1402
vn -0.9585 0.0896 -0.2706
vn -0.9979 -0.0207 -0.0618
vn -0.8366 0.1051 -0.5377
vn -0.9897 0.0407 -0.1374
vn -0.8368 0.0335 -0.5464
vn -0.9987 0.0323 -0.0391
vn -0.9721 0.0544 -0.2281
vn -0.9909 -0.0071 -0.1347
vn -0.9600 0.0628 -0.2728
vn -0.5584 0.0031 -0.8295
vn -0.8511 -0.1868 -0.4907
vn -0.9890 -0.1434 -0.0357
vn -0.9843 -0.1107 -0.1375
vn -0.8354 -0.2049 -0.5099
vn -0.8493 -0.1959 -0.4902
vn -0.9596 -0.0371 -0.2788
vn -0.9971 -0.0551 -0.0531
vn -0.9964 -0.0471 -0.0708
vn -0.9960 -0.0880 -0.0181
vn -0.9476 -0.0927 0.3058
vn -0.9576 0.0050 0.2879
vn -0.8997 -0.2499 0.3577
vn -0.9086 0.0339 0.4164
vn -0.9071 -0.1336 0.3992
vn -0.8459 0.3108 0.4334
vn -0.8417 0.0094 0.5398
vn -0.4940 0.3496 0.7960
vn 0.0025 0.1601 0.9871
vn 0.0032 0.4876 0.8731
vn 0.0114 0.5263 0.8502
vn 0.0113 0.1090 0.9940
vn -0.5451 0.2394 0.8035
vn -0.4871 0.2935 0.8226
vn 0.0025 0.7558 0.6548
vn 0.0064 0.8300 0.5578
vn -0.0013 0.7966 0.6045
vn -0.7197 -0.5313 -0.4469
vn -0.6943 -0.3980 -0.5997
vn -0.4203 -0.8967 -0.1388
vn -0.6773 -0.5822 -0.4498
vn -0.5628 -0.4878 -0.6673
vn -0.2569 -0.7344 -0.6282
vn -0.2557 -0.6108 -0.7493
vn -0.0801 -0.9595 -0.2701
vn -0.1879 -0.8168 -0.5455
vn -0.2049 -0.5169 -0.8311
vn -0.4096 -0.5204 -0.7493
vn -0.0704 -0.8680 -0.4916
vn -0.3664 -0.3887 -0.8454
vn -0.0318 -0.3692 -0.9288
vn -0.0015 -0.8848 -0.4660
vn 0.0214 -0.9185 -0.3948
vn 0.1621 -0.8003 -0.5773
vn 0.0762 -0.9416 -0.3280
vn 0.1078 -0.2426 -0.9641
vn 0.0791 -0.0290 -0.9964
vn 0.2753 -0.2554 -0.9268
vn 0.1909 -0.9535 -0.2331
vn 0.2320 -0.5042 -0.8318
vn 0.3499 -0.5003 -0.7920
vn 0.3462 -0.9234 -0.1659
vn 0.6703 -0.5523 -0.4957
vn 0.3604 -0.6005 -0.7138
vn 0.6513 -0.5719 -0.4988
vn 0.9424 -0.1309 -0.3079
vn 0.6933 -0.7116 -0.1135
vn 0.4466 -0.8805 -0.1588
vn 0.6422 -0.4354 -0.6309
vn 0.6090 -0.4139 -0.6765
vn 0.8677 -0.3530 -0.3501
vn 0.9287 -0.1036 -0.3560
vn 0.9014 -0.1078 -0.4193
vn 0.9793 -0.1905 -0.0688
vn -0.1339 -0.0940 -0.9865
vn -0.0010 -0.5121 -0.8589
vn -0.9917 0.0430 -0.1209
vn 0.6688 0.2989 -0.6807
vn -0.9468 0.3175 0.0522
vn -0.4517 0.3570 -0.8176
vn -0.9983 -0.0294 0.0513
vn -0.3748 -0.9205 0.1103
vn -0.7419 -0.0415 0.6692
vn 0.0104 -0.9917 0.1278
vn 0.1546 -0.8040 0.5742
vn 0.1600 -0.7928 0.5881
vn 0.1099 -0.8724 0.4763
vn 0.0228 -0.9461 0.3231
vn -0.0523 -0.9712 0.2323
vn -0.1278 -0.9767 0.1727
vn -0.1313 -0.9764 0.1714
vn -0.3726 -0.9214 0.1103
vn 0.4864 -0.8728 0.0402
vn 0.8588 -0.5096 0.0537
vn -0.0031 -0.0284 0.9996
vn 0.8909 -0.0467 0.4517
vn 0.8867 -0.4565 0.0732
vn 0.8381 -0.3976 0.3735
vn 0.9194 -0.2657 0.2899
vn 0.5611 -0.8196 0.1160
vn 0.5776 -0.4539 0.6785
vn 0.6293 -0.4938 0.6001
vn 0.9009 -0.2427 0.3598
vn 0.1576 -0.8534 0.4969
vn 0.1457 -0.4927 0.8579
vn 0.3543 -0.6216 0.6987
vn 0.7137 -0.4472 0.5391
vn 0.1044 -0.4326 0.8955
vn 0.1884 -0.4933 0.8492
vn 0.0683 -0.4500 0.8904
vn 0.0088 -0.5080 0.8613
vn -0.0967 -0.3885 0.9164
vn -0.0758 -0.6194 0.7814
vn -0.2446 -0.5060 0.8271
vn -0.1514 -0.7244 0.6726
vn -0.3727 -0.6181 0.6921
vn -0.8866 -0.4157 0.2029
vn -0.4625 -0.7268 0.5078
vn -0.2998 -0.6334 0.7134
vn -0.5310 -0.5186 0.6701
vn -0.9930 -0.0337 0.1133
vn 0.9681 0.1075 -0.2264
vn 0.0977 0.5787 -0.8097
vn 0.0354 0.8293 -0.5577
vn -0.8874 0.1439 -0.4380
vn -0.5594 0.2267 -0.7973
vn 0.0929 0.0690 -0.9933
vn 0.0987 0.0538 -0.9937
vn 0.0235 0.1938 -0.9808
vn 0.0111 0.2038 -0.9789
vn 0.1361 0.1498 -0.9793
vn -0.1601 0.2379 -0.9580
vn -0.1023 0.2353 -0.9665
vn -0.9796 -0.1550 -0.1280
vn -0.7762 -0.2119 -0.5938
vn -0.6187 -0.2988 -0.7266
vn -0.9917 -0.0373 -0.1233
vn -0.9934 -0.0668 -0.0928
vn -0.9304 -0.0175 0.3662
vn -0.5662 -0.0377 0.8234
vn -0.0048 -0.0270 0.9996
vn -0.5517 0.4934 0.6724
vn 0.0218 0.1953 -0.9805
vn 0.0040 0.2847 -0.9586
vn 0.0038 0.2185 -0.9758
vn -0.5152 0.2381 0.8234
vn -0.4053 0.6704 0.6215
vn -0.4005 0.7107 0.5784
vn -0.2764 0.5636 -0.7784
vn -0.3459 0.3928 -0.8521
vn -0.2656 0.7508 -0.6048
vn 0.0007 -0.0137 0.9999
vn 0.7970 0.1357 0.5885
vn 0.9966 -0.0455 -0.0688
vn 0.9942 -0.0683 -0.0829
vn 0.9057 0.0419 0.4219
vn 0.9951 0.0297 -0.0945
vn 0.1450 0.7247 0.6737
vn 0.6953 0.1479 0.7033
vn -0.0011 0.7145 0.6996
vn -0.0013 0.7114 0.7028
vn 0.0365 0.7889 -0.6135
vn 0.0068 0.8990 -0.4380
vn 0.0092 0.7081 -0.7061
vn 0.5413 0.3919 -0.7439
vn -0.0039 0.8378 -0.5459
vn 0.4162 0.8115 -0.4102
vn 0.4030 0.7237 -0.5603
vn 0.9175 0.0359 -0.3960
vn 0.9933 -0.0045 0.1154
vn 0.9966 -0.0330 0.0761
vn 0.3034 0.0564 -0.9512
vn 0.9931 -0.0042 0.1169
vn 0.0516 0.0363 -0.9980
vn 0.0207 -0.1639 -0.9863
vn 0.0517 -0.2572 -0.9650
vn 0.0242 -0.1883 -0.9818
vn -0.0277 -0.0987 -0.9947
vn -0.0929 -0.0354 -0.9950
vn -0.0234 -0.0672 -0.9975
vn -0.3991 0.0508 -0.9155
vn 0.9953 0.0589 -0.0762
vn 0.9894 0.1033 0.1016
vn 0.9098 -0.0280 -0.4140
vn 0.6889 -0.0993 -0.7181
vn 0.6767 -0.0106 -0.7362
vn 0.6039 -0.2143 -0.7677
vn 0.9198 -0.0416 -0.3902
vn 0.9384 -0.0429 -0.3428
vn 0.6187 -0.0997 -0.7792
vn 0.2576 -0.3012 -0.9181
vn 0.2585 -0.3251 -0.9096
vn 0.3123 -0.2119 -0.9261
vn 0.2441 -0.2893 -0.9256
vn 0.2336 -0.3652 -0.9011
vn 0.2642 -0.3221 -0.9091
vn 0.0867 -0.3329 -0.9390
vn 0.0946 -0.3244 -0.9412
vn 0.0303 -0.3070 -0.9512
vn 0.0029 -0.3421 -0.9396
vn 0.0291 -0.3074 -0.9511
vn -0.0148 -0.2217 -0.9750
vn -0.2995 -0.2389 -0.9237
vn 0.0097 -0.3521 -0.9359
vn -0.3916 0.1221 -0.9120
vn -0.2534 -0.3311 -0.9089
vn -0.3348 -0.2792 -0.9000
vn -0.8665 0.1375 -0.4798
vn -0.4510 -0.0721 -0.8896
vn -0.3106 -0.2119 -0.9266
vn -0.6428 -0.2923 -0.7080
vn 0.6715 0.0319 -0.7404
vn 0.2930 -0.0263 -0.9558
vn 0.0533 -0.1281 -0.9903
vn 0.7026 0.0538 -0.7096
vn 0.9026 -0.0664 -0.4253
vn 0.9035 -0.0586 -0.4245
vn 0.8394 -0.2781 -0.4670
vn 0.9733 0.0137 -0.2292
vn 0.9609 -0.1692 -0.2191
vn 0.9286 -0.1534 -0.3380
vn 0.6133 -0.2899 -0.7347
vn 0.6079 -0.3074 -0.7321
vn 0.5885 -0.3482 -0.7297
vn 0.6786 -0.2453 -0.6924
vn 0.2992 -0.3738 -0.8779
vn 0.2907 -0.3901 -0.8737
vn 0.2574 -0.4327 -0.8640
vn 0.3549 -0.3754 -0.8562
vn 0.0520 -0.4168 -0.9075
vn 0.0266 -0.4814 -0.8761
vn 0.1932 -0.4754 -0.8583
vn -0.0219 -0.4304 -0.9024
vn -0.0338 -0.4283 -0.9030
vn -0.0990 -0.3362 -0.9366
vn -0.1107 -0.3340 -0.9360
vn -0.4086 -0.0709 -0.9099
vn -0.4050 -0.3355 -0.8505
vn -0.2969 -0.3658 -0.8821
vn -0.2525 -0.3965 -0.8826
vn -0.7218 0.0102 -0.6921
vn -0.6963 -0.3101 -0.6473
vn -0.5875 -0.4394 -0.6796
vn 0.0030 -0.0299 0.9995
vn -0.4045 0.2965 0.8652
vn 0.0025 -0.0262 0.9997
vn 0.0068 -0.0046 1.0000
vn -0.4654 -0.0348 0.8844
vn 0.0050 0.0032 1.0000
vn -0.4668 0.3577 0.8088
vn -0.5320 -0.1364 0.8357
vn -0.5737 0.0719 0.8159
vn -0.4948 -0.0328 0.8684
vn -0.0005 0.0582 0.9983
vn -0.5338 -0.2761 0.7993
vn 0.0048 0.0277 0.9996
vn -0.9055 -0.1345 0.4024
vn -0.0028 0.0324 0.9995
vn -0.0005 0.0144 0.9999
vn -0.0062 0.0212 0.9998
vn -0.0031 -0.0004 1.0000
vn -0.0062 -0.0429 0.9991
vn 0.0034 0.0142 0.9999
vn -0.0048 0.0644 0.9979
vn 0.0032 0.0001 1.0000
vn -0.0048 0.0621 0.9981
vn 0.0070 0.1480 0.9890
vn 0.0069 0.2336 0.9723
vn 0.0092 0.3722 0.9281
vn 0.0098 0.2728 0.9620
vn 0.0080 0.3839 0.9233
vn 0.0083 0.3570 0.9341
vn 0.9162 -0.3079 0.2563
vn 0.9896 -0.0241 0.1418
vn 0.4813 -0.2714 0.8335
vn 0.9570 -0.1103 0.2684
vn 0.5579 -0.0249 0.8295
vn 0.6800 0.0440 0.7318
vn 0.3607 0.2905 0.8863
vn 0.3548 0.2825 0.8912
vn -0.5778 0.0064 0.8161
vn -0.5382 -0.0356 0.8421
vn -0.7747 -0.1656 -0.6102
vn -0.6398 -0.1783 -0.7475
vn -0.7802 -0.1711 -0.6016
vn -0.6629 -0.3105 -0.6813
vn -0.7129 0.0263 -0.7007
vn -0.9351 0.0107 -0.3542
vn -0.7260 -0.2656 -0.6344
vn -0.9941 -0.0562 -0.0926
vn -0.9941 -0.0567 -0.0923
vn -0.7078 -0.0537 -0.7044
vn -0.6921 -0.0650 -0.7189
vn -0.4634 -0.3783 -0.8013
vn -0.9259 -0.0184 0.3772
vn -0.6001 0.0662 -0.7972
vn -0.4283 0.0801 -0.9001
vn -0.9957 0.0066 -0.0927
vn -0.9928 0.0390 -0.1129
vn -0.6825 0.0544 -0.7289
vn -0.6594 0.0362 -0.7509
vn -0.5054 -0.0142 -0.8627
vn -0.3986 0.1528 -0.9043
vn -0.3973 -0.0721 -0.9148
vn -0.9628 -0.0013 0.2702
vn -0.6649 0.1458 -0.7325
vn -0.8735 0.2334 -0.4272
vn -0.8567 0.2478 -0.4524
vn -0.9822 0.1824 -0.0451
vn -0.9646 0.2366 -0.1166
vn -0.9739 0.1954 -0.1156
vn -0.7246 0.1538 -0.6718
vn -0.9800 0.1026 -0.1704
vn -0.9888 0.0974 -0.1128
vn -0.7748 0.4359 -0.4579
vn -0.8668 0.3671 -0.3376
vn -0.2677 0.0688 -0.9611
vn -0.6303 0.3272 -0.7041
vn -0.8095 0.5660 -0.1558
vn -0.8584 0.5097 -0.0576
vn -0.6772 0.3523 -0.6460
vn -0.6128 0.3853 -0.6899
vn -0.3632 0.3407 -0.8672
vn -0.7397 0.4777 -0.4739
vn -0.0006 0.0463 0.9989
vn -0.8711 0.4812 -0.0979
vn -0.8093 0.5642 -0.1633
vn -0.6319 0.5720 -0.5230
vn -0.7508 0.6549 -0.0864
vn -0.6057 0.7082 0.3627
vn -0.6710 0.7414 0.0041
vn -0.6912 -0.2295 -0.6853
vn -0.6302 -0.3023 -0.7152
vn -0.2958 -0.9118 -0.2848
vn -0.2883 -0.9307 0.2253
vn -0.3940 -0.8173 0.4205
vn 0.0032 -0.9998 -0.0184
vn -0.4324 -0.6099 0.6641
vn -0.2471 -0.2916 0.9241
vn 0.0452 -0.9988 -0.0185
vn 0.0996 -0.7065 0.7006
vn 0.0791 -0.9967 -0.0156
vn 0.0370 -0.5426 0.8392
vn 0.1829 -0.4677 0.8648
vn 0.0399 -0.9991 -0.0167
vn 0.3029 -0.0891 0.9488
vn 0.7715 0.0436 0.6347
vn 0.1864 -0.9825 -0.0059
vn 0.7697 -0.3883 0.5067
vn 0.4956 -0.8614 0.1111
vn 0.0702 -0.9972 -0.0269
vn 0.1767 -0.9843 -0.0055
vn 0.8136 -0.2164 0.5397
vn 0.8513 -0.2417 0.4657
vn 0.3463 -0.9381 0.0027
vn 0.4620 -0.8786 0.1213
vn 0.7891 -0.5640 -0.2432
vn 0.7647 -0.6403 -0.0729
vn 0.6305 -0.7470 -0.2110
vn 0.8822 -0.2284 -0.4118
vn 0.3274 -0.6142 -0.7181
vn 0.4538 -0.1947 -0.8696
vn 0.5911 -0.0804 -0.8026
vn 0.3360 -0.5009 -0.7976
vn -0.4263 -0.8503 -0.3085
vn -0.4180 -0.1314 -0.8989
vn 0.2975 -0.1647 -0.9404
vn -0.2364 -0.9389 -0.2501
vn -0.1979 -0.8593 -0.4717
vn -0.6146 -0.1713 0.7700
vn -0.6432 -0.1763 -0.7451
vn -0.5503 -0.4730 0.6881
vn 0.1268 -0.0799 -0.9887
vn 0.5052 -0.0825 -0.8591
vn 0.9877 -0.0339 0.1525
vn 0.7062 -0.0594 -0.7055
vn 0.5384 0.5278 0.6569
vn -0.4469 0.6143 0.6502
vn -0.0281 0.1487 0.9885
vn -0.4778 0.7283 0.4912
vn -0.2025 0.8194 0.5362
vn -0.0559 0.5849 0.8091
vn -0.0150 0.4395 0.8981
vn -0.0206 0.4744 0.8801
vn 0.3419 0.8815 0.3258
vn 0.6316 0.6322 0.4488
vn 0.6283 0.7294 0.2708
vn 0.6171 0.6082 0.4993
vn 0.9259 0.3337 -0.1771
vn 0.8585 0.0526 0.5101
vn 0.8747 0.0598 0.4810
vn 0.9845 -0.0446 0.1697
vn -0.3021 -0.4099 -0.8607
vn -0.4788 -0.3725 -0.7950
vn -0.3191 -0.2125 -0.9236
vn -0.2997 -0.2387 -0.9237
vn -0.2866 -0.2935 -0.9120
vn -0.1566 -0.2966 -0.9421
vn -0.3038 -0.1484 -0.9411
vn -0.1927 0.0450 -0.9802
vn -0.1258 -0.2301 -0.9650
vn -0.1747 -0.0331 -0.9841
vn -0.3132 0.0343 -0.9491
vn -0.3685 0.0538 -0.9281
vn -0.4737 0.0829 -0.8768
vn 0.0162 -0.2152 -0.9764
vn -0.0041 -0.2098 -0.9777
vn -0.0429 -0.0827 -0.9957
vn -0.0547 -0.2467 -0.9675
vn -0.0821 -0.1874 -0.9788
vn -0.1036 -0.1716 -0.9797
vn -0.1208 -0.3799 -0.9171
vn 0.0729 -0.0860 -0.9936
vn -0.0121 -0.6697 -0.7426
vn 0.2264 -0.0933 -0.9696
vn 0.2074 -0.5252 -0.8253
vn 0.2216 -0.4063 -0.8864
vn 0.0569 -0.0180 -0.9982
vn 0.1915 -0.3016 -0.9340
vn 0.3836 -0.1367 -0.9133
vn 0.2299 -0.0269 -0.9729
vn 0.4837 -0.2181 -0.8476
vn 0.2225 -0.3502 -0.9099
vn 0.3571 -0.4754 -0.8040
vn 0.4747 -0.0190 -0.8799
vn 0.3946 -0.0102 -0.9188
vn 0.7154 -0.3425 -0.6090
vn 0.6441 -0.0739 -0.7613
vn 0.7619 0.2718 -0.5878
vn 0.8084 0.3023 -0.5051
vn -0.0164 0.2899 -0.9569
vn 0.1559 0.0081 -0.9877
vn 0.2744 -0.0816 -0.9582
vn 0.3490 -0.1216 -0.9292
vn 0.6346 0.7445 -0.2072
vn 0.1017 0.2644 -0.9590
vn 0.1246 0.3871 -0.9136
vn 0.1875 0.1958 -0.9626
vn 0.1925 0.0049 -0.9813
vn 0.1518 0.0532 -0.9870
vn 0.2252 -0.0748 -0.9714
vn 0.1899 -0.0383 -0.9811
vn 0.2634 -0.1077 -0.9587
vn 0.2251 -0.0725 -0.9716
vn 0.2645 -0.1186 -0.9571
vn 0.0756 -0.1266 -0.9891
vn -0.0552 -0.1130 -0.9921
vn 0.0566 -0.1105 -0.9923
vn -0.1671 -0.0332 -0.9854
vn -0.0664 -0.0905 -0.9937
vn -0.2011 0.0329 -0.9790
vn -0.1657 -0.0036 -0.9862
vn -0.1945 0.0511 -0.9796
vn -0.2051 0.0667 -0.9765
vn -0.2215 0.3138 -0.9233
vn -0.1598 0.2022 -0.9662
vn -0.0026 0.2065 -0.9784
vn 0.0300 0.4651 -0.8847
vn 0.0490 0.4320 -0.9005
vn 0.0633 0.1553 -0.9858
vn -0.0493 0.1421 -0.9886
vn 0.0041 0.1926 -0.9813
vn 0.0363 0.5454 -0.8374
vn -0.2633 0.7182 -0.6441
vn -0.7512 0.6554 -0.0784
vn -0.0846 0.0768 -0.9935
vn -0.0042 -0.0030 -1.0000
vn -0.0703 0.0759 -0.9946
vn -0.0658 -0.0379 -0.9971
vn -0.0896 -0.0144 -0.9959
vn -0.2791 0.1481 -0.9488
vn -0.1011 0.1006 -0.9898
vn -0.0528 -0.0055 -0.9986
vn -0.3533 0.3406 -0.8713
vn -0.0998 0.0905 -0.9909
vn -0.6780 0.5935 -0.4336
vn -0.4202 0.6094 -0.6724
vn -0.3677 0.4119 -0.8338
vn -0.6792 0.7331 0.0349
vn -0.6392 0.7684 -0.0313
vn -0.6510 0.7071 -0.2761
vn -0.5529 0.8330 -0.0212
vn -0.5528 0.8330 -0.0213
vn -0.4185 0.6176 -0.6659
vn -0.4797 -0.1795 -0.8589
vn -0.3914 -0.1887 -0.9007
vn -0.3486 -0.2202 -0.9110
vn -0.4294 -0.2185 0.8763
vn -0.5274 -0.1614 0.8342
vn -0.2578 -0.1552 0.9536
vn -0.2506 -0.1577 0.9552
vn -0.4321 -0.2223 -0.8740
vn -0.3917 -0.1891 -0.9004
vn -0.1374 -0.3172 -0.9384
vn -0.1230 -0.3830 -0.9155
vn -0.1385 -0.0795 -0.9872
vn 0.0090 -0.0026 -1.0000
vn -0.0092 -0.0812 -0.9967
vn 0.0114 -0.0389 -0.9992
vn 0.0195 -0.0133 -0.9997
vn 0.0095 -0.0562 -0.9984
vn 0.0028 -0.0176 -0.9998
vn 0.0030 -0.0283 -0.9996
vn 0.0048 -0.0089 -0.9999
vn -0.0075 0.0285 -0.9996
vn 0.0125 -0.0948 -0.9954
vn 0.0886 -0.0905 -0.9919
vn -0.0436 -0.0400 -0.9982
vn 0.0829 -0.2454 -0.9659
vn 0.0838 -0.2515 -0.9642
vn -0.0349 -0.2517 -0.9672
vn 0.0194 -0.0096 -0.9998
vn 0.0509 -0.0583 -0.9970
vn 0.1572 -0.1018 -0.9823
vn 0.2208 -0.1275 -0.9669
vn 0.1460 -0.1986 -0.9691
vn 0.0746 -0.0312 -0.9967
vn 0.0518 -0.0094 -0.9986
vn 0.0729 -0.0646 -0.9952
vn 0.3127 -0.1353 -0.9402
vn 0.3076 0.0955 -0.9467
vn -0.0210 -0.0347 -0.9992
vn 0.0227 -0.0339 -0.9992
vn 0.0069 -0.0066 -1.0000
vn 0.0031 -0.0126 -0.9999
vn 0.0914 -0.0809 -0.9925
vn -0.0204 0.0317 -0.9993
vn 0.3136 0.1322 -0.9403
vn 0.1141 0.3343 -0.9355
vn 0.0036 0.0605 -0.9982
vn -0.0361 0.0586 -0.9976
vn -0.0724 0.0938 -0.9929
vn 0.0311 0.0340 -0.9989
vn 0.0928 0.2715 -0.9579
vn -0.1239 0.2740 -0.9537
vn -0.1060 0.2384 -0.9654
vn 0.0010 0.0279 -0.9996
vn -0.1456 0.1047 -0.9838
vn -0.1436 0.2643 -0.9537
vn -0.2264 0.7122 -0.6645
vn -0.4247 0.8987 0.1095
vn -0.3497 0.9364 0.0287
vn -0.4239 0.8915 -0.1600
vn -0.1589 0.9522 0.2609
vn -0.2485 0.9073 -0.3393
vn -0.2466 0.9035 -0.3506
vn -0.2689 0.9628 0.0285
vn -0.2924 0.9553 0.0438
vn -0.2807 -0.2255 -0.9329
vn -0.0890 -0.1183 0.9890
vn -0.7367 -0.1624 -0.6565
vn -0.2586 -0.7763 -0.5748
vn -0.7263 -0.0638 -0.6844
vn -0.2671 0.8186 -0.5086
vn -0.3250 -0.0557 -0.9441
vn 0.0444 -0.3340 -0.9415
vn -0.1337 -0.1004 -0.9859
vn -0.0593 -0.0083 -0.9982
vn 0.0071 -0.0217 -0.9997
vn 0.0534 -0.0654 -0.9964
vn -0.0799 0.0780 -0.9938
vn 0.0403 0.3786 -0.9247
vn -0.0729 0.6658 -0.7426
vn -0.0289 0.5964 -0.8022
vn -0.1141 0.9701 -0.2140
vn 0.0170 0.7331 -0.6799
vn -0.0588 0.9732 0.2222
vn -0.1252 0.9387 0.3211
vn -0.1013 0.9936 0.0495
vn -0.0993 0.9939 0.0481
vn -0.0363 0.7411 -0.6704
vn 0.2314 -0.2065 -0.9507
vn 0.0463 -0.1360 0.9896
vn 0.0422 -0.1339 0.9901
vn -0.5845 -0.6526 -0.4823
vn 0.2313 -0.8060 -0.5448
vn -0.2453 -0.9660 -0.0813
vn -0.2453 -0.9661 -0.0810
vn -0.9363 0.3479 -0.0482
vn -0.9363 0.3480 -0.0479
vn -0.9988 -0.0018 -0.0492
vn -0.9988 -0.0018 -0.0489
vn -0.7442 -0.6656 -0.0563
vn -0.7442 -0.6656 -0.0560
vn 0.3663 0.8738 -0.3197
vn 0.3664 0.8739 -0.3194
vn 0.8539 -0.3827 -0.3525
vn 0.8540 -0.3828 -0.3523
vn -0.5899 0.8068 -0.0317
vn -0.4823 -0.8747 -0.0479
vn 0.3041 -0.9522 -0.0299
vn 0.4561 -0.8894 -0.0312
vn 0.3008 0.9537 -0.0051
vn 0.5624 0.8268 -0.0103
vn -0.7437 0.5772 -0.3373
vn 0.2676 -0.7831 -0.5614
vn 0.2294 0.8529 -0.4689
vn 0.3264 0.7797 -0.5344
vn 0.0187 -0.3347 -0.9421
vn 0.0075 -0.0346 -0.9994
vn 0.0218 -0.0590 -0.9980
vn 0.0539 0.0622 -0.9966
vn 0.0783 0.5946 -0.8002
vn -0.0112 0.6920 -0.7219
vn 0.1186 0.9091 -0.3993
vn 0.0620 0.9509 -0.3033
vn 0.0553 0.9477 0.3143
vn 0.0771 0.9530 0.2929
vn 0.0057 0.7420 -0.6704
vn 0.0273 0.9984 0.0491
vn 0.0708 0.9975 0.0058
vn 0.3571 -0.1955 -0.9134
vn 0.2000 -0.1340 0.9706
vn 0.2228 -0.1421 0.9645
vn 0.7924 -0.1293 -0.5961
vn 0.3842 -0.1767 -0.9062
vn 0.3837 -0.1760 -0.9065
vn 0.9686 -0.2484 -0.0149
vn 0.9977 -0.0655 -0.0163
vn 0.7920 -0.1246 -0.5977
vn 0.1052 -0.4118 -0.9052
vn -0.1647 -0.2520 -0.9536
vn 0.4417 0.2081 -0.8727
vn 0.4080 0.4384 -0.8009
vn 0.1625 0.7416 -0.6509
vn -0.0101 0.7996 -0.6004
vn 0.1608 0.8951 -0.4158
vn 0.2901 0.8950 -0.3387
vn 0.1615 0.9396 0.3018
vn 0.2985 0.9354 0.1896
vn 0.2288 0.9724 -0.0453
vn 0.3453 -0.1338 0.9289
vn 0.4361 -0.1721 -0.8833
vn 0.4264 -0.1695 -0.8885
vn 0.4160 -0.0873 0.9052
vn 0.2823 -0.2719 -0.9200
vn 0.2773 -0.2498 -0.9277
vn 0.4140 0.7116 -0.5676
vn 0.4512 0.6599 -0.6007
vn 0.3803 0.8453 -0.3754
vn 0.3117 0.9295 0.1973
vn 0.3819 0.9242 0.0012
vn 0.4705 0.8804 -0.0593
vn 0.6728 -0.0794 0.7355
vn 0.6737 -0.1580 -0.7219
vn 0.5735 -0.1348 -0.8080
vn 0.7110 -0.1320 0.6907
vn 0.5191 -0.4464 -0.7288
vn 0.3793 -0.2814 -0.8814
vn 0.2408 -0.2506 -0.9377
vn 0.3807 -0.3029 -0.8737
vn 0.2295 -0.2423 -0.9427
vn 0.6766 -0.0238 -0.7360
vn 0.6501 -0.0519 -0.7580
vn 0.5224 -0.0067 -0.8527
vn 0.6508 -0.0038 -0.7592
vn 0.7448 0.1876 -0.6404
vn 0.7522 0.1365 -0.6446
vn 0.3810 0.4840 -0.7877
vn 0.3845 0.3938 -0.8349
vn 0.5477 0.5318 -0.6459
vn 0.5991 0.7560 -0.2636
vn 0.6159 0.7301 -0.2959
vn 0.5405 0.6380 -0.5485
vn 0.5627 0.8244 0.0611
vn 0.6204 0.7807 -0.0743
vn 0.6430 0.7631 -0.0652
vn 0.6584 0.7484 -0.0803
vn 0.7692 -0.0712 -0.6351
vn 0.7690 -0.1168 0.6284
vn 0.7524 -0.0890 -0.6527
vn 0.8709 -0.0847 0.4840
vn 0.7383 -0.1991 -0.6444
vn 0.9154 -0.2396 0.3235
vn 0.8553 -0.2097 0.4738
vn 0.8360 0.2996 0.4596
vn 0.9836 0.1397 0.1144
vn 0.5207 0.6074 -0.6000
vn 0.8170 0.1862 0.5458
vn 0.4998 0.3620 0.7869
vn 0.8389 0.0407 0.5428
vn 0.8154 0.0471 0.5770
vn 0.9847 -0.0824 0.1535
vn 0.6637 -0.2529 -0.7039
vn 0.7027 -0.1946 -0.6844
vn 0.6833 -0.0863 -0.7251
vn 0.5893 0.4684 -0.6583
vn 0.7125 0.3735 -0.5940
vn 0.5947 0.4957 -0.6330
vn 0.7604 0.6436 -0.0872
vn 0.7362 0.6674 -0.1119
vn 0.9174 -0.1792 -0.3552
vn 0.9113 -0.1783 -0.3712
vn 0.9500 -0.1320 -0.2831
vn 0.9574 -0.1420 0.2516
vn 0.8747 -0.0651 -0.4802
vn 0.9447 -0.1201 0.3050
vn 0.9080 -0.1272 0.3991
vn 0.8767 -0.0506 -0.4784
vn 0.9537 -0.0371 -0.2984
vn 0.9592 -0.0524 -0.2780
vn 0.9915 -0.0224 -0.1278
vn 0.9510 -0.0675 0.3018
vn 0.9497 -0.0669 0.3061
vn 0.9631 -0.0376 0.2667
vn 0.9890 -0.0251 0.1458
vn 0.9668 0.1174 -0.2272
vn 0.9678 0.0847 0.2371
vn 0.9795 -0.1893 -0.0691
vn 0.9877 -0.0601 -0.1445
vn 0.9842 -0.1541 -0.0876
vn 0.9954 -0.0879 -0.0391
vn 0.9874 -0.0270 -0.1560
vn 0.9867 -0.0506 -0.1545
vn 0.8660 -0.2247 -0.4466
vn 0.9931 -0.0828 -0.0827
vn 0.9091 -0.0765 -0.4095
vn 0.9936 -0.0643 -0.0924
vn 0.9094 -0.0193 -0.4154
vn 0.9533 0.0685 -0.2940
vn 0.7801 0.0093 -0.6255
vn 0.9853 0.0754 -0.1533
vn 0.9949 0.0693 -0.0733
vn 0.9992 0.0240 -0.0325
vn 0.9692 0.2460 -0.0113
vn 0.9781 0.1960 -0.0707
vn 0.8688 0.4083 -0.2801
vn 0.8734 0.4049 -0.2705
vn 0.8663 0.4760 -0.1517
vn 0.8999 0.4326 -0.0549
vn 0.9446 0.3274 -0.0246
vn 0.9003 0.4257 -0.0912
vn 0.9878 -0.1543 -0.0202
vn 0.9881 -0.1243 0.0904
vn 0.9872 -0.1271 -0.0963
vn 0.9949 -0.0009 -0.1013
vn 0.9957 -0.0306 0.0877
vn 0.9991 -0.0005 0.0433
vn 0.9984 -0.0322 -0.0458
usemtl material_0.023
s off
f 1//1 2//1 3//1
f 4//2 1//2 3//2
f 5//3 2//3 1//3
f 6//4 1//4 4//4
f 6//5 5//5 1//5
f 7//6 4//6 3//6
f 8//7 6//7 4//7
f 8//8 4//8 7//8
f 7//9 3//9 9//9
f 10//10 6//10 8//10
f 11//11 12//11 2//11
f 13//12 2//12 12//12
f 5//13 11//13 2//13
f 13//14 3//14 2//14
f 14//15 15//15 12//15
f 13//16 12//16 15//16
f 11//17 14//17 12//17
f 14//18 16//18 15//18
f 17//19 15//19 16//19
f 13//20 15//20 18//20
f 19//21 18//21 15//21
f 20//22 15//22 17//22
f 20//23 19//23 15//23
f 21//24 22//24 16//24
f 23//25 16//25 22//25
f 14//26 21//26 16//26
f 23//27 17//27 16//27
f 24//28 25//28 22//28
f 26//29 22//29 25//29
f 21//30 24//30 22//30
f 27//31 23//31 22//31
f 26//32 27//32 22//32
f 28//33 29//33 25//33
f 30//34 25//34 29//34
f 24//35 28//35 25//35
f 30//36 31//36 25//36
f 32//37 25//37 31//37
f 32//38 26//38 25//38
f 28//39 33//39 29//39
f 33//40 34//40 29//40
f 35//41 29//41 34//41
f 30//42 29//42 35//42
f 36//43 37//43 34//43
f 33//44 36//44 34//44
f 35//45 34//45 37//45
f 38//46 37//46 36//46
f 38//47 36//47 33//47
f 38//48 33//48 39//48
f 40//49 33//49 28//49
f 40//50 39//50 33//50
f 41//51 28//51 24//51
f 40//52 28//52 41//52
f 42//53 24//53 21//53
f 41//54 24//54 43//54
f 44//55 24//55 42//55
f 45//56 24//56 44//56
f 45//57 43//57 24//57
f 46//58 21//58 14//58
f 47//59 21//59 46//59
f 42//60 21//60 47//60
f 48//61 14//61 11//61
f 49//62 14//62 48//62
f 50//63 14//63 49//63
f 46//64 14//64 50//64
f 6//65 11//65 5//65
f 51//66 11//66 6//66
f 52//67 11//67 51//67
f 48//68 11//68 52//68
f 53//69 54//69 55//69
f 9//70 53//70 55//70
f 7//71 55//71 56//71
f 7//72 9//72 55//72
f 57//73 55//73 54//73
f 58//74 54//74 53//74
f 8//75 7//75 56//75
f 57//76 56//76 55//76
f 59//77 8//77 56//77
f 60//78 59//78 56//78
f 57//79 60//79 56//79
f 61//80 59//80 60//80
f 62//81 61//81 60//81
f 63//82 60//82 57//82
f 63//83 62//83 60//83
f 64//84 62//84 63//84
f 65//85 62//85 64//85
f 66//86 64//86 63//86
f 67//87 53//87 9//87
f 58//88 53//88 67//88
f 10//89 8//89 59//89
f 61//90 10//90 59//90
f 3//91 67//91 9//91
f 13//92 67//92 3//92
f 68//93 67//93 13//93
f 58//94 67//94 68//94
f 6//95 10//95 61//95
f 51//96 61//96 62//96
f 51//97 6//97 61//97
f 69//98 62//98 65//98
f 69//99 51//99 62//99
f 70//100 69//100 65//100
f 64//101 70//101 65//101
f 71//102 68//102 13//102
f 72//103 71//103 13//103
f 58//104 68//104 71//104
f 73//105 51//105 69//105
f 70//106 73//106 69//106
f 72//107 13//107 18//107
f 74//108 72//108 18//108
f 75//109 76//109 18//109
f 74//110 18//110 76//110
f 19//111 75//111 18//111
f 77//112 78//112 76//112
f 79//113 76//113 78//113
f 75//114 77//114 76//114
f 79//115 74//115 76//115
f 80//116 81//116 78//116
f 82//117 78//117 81//117
f 83//118 80//118 78//118
f 84//119 83//119 78//119
f 77//120 84//120 78//120
f 85//121 79//121 78//121
f 82//122 85//122 78//122
f 86//123 81//123 87//123
f 88//124 87//124 81//124
f 80//125 88//125 81//125
f 86//126 82//126 81//126
f 89//127 86//127 87//127
f 90//128 89//128 87//128
f 91//129 87//129 92//129
f 91//130 90//130 87//130
f 92//131 87//131 88//131
f 93//132 88//132 80//132
f 93//133 94//133 88//133
f 92//134 88//134 94//134
f 95//135 80//135 83//135
f 93//136 80//136 95//136
f 96//137 83//137 84//137
f 95//138 83//138 96//138
f 96//139 84//139 97//139
f 98//140 84//140 77//140
f 99//141 77//141 75//141
f 100//142 77//142 99//142
f 98//143 77//143 100//143
f 101//144 75//144 19//144
f 102//145 75//145 101//145
f 103//146 99//146 75//146
f 104//147 103//147 75//147
f 102//148 104//148 75//148
f 105//149 106//149 71//149
f 58//150 71//150 106//150
f 72//151 105//151 71//151
f 107//152 106//152 105//152
f 107//153 58//153 106//153
f 108//154 109//154 105//154
f 107//155 105//155 109//155
f 72//156 108//156 105//156
f 108//157 110//157 109//157
f 111//158 109//158 110//158
f 111//159 107//159 109//159
f 112//160 110//160 108//160
f 113//161 111//161 110//161
f 112//162 113//162 110//162
f 72//163 114//163 108//163
f 114//164 115//164 108//164
f 112//165 108//165 115//165
f 114//166 116//166 115//166
f 117//167 115//167 116//167
f 112//168 115//168 118//168
f 117//169 118//169 115//169
f 114//170 119//170 116//170
f 120//171 116//171 119//171
f 120//172 117//172 116//172
f 114//173 121//173 119//173
f 122//174 119//174 121//174
f 123//175 120//175 119//175
f 122//176 123//176 119//176
f 124//177 121//177 31//177
f 125//178 31//178 121//178
f 114//179 125//179 121//179
f 122//180 121//180 126//180
f 127//181 126//181 121//181
f 124//182 127//182 121//182
f 124//183 31//183 128//183
f 30//184 128//184 31//184
f 125//185 32//185 31//185
f 129//186 72//186 74//186
f 129//187 114//187 72//187
f 130//188 52//188 51//188
f 130//189 131//189 52//189
f 49//190 48//190 52//190
f 49//191 52//191 131//191
f 130//192 51//192 73//192
f 70//193 132//193 73//193
f 132//194 130//194 73//194
f 133//195 134//195 132//195
f 135//196 133//196 132//196
f 136//197 135//197 132//197
f 137//198 136//198 132//198
f 138//199 137//199 132//199
f 139//200 138//200 132//200
f 140//201 139//201 132//201
f 141//202 140//202 132//202
f 70//203 141//203 132//203
f 41//204 43//204 134//204
f 133//205 41//205 134//205
f 142//206 132//206 134//206
f 43//207 142//207 134//207
f 133//208 143//208 41//208
f 144//209 41//209 143//209
f 40//210 41//210 144//210
f 145//211 143//211 133//211
f 145//212 146//212 143//212
f 147//213 143//213 146//213
f 144//214 143//214 147//214
f 145//215 133//215 135//215
f 148//216 135//216 136//216
f 146//217 135//217 148//217
f 145//218 135//218 146//218
f 149//219 136//219 137//219
f 148//220 136//220 149//220
f 149//221 137//221 150//221
f 151//222 137//222 138//222
f 150//223 137//223 151//223
f 152//224 138//224 139//224
f 151//225 138//225 152//225
f 153//226 139//226 140//226
f 152//227 139//227 153//227
f 154//228 140//228 141//228
f 153//229 140//229 154//229
f 64//230 141//230 70//230
f 154//231 141//231 64//231
f 155//232 156//232 131//232
f 130//233 155//233 131//233
f 157//234 156//234 155//234
f 157//235 158//235 156//235
f 130//236 159//236 155//236
f 160//237 155//237 159//237
f 161//238 157//238 155//238
f 162//239 161//239 155//239
f 163//240 162//240 155//240
f 164//241 163//241 155//241
f 165//242 164//242 155//242
f 166//243 165//243 155//243
f 160//244 166//244 155//244
f 130//245 167//245 159//245
f 168//246 159//246 167//246
f 168//247 160//247 159//247
f 169//248 167//248 130//248
f 169//249 170//249 167//249
f 169//250 130//250 171//250
f 171//251 130//251 132//251
f 142//252 171//252 132//252
f 23//253 20//253 17//253
f 172//254 74//254 79//254
f 173//255 74//255 172//255
f 173//256 129//256 74//256
f 102//257 101//257 19//257
f 102//258 19//258 20//258
f 23//259 102//259 20//259
f 174//260 49//260 131//260
f 174//261 131//261 156//261
f 50//262 49//262 174//262
f 142//263 175//263 171//263
f 176//264 99//264 103//264
f 172//265 100//265 99//265
f 177//266 172//266 99//266
f 178//267 99//267 176//267
f 177//268 99//268 178//268
f 27//269 103//269 104//269
f 176//270 103//270 27//270
f 27//271 104//271 102//271
f 27//272 102//272 23//272
f 158//273 174//273 156//273
f 158//274 179//274 174//274
f 50//275 174//275 179//275
f 158//276 44//276 179//276
f 46//277 50//277 179//277
f 47//278 46//278 179//278
f 44//279 47//279 179//279
f 45//280 44//280 158//280
f 43//281 158//281 157//281
f 45//282 158//282 43//282
f 180//283 181//283 157//283
f 43//284 157//284 181//284
f 161//285 180//285 157//285
f 182//286 172//286 79//286
f 183//287 182//287 79//287
f 184//288 183//288 79//288
f 185//289 184//289 79//289
f 186//290 185//290 79//290
f 187//291 186//291 79//291
f 85//292 187//292 79//292
f 188//293 100//293 172//293
f 189//294 100//294 188//294
f 189//295 98//295 100//295
f 180//296 190//296 181//296
f 191//297 181//297 190//297
f 192//298 181//298 191//298
f 193//299 43//299 181//299
f 192//300 193//300 181//300
f 191//301 190//301 180//301
f 161//302 194//302 180//302
f 195//303 180//303 194//303
f 191//304 180//304 195//304
f 196//305 194//305 161//305
f 197//306 194//306 196//306
f 195//307 194//307 197//307
f 198//308 161//308 162//308
f 196//309 161//309 198//309
f 198//310 162//310 199//310
f 200//311 162//311 163//311
f 199//312 162//312 200//312
f 201//313 163//313 164//313
f 202//314 163//314 201//314
f 202//315 200//315 163//315
f 201//316 164//316 165//316
f 203//317 165//317 166//317
f 201//318 165//318 203//318
f 204//319 166//319 160//319
f 205//320 166//320 204//320
f 205//321 203//321 166//321
f 204//322 160//322 168//322
f 206//323 188//323 172//323
f 207//324 206//324 172//324
f 182//325 207//325 172//325
f 177//326 173//326 172//326
f 208//327 188//327 206//327
f 208//328 209//328 188//328
f 210//329 188//329 209//329
f 211//330 189//330 188//330
f 212//331 211//331 188//331
f 210//332 212//332 188//332
f 213//333 206//333 207//333
f 213//334 214//334 206//334
f 215//335 206//335 214//335
f 208//336 206//336 215//336
f 216//337 207//337 182//337
f 217//338 207//338 216//338
f 218//339 207//339 217//339
f 213//340 207//340 218//340
f 216//341 182//341 183//341
f 219//342 183//342 184//342
f 216//343 183//343 219//343
f 219//344 184//344 220//344
f 220//345 184//345 185//345
f 221//346 185//346 186//346
f 220//347 185//347 221//347
f 221//348 186//348 187//348
f 222//349 187//349 85//349
f 223//350 187//350 222//350
f 223//351 221//351 187//351
f 222//352 85//352 82//352
f 224//353 82//353 86//353
f 224//354 222//354 82//354
f 225//355 226//355 84//355
f 97//356 84//356 226//356
f 98//357 225//357 84//357
f 227//358 228//358 226//358
f 229//359 226//359 228//359
f 225//360 227//360 226//360
f 97//361 226//361 96//361
f 229//362 96//362 226//362
f 230//363 228//363 95//363
f 230//364 229//364 228//364
f 231//365 94//365 228//365
f 95//366 228//366 94//366
f 227//367 231//367 228//367
f 93//368 95//368 94//368
f 232//369 92//369 94//369
f 231//370 232//370 94//370
f 233//371 91//371 92//371
f 232//372 233//372 92//372
f 233//373 234//373 91//373
f 233//374 235//374 234//374
f 236//375 237//375 234//375
f 235//376 236//376 234//376
f 236//377 238//377 237//377
f 236//378 239//378 238//378
f 239//379 240//379 238//379
f 241//380 242//380 240//380
f 239//381 241//381 240//381
f 243//382 244//382 242//382
f 241//383 243//383 242//383
f 211//384 232//384 231//384
f 211//385 231//385 245//385
f 246//386 231//386 227//386
f 245//387 231//387 246//387
f 247//388 227//388 225//388
f 246//389 227//389 247//389
f 248//390 225//390 98//390
f 247//391 225//391 248//391
f 230//392 95//392 96//392
f 230//393 96//393 229//393
f 249//394 86//394 89//394
f 249//395 224//395 86//395
f 250//396 168//396 167//396
f 204//397 168//397 250//397
f 251//398 249//398 89//398
f 90//399 251//399 89//399
f 250//400 167//400 170//400
f 252//401 170//401 169//401
f 252//402 253//402 170//402
f 254//403 250//403 170//403
f 254//404 170//404 253//404
f 255//405 204//405 250//405
f 171//406 252//406 169//406
f 256//407 249//407 251//407
f 257//408 249//408 256//408
f 258//409 253//409 252//409
f 258//410 259//410 253//410
f 260//411 254//411 253//411
f 260//412 253//412 259//412
f 261//413 254//413 260//413
f 262//414 250//414 254//414
f 261//415 262//415 254//415
f 171//416 258//416 252//416
f 257//417 256//417 251//417
f 263//418 251//418 90//418
f 263//419 257//419 251//419
f 234//420 90//420 91//420
f 234//421 263//421 90//421
f 264//422 259//422 258//422
f 260//423 259//423 264//423
f 265//424 264//424 258//424
f 171//425 265//425 258//425
f 266//426 257//426 263//426
f 266//427 267//427 257//427
f 268//428 249//428 257//428
f 267//429 268//429 257//429
f 237//430 263//430 234//430
f 237//431 266//431 263//431
f 269//432 260//432 264//432
f 270//433 260//433 269//433
f 270//434 271//434 260//434
f 272//435 265//435 171//435
f 175//436 273//436 171//436
f 272//437 269//437 264//437
f 272//438 264//438 265//438
f 274//439 270//439 269//439
f 274//440 269//440 272//440
f 275//441 272//441 171//441
f 275//442 274//442 272//442
f 276//443 54//443 58//443
f 276//444 277//444 54//444
f 57//445 54//445 277//445
f 57//446 278//446 63//446
f 66//447 63//447 278//447
f 57//448 279//448 278//448
f 280//449 66//449 278//449
f 281//450 280//450 278//450
f 282//451 283//451 278//451
f 284//452 278//452 283//452
f 279//453 282//453 278//453
f 284//454 281//454 278//454
f 285//455 284//455 283//455
f 282//456 286//456 283//456
f 287//457 285//457 283//457
f 288//458 287//458 283//458
f 286//459 289//459 283//459
f 288//460 283//460 289//460
f 290//461 291//461 289//461
f 292//462 290//462 289//462
f 286//463 292//463 289//463
f 293//464 288//464 289//464
f 291//465 293//465 289//465
f 292//466 294//466 290//466
f 291//467 290//467 294//467
f 295//468 292//468 296//468
f 294//469 292//469 295//469
f 296//470 292//470 286//470
f 297//471 296//471 286//471
f 298//472 286//472 282//472
f 299//473 286//473 298//473
f 127//474 286//474 299//474
f 298//475 282//475 300//475
f 301//476 282//476 279//476
f 302//477 282//477 301//477
f 300//478 282//478 302//478
f 57//479 277//479 279//479
f 301//480 279//480 277//480
f 153//481 64//481 66//481
f 107//482 276//482 58//482
f 154//483 64//483 153//483
f 173//484 114//484 129//484
f 125//485 114//485 173//485
f 303//486 142//486 43//486
f 125//487 173//487 177//487
f 26//488 176//488 27//488
f 275//489 171//489 304//489
f 273//490 304//490 171//490
f 305//491 275//491 304//491
f 306//492 305//492 304//492
f 307//493 306//493 304//493
f 308//494 304//494 273//494
f 308//495 307//495 304//495
f 309//496 308//496 273//496
f 310//497 273//497 175//497
f 311//498 309//498 273//498
f 311//499 273//499 310//499
f 310//500 175//500 312//500
f 313//501 175//501 142//501
f 312//502 175//502 313//502
f 313//503 142//503 303//503
f 223//504 222//504 224//504
f 255//505 205//505 204//505
f 314//506 203//506 205//506
f 202//507 201//507 203//507
f 314//508 202//508 203//508
f 315//509 205//509 255//509
f 315//510 314//510 205//510
f 268//511 224//511 249//511
f 316//512 223//512 224//512
f 317//513 316//513 224//513
f 318//514 317//514 224//514
f 319//515 318//515 224//515
f 268//516 319//516 224//516
f 320//517 255//517 250//517
f 321//518 255//518 320//518
f 321//519 315//519 255//519
f 316//520 322//520 223//520
f 322//521 323//521 223//521
f 322//522 324//522 323//522
f 220//523 323//523 324//523
f 322//524 325//524 324//524
f 219//525 220//525 324//525
f 325//526 326//526 324//526
f 216//527 219//527 324//527
f 217//528 216//528 324//528
f 327//529 214//529 324//529
f 217//530 324//530 214//530
f 326//531 327//531 324//531
f 327//532 209//532 214//532
f 215//533 214//533 209//533
f 218//534 217//534 214//534
f 213//535 218//535 214//535
f 328//536 329//536 209//536
f 327//537 328//537 209//537
f 208//538 215//538 209//538
f 329//539 210//539 209//539
f 330//540 328//540 327//540
f 331//541 328//541 330//541
f 332//542 333//542 327//542
f 334//543 332//543 327//543
f 335//544 334//544 327//544
f 326//545 335//545 327//545
f 330//546 327//546 333//546
f 336//547 333//547 332//547
f 337//548 333//548 338//548
f 336//549 338//549 333//549
f 339//550 332//550 334//550
f 336//551 332//551 339//551
f 340//552 334//552 335//552
f 339//553 334//553 340//553
f 341//554 335//554 326//554
f 341//555 340//555 335//555
f 341//556 326//556 325//556
f 341//557 325//557 322//557
f 342//558 322//558 316//558
f 341//559 322//559 342//559
f 343//560 316//560 317//560
f 342//561 316//561 343//561
f 344//562 317//562 318//562
f 344//563 343//563 317//563
f 345//564 318//564 319//564
f 345//565 344//565 318//565
f 346//566 347//566 319//566
f 345//567 319//567 347//567
f 268//568 346//568 319//568
f 346//569 337//569 347//569
f 337//570 338//570 347//570
f 348//571 347//571 338//571
f 348//572 345//572 347//572
f 336//573 348//573 338//573
f 349//574 337//574 346//574
f 346//575 268//575 350//575
f 350//576 268//576 267//576
f 351//577 320//577 262//577
f 351//578 321//578 320//578
f 262//579 320//579 250//579
f 352//580 262//580 261//580
f 352//581 351//581 262//581
f 260//582 271//582 261//582
f 353//583 261//583 271//583
f 353//584 352//584 261//584
f 354//585 271//585 270//585
f 354//586 353//586 271//586
f 350//587 267//587 266//587
f 355//588 270//588 274//588
f 355//589 354//589 270//589
f 238//590 356//590 266//590
f 238//591 266//591 237//591
f 350//592 266//592 356//592
f 305//593 274//593 275//593
f 305//594 357//594 274//594
f 357//595 355//595 274//595
f 111//596 277//596 276//596
f 358//597 277//597 111//597
f 358//598 301//598 277//598
f 152//599 153//599 66//599
f 152//600 66//600 280//600
f 151//601 152//601 280//601
f 151//602 280//602 281//602
f 111//603 276//603 107//603
f 113//604 358//604 111//604
f 323//605 221//605 223//605
f 220//606 221//606 323//606
f 359//607 314//607 315//607
f 360//608 321//608 351//608
f 361//609 315//609 321//609
f 362//610 361//610 321//610
f 363//611 362//611 321//611
f 360//612 363//612 321//612
f 364//613 351//613 352//613
f 364//614 360//614 351//614
f 353//615 364//615 352//615
f 359//616 315//616 361//616
f 362//617 365//617 361//617
f 359//618 361//618 365//618
f 366//619 365//619 362//619
f 359//620 365//620 202//620
f 199//621 202//621 365//621
f 366//622 199//622 365//622
f 366//623 362//623 363//623
f 367//624 363//624 360//624
f 368//625 197//625 363//625
f 366//626 363//626 197//626
f 367//627 368//627 363//627
f 364//628 369//628 360//628
f 367//629 360//629 369//629
f 370//630 369//630 364//630
f 370//631 371//631 369//631
f 367//632 369//632 371//632
f 372//633 373//633 364//633
f 374//634 364//634 373//634
f 375//635 372//635 364//635
f 353//636 375//636 364//636
f 374//637 370//637 364//637
f 376//638 373//638 372//638
f 377//639 373//639 376//639
f 377//640 374//640 373//640
f 375//641 378//641 372//641
f 379//642 372//642 378//642
f 376//643 372//643 379//643
f 380//644 378//644 375//644
f 381//645 378//645 380//645
f 382//646 378//646 381//646
f 382//647 379//647 378//647
f 380//648 375//648 353//648
f 380//649 353//649 354//649
f 355//650 380//650 354//650
f 383//651 355//651 357//651
f 240//652 384//652 356//652
f 240//653 356//653 238//653
f 350//654 356//654 384//654
f 242//655 384//655 240//655
f 385//656 346//656 350//656
f 384//657 385//657 350//657
f 306//658 357//658 305//658
f 306//659 383//659 357//659
f 302//660 301//660 358//660
f 150//661 151//661 281//661
f 386//662 358//662 113//662
f 386//663 302//663 358//663
f 386//664 113//664 387//664
f 118//665 387//665 113//665
f 112//666 118//666 113//666
f 199//667 200//667 202//667
f 359//668 202//668 314//668
f 348//669 343//669 344//669
f 343//670 340//670 342//670
f 341//671 342//671 340//671
f 348//672 344//672 345//672
f 381//673 380//673 355//673
f 388//674 355//674 383//674
f 388//675 381//675 355//675
f 389//676 385//676 384//676
f 349//677 346//677 385//677
f 244//678 384//678 242//678
f 244//679 389//679 384//679
f 307//680 383//680 306//680
f 307//681 390//681 383//681
f 388//682 383//682 390//682
f 391//683 300//683 302//683
f 149//684 150//684 281//684
f 149//685 281//685 284//685
f 392//686 302//686 386//686
f 391//687 302//687 392//687
f 393//688 394//688 395//689
f 396//690 395//691 387//690
f 386//692 387//692 395//693
f 394//694 386//694 395//695
f 397//696 395//697 396//696
f 397//698 393//698 395//699
f 398//700 396//700 387//700
f 392//701 386//701 394//701
f 399//702 392//702 394//702
f 399//703 394//703 393//703
f 400//704 396//704 398//704
f 400//705 397//705 396//705
f 118//706 398//706 387//706
f 399//707 391//707 392//707
f 117//708 398//708 118//708
f 117//709 400//709 398//709
f 366//710 198//710 199//710
f 339//711 340//711 343//711
f 339//712 343//712 348//712
f 336//713 339//713 348//713
f 401//714 381//714 388//714
f 401//715 382//715 381//715
f 402//716 349//716 385//716
f 402//717 385//717 389//717
f 243//718 389//718 244//718
f 243//719 402//719 389//719
f 401//720 388//720 390//720
f 308//721 390//721 307//721
f 308//722 401//722 390//722
f 298//723 300//723 391//723
f 148//724 149//724 284//724
f 148//725 284//725 285//725
f 117//726 391//726 399//726
f 120//727 391//727 117//727
f 120//728 298//728 391//728
f 400//729 393//729 397//729
f 399//730 393//730 400//730
f 117//731 399//731 400//731
f 197//732 196//732 198//732
f 197//733 198//733 366//733
f 403//734 376//734 379//734
f 403//735 377//735 376//735
f 404//736 382//736 401//736
f 404//737 379//737 382//737
f 337//738 349//738 402//738
f 405//739 337//739 402//739
f 241//740 402//740 243//740
f 241//741 405//741 402//741
f 308//742 404//742 401//742
f 287//743 148//743 285//743
f 123//744 298//744 120//744
f 123//745 299//745 298//745
f 146//746 148//746 287//746
f 406//747 195//747 197//747
f 368//748 406//748 197//748
f 407//749 379//749 404//749
f 407//750 403//750 379//750
f 333//751 337//751 405//751
f 239//752 405//752 241//752
f 309//753 404//753 308//753
f 309//754 407//754 404//754
f 147//755 287//755 288//755
f 127//756 299//756 126//756
f 123//757 126//757 299//757
f 147//758 146//758 287//758
f 122//759 126//759 123//759
f 191//760 195//760 406//760
f 408//761 406//761 368//761
f 408//762 191//762 406//762
f 367//763 408//763 368//763
f 409//764 371//764 370//764
f 410//765 408//765 371//765
f 367//766 371//766 408//766
f 409//767 410//767 371//767
f 411//768 370//768 412//768
f 411//769 409//769 370//769
f 412//770 370//770 374//770
f 377//771 412//771 374//771
f 413//772 377//772 403//772
f 414//773 333//773 405//773
f 414//774 330//774 333//774
f 413//775 403//775 407//775
f 236//776 405//776 239//776
f 236//777 414//777 405//777
f 311//778 407//778 309//778
f 311//779 413//779 407//779
f 127//780 297//780 286//780
f 147//781 288//781 293//781
f 128//782 297//782 127//782
f 415//783 147//783 293//783
f 124//784 128//784 127//784
f 40//785 144//785 147//785
f 40//786 147//786 415//786
f 32//787 176//787 26//787
f 178//788 176//788 32//788
f 44//789 42//789 47//789
f 189//790 247//790 248//790
f 189//791 248//791 98//791
f 211//792 246//792 247//792
f 211//793 247//793 189//793
f 211//794 245//794 246//794
f 192//795 191//795 408//795
f 416//796 192//796 408//796
f 410//797 416//797 408//797
f 417//798 412//798 377//798
f 417//799 411//799 412//799
f 417//800 377//800 413//800
f 311//801 417//801 413//801
f 310//802 417//802 311//802
f 297//803 418//803 296//803
f 295//804 296//804 418//804
f 419//805 295//805 418//805
f 420//806 291//806 294//806
f 128//807 418//807 297//807
f 415//808 291//808 420//808
f 415//809 293//809 291//809
f 30//810 418//810 128//810
f 421//811 419//811 418//811
f 421//812 418//812 30//812
f 35//813 419//813 421//813
f 39//814 415//814 420//814
f 40//815 415//815 39//815
f 422//816 39//816 420//816
f 38//817 422//817 420//817
f 35//818 421//818 30//818
f 38//819 39//819 422//819
f 125//820 178//820 32//820
f 125//821 177//821 178//821
f 232//822 211//822 212//822
f 233//823 232//823 212//823
f 193//824 303//824 43//824
f 313//825 303//825 193//825
f 416//826 193//826 192//826
f 313//827 193//827 416//827
f 329//828 212//828 210//828
f 313//829 416//829 410//829
f 331//830 212//830 329//830
f 423//831 212//831 331//831
f 328//832 331//832 329//832
f 233//833 212//833 423//833
f 312//834 313//834 410//834
f 312//835 410//835 409//835
f 235//836 233//836 423//836
f 312//837 409//837 411//837
f 414//838 423//838 331//838
f 330//839 414//839 331//839
f 236//840 235//840 423//840
f 236//841 423//841 414//841
f 310//842 312//842 411//842
f 310//843 411//843 417//843
f 294//844 295//844 424//844
f 420//845 294//845 424//845
f 419//846 424//846 295//846
f 37//847 424//847 419//847
f 38//848 420//848 424//848
f 38//849 424//849 37//849
f 35//850 37//850 419//850
